<?xml version="1.0" encoding="UTF-8"?>
<svg id="Layer_1" data-name="Layer 1" xmlns="http://www.w3.org/2000/svg" viewBox="0 0 48.71 44.41">
  <defs>
    <style>
      .cls-1 {
        fill: #231f20;
        stroke-width: 0px;
      }
    </style>
  </defs>
  <path class="cls-1" d="M11.22,18.65c-.55,0-.99-.26-1.34-.77-.35-.51-.52-1.21-.52-2.11,0-.81.11-1.62.34-2.41.23-.79.54-1.51.95-2.14.41-.63.89-1.14,1.45-1.53s1.18-.58,1.85-.58c.42,0,.79.16,1.09.49.3.33.46.77.46,1.33v.25s0,.06-.01.09l-1.7.46c-.1-.22-.23-.32-.36-.32-.21,0-.43.17-.66.51-.23.34-.45.74-.66,1.21-.14.31-.26.63-.37.96-.11.33-.19.64-.25.92-.06.29-.09.52-.09.7,0,.27.04.46.12.58.06.11.16.17.29.17s.27-.06.43-.19c.16-.13.3-.28.44-.47.13-.19.22-.38.27-.57l1.48.6c-.42.97-.93,1.68-1.51,2.14-.58.46-1.14.68-1.67.68Z"/>
  <path class="cls-1" d="M16.46,18.68c-.57,0-1.04-.22-1.4-.66-.36-.44-.55-1.11-.55-2,0-.49.06-1.01.18-1.56.12-.55.29-1.08.51-1.61.22-.53.47-1.02.75-1.47.46-.73.99-1.32,1.59-1.78.6-.46,1.23-.69,1.88-.69.52,0,.92.13,1.2.4.28.26.48.6.59,1.01s.17.84.17,1.28c0,1.03-.16,1.99-.47,2.88-.32.89-.73,1.64-1.23,2.26-.5.63-1.04,1.12-1.61,1.45-.57.33-1.11.5-1.62.5ZM17.16,16.54c.39,0,.73-.13,1.03-.39.3-.26.55-.59.76-.99s.36-.83.47-1.27.16-.84.16-1.2c0-.14-.01-.29-.04-.45-.03-.16-.08-.3-.17-.42-.09-.12-.22-.18-.4-.18-.4,0-.76.15-1.08.44-.32.29-.59.66-.81,1.1-.22.45-.38.89-.48,1.33-.1.43-.16.83-.16,1.18,0,.18.06.37.2.57.13.2.3.29.52.29Z"/>
  <path class="cls-1" d="M20.57,18.64c.12-.42.24-.89.35-1.42.11-.53.22-1.08.32-1.63.1-.55.19-1.07.28-1.55.09-.48.16-.87.21-1.18.1-.58.19-1.17.28-1.76.09-.59.18-1.2.27-1.81l4.35-.22-.38,1.6h-2.04l-.4,2.31c.14,0,.27-.01.4-.01h1.25c.08,0,.15,0,.21-.01,0,.12-.02.24-.04.36-.02.12-.03.24-.05.36l-.12.7c-.18,0-.44,0-.79-.02-.34-.01-.7-.02-1.09-.03l-.6,3.83c-.15.03-.29.05-.44.08-.14.03-.29.06-.44.09-.24.04-.51.1-.79.16-.29.06-.54.12-.75.17Z"/>
  <path class="cls-1" d="M25,18.64c.12-.42.24-.89.35-1.42.11-.53.22-1.08.32-1.63.1-.55.19-1.07.28-1.55.09-.48.16-.87.21-1.18.1-.58.19-1.17.28-1.76.09-.59.18-1.2.27-1.81l4.35-.22-.38,1.6h-2.04l-.4,2.31c.14,0,.27-.01.4-.01h1.25c.08,0,.15,0,.21-.01,0,.12-.02.24-.04.36-.02.12-.03.24-.05.36l-.12.7c-.18,0-.44,0-.79-.02-.34-.01-.7-.02-1.09-.03l-.6,3.83c-.15.03-.29.05-.44.08-.14.03-.29.06-.44.09-.24.04-.51.1-.79.16-.29.06-.54.12-.75.17Z"/>
  <path class="cls-1" d="M29.48,18.64l1.7-9.24,4.11-.35c-.06.19-.11.39-.16.58-.04.17-.08.34-.12.51-.04.18-.07.34-.1.47-.11,0-.27.02-.48.02s-.42,0-.64.01-.4,0-.56,0h-.25l-.45,2.33.75-.04c.1,0,.19-.01.29-.01h.55c.08,0,.14,0,.18-.01-.02.12-.03.24-.05.36-.01.12-.03.24-.05.36l-.12.72s-.1.01-.17.01h-.25c-.1,0-.19.01-.3.01s-.2,0-.3.01c-.11,0-.23.01-.35.01s-.25,0-.39.01l-.44,2.39,1.9-.3-.13,1.48-4.2.65Z"/>
  <path class="cls-1" d="M33.92,18.64l1.7-9.24,4.11-.35c-.06.19-.11.39-.16.58-.04.17-.08.34-.12.51-.04.18-.07.34-.1.47-.11,0-.27.02-.48.02s-.42,0-.64.01-.4,0-.56,0h-.25l-.45,2.33.75-.04c.1,0,.19-.01.29-.01h.55c.08,0,.14,0,.18-.01-.02.12-.03.24-.05.36-.01.12-.03.24-.05.36l-.12.72s-.1.01-.17.01h-.25c-.1,0-.19.01-.3.01s-.2,0-.3.01c-.11,0-.23.01-.35.01s-.25,0-.39.01l-.44,2.39,1.9-.3-.13,1.48-4.2.65Z"/>
  <path class="cls-1" d="M14.27,27.65c-.35,0-.64-.16-.86-.49-.22-.33-.34-.78-.34-1.36,0-.53.07-1.04.22-1.56.15-.51.35-.97.61-1.38.26-.41.57-.74.94-.99s.76-.37,1.2-.37c.27,0,.51.11.7.32s.29.5.29.86v.16s0,.04,0,.06l-1.1.29c-.07-.14-.15-.21-.23-.21-.13,0-.28.11-.42.33-.15.22-.29.48-.42.78-.09.2-.17.41-.24.62-.07.21-.12.41-.16.6s-.06.34-.06.45c0,.17.02.3.08.38.04.07.1.11.18.11s.18-.04.28-.12c.1-.08.19-.18.28-.31s.14-.25.17-.37l.96.39c-.27.63-.6,1.09-.98,1.38-.38.29-.74.44-1.08.44Z"/>
  <path class="cls-1" d="M16.31,27.65c.06-.44.13-.89.2-1.33.07-.45.14-.88.22-1.3.08-.42.15-.79.21-1.13.07-.36.15-.73.22-1.11.07-.37.15-.75.23-1.13l1.47-.19-.44,1.9c-.08.33-.16.68-.24,1.06s-.15.74-.22,1.1c-.07.35-.12.67-.16.94.14-.01.29-.02.45-.02.16,0,.3,0,.42,0,0,.13.02.26.03.41.02.14.04.27.05.37s.03.16.03.17h-.06s-.04,0-.06,0h-.13c-.22,0-.46,0-.73.03-.27.02-.53.05-.79.09s-.49.1-.7.16Z"/>
  <path class="cls-1" d="M18.7,27.62c.1-.33.19-.71.28-1.12s.18-.85.27-1.29c.09-.44.17-.85.25-1.25.07-.36.14-.72.21-1.09.07-.37.13-.74.2-1.12l1.31-.21c-.07.38-.15.75-.22,1.11s-.15.73-.22,1.09c-.08.39-.16.81-.24,1.24-.08.44-.17.87-.24,1.29-.08.42-.15.82-.22,1.18-.1,0-.23,0-.38.02-.15.01-.3.03-.45.05-.15.02-.28.04-.38.05s-.16.03-.16.03Z"/>
  <path class="cls-1" d="M21.95,27.65c-.35,0-.64-.16-.86-.49-.22-.33-.34-.78-.34-1.36,0-.53.07-1.04.22-1.56.15-.51.35-.97.61-1.38.26-.41.57-.74.94-.99s.76-.37,1.2-.37c.27,0,.51.11.7.32s.29.5.29.86v.16s0,.04,0,.06l-1.1.29c-.07-.14-.15-.21-.23-.21-.13,0-.28.11-.42.33-.15.22-.29.48-.42.78-.09.2-.17.41-.24.62-.07.21-.12.41-.16.6s-.06.34-.06.45c0,.17.02.3.08.38.04.07.1.11.18.11s.18-.04.28-.12c.1-.08.19-.18.28-.31s.14-.25.17-.37l.96.39c-.27.63-.6,1.09-.98,1.38-.38.29-.74.44-1.08.44Z"/>
  <path class="cls-1" d="M23.96,27.64c.08-.39.17-.78.24-1.16.08-.38.15-.76.23-1.12.12-.67.23-1.32.34-1.98.11-.65.19-1.27.24-1.87l.44.03c.08,0,.16.01.23.02.08,0,.15.01.22.02.08,0,.17,0,.25.01.08,0,.17,0,.25,0-.01.04-.03.13-.05.27-.02.13-.05.27-.08.41-.02.14-.04.23-.05.28l-.15.83h.05c.16-.26.35-.55.56-.88.21-.33.41-.65.6-.95.28-.02.56-.05.84-.08.28-.03.56-.06.84-.11-.13.17-.26.35-.39.52-.13.17-.25.35-.38.52-.13.18-.27.37-.42.59-.15.21-.3.42-.43.62-.14.2-.25.38-.34.52.06.28.13.56.2.83s.15.54.23.81c.08.26.17.53.25.8s.17.54.26.81c-.13,0-.26,0-.39-.01s-.27,0-.39,0c-.16,0-.32,0-.47,0s-.31,0-.47.01c-.02-.18-.05-.37-.08-.56s-.06-.39-.08-.59c-.03-.2-.06-.39-.08-.58-.03-.19-.06-.38-.08-.56l-.15.18c-.04.16-.08.37-.13.62-.02.12-.05.24-.07.37-.03.12-.05.24-.07.35-.02.13-.05.27-.08.41-.03.14-.06.28-.08.42l-1.36.2Z"/>
  <path class="cls-1" d="M27.84,27.64l1.1-5.97,2.65-.23c-.04.12-.07.25-.1.38-.03.11-.05.22-.08.33s-.05.22-.06.31c-.07,0-.18,0-.31.01s-.27,0-.41,0c-.14,0-.26,0-.36,0h-.16l-.29,1.5.49-.02c.06,0,.12,0,.19,0h.36c.05,0,.09,0,.12,0-.01.08-.02.15-.03.23,0,.08-.02.15-.03.23l-.08.46s-.06,0-.11,0h-.16c-.06,0-.13,0-.19,0s-.13,0-.19,0c-.07,0-.15,0-.23,0s-.16,0-.25,0l-.29,1.54,1.23-.19-.08.96-2.71.42Z"/>
  <path class="cls-1" d="M30.67,27.64l.44-2.18c.07-.4.14-.82.22-1.24.08-.42.15-.84.22-1.26s.12-.8.16-1.17c.32-.1.66-.17,1.03-.22.37-.05.74-.07,1.1-.07.42,0,.71.09.87.28s.23.43.23.75c0,.29-.07.57-.2.86s-.31.55-.52.78c-.22.23-.45.42-.71.55.1.22.21.47.32.73s.22.52.32.76c.06.14.11.28.17.42s.12.28.17.42l-1.3.45c-.06-.2-.11-.38-.16-.56-.05-.18-.1-.36-.14-.53-.06-.21-.11-.41-.16-.6-.05-.19-.09-.37-.13-.52-.04-.15-.06-.26-.06-.32l-.11.03c-.03.18-.07.4-.12.65s-.09.51-.13.75l-.15.88-1.36.35ZM32.64,24c.1-.01.23-.05.37-.13.15-.08.3-.17.44-.28.15-.11.27-.23.37-.34.1-.12.15-.22.15-.31,0-.11-.07-.19-.2-.22-.13-.04-.3-.05-.52-.05h-.18s-.06,0-.09,0h-.08l-.27,1.33Z"/>
  <path class="cls-1" d="M9.44,34.69c.03-.3.06-.59.08-.88.02-.29.05-.58.07-.86.05-.51.08-1.02.11-1.52s.04-.96.05-1.4c.33,0,.66-.01.99-.04-.02.24-.04.47-.06.67s-.04.38-.06.53l-.08.77c-.02.23-.04.43-.05.59-.01.16-.03.31-.04.44-.01.14-.03.28-.05.44h.11l.71-3.36.35-.02c.05,0,.11,0,.16,0,.05,0,.11,0,.17,0,.06,0,.11,0,.17-.01.05,0,.1,0,.15-.01-.08.25-.16.53-.24.83-.08.31-.16.63-.25.96-.08.33-.17.65-.25.97-.07.27-.13.54-.2.83-.07.28-.14.56-.2.85l-1.64.25Z"/>
  <path class="cls-1" d="M11.51,34.64l.83-4.5,2-.17c-.03.09-.06.19-.08.28-.02.08-.04.16-.06.25s-.03.16-.05.23c-.05,0-.13,0-.23,0-.1,0-.2,0-.31,0-.11,0-.2,0-.27,0h-.12l-.22,1.13.37-.02s.09,0,.14,0h.27s.07,0,.09,0c0,.06-.02.12-.02.17,0,.06-.01.11-.02.17l-.06.35s-.05,0-.08,0h-.12s-.09,0-.15,0-.1,0-.15,0c-.06,0-.11,0-.17,0s-.12,0-.19,0l-.21,1.16.92-.15-.06.72-2.04.32Z"/>
  <path class="cls-1" d="M13.65,34.64l.33-1.64c.05-.3.11-.62.16-.94.06-.32.11-.64.17-.95s.09-.6.12-.88c.24-.08.5-.13.78-.17.28-.04.55-.05.83-.05.32,0,.54.07.65.21.12.14.17.33.17.56,0,.21-.05.43-.15.65-.1.22-.23.41-.4.59-.16.17-.34.31-.53.41.08.17.16.35.24.55.09.2.17.39.24.57.04.11.09.21.13.32.04.11.09.21.13.32l-.98.34c-.04-.15-.08-.29-.12-.42-.04-.13-.07-.27-.11-.4-.04-.16-.08-.31-.12-.45-.04-.15-.07-.28-.1-.39-.03-.11-.04-.19-.05-.24l-.08.03c-.03.13-.06.3-.09.49s-.07.38-.1.56l-.11.66-1.02.27ZM15.13,31.89c.08,0,.17-.04.28-.1.11-.06.22-.13.34-.21.11-.08.21-.17.28-.26.08-.09.11-.17.11-.23,0-.08-.05-.14-.15-.17s-.23-.04-.39-.04h-.14s-.05,0-.07,0h-.06l-.2,1.01Z"/>
  <path class="cls-1" d="M17.45,34.64c-.17,0-.34-.05-.51-.14-.17-.09-.33-.23-.49-.43l.47-.92c.05.08.11.16.21.23.09.07.19.13.29.17s.19.06.26.06c.11,0,.21-.03.31-.1.1-.07.15-.16.15-.27,0-.15-.07-.28-.2-.4-.13-.12-.29-.24-.46-.36-.16-.12-.32-.25-.45-.4-.14-.15-.21-.32-.21-.52,0-.22.06-.42.19-.61s.29-.35.49-.49c.2-.14.42-.25.65-.33s.45-.12.65-.12c.15,0,.28.02.41.07.13.05.23.13.3.24.08.11.11.26.11.44,0,.03,0,.06,0,.09,0,.03,0,.06,0,.09,0,.03,0,.06-.02.09,0,.03-.01.06-.02.1l-.92.27s.02-.07.02-.1,0-.07,0-.1c0-.13-.02-.22-.07-.28-.04-.06-.1-.09-.17-.09-.04,0-.09.02-.16.06-.07.04-.14.1-.19.16-.06.07-.09.15-.09.23,0,.14.06.25.17.34.12.09.25.18.4.27.07.04.15.11.24.2.09.09.17.21.23.37.07.15.1.35.1.59,0,.31-.08.59-.23.82-.15.24-.36.42-.62.55-.26.13-.55.2-.87.2Z"/>
  <path class="cls-1" d="M19.05,34.62c.07-.25.14-.53.21-.85.07-.32.14-.64.2-.97.06-.33.13-.64.19-.94.05-.27.11-.54.16-.82.05-.28.1-.56.15-.84l.99-.16c-.05.28-.11.56-.16.84-.05.28-.11.55-.16.83-.06.29-.12.61-.18.94-.06.33-.12.65-.18.97s-.11.61-.16.89c-.08,0-.17,0-.28.02-.11.01-.23.02-.34.04s-.21.03-.29.04-.12.02-.12.03Z"/>
  <path class="cls-1" d="M21.49,34.65c-.28,0-.51-.11-.68-.32-.18-.21-.27-.54-.27-.97,0-.24.03-.49.09-.76s.14-.53.25-.78.23-.5.37-.71c.22-.35.48-.64.77-.87.29-.22.6-.34.92-.34.25,0,.45.06.58.19.14.13.23.29.29.49s.08.41.08.62c0,.5-.08.97-.23,1.4s-.35.8-.6,1.1c-.24.31-.5.54-.78.71-.28.16-.54.24-.79.24ZM21.84,33.61c.19,0,.36-.06.5-.19s.27-.29.37-.48c.1-.2.18-.4.23-.62.05-.21.08-.41.08-.58,0-.07,0-.14-.02-.22s-.04-.15-.08-.21c-.04-.06-.11-.09-.2-.09-.19,0-.37.07-.52.21-.16.14-.29.32-.39.53-.11.22-.18.43-.23.65s-.08.4-.08.58c0,.09.03.18.09.27.06.09.15.14.25.14Z"/>
  <path class="cls-1" d="M23.51,34.66c.06-.3.12-.59.17-.88.06-.29.11-.57.17-.86.06-.33.12-.66.18-1s.12-.67.17-.99c.05-.32.09-.62.12-.89.07,0,.13,0,.2-.01.06,0,.12,0,.18-.01.05,0,.11,0,.17-.01.06,0,.11,0,.17-.01l.3-.02c.03.16.06.32.08.47.02.16.05.31.07.46.02.1.04.22.06.35.02.14.05.27.07.41.02.14.05.27.07.4.02.12.04.22.06.3.04-.22.08-.41.1-.55.03-.15.05-.29.08-.42.03-.14.06-.3.1-.48l.2-.92.77-.1c-.07.32-.14.62-.2.92-.06.3-.12.59-.18.87-.11.51-.2.99-.28,1.43-.08.44-.14.83-.18,1.17l-1.03.24-.1-.97c0-.1-.02-.21-.04-.35-.02-.14-.03-.28-.05-.42-.02-.15-.03-.28-.05-.4-.02-.12-.03-.21-.04-.27-.04.25-.08.49-.12.72-.04.23-.08.46-.13.68-.03.15-.06.3-.09.46-.03.16-.06.32-.09.48l-.92.22Z"/>
  <path class="cls-1" d="M27.57,34.57l.11-.8c.01-.13.08-.26.19-.41.12-.15.26-.29.43-.44.17-.15.34-.29.51-.41.18-.13.35-.27.51-.39s.29-.24.39-.35c.1-.11.15-.2.15-.28,0-.13-.02-.22-.07-.29-.05-.07-.11-.1-.18-.1-.14,0-.24.05-.3.16s-.09.22-.09.35v.06s0,.02,0,.03c-.06,0-.11,0-.17.01-.06,0-.12.01-.18.02-.05,0-.11,0-.17.01-.06,0-.12.01-.18.02-.07,0-.13.02-.2.02-.06,0-.13.01-.19.02,0-.03,0-.07,0-.1,0-.04,0-.07,0-.1,0-.25.05-.47.14-.67.1-.2.22-.36.38-.5.16-.13.33-.24.53-.31.19-.07.39-.1.58-.1.21,0,.41.05.6.14.18.09.33.23.45.42s.17.42.17.71c0,.21-.06.42-.16.62-.11.2-.26.4-.46.58-.19.19-.42.38-.69.56s-.55.35-.87.52c.19,0,.42,0,.68-.03.26-.02.57-.04.92-.07l-.1.92c-.2.02-.44.03-.74.05-.29.02-.6.04-.91.06l-1.07.08Z"/>
  <path class="cls-1" d="M31.03,34.77c-.13,0-.23-.03-.31-.09s-.14-.14-.18-.23-.06-.18-.06-.28c0-.17.06-.31.17-.44.11-.12.27-.19.46-.19.24,0,.43.06.55.17.12.12.18.25.18.4,0,.17-.07.32-.21.45s-.34.2-.6.2Z"/>
  <path class="cls-1" d="M33.05,34.62c-.26,0-.47-.06-.63-.19-.16-.12-.28-.29-.35-.5-.07-.21-.11-.44-.11-.69,0-.32.05-.68.16-1.06.11-.38.27-.74.48-1.09.2-.32.43-.59.7-.8.26-.21.53-.32.82-.32.21,0,.38.07.52.21.13.14.24.32.3.55.07.23.1.49.1.78,0,.35-.04.71-.13,1.06-.09.35-.21.69-.38,1-.17.31-.38.56-.63.75-.25.19-.53.29-.84.29ZM33.24,33.56c.16,0,.3-.05.43-.15.13-.1.24-.24.33-.4s.16-.34.21-.52c.05-.19.08-.36.08-.52,0-.18-.04-.34-.1-.46s-.18-.19-.33-.19c-.12,0-.24.06-.35.17-.11.12-.22.26-.3.44s-.16.37-.21.57c-.05.2-.08.38-.08.55,0,.16.03.28.08.38.05.1.14.15.25.15Z"/>
  <path class="cls-1" d="M35.24,34.77c-.13,0-.23-.03-.31-.09-.08-.06-.14-.14-.18-.23s-.06-.18-.06-.28c0-.17.06-.31.17-.44.11-.12.27-.19.46-.19.24,0,.43.06.55.17.12.12.18.25.18.4,0,.17-.07.32-.21.45s-.34.2-.6.2ZM35.25,33.17c.07-.26.13-.52.2-.78.06-.26.13-.51.19-.77.06-.26.12-.52.19-.77s.13-.52.2-.77c.24-.04.46-.07.66-.09.2-.03.36-.05.49-.07-.23.53-.44,1.07-.62,1.6-.19.54-.37,1.08-.56,1.62-.12,0-.24,0-.37.01-.12,0-.24.02-.37.03Z"/>
  <path class="cls-1" d="M36.9,34.77c-.13,0-.23-.03-.31-.09-.08-.06-.14-.14-.18-.23s-.06-.18-.06-.28c0-.17.06-.31.17-.44.11-.12.27-.19.46-.19.24,0,.43.06.55.17.12.12.18.25.18.4,0,.17-.07.32-.21.45s-.34.2-.6.2ZM36.91,33.17c.07-.26.13-.52.2-.78.06-.26.13-.51.19-.77.06-.26.12-.52.19-.77s.13-.52.2-.77c.24-.04.46-.07.66-.09.2-.03.36-.05.49-.07-.23.53-.44,1.07-.62,1.6-.19.54-.37,1.08-.56,1.62-.12,0-.24,0-.37.01-.12,0-.24.02-.37.03Z"/>
</svg>