<?xml version="1.0" encoding="UTF-8"?>
<svg id="Layer_1" data-name="Layer 1" xmlns="http://www.w3.org/2000/svg" viewBox="0 0 28.86 59.32">
  <defs>
    <style>
      .cls-1 {
        fill: #000;
        stroke-width: 0px;
      }
    </style>
  </defs>
  <path class="cls-1" d="M5.91,35.76c.1.02.2-.01.27-.08.08-.07.12-.16.11-.26-.16-4.83-.13-10.14.2-10.73.99-.91,1.84-1.5,2.18-1.62.18,1.03.39,6.67.48,10.18,0,.12.07.23.18.29.11.06.24.05.34-.02l.39-.25c.1-.07.16-.18.15-.3-.29-4.65-.44-9.78-.18-10.34.43-.55,1.79-1.59,2.31-1.79.16,1.13.28,6.57.32,9.98,0,.1.05.19.12.26.08.06.18.09.28.07l.68-.14c.16-.03.27-.18.26-.34-.13-3.74-.3-9.81-.21-10.5.25-.34,1.58-1.46,2.08-1.63.23.95.43,5.78.5,10.1,0,.1.05.2.13.26.08.06.19.08.29.06l.35-.09c.09-.02.16-.08.2-.15.03-.05.05-.11.04-.18l-.28-11.3c0-.12-.07-.23-.17-.28-.1-.06-.23-.05-.33,0l-11.33,7c-.1.06-.16.17-.16.29l.09,11.13c0,.16.12.3.28.33l.43.07ZM16.28,17.93l.18-.11v.38c-.05-.18-.11-.23-.18-.27ZM13.33,30.41h0c0-.12,0-.26,0-.43,0,.17.01.32.01.43ZM12.65,20.17l.58-.36s-.03.04-.03.05c-.05.09-.12.2-.09,2.33-.09-1.67-.17-1.78-.25-1.87-.04-.04-.1-.11-.21-.14ZM9.23,22.64c-.06-.1-.14-.17-.25-.21l.75-.46c-.1.1-.18.2-.24.27-.06.07-.13.17-.19.64-.02-.12-.05-.2-.07-.24ZM5.77,24.41l.18-.11c-.06.08-.12.21-.18.5v-.39Z"/>
  <path class="cls-1" d="M6.27,21.78l10.18-6.04s.09-.07.12-.12c.03-.05.05-.12.04-.18l-.28-7.11c0-.12-.07-.23-.18-.28-.1-.06-.23-.05-.33.01l-10.15,6.33c-.1.06-.16.18-.16.29l.25,6.82c0,.12.07.22.17.28.1.06.23.05.33,0ZM15.71,15.4l-8.86,5.25-.08-5.49,8.8-5.72.14,5.96ZM6.19,14.86l8.28-5.16-7.99,5.2c-.06.04-.09.1-.09.17l.08,5.83-.05.03-.22-6.06Z"/>
  <polygon class="cls-1" points="21.89 8.97 20 8.02 20.18 12.47 22.41 13.76 22.25 12.03 23.36 11.36 23.18 9.4 22.3 8.83 21.89 8.97"/>
  <path class="cls-1" d="M20.94,4.15c-1.43-.83-3.27-1.81-3.9-1.72-.8.11-6.78,3.77-6.84,3.8-4.13,2.53-6.38,4.12-6.7,4.74-.14.28-.43.85.07,20.67.24,9.44.55,18.86.57,19.51-.03.38-.11,1.83.75,2.42.3.21,1.86,1.26,3.46,2.25,3.23,2,3.54,1.86,3.83,1.73.31-.14,3.45-2,6.49-3.9,5.53-3.46,6.34-4.3,6.53-4.63.02-.04.04-.08.05-.11.08-.18.21-.48.14-7.1-.04-3.63-.13-8.66-.26-14.16-.02-.83-.48-20.26-.77-20.96-.24-.59-2-1.71-3.43-2.54ZM5.49,52.7c-.27-.19-.35-.98-.3-1.48v-.07c-.5-15.12-1.11-38.06-.74-39.71.24-.31,1.78-1.54,6.24-4.26,3.4-2.08,6-3.51,6.48-3.68.07,0,.16.04.27.07.42,1.6.92,8.31,1.15,20.4.23,11.8,0,19.95-.33,20.72-.65,1.51-8.05,5.75-10.48,7.15-.53.3-.94.54-1.21.7-.32.19-.62.27-.91.29-.06-.04-.12-.08-.17-.12ZM23.37,7.08c.14,1.02.45,10.3.7,20.6.27,11.56.35,19.86.19,20.81-.14.18-1.02,1.04-6.26,4.32-2.8,1.75-5.57,3.4-6.17,3.72-.67-.19-3.21-1.76-5.01-2.94.1-.05.19-.09.29-.15.26-.15.67-.39,1.19-.69,5.08-2.91,9.88-5.82,10.84-7.47.04-.06.07-.12.09-.18.61-1.43.55-13.88.42-21.01-.07-3.95-.35-15.78-1.04-20,1.74.88,4.34,2.47,4.76,2.99Z"/>
</svg>