M48
; DRILL file {KiCad 7.0.7} date Sun May 12 05:58:03 2024
; FORMAT={-:-/ absolute / inch / decimal}
; #@! TF.CreationDate,2024-05-12T05:58:03-05:00
; #@! TF.GenerationSoftware,Kicad,Pcbnew,7.0.7
; #@! TF.FileFunction,Plated,1,2,PTH
FMAT,2
INCH
; #@! TA.AperFunction,Plated,PTH,ViaDrill
T1C0.0157
; #@! TA.AperFunction,Plated,PTH,ComponentDrill
T2C0.0300
; #@! TA.AperFunction,Plated,PTH,ComponentDrill
T3C0.0315
; #@! TA.AperFunction,Plated,PTH,ComponentDrill
T4C0.0394
; #@! TA.AperFunction,Plated,PTH,ComponentDrill
T5C0.0433
%
G90
G05
T1
X6.7104Y-3.1337
X7.8226Y-4.7038
X7.8291Y-5.127
T2
X7.58Y-5.025
X7.58Y-5.105
X7.58Y-5.185
T3
X7.08Y-4.275
X7.08Y-4.3537
T4
X6.965Y-2.75
X6.965Y-2.85
X6.965Y-2.95
X6.965Y-3.05
X6.965Y-3.15
X6.965Y-3.25
X6.965Y-3.35
X6.965Y-3.45
X7.115Y-3.715
X7.215Y-3.715
X7.315Y-3.715
X7.415Y-3.715
X7.565Y-2.75
X7.565Y-2.85
X7.565Y-2.95
X7.565Y-3.05
X7.565Y-3.15
X7.565Y-3.25
X7.565Y-3.35
X7.565Y-3.45
X7.6458Y-5.6553
X7.7442Y-5.6553
X7.795Y-3.06
X7.795Y-3.16
X7.795Y-3.26
T5
X6.7978Y-3.8941
X6.7978Y-4.15
X6.975Y-3.8941
X6.975Y-4.15
X7.175Y-3.8941
X7.175Y-4.15
X7.3522Y-3.8941
X7.3522Y-4.15
X7.55Y-3.8941
X7.55Y-4.15
X7.7272Y-3.8941
X7.7272Y-4.15
T0
M30
