%TF.GenerationSoftware,KiCad,Pcbnew,7.0.7*%
%TF.CreationDate,2024-05-12T05:58:01-05:00*%
%TF.ProjectId,ThinkTankTimerVote,5468696e-6b54-4616-9e6b-54696d657256,rev?*%
%TF.SameCoordinates,Original*%
%TF.FileFunction,Copper,L1,Top*%
%TF.FilePolarity,Positive*%
%FSLAX46Y46*%
G04 Gerber Fmt 4.6, Leading zero omitted, Abs format (unit mm)*
G04 Created by KiCad (PCBNEW 7.0.7) date 2024-05-12 05:58:01*
%MOMM*%
%LPD*%
G01*
G04 APERTURE LIST*
G04 Aperture macros list*
%AMRoundRect*
0 Rectangle with rounded corners*
0 $1 Rounding radius*
0 $2 $3 $4 $5 $6 $7 $8 $9 X,Y pos of 4 corners*
0 Add a 4 corners polygon primitive as box body*
4,1,4,$2,$3,$4,$5,$6,$7,$8,$9,$2,$3,0*
0 Add four circle primitives for the rounded corners*
1,1,$1+$1,$2,$3*
1,1,$1+$1,$4,$5*
1,1,$1+$1,$6,$7*
1,1,$1+$1,$8,$9*
0 Add four rect primitives between the rounded corners*
20,1,$1+$1,$2,$3,$4,$5,0*
20,1,$1+$1,$4,$5,$6,$7,0*
20,1,$1+$1,$6,$7,$8,$9,0*
20,1,$1+$1,$8,$9,$2,$3,0*%
%AMFreePoly0*
4,1,9,3.862500,-0.866500,0.737500,-0.866500,0.737500,-0.450000,-0.737500,-0.450000,-0.737500,0.450000,0.737500,0.450000,0.737500,0.866500,3.862500,0.866500,3.862500,-0.866500,3.862500,-0.866500,$1*%
G04 Aperture macros list end*
%TA.AperFunction,ComponentPad*%
%ADD10C,2.000000*%
%TD*%
%TA.AperFunction,SMDPad,CuDef*%
%ADD11RoundRect,0.140000X-0.140000X-0.170000X0.140000X-0.170000X0.140000X0.170000X-0.140000X0.170000X0*%
%TD*%
%TA.AperFunction,SMDPad,CuDef*%
%ADD12RoundRect,0.150000X-0.587500X-0.150000X0.587500X-0.150000X0.587500X0.150000X-0.587500X0.150000X0*%
%TD*%
%TA.AperFunction,SMDPad,CuDef*%
%ADD13R,0.900000X1.300000*%
%TD*%
%TA.AperFunction,SMDPad,CuDef*%
%ADD14FreePoly0,90.000000*%
%TD*%
%TA.AperFunction,SMDPad,CuDef*%
%ADD15RoundRect,0.135000X-0.135000X-0.185000X0.135000X-0.185000X0.135000X0.185000X-0.135000X0.185000X0*%
%TD*%
%TA.AperFunction,ComponentPad*%
%ADD16R,1.700000X1.700000*%
%TD*%
%TA.AperFunction,ComponentPad*%
%ADD17O,1.700000X1.700000*%
%TD*%
%TA.AperFunction,SMDPad,CuDef*%
%ADD18RoundRect,0.135000X0.185000X-0.135000X0.185000X0.135000X-0.185000X0.135000X-0.185000X-0.135000X0*%
%TD*%
%TA.AperFunction,ComponentPad*%
%ADD19RoundRect,0.381000X-1.119000X-0.381000X1.119000X-0.381000X1.119000X0.381000X-1.119000X0.381000X0*%
%TD*%
%TA.AperFunction,SMDPad,CuDef*%
%ADD20RoundRect,0.150000X-0.512500X-0.150000X0.512500X-0.150000X0.512500X0.150000X-0.512500X0.150000X0*%
%TD*%
%TA.AperFunction,ComponentPad*%
%ADD21R,2.524000X1.524000*%
%TD*%
%TA.AperFunction,ComponentPad*%
%ADD22RoundRect,0.381000X-0.881000X-0.381000X0.881000X-0.381000X0.881000X0.381000X-0.881000X0.381000X0*%
%TD*%
%TA.AperFunction,ComponentPad*%
%ADD23RoundRect,0.250000X0.600000X0.750000X-0.600000X0.750000X-0.600000X-0.750000X0.600000X-0.750000X0*%
%TD*%
%TA.AperFunction,ComponentPad*%
%ADD24O,1.700000X2.000000*%
%TD*%
%TA.AperFunction,SMDPad,CuDef*%
%ADD25RoundRect,0.218750X0.256250X-0.218750X0.256250X0.218750X-0.256250X0.218750X-0.256250X-0.218750X0*%
%TD*%
%TA.AperFunction,ComponentPad*%
%ADD26R,1.350000X1.350000*%
%TD*%
%TA.AperFunction,ComponentPad*%
%ADD27O,1.350000X1.350000*%
%TD*%
%TA.AperFunction,ViaPad*%
%ADD28C,0.800000*%
%TD*%
%TA.AperFunction,Conductor*%
%ADD29C,0.250000*%
%TD*%
G04 APERTURE END LIST*
D10*
%TO.P,SW3,1,1*%
%TO.N,GND*%
X182245000Y-105410000D03*
X182245000Y-98910000D03*
%TO.P,SW3,2,2*%
%TO.N,Middle*%
X186745000Y-105410000D03*
X186745000Y-98910000D03*
%TD*%
D11*
%TO.P,C2,1*%
%TO.N,GND*%
X196271000Y-120396000D03*
%TO.P,C2,2*%
%TO.N,+3V3*%
X197231000Y-120396000D03*
%TD*%
D12*
%TO.P,Q1,1,G*%
%TO.N,Net-(Q1-G)*%
X191800000Y-122113000D03*
%TO.P,Q1,2,S*%
%TO.N,GND*%
X191800000Y-124013000D03*
%TO.P,Q1,3,D*%
%TO.N,Motor-*%
X193675000Y-123063000D03*
%TD*%
D13*
%TO.P,U2,1,GND*%
%TO.N,GND*%
X195858000Y-131490000D03*
D14*
%TO.P,U2,2,VIN*%
%TO.N,VILDO*%
X197358000Y-131402500D03*
D13*
%TO.P,U2,3,VOUT*%
%TO.N,+3V3*%
X198858000Y-131490000D03*
%TD*%
D11*
%TO.P,C1,1*%
%TO.N,GND*%
X198557000Y-120396000D03*
%TO.P,C1,2*%
%TO.N,VILDO*%
X199517000Y-120396000D03*
%TD*%
D15*
%TO.P,R4,1*%
%TO.N,Net-(U3-PROG)*%
X171214000Y-85904000D03*
%TO.P,R4,2*%
%TO.N,GND*%
X172234000Y-85904000D03*
%TD*%
D10*
%TO.P,SW2,1,1*%
%TO.N,GND*%
X172665000Y-105410000D03*
X172665000Y-98910000D03*
%TO.P,SW2,2,2*%
%TO.N,Left*%
X177165000Y-105410000D03*
X177165000Y-98910000D03*
%TD*%
D16*
%TO.P,J4,1,Pin_1*%
%TO.N,GND*%
X188341000Y-94361000D03*
D17*
%TO.P,J4,2,Pin_2*%
%TO.N,+3V3*%
X185801000Y-94361000D03*
%TO.P,J4,3,Pin_3*%
%TO.N,SCL*%
X183261000Y-94361000D03*
%TO.P,J4,4,Pin_4*%
%TO.N,SDA*%
X180721000Y-94361000D03*
%TD*%
D18*
%TO.P,R2,1*%
%TO.N,GND*%
X197231000Y-123952000D03*
%TO.P,R2,2*%
%TO.N,Net-(Q1-G)*%
X197231000Y-122932000D03*
%TD*%
D19*
%TO.P,U1,0,GPIO0*%
%TO.N,unconnected-(U1-GPIO0-Pad0)*%
X192651000Y-87630000D03*
%TO.P,U1,1,GPIO1*%
%TO.N,unconnected-(U1-GPIO1-Pad1)*%
X192651000Y-85090000D03*
%TO.P,U1,2,GPIO2*%
%TO.N,ADC2*%
X192651000Y-82550000D03*
%TO.P,U1,3,GPIO3*%
%TO.N,ADC3*%
X192651000Y-80010000D03*
%TO.P,U1,4,GPIO4*%
%TO.N,Left*%
X192651000Y-77470000D03*
%TO.P,U1,5,GPIO5*%
%TO.N,Middle*%
X176411000Y-69850000D03*
%TO.P,U1,6,GPIO6*%
%TO.N,Right*%
X176411000Y-72390000D03*
%TO.P,U1,7,GPIO7*%
%TO.N,unconnected-(U1-GPIO7-Pad7)*%
X176411000Y-74930000D03*
%TO.P,U1,8,GPIO8*%
%TO.N,SDA*%
X176411000Y-77470000D03*
%TO.P,U1,9,GPIO9*%
%TO.N,SCL*%
X176411000Y-80010000D03*
%TO.P,U1,10,GPIO10*%
%TO.N,unconnected-(U1-GPIO10-Pad10)*%
X176411000Y-82550000D03*
%TO.P,U1,20,GPIO20*%
%TO.N,ScreenSig*%
X176411000Y-85090000D03*
%TO.P,U1,21,GPIO21*%
%TO.N,MotSig*%
X176411000Y-87630000D03*
%TO.P,U1,100,5V*%
%TO.N,+5V*%
X192651000Y-69850000D03*
%TO.P,U1,101,GND*%
%TO.N,GND*%
X192651000Y-72390000D03*
%TO.P,U1,102,3V3*%
%TO.N,+3V3*%
X192651000Y-74930000D03*
%TD*%
D10*
%TO.P,SW1,1,A*%
%TO.N,Batt+*%
X197993000Y-77724000D03*
%TO.P,SW1,2,B*%
%TO.N,VILDO*%
X197993000Y-80264000D03*
%TO.P,SW1,3,C*%
%TO.N,+5V*%
X197993000Y-82804000D03*
%TD*%
D11*
%TO.P,C3,1*%
%TO.N,GND*%
X171224000Y-89408000D03*
%TO.P,C3,2*%
%TO.N,+5V*%
X172184000Y-89408000D03*
%TD*%
D20*
%TO.P,U3,1,~{CHRG}*%
%TO.N,Net-(D1-K)*%
X170445000Y-76774000D03*
%TO.P,U3,2,GND*%
%TO.N,GND*%
X170445000Y-77724000D03*
%TO.P,U3,3,BAT*%
%TO.N,Batt+*%
X170445000Y-78674000D03*
%TO.P,U3,4,V_{CC}*%
%TO.N,Net-(U3-V_{CC})*%
X172720000Y-78674000D03*
%TO.P,U3,5,PROG*%
%TO.N,Net-(U3-PROG)*%
X172720000Y-76774000D03*
%TD*%
D10*
%TO.P,SW4,1,1*%
%TO.N,GND*%
X191770000Y-105410000D03*
X191770000Y-98910000D03*
%TO.P,SW4,2,2*%
%TO.N,Right*%
X196270000Y-105410000D03*
X196270000Y-98910000D03*
%TD*%
D21*
%TO.P,L1,1,GND*%
%TO.N,GND*%
X192032000Y-127635000D03*
D22*
%TO.P,L1,2,VI*%
%TO.N,VILDO*%
X192032000Y-129667000D03*
%TO.P,L1,3,VO*%
%TO.N,+3V3*%
X192032000Y-131699000D03*
%TD*%
D23*
%TO.P,J1,1,Pin_1*%
%TO.N,GND*%
X196703000Y-143644500D03*
D24*
%TO.P,J1,2,Pin_2*%
%TO.N,Batt+*%
X194203000Y-143644500D03*
%TD*%
D25*
%TO.P,D1,1,K*%
%TO.N,Net-(D1-K)*%
X170688000Y-73660000D03*
%TO.P,D1,2,A*%
%TO.N,+5V*%
X170688000Y-72085000D03*
%TD*%
D26*
%TO.P,J2,1,Pin_1*%
%TO.N,+3V3*%
X179832000Y-108585000D03*
D27*
%TO.P,J2,2,Pin_2*%
%TO.N,Motor-*%
X179832000Y-110585000D03*
%TD*%
D15*
%TO.P,R3,1*%
%TO.N,Net-(U3-V_{CC})*%
X171214000Y-82804000D03*
%TO.P,R3,2*%
%TO.N,+5V*%
X172234000Y-82804000D03*
%TD*%
D18*
%TO.P,R1,1*%
%TO.N,Net-(Q1-G)*%
X199390000Y-123952000D03*
%TO.P,R1,2*%
%TO.N,MotSig*%
X199390000Y-122932000D03*
%TD*%
D28*
%TO.N,+3V3*%
X198858000Y-130227000D03*
%TO.N,Batt+*%
X170445000Y-79596000D03*
%TO.N,VILDO*%
X198694000Y-119477000D03*
%TD*%
D29*
%TO.N,GND*%
X197300000Y-133909000D02*
X198029000Y-133909000D01*
X195858000Y-132467000D02*
X197300000Y-133909000D01*
X196438000Y-124745000D02*
X192532000Y-124745000D01*
X169448000Y-85137900D02*
X171224000Y-86914000D01*
X182245000Y-98910000D02*
X182245000Y-105410000D01*
X198337000Y-120901000D02*
X198557000Y-120681000D01*
X171224000Y-89408000D02*
X171224000Y-86914000D01*
X199641000Y-124551000D02*
X197830000Y-124551000D01*
X199641000Y-132298000D02*
X199641000Y-124551000D01*
X169448000Y-78300800D02*
X169448000Y-85137900D01*
X197420000Y-142927000D02*
X196703000Y-143644000D01*
X198557000Y-120681000D02*
X198557000Y-120396000D01*
X198204000Y-121033000D02*
X198337000Y-120901000D01*
X196271000Y-120396000D02*
X196271000Y-120407000D01*
X171224000Y-86914000D02*
X172234000Y-85904000D01*
X199807000Y-124551000D02*
X200038000Y-124321000D01*
X199641000Y-124551000D02*
X199807000Y-124551000D01*
X200038000Y-122602000D02*
X198337000Y-120901000D01*
X191770000Y-115895000D02*
X196271000Y-120396000D01*
X196703000Y-143644000D02*
X196703000Y-143644500D01*
X197420000Y-134029000D02*
X197420000Y-142927000D01*
X172665000Y-98910000D02*
X171224000Y-97469000D01*
X197300000Y-133909000D02*
X197420000Y-134029000D01*
X191770000Y-105410000D02*
X191770000Y-115895000D01*
X197830000Y-124551000D02*
X197231000Y-123952000D01*
X197231000Y-123952000D02*
X196438000Y-124745000D01*
X171224000Y-97469000D02*
X171224000Y-89408000D01*
X195858000Y-131490000D02*
X195858000Y-132467000D01*
X170025000Y-77724000D02*
X169448000Y-78300800D01*
X200038000Y-124321000D02*
X200038000Y-122602000D01*
X196271000Y-120407000D02*
X196897000Y-121033000D01*
X198029000Y-133909000D02*
X199641000Y-132298000D01*
X192532000Y-127635000D02*
X192532000Y-124745000D01*
X192532000Y-124745000D02*
X191800000Y-124013000D01*
X196897000Y-121033000D02*
X198204000Y-121033000D01*
X170445000Y-77724000D02*
X170025000Y-77724000D01*
%TO.N,+3V3*%
X190802000Y-76278500D02*
X192151000Y-74930000D01*
X190802000Y-95543200D02*
X190802000Y-76278500D01*
X193429000Y-98169800D02*
X190802000Y-95543200D01*
X185801000Y-94361000D02*
X186978000Y-94361000D01*
X187351000Y-95543200D02*
X190802000Y-95543200D01*
X197231000Y-108996000D02*
X193429000Y-105195000D01*
X186978000Y-95170100D02*
X187351000Y-95543200D01*
X198858000Y-131490000D02*
X198858000Y-130227000D01*
X197231000Y-120396000D02*
X197231000Y-108996000D01*
X193429000Y-105195000D02*
X193429000Y-98169800D01*
X186978000Y-94361000D02*
X186978000Y-95170100D01*
%TO.N,SDA*%
X176911000Y-77470000D02*
X180721000Y-81280000D01*
X180721000Y-81280000D02*
X180721000Y-94361000D01*
%TO.N,Net-(Q1-G)*%
X197231000Y-122932000D02*
X196412000Y-122113000D01*
X196412000Y-122113000D02*
X191800000Y-122113000D01*
X199390000Y-123952000D02*
X198251000Y-123952000D01*
X198251000Y-123952000D02*
X197231000Y-122932000D01*
%TO.N,Motor-*%
X191285000Y-123063000D02*
X190181000Y-121959000D01*
X190181000Y-112008000D02*
X188757000Y-110585000D01*
X188757000Y-110585000D02*
X179832000Y-110585000D01*
X190181000Y-121959000D02*
X190181000Y-112008000D01*
X193675000Y-123063000D02*
X191285000Y-123063000D01*
%TO.N,MotSig*%
X196328000Y-121484000D02*
X196584000Y-121484000D01*
X184314000Y-104991000D02*
X190650000Y-111327000D01*
X184314000Y-99065400D02*
X184314000Y-104991000D01*
X182575000Y-97325700D02*
X184314000Y-99065400D01*
X196851000Y-121751000D02*
X198209000Y-121751000D01*
X176911000Y-87630000D02*
X176911000Y-92215400D01*
X190650000Y-115806000D02*
X196328000Y-121484000D01*
X176911000Y-92215400D02*
X182021000Y-97325700D01*
X182021000Y-97325700D02*
X182575000Y-97325700D01*
X190650000Y-111327000D02*
X190650000Y-115806000D01*
X196584000Y-121484000D02*
X196851000Y-121751000D01*
X198209000Y-121751000D02*
X199390000Y-122932000D01*
%TO.N,Left*%
X177165000Y-98910000D02*
X177165000Y-105410000D01*
%TO.N,Middle*%
X176911000Y-69850000D02*
X184531000Y-77470000D01*
X184531000Y-77470000D02*
X184531000Y-96696000D01*
X186745000Y-98910000D02*
X186745000Y-105410000D01*
X184531000Y-96696000D02*
X186745000Y-98910000D01*
%TO.N,Right*%
X196270000Y-98910000D02*
X196270000Y-105410000D01*
%TO.N,+5V*%
X172830000Y-81857200D02*
X172830000Y-82208100D01*
X197993000Y-82804000D02*
X195505000Y-80315700D01*
X192151000Y-69850000D02*
X191047000Y-68746200D01*
X172234000Y-82804000D02*
X172862000Y-83432000D01*
X172830000Y-82208100D02*
X172234000Y-82804000D01*
X195505000Y-72724900D02*
X192630000Y-69850000D01*
X171182000Y-72579200D02*
X173725000Y-75121800D01*
X175015000Y-68746200D02*
X171182000Y-72579200D01*
X191047000Y-68746200D02*
X175015000Y-68746200D01*
X172862000Y-83432000D02*
X172862000Y-88730000D01*
X171182000Y-72579200D02*
X170688000Y-72085000D01*
X172862000Y-88730000D02*
X172184000Y-89408000D01*
X195505000Y-80315700D02*
X195505000Y-72724900D01*
X173725000Y-80962300D02*
X172830000Y-81857200D01*
X173725000Y-75121800D02*
X173725000Y-80962300D01*
X192630000Y-69850000D02*
X192151000Y-69850000D01*
%TO.N,Batt+*%
X170445000Y-78674000D02*
X170445000Y-79596000D01*
%TO.N,VILDO*%
X198701000Y-119477000D02*
X198694000Y-119477000D01*
X199517000Y-120293000D02*
X198701000Y-119477000D01*
X199517000Y-120396000D02*
X199517000Y-120293000D01*
X195622000Y-129667000D02*
X197358000Y-131402000D01*
X199365000Y-118813000D02*
X198701000Y-119477000D01*
X192532000Y-129667000D02*
X195622000Y-129667000D01*
X197358000Y-131402500D02*
X197358000Y-131402000D01*
X199365000Y-81636300D02*
X199365000Y-118813000D01*
X197993000Y-80264000D02*
X199365000Y-81636300D01*
%TO.N,Net-(D1-K)*%
X170688000Y-73660000D02*
X170445000Y-73903000D01*
X170445000Y-73903000D02*
X170445000Y-76774000D01*
%TO.N,Net-(U3-V_{CC})*%
X172720000Y-81298000D02*
X171214000Y-82804000D01*
X172720000Y-78674000D02*
X172720000Y-81298000D01*
%TO.N,Net-(U3-PROG)*%
X171585000Y-77909300D02*
X171585000Y-81174900D01*
X170587000Y-82172800D02*
X170587000Y-85276800D01*
X171585000Y-81174900D02*
X170587000Y-82172800D01*
X170587000Y-85276800D02*
X171214000Y-85904000D01*
X172720000Y-76774000D02*
X171585000Y-77909300D01*
%TD*%
M02*
