%TF.GenerationSoftware,KiCad,Pcbnew,7.0.7*%
%TF.CreationDate,2024-05-31T07:58:12-05:00*%
%TF.ProjectId,ThinkTankTimerVote,5468696e-6b54-4616-9e6b-54696d657256,rev?*%
%TF.SameCoordinates,Original*%
%TF.FileFunction,Soldermask,Top*%
%TF.FilePolarity,Negative*%
%FSLAX46Y46*%
G04 Gerber Fmt 4.6, Leading zero omitted, Abs format (unit mm)*
G04 Created by KiCad (PCBNEW 7.0.7) date 2024-05-31 07:58:12*
%MOMM*%
%LPD*%
G01*
G04 APERTURE LIST*
G04 Aperture macros list*
%AMRoundRect*
0 Rectangle with rounded corners*
0 $1 Rounding radius*
0 $2 $3 $4 $5 $6 $7 $8 $9 X,Y pos of 4 corners*
0 Add a 4 corners polygon primitive as box body*
4,1,4,$2,$3,$4,$5,$6,$7,$8,$9,$2,$3,0*
0 Add four circle primitives for the rounded corners*
1,1,$1+$1,$2,$3*
1,1,$1+$1,$4,$5*
1,1,$1+$1,$6,$7*
1,1,$1+$1,$8,$9*
0 Add four rect primitives between the rounded corners*
20,1,$1+$1,$2,$3,$4,$5,0*
20,1,$1+$1,$4,$5,$6,$7,0*
20,1,$1+$1,$6,$7,$8,$9,0*
20,1,$1+$1,$8,$9,$2,$3,0*%
%AMFreePoly0*
4,1,9,3.862500,-0.866500,0.737500,-0.866500,0.737500,-0.450000,-0.737500,-0.450000,-0.737500,0.450000,0.737500,0.450000,0.737500,0.866500,3.862500,0.866500,3.862500,-0.866500,3.862500,-0.866500,$1*%
G04 Aperture macros list end*
%ADD10C,2.000000*%
%ADD11RoundRect,0.225000X-0.225000X-0.250000X0.225000X-0.250000X0.225000X0.250000X-0.225000X0.250000X0*%
%ADD12RoundRect,0.150000X-0.587500X-0.150000X0.587500X-0.150000X0.587500X0.150000X-0.587500X0.150000X0*%
%ADD13C,2.500000*%
%ADD14R,0.900000X1.300000*%
%ADD15FreePoly0,90.000000*%
%ADD16RoundRect,0.200000X-0.200000X-0.275000X0.200000X-0.275000X0.200000X0.275000X-0.200000X0.275000X0*%
%ADD17R,1.700000X1.700000*%
%ADD18O,1.700000X1.700000*%
%ADD19RoundRect,0.200000X0.275000X-0.200000X0.275000X0.200000X-0.275000X0.200000X-0.275000X-0.200000X0*%
%ADD20RoundRect,0.225000X-0.225000X-0.375000X0.225000X-0.375000X0.225000X0.375000X-0.225000X0.375000X0*%
%ADD21RoundRect,0.381000X-1.119000X-0.381000X1.119000X-0.381000X1.119000X0.381000X-1.119000X0.381000X0*%
%ADD22RoundRect,0.225000X0.250000X-0.225000X0.250000X0.225000X-0.250000X0.225000X-0.250000X-0.225000X0*%
%ADD23RoundRect,0.150000X-0.512500X-0.150000X0.512500X-0.150000X0.512500X0.150000X-0.512500X0.150000X0*%
%ADD24RoundRect,0.250000X0.600000X0.750000X-0.600000X0.750000X-0.600000X-0.750000X0.600000X-0.750000X0*%
%ADD25O,1.700000X2.000000*%
%ADD26RoundRect,0.243750X0.456250X-0.243750X0.456250X0.243750X-0.456250X0.243750X-0.456250X-0.243750X0*%
%ADD27R,1.350000X1.350000*%
%ADD28O,1.350000X1.350000*%
%ADD29R,1.000000X1.500000*%
G04 APERTURE END LIST*
D10*
%TO.C,SW3*%
X182245000Y-105410000D03*
X182245000Y-98910000D03*
X186745000Y-105410000D03*
X186745000Y-98910000D03*
%TD*%
D11*
%TO.C,C2*%
X191363000Y-124333000D03*
X192913000Y-124333000D03*
%TD*%
D12*
%TO.C,Q1*%
X191165000Y-128590000D03*
X191165000Y-130490000D03*
X193040000Y-129540000D03*
%TD*%
D13*
%TO.C,H3*%
X197358000Y-71120000D03*
%TD*%
D14*
%TO.C,U2*%
X195858000Y-131490000D03*
D15*
X197358000Y-131402500D03*
D14*
X198858000Y-131490000D03*
%TD*%
D11*
%TO.C,C1*%
X191389000Y-121031000D03*
X192939000Y-121031000D03*
%TD*%
D16*
%TO.C,R4*%
X170899000Y-85904000D03*
X172549000Y-85904000D03*
%TD*%
D10*
%TO.C,SW2*%
X172665000Y-105410000D03*
X172665000Y-98910000D03*
X177165000Y-105410000D03*
X177165000Y-98910000D03*
%TD*%
D17*
%TO.C,J4*%
X188341000Y-94361000D03*
D18*
X185801000Y-94361000D03*
X183261000Y-94361000D03*
X180721000Y-94361000D03*
%TD*%
D19*
%TO.C,R2*%
X196850000Y-124267000D03*
X196850000Y-122617000D03*
%TD*%
D20*
%TO.C,D2*%
X195836000Y-119634000D03*
X199136000Y-119634000D03*
%TD*%
D16*
%TO.C,R5*%
X196470000Y-93218000D03*
X198120000Y-93218000D03*
%TD*%
D21*
%TO.C,U1*%
X192651000Y-87630000D03*
X192651000Y-85090000D03*
X192651000Y-82550000D03*
X192651000Y-80010000D03*
X192651000Y-77470000D03*
X176411000Y-69850000D03*
X176411000Y-72390000D03*
X176411000Y-74930000D03*
X176411000Y-77470000D03*
X176411000Y-80010000D03*
X176411000Y-82550000D03*
X176411000Y-85090000D03*
X176411000Y-87630000D03*
X192651000Y-69850000D03*
X192651000Y-72390000D03*
X192651000Y-74930000D03*
%TD*%
D10*
%TO.C,SW1*%
X197993000Y-77724000D03*
X197993000Y-80264000D03*
X197993000Y-82804000D03*
%TD*%
D17*
%TO.C,J3*%
X170942000Y-94996000D03*
D18*
X170942000Y-92456000D03*
X173482000Y-94996000D03*
X173482000Y-92456000D03*
X176022000Y-94996000D03*
X176022000Y-92456000D03*
%TD*%
D11*
%TO.C,C3*%
X170916000Y-89154000D03*
X172466000Y-89154000D03*
%TD*%
D22*
%TO.C,C4*%
X177800000Y-110389000D03*
X177800000Y-108839000D03*
%TD*%
D13*
%TO.C,H1*%
X195580000Y-136271000D03*
%TD*%
D16*
%TO.C,R6*%
X196470000Y-96139000D03*
X198120000Y-96139000D03*
%TD*%
D23*
%TO.C,U3*%
X170445000Y-76774000D03*
X170445000Y-77724000D03*
X170445000Y-78674000D03*
X172720000Y-78674000D03*
X172720000Y-76774000D03*
%TD*%
D13*
%TO.C,H2*%
X171450000Y-109728000D03*
%TD*%
D10*
%TO.C,SW4*%
X191770000Y-105410000D03*
X191770000Y-98910000D03*
X196270000Y-105410000D03*
X196270000Y-98910000D03*
%TD*%
D24*
%TO.C,J1*%
X196703000Y-143644500D03*
D25*
X194203000Y-143644500D03*
%TD*%
D26*
%TO.C,D1*%
X172085000Y-72644000D03*
X172085000Y-70769000D03*
%TD*%
D27*
%TO.C,J2*%
X180721000Y-108585000D03*
D28*
X180721000Y-110585000D03*
%TD*%
D16*
%TO.C,R3*%
X170899000Y-82804000D03*
X172549000Y-82804000D03*
%TD*%
D19*
%TO.C,R1*%
X199390000Y-124267000D03*
X199390000Y-122617000D03*
%TD*%
D29*
%TO.C,JP1*%
X196962000Y-88011000D03*
X198262000Y-88011000D03*
%TD*%
M02*
