M48
; DRILL file {KiCad 7.0.7} date Fri May 31 07:58:16 2024
; FORMAT={-:-/ absolute / inch / decimal}
; #@! TF.CreationDate,2024-05-31T07:58:16-05:00
; #@! TF.GenerationSoftware,Kicad,Pcbnew,7.0.7
; #@! TF.FileFunction,Plated,1,2,PTH
FMAT,2
INCH
; #@! TA.AperFunction,Plated,PTH,ViaDrill
T1C0.0157
; #@! TA.AperFunction,Plated,PTH,ComponentDrill
T2C0.0315
; #@! TA.AperFunction,Plated,PTH,ComponentDrill
T3C0.0394
; #@! TA.AperFunction,Plated,PTH,ComponentDrill
T4C0.0433
%
G90
G05
T1
X7.5808Y-5.0507
X7.596Y-4.2016
X7.7101Y-4.4628
X7.7958Y-4.8855
X7.7983Y-4.6889
X7.8512Y-5.0911
T2
X7.115Y-4.275
X7.115Y-4.3537
T3
X6.73Y-3.64
X6.73Y-3.74
X6.83Y-3.64
X6.83Y-3.74
X6.93Y-3.64
X6.93Y-3.74
X6.965Y-2.75
X6.965Y-2.85
X6.965Y-2.95
X6.965Y-3.05
X6.965Y-3.15
X6.965Y-3.25
X6.965Y-3.35
X6.965Y-3.45
X7.115Y-3.715
X7.215Y-3.715
X7.315Y-3.715
X7.415Y-3.715
X7.565Y-2.75
X7.565Y-2.85
X7.565Y-2.95
X7.565Y-3.05
X7.565Y-3.15
X7.565Y-3.25
X7.565Y-3.35
X7.565Y-3.45
X7.6458Y-5.6553
X7.7442Y-5.6553
X7.795Y-3.06
X7.795Y-3.16
X7.795Y-3.26
T4
X6.7978Y-3.8941
X6.7978Y-4.15
X6.975Y-3.8941
X6.975Y-4.15
X7.175Y-3.8941
X7.175Y-4.15
X7.3522Y-3.8941
X7.3522Y-4.15
X7.55Y-3.8941
X7.55Y-4.15
X7.7272Y-3.8941
X7.7272Y-4.15
T0
M30
