%TF.GenerationSoftware,KiCad,Pcbnew,7.0.7*%
%TF.CreationDate,2024-05-31T07:58:12-05:00*%
%TF.ProjectId,ThinkTankTimerVote,5468696e-6b54-4616-9e6b-54696d657256,rev?*%
%TF.SameCoordinates,Original*%
%TF.FileFunction,Copper,L2,Bot*%
%TF.FilePolarity,Positive*%
%FSLAX46Y46*%
G04 Gerber Fmt 4.6, Leading zero omitted, Abs format (unit mm)*
G04 Created by KiCad (PCBNEW 7.0.7) date 2024-05-31 07:58:12*
%MOMM*%
%LPD*%
G01*
G04 APERTURE LIST*
G04 Aperture macros list*
%AMRoundRect*
0 Rectangle with rounded corners*
0 $1 Rounding radius*
0 $2 $3 $4 $5 $6 $7 $8 $9 X,Y pos of 4 corners*
0 Add a 4 corners polygon primitive as box body*
4,1,4,$2,$3,$4,$5,$6,$7,$8,$9,$2,$3,0*
0 Add four circle primitives for the rounded corners*
1,1,$1+$1,$2,$3*
1,1,$1+$1,$4,$5*
1,1,$1+$1,$6,$7*
1,1,$1+$1,$8,$9*
0 Add four rect primitives between the rounded corners*
20,1,$1+$1,$2,$3,$4,$5,0*
20,1,$1+$1,$4,$5,$6,$7,0*
20,1,$1+$1,$6,$7,$8,$9,0*
20,1,$1+$1,$8,$9,$2,$3,0*%
G04 Aperture macros list end*
%TA.AperFunction,ComponentPad*%
%ADD10C,2.000000*%
%TD*%
%TA.AperFunction,ComponentPad*%
%ADD11R,1.700000X1.700000*%
%TD*%
%TA.AperFunction,ComponentPad*%
%ADD12O,1.700000X1.700000*%
%TD*%
%TA.AperFunction,ComponentPad*%
%ADD13RoundRect,0.381000X-1.119000X-0.381000X1.119000X-0.381000X1.119000X0.381000X-1.119000X0.381000X0*%
%TD*%
%TA.AperFunction,ComponentPad*%
%ADD14RoundRect,0.250000X0.600000X0.750000X-0.600000X0.750000X-0.600000X-0.750000X0.600000X-0.750000X0*%
%TD*%
%TA.AperFunction,ComponentPad*%
%ADD15O,1.700000X2.000000*%
%TD*%
%TA.AperFunction,ComponentPad*%
%ADD16R,1.350000X1.350000*%
%TD*%
%TA.AperFunction,ComponentPad*%
%ADD17O,1.350000X1.350000*%
%TD*%
%TA.AperFunction,ViaPad*%
%ADD18C,0.800000*%
%TD*%
%TA.AperFunction,Conductor*%
%ADD19C,0.250000*%
%TD*%
G04 APERTURE END LIST*
D10*
%TO.P,SW3,1,1*%
%TO.N,GND*%
X182245000Y-105410000D03*
X182245000Y-98910000D03*
%TO.P,SW3,2,2*%
%TO.N,Middle*%
X186745000Y-105410000D03*
X186745000Y-98910000D03*
%TD*%
%TO.P,SW2,1,1*%
%TO.N,GND*%
X172665000Y-105410000D03*
X172665000Y-98910000D03*
%TO.P,SW2,2,2*%
%TO.N,Left*%
X177165000Y-105410000D03*
X177165000Y-98910000D03*
%TD*%
D11*
%TO.P,J4,1,Pin_1*%
%TO.N,GND*%
X188341000Y-94361000D03*
D12*
%TO.P,J4,2,Pin_2*%
%TO.N,+3V3*%
X185801000Y-94361000D03*
%TO.P,J4,3,Pin_3*%
%TO.N,SCL*%
X183261000Y-94361000D03*
%TO.P,J4,4,Pin_4*%
%TO.N,SDA*%
X180721000Y-94361000D03*
%TD*%
D13*
%TO.P,U1,0,GPIO0*%
%TO.N,MotSig*%
X192651000Y-87630000D03*
%TO.P,U1,1,GPIO1*%
%TO.N,ADC1_BAT*%
X192651000Y-85090000D03*
%TO.P,U1,2,GPIO2*%
%TO.N,ADC2*%
X192651000Y-82550000D03*
%TO.P,U1,3,GPIO3*%
%TO.N,ADC3*%
X192651000Y-80010000D03*
%TO.P,U1,4,GPIO4*%
%TO.N,Left*%
X192651000Y-77470000D03*
%TO.P,U1,5,GPIO5*%
%TO.N,Middle*%
X176411000Y-69850000D03*
%TO.P,U1,6,GPIO6*%
%TO.N,Right*%
X176411000Y-72390000D03*
%TO.P,U1,7,GPIO7*%
%TO.N,unconnected-(U1-GPIO7-Pad7)*%
X176411000Y-74930000D03*
%TO.P,U1,8,GPIO8*%
%TO.N,SDA*%
X176411000Y-77470000D03*
%TO.P,U1,9,GPIO9*%
%TO.N,SCL*%
X176411000Y-80010000D03*
%TO.P,U1,10,GPIO10*%
%TO.N,GPIO10*%
X176411000Y-82550000D03*
%TO.P,U1,20,GPIO20*%
%TO.N,GPIO20*%
X176411000Y-85090000D03*
%TO.P,U1,21,GPIO21*%
%TO.N,unconnected-(U1-GPIO21-Pad21)*%
X176411000Y-87630000D03*
%TO.P,U1,100,5V*%
%TO.N,+5V*%
X192651000Y-69850000D03*
%TO.P,U1,101,GND*%
%TO.N,GND*%
X192651000Y-72390000D03*
%TO.P,U1,102,3V3*%
%TO.N,+3V3*%
X192651000Y-74930000D03*
%TD*%
D10*
%TO.P,SW1,1,A*%
%TO.N,Batt+*%
X197993000Y-77724000D03*
%TO.P,SW1,2,B*%
%TO.N,VILDO*%
X197993000Y-80264000D03*
%TO.P,SW1,3,C*%
%TO.N,Net-(JP1-B)*%
X197993000Y-82804000D03*
%TD*%
D11*
%TO.P,J3,1,Pin_1*%
%TO.N,GND*%
X170942000Y-94996000D03*
D12*
%TO.P,J3,2,Pin_2*%
%TO.N,+3V3*%
X170942000Y-92456000D03*
%TO.P,J3,3,Pin_3*%
%TO.N,GPIO10*%
X173482000Y-94996000D03*
%TO.P,J3,4,Pin_4*%
%TO.N,ADC2*%
X173482000Y-92456000D03*
%TO.P,J3,5,Pin_5*%
%TO.N,GPIO20*%
X176022000Y-94996000D03*
%TO.P,J3,6,Pin_6*%
%TO.N,ADC3*%
X176022000Y-92456000D03*
%TD*%
D10*
%TO.P,SW4,1,1*%
%TO.N,GND*%
X191770000Y-105410000D03*
X191770000Y-98910000D03*
%TO.P,SW4,2,2*%
%TO.N,Right*%
X196270000Y-105410000D03*
X196270000Y-98910000D03*
%TD*%
D14*
%TO.P,J1,1,Pin_1*%
%TO.N,GND*%
X196703000Y-143644500D03*
D15*
%TO.P,J1,2,Pin_2*%
%TO.N,Batt+*%
X194203000Y-143644500D03*
%TD*%
D16*
%TO.P,J2,1,Pin_1*%
%TO.N,Batt+*%
X180721000Y-108585000D03*
D17*
%TO.P,J2,2,Pin_2*%
%TO.N,Motor-*%
X180721000Y-110585000D03*
%TD*%
D18*
%TO.N,VILDO*%
X192939000Y-106721400D03*
X199420700Y-129314700D03*
%TO.N,Batt+*%
X195836000Y-113355200D03*
%TO.N,Motor-*%
X198076400Y-119099300D03*
%TO.N,Net-(Q1-G)*%
X198013200Y-124092000D03*
X192551600Y-128287800D03*
%TD*%
D19*
%TO.N,VILDO*%
X199327800Y-100332600D02*
X192939000Y-106721400D01*
X199327800Y-81598800D02*
X199327800Y-100332600D01*
X197993000Y-80264000D02*
X199327800Y-81598800D01*
X199420700Y-113203100D02*
X199420700Y-129314700D01*
X192939000Y-106721400D02*
X199420700Y-113203100D01*
%TO.N,Batt+*%
X194203000Y-143644500D02*
X195379900Y-143644500D01*
X191065800Y-108585000D02*
X195836000Y-113355200D01*
X180721000Y-108585000D02*
X191065800Y-108585000D01*
X195379900Y-142467600D02*
X195379900Y-143644500D01*
X198692200Y-139155300D02*
X195379900Y-142467600D01*
X198692200Y-129013700D02*
X198692200Y-139155300D01*
X198825600Y-128880300D02*
X198692200Y-129013700D01*
X198825600Y-116344800D02*
X198825600Y-128880300D01*
X195836000Y-113355200D02*
X198825600Y-116344800D01*
%TO.N,Right*%
X196270000Y-78571600D02*
X196270000Y-98910000D01*
X193898400Y-76200000D02*
X196270000Y-78571600D01*
X180721000Y-76200000D02*
X193898400Y-76200000D01*
X176911000Y-72390000D02*
X180721000Y-76200000D01*
%TO.N,Left*%
X192671100Y-77470000D02*
X192151000Y-77470000D01*
X194551100Y-79350000D02*
X192671100Y-77470000D01*
X194551100Y-83164800D02*
X194551100Y-79350000D01*
X193895900Y-83820000D02*
X194551100Y-83164800D01*
X189589400Y-83820000D02*
X193895900Y-83820000D01*
X177165000Y-96244400D02*
X189589400Y-83820000D01*
X177165000Y-98910000D02*
X177165000Y-96244400D01*
%TO.N,ADC3*%
X189644900Y-80010000D02*
X192151000Y-80010000D01*
X177198900Y-92456000D02*
X189644900Y-80010000D01*
X176022000Y-92456000D02*
X177198900Y-92456000D01*
%TO.N,ADC2*%
X188756900Y-82550000D02*
X192151000Y-82550000D01*
X177673300Y-93633600D02*
X188756900Y-82550000D01*
X175468700Y-93633600D02*
X177673300Y-93633600D01*
X174658900Y-92823800D02*
X175468700Y-93633600D01*
X174658900Y-92456000D02*
X174658900Y-92823800D01*
X173482000Y-92456000D02*
X174658900Y-92456000D01*
%TO.N,Motor-*%
X189562100Y-110585000D02*
X198076400Y-119099300D01*
X180721000Y-110585000D02*
X189562100Y-110585000D01*
%TO.N,Net-(Q1-G)*%
X193817400Y-128287800D02*
X192551600Y-128287800D01*
X198013200Y-124092000D02*
X193817400Y-128287800D01*
%TO.N,+3V3*%
X184624100Y-94742200D02*
X184624100Y-94361000D01*
X181793900Y-97572400D02*
X184624100Y-94742200D01*
X181687500Y-97572400D02*
X181793900Y-97572400D01*
X178989900Y-100270000D02*
X181687500Y-97572400D01*
X176619600Y-100270000D02*
X178989900Y-100270000D01*
X172118900Y-95769300D02*
X176619600Y-100270000D01*
X172118900Y-94000600D02*
X172118900Y-95769300D01*
X171751200Y-93632900D02*
X172118900Y-94000600D01*
X170942000Y-93632900D02*
X171751200Y-93632900D01*
X170942000Y-92456000D02*
X170942000Y-93632900D01*
X185801000Y-94361000D02*
X184624100Y-94361000D01*
%TO.N,GND*%
X172665000Y-97895900D02*
X170942000Y-96172900D01*
X172665000Y-98910000D02*
X172665000Y-97895900D01*
X170942000Y-94996000D02*
X170942000Y-96172900D01*
X188341000Y-94361000D02*
X188341000Y-95537900D01*
X191770000Y-105410000D02*
X191770000Y-98910000D01*
X191713100Y-98910000D02*
X188341000Y-95537900D01*
X191770000Y-98910000D02*
X191713100Y-98910000D01*
X182245000Y-105410000D02*
X180888100Y-104053100D01*
X174021900Y-104053100D02*
X172665000Y-105410000D01*
X180888100Y-104053100D02*
X174021900Y-104053100D01*
X185617100Y-95537900D02*
X182245000Y-98910000D01*
X188341000Y-95537900D02*
X185617100Y-95537900D01*
X182245000Y-102696200D02*
X180888100Y-104053100D01*
X182245000Y-98910000D02*
X182245000Y-102696200D01*
%TD*%
M02*
