%TF.GenerationSoftware,KiCad,Pcbnew,7.0.7*%
%TF.CreationDate,2024-05-31T07:58:12-05:00*%
%TF.ProjectId,ThinkTankTimerVote,5468696e-6b54-4616-9e6b-54696d657256,rev?*%
%TF.SameCoordinates,Original*%
%TF.FileFunction,Profile,NP*%
%FSLAX46Y46*%
G04 Gerber Fmt 4.6, Leading zero omitted, Abs format (unit mm)*
G04 Created by KiCad (PCBNEW 7.0.7) date 2024-05-31 07:58:12*
%MOMM*%
%LPD*%
G01*
G04 APERTURE LIST*
%TA.AperFunction,Profile*%
%ADD10C,0.003779*%
%TD*%
G04 APERTURE END LIST*
D10*
X169750000Y-69115998D02*
X170255000Y-68611001D01*
X172120000Y-67592999D02*
X172817000Y-67440999D01*
X184529000Y-67390000D02*
X195529000Y-67390000D01*
X197606000Y-67842000D02*
X198231999Y-68183999D01*
X200326001Y-70981000D02*
X200478001Y-71677998D01*
X196938000Y-67592999D02*
X197606000Y-67842000D01*
X189793000Y-147099999D02*
X189793000Y-112099999D01*
X171452000Y-67842000D02*
X172120000Y-67592999D01*
X169323000Y-69687001D02*
X169750000Y-69115998D01*
X168981000Y-70313000D02*
X169323000Y-69687001D01*
X200529000Y-107245000D02*
X200529000Y-112099999D01*
X168529000Y-107245000D02*
X168529000Y-74476998D01*
X200529000Y-112099999D02*
X200529000Y-147099999D01*
X168580000Y-71677998D02*
X168732000Y-70981000D01*
X168529000Y-74476998D02*
X168529000Y-72390000D01*
X195529000Y-67390000D02*
X196241000Y-67440999D01*
X200529000Y-74476998D02*
X200529000Y-107245000D01*
X200478001Y-71677998D02*
X200529000Y-72390000D01*
X199735001Y-69687001D02*
X200077000Y-70313000D01*
X196241000Y-67440999D02*
X196938000Y-67592999D01*
X168529000Y-112099999D02*
X168529000Y-107245000D01*
X172817000Y-67440999D02*
X173529000Y-67390000D01*
X198231999Y-68183999D02*
X198803000Y-68611001D01*
X170255000Y-68611001D02*
X170826000Y-68183999D01*
X173529000Y-67390000D02*
X184529000Y-67390000D01*
X198803000Y-68611001D02*
X199307999Y-69115998D01*
X200077000Y-70313000D02*
X200326001Y-70981000D01*
X168529000Y-72390000D02*
X168580000Y-71677998D01*
X168732000Y-70981000D02*
X168981000Y-70313000D01*
X170826000Y-68183999D02*
X171452000Y-67842000D01*
X199307999Y-69115998D02*
X199735001Y-69687001D01*
X200529000Y-72390000D02*
X200529000Y-74476998D01*
X200529000Y-147099999D02*
X189793000Y-147099999D01*
X189793000Y-112099999D02*
X168529000Y-112099999D01*
M02*
