%TF.GenerationSoftware,KiCad,Pcbnew,7.0.7*%
%TF.CreationDate,2024-05-31T07:58:12-05:00*%
%TF.ProjectId,ThinkTankTimerVote,5468696e-6b54-4616-9e6b-54696d657256,rev?*%
%TF.SameCoordinates,Original*%
%TF.FileFunction,Legend,Top*%
%TF.FilePolarity,Positive*%
%FSLAX46Y46*%
G04 Gerber Fmt 4.6, Leading zero omitted, Abs format (unit mm)*
G04 Created by KiCad (PCBNEW 7.0.7) date 2024-05-31 07:58:12*
%MOMM*%
%LPD*%
G01*
G04 APERTURE LIST*
%ADD10C,0.000000*%
%ADD11C,0.150000*%
%ADD12C,0.100000*%
%ADD13C,0.120000*%
G04 APERTURE END LIST*
D10*
G36*
X183388000Y-76088876D02*
G01*
X183345667Y-76308479D01*
X183333760Y-76367432D01*
X183321854Y-76428865D01*
X183298041Y-76557188D01*
X183274229Y-76686503D01*
X183250416Y-76813834D01*
X183228258Y-76935542D01*
X183208083Y-77049313D01*
X183191671Y-77049395D01*
X183183015Y-77049592D01*
X183174018Y-77049974D01*
X183164649Y-77050605D01*
X183154877Y-77051545D01*
X183144671Y-77052858D01*
X183139396Y-77053673D01*
X183134000Y-77054605D01*
X183111758Y-77056630D01*
X183089020Y-77058904D01*
X183077621Y-77060212D01*
X183066283Y-77061674D01*
X183055069Y-77063323D01*
X183044041Y-77065189D01*
X183033256Y-77067054D01*
X183022751Y-77068703D01*
X183002700Y-77071472D01*
X182967312Y-77075771D01*
X182959870Y-77076764D01*
X182953421Y-77077756D01*
X182947964Y-77078748D01*
X182943499Y-77079741D01*
X182941639Y-77080237D01*
X182940027Y-77080733D01*
X182938662Y-77081229D01*
X182937546Y-77081725D01*
X182936678Y-77082221D01*
X182936058Y-77082717D01*
X182935686Y-77083213D01*
X182935562Y-77083709D01*
X182927625Y-77078417D01*
X182941515Y-77027278D01*
X182955406Y-76972915D01*
X182969297Y-76915079D01*
X182983187Y-76853521D01*
X183010638Y-76726191D01*
X183023743Y-76661906D01*
X183036104Y-76596875D01*
X183048424Y-76532342D01*
X183061239Y-76469545D01*
X183086375Y-76348168D01*
X183096711Y-76294548D01*
X183107542Y-76240680D01*
X183118373Y-76186316D01*
X183128708Y-76131209D01*
X183168396Y-75908959D01*
X183430333Y-75866625D01*
X183388000Y-76088876D01*
G37*
G36*
X187679914Y-75940461D02*
G01*
X187658432Y-75993470D01*
X187637539Y-76046542D01*
X187617267Y-76099613D01*
X187597645Y-76152623D01*
X187578706Y-76205509D01*
X187560479Y-76258208D01*
X187412313Y-76686834D01*
X187388459Y-76686876D01*
X187364357Y-76687165D01*
X187352135Y-76687480D01*
X187339759Y-76687950D01*
X187327196Y-76688606D01*
X187314417Y-76689479D01*
X187302506Y-76689712D01*
X187290563Y-76690347D01*
X187278559Y-76691293D01*
X187266461Y-76692456D01*
X187241863Y-76695060D01*
X187229301Y-76696316D01*
X187216521Y-76697416D01*
X187213875Y-76694771D01*
X187266791Y-76488397D01*
X187317062Y-76284667D01*
X187329010Y-76233115D01*
X187341205Y-76181810D01*
X187353897Y-76131002D01*
X187367333Y-76080938D01*
X187420250Y-75877209D01*
X187466883Y-75869767D01*
X187511531Y-75863318D01*
X187554195Y-75857861D01*
X187594874Y-75853396D01*
X187724521Y-75834875D01*
X187679914Y-75940461D01*
G37*
G36*
X187683353Y-76792854D02*
G01*
X187694785Y-76793407D01*
X187705892Y-76794325D01*
X187716665Y-76795604D01*
X187727097Y-76797239D01*
X187737181Y-76799226D01*
X187746908Y-76801563D01*
X187756270Y-76804244D01*
X187765260Y-76807267D01*
X187773871Y-76810626D01*
X187782094Y-76814319D01*
X187789921Y-76818342D01*
X187797346Y-76822690D01*
X187804360Y-76827359D01*
X187810955Y-76832346D01*
X187817124Y-76837648D01*
X187822891Y-76843632D01*
X187828286Y-76849683D01*
X187833309Y-76855803D01*
X187837959Y-76861997D01*
X187842238Y-76868269D01*
X187846145Y-76874622D01*
X187849680Y-76881060D01*
X187852842Y-76887588D01*
X187855633Y-76894208D01*
X187858052Y-76900925D01*
X187860098Y-76907744D01*
X187861772Y-76914666D01*
X187863075Y-76921698D01*
X187864005Y-76928841D01*
X187864563Y-76936101D01*
X187864749Y-76943482D01*
X187864532Y-76951853D01*
X187863881Y-76960100D01*
X187862796Y-76968224D01*
X187861276Y-76976223D01*
X187859323Y-76984099D01*
X187856935Y-76991850D01*
X187854114Y-76999478D01*
X187850858Y-77006981D01*
X187847168Y-77014360D01*
X187843045Y-77021616D01*
X187838487Y-77028747D01*
X187833495Y-77035755D01*
X187828069Y-77042638D01*
X187822209Y-77049397D01*
X187815914Y-77056033D01*
X187809186Y-77062544D01*
X187802055Y-77068807D01*
X187794552Y-77074693D01*
X187786676Y-77080200D01*
X187778429Y-77085323D01*
X187769809Y-77090059D01*
X187760817Y-77094403D01*
X187751454Y-77098351D01*
X187741718Y-77101901D01*
X187731610Y-77105047D01*
X187721130Y-77107787D01*
X187710278Y-77110115D01*
X187699054Y-77112029D01*
X187687457Y-77113525D01*
X187675489Y-77114598D01*
X187663149Y-77115244D01*
X187650437Y-77115461D01*
X187650437Y-77118105D01*
X187644081Y-77118012D01*
X187637906Y-77117733D01*
X187631910Y-77117268D01*
X187626088Y-77116617D01*
X187620436Y-77115780D01*
X187614952Y-77114756D01*
X187609630Y-77113547D01*
X187604466Y-77112152D01*
X187599458Y-77110571D01*
X187594601Y-77108803D01*
X187589892Y-77106850D01*
X187585325Y-77104711D01*
X187580899Y-77102385D01*
X187576607Y-77099874D01*
X187572448Y-77097176D01*
X187568417Y-77094293D01*
X187564510Y-77091255D01*
X187560727Y-77088097D01*
X187557069Y-77084822D01*
X187553534Y-77081435D01*
X187550123Y-77077940D01*
X187546837Y-77074340D01*
X187543674Y-77070640D01*
X187540635Y-77066842D01*
X187537721Y-77062951D01*
X187534930Y-77058972D01*
X187532264Y-77054907D01*
X187529721Y-77050761D01*
X187527303Y-77046537D01*
X187525008Y-77042239D01*
X187522838Y-77037872D01*
X187520791Y-77033439D01*
X187518869Y-77028973D01*
X187517071Y-77024504D01*
X187515396Y-77020027D01*
X187513846Y-77015538D01*
X187512420Y-77011033D01*
X187511118Y-77006510D01*
X187509939Y-77001963D01*
X187508885Y-76997389D01*
X187507955Y-76992784D01*
X187507149Y-76988144D01*
X187506467Y-76983465D01*
X187505909Y-76978744D01*
X187505474Y-76973976D01*
X187505164Y-76969158D01*
X187504978Y-76964286D01*
X187504916Y-76959355D01*
X187505102Y-76951014D01*
X187505655Y-76942850D01*
X187506573Y-76934857D01*
X187507852Y-76927027D01*
X187509486Y-76919352D01*
X187511474Y-76911824D01*
X187513810Y-76904435D01*
X187516492Y-76897179D01*
X187519514Y-76890046D01*
X187522874Y-76883030D01*
X187526567Y-76876122D01*
X187530589Y-76869315D01*
X187534937Y-76862601D01*
X187539607Y-76855972D01*
X187544594Y-76849421D01*
X187549895Y-76842940D01*
X187555506Y-76837143D01*
X187561419Y-76831664D01*
X187567627Y-76826510D01*
X187574121Y-76821690D01*
X187580895Y-76817211D01*
X187587939Y-76813081D01*
X187595248Y-76809307D01*
X187602812Y-76805898D01*
X187610624Y-76802861D01*
X187618676Y-76800203D01*
X187626961Y-76797933D01*
X187635471Y-76796059D01*
X187644198Y-76794587D01*
X187653134Y-76793526D01*
X187662272Y-76792884D01*
X187671603Y-76792668D01*
X187683353Y-76792854D01*
G37*
G36*
X186172197Y-79179664D02*
G01*
X186280677Y-79142623D01*
X186513510Y-79293435D01*
X186561135Y-79812018D01*
X186267448Y-79989289D01*
X186309781Y-80447018D01*
X185719761Y-80105706D01*
X185672136Y-78928310D01*
X186172197Y-79179664D01*
G37*
G36*
X186861245Y-73607364D02*
G01*
X186880871Y-73608206D01*
X186899692Y-73609613D01*
X186917706Y-73611591D01*
X186934914Y-73614141D01*
X186951316Y-73617270D01*
X186966912Y-73620979D01*
X186981702Y-73625274D01*
X186995685Y-73630158D01*
X187008863Y-73635636D01*
X187021234Y-73641709D01*
X187032799Y-73648384D01*
X187043558Y-73655663D01*
X187053511Y-73663551D01*
X187062658Y-73672051D01*
X187070998Y-73681168D01*
X187078658Y-73690751D01*
X187085768Y-73700655D01*
X187092334Y-73710893D01*
X187098366Y-73721475D01*
X187103871Y-73732415D01*
X187108857Y-73743722D01*
X187113331Y-73755409D01*
X187117301Y-73767488D01*
X187120775Y-73779970D01*
X187123761Y-73792867D01*
X187126266Y-73806189D01*
X187128298Y-73819950D01*
X187129865Y-73834161D01*
X187130975Y-73848832D01*
X187131635Y-73863977D01*
X187131853Y-73879605D01*
X187131637Y-73893962D01*
X187130990Y-73908265D01*
X187129917Y-73922521D01*
X187128422Y-73936739D01*
X187126508Y-73950925D01*
X187124179Y-73965089D01*
X187121440Y-73979236D01*
X187118293Y-73993376D01*
X187114743Y-74007516D01*
X187110795Y-74021664D01*
X187106451Y-74035827D01*
X187101715Y-74050014D01*
X187096592Y-74064231D01*
X187091085Y-74078487D01*
X187085198Y-74092790D01*
X187078936Y-74107147D01*
X187072333Y-74121441D01*
X187065427Y-74135549D01*
X187058228Y-74149470D01*
X187050741Y-74163206D01*
X187042975Y-74176756D01*
X187034938Y-74190119D01*
X187026638Y-74203297D01*
X187018082Y-74216288D01*
X187009277Y-74229093D01*
X187000233Y-74241713D01*
X186990955Y-74254146D01*
X186981454Y-74266393D01*
X186961806Y-74290330D01*
X186941353Y-74313522D01*
X186919390Y-74335836D01*
X186908296Y-74346602D01*
X186897117Y-74357096D01*
X186885845Y-74367311D01*
X186874473Y-74377239D01*
X186862991Y-74386873D01*
X186851394Y-74396205D01*
X186839672Y-74405226D01*
X186827819Y-74413930D01*
X186815826Y-74422308D01*
X186803686Y-74430352D01*
X186791391Y-74438056D01*
X186778933Y-74445411D01*
X186766305Y-74452409D01*
X186753498Y-74459043D01*
X186773797Y-74504105D01*
X186794840Y-74551647D01*
X186816379Y-74601174D01*
X186838165Y-74652189D01*
X186881491Y-74754715D01*
X186922832Y-74853272D01*
X186967811Y-74964397D01*
X186979675Y-74992178D01*
X186991292Y-75019960D01*
X187002413Y-75047741D01*
X187007709Y-75061631D01*
X187012789Y-75075522D01*
X186668831Y-75194585D01*
X186657379Y-75155807D01*
X186646672Y-75118517D01*
X186626497Y-75046418D01*
X186606985Y-74975311D01*
X186597849Y-74940378D01*
X186589457Y-74906189D01*
X186578005Y-74865013D01*
X186567297Y-74824830D01*
X186547123Y-74747439D01*
X186512727Y-74609855D01*
X186509006Y-74595474D01*
X186505781Y-74582116D01*
X186503053Y-74569811D01*
X186500820Y-74558592D01*
X186499084Y-74548490D01*
X186497843Y-74539534D01*
X186497099Y-74531757D01*
X186496851Y-74525189D01*
X186467747Y-74533126D01*
X186461298Y-74570788D01*
X186453857Y-74612171D01*
X186445423Y-74657026D01*
X186435997Y-74705105D01*
X186426530Y-74755087D01*
X186417807Y-74805317D01*
X186401601Y-74903543D01*
X186361914Y-75136376D01*
X186002647Y-75228834D01*
X186118500Y-74654834D01*
X186146612Y-74492777D01*
X186161288Y-74410012D01*
X186176708Y-74326751D01*
X186187478Y-74268543D01*
X186520665Y-74268543D01*
X186523313Y-74268542D01*
X186528365Y-74267953D01*
X186533596Y-74267173D01*
X186538998Y-74266200D01*
X186544562Y-74265029D01*
X186550281Y-74263656D01*
X186556148Y-74262078D01*
X186562154Y-74260291D01*
X186568292Y-74258290D01*
X186574553Y-74256073D01*
X186580932Y-74253634D01*
X186587418Y-74250971D01*
X186594006Y-74248079D01*
X186600686Y-74244955D01*
X186607452Y-74241594D01*
X186614295Y-74237993D01*
X186621208Y-74234147D01*
X186636086Y-74226080D01*
X186650932Y-74217735D01*
X186665717Y-74209079D01*
X186680408Y-74200082D01*
X186694976Y-74190713D01*
X186709388Y-74180941D01*
X186723615Y-74170735D01*
X186737624Y-74160063D01*
X186744973Y-74154577D01*
X186752140Y-74149036D01*
X186765943Y-74137822D01*
X186779064Y-74126484D01*
X186791533Y-74115084D01*
X186803383Y-74103685D01*
X186814643Y-74092347D01*
X186825345Y-74081133D01*
X186835520Y-74070105D01*
X186840326Y-74064213D01*
X186844822Y-74058442D01*
X186849007Y-74052786D01*
X186852883Y-74047244D01*
X186856449Y-74041809D01*
X186859704Y-74036479D01*
X186862650Y-74031250D01*
X186865286Y-74026118D01*
X186867611Y-74021079D01*
X186869627Y-74016129D01*
X186871332Y-74011265D01*
X186872727Y-74006481D01*
X186873813Y-74001776D01*
X186874588Y-73997143D01*
X186875053Y-73992581D01*
X186875208Y-73988084D01*
X186875154Y-73985379D01*
X186874992Y-73982722D01*
X186874722Y-73980113D01*
X186874345Y-73977553D01*
X186873862Y-73975043D01*
X186873272Y-73972585D01*
X186872577Y-73970180D01*
X186871777Y-73967827D01*
X186870872Y-73965529D01*
X186869863Y-73963286D01*
X186868750Y-73961099D01*
X186867534Y-73958970D01*
X186866215Y-73956898D01*
X186864794Y-73954886D01*
X186863272Y-73952934D01*
X186861648Y-73951043D01*
X186859923Y-73949214D01*
X186858098Y-73947447D01*
X186856174Y-73945745D01*
X186854149Y-73944108D01*
X186852027Y-73942536D01*
X186849805Y-73941032D01*
X186847486Y-73939595D01*
X186845070Y-73938227D01*
X186842556Y-73936929D01*
X186839947Y-73935701D01*
X186837241Y-73934546D01*
X186834440Y-73933463D01*
X186828553Y-73931518D01*
X186822291Y-73929876D01*
X186815717Y-73927984D01*
X186808891Y-73926269D01*
X186801809Y-73924725D01*
X186794468Y-73923344D01*
X186786863Y-73922118D01*
X186778991Y-73921040D01*
X186770847Y-73920100D01*
X186762429Y-73919293D01*
X186744750Y-73918043D01*
X186725925Y-73917226D01*
X186705921Y-73916782D01*
X186684708Y-73916648D01*
X186592102Y-73916648D01*
X186520665Y-74268543D01*
X186187478Y-74268543D01*
X186192129Y-74243407D01*
X186206805Y-74160063D01*
X186234917Y-73993376D01*
X186247856Y-73911893D01*
X186259060Y-73833634D01*
X186268775Y-73757855D01*
X186277249Y-73683813D01*
X186309253Y-73674258D01*
X186341783Y-73665416D01*
X186374872Y-73657257D01*
X186408549Y-73649748D01*
X186442847Y-73642860D01*
X186477796Y-73636560D01*
X186513427Y-73630819D01*
X186549770Y-73625605D01*
X186586476Y-73621011D01*
X186623151Y-73617130D01*
X186659764Y-73613932D01*
X186696284Y-73611384D01*
X186732679Y-73609456D01*
X186768920Y-73608118D01*
X186804974Y-73607338D01*
X186840812Y-73607084D01*
X186861245Y-73607364D01*
G37*
G36*
X182876124Y-75858941D02*
G01*
X182890335Y-75859721D01*
X182897297Y-75860319D01*
X182904174Y-75861060D01*
X182910974Y-75861948D01*
X182917703Y-75862987D01*
X182924371Y-75864182D01*
X182930984Y-75865535D01*
X182937551Y-75867051D01*
X182944079Y-75868734D01*
X182950576Y-75870587D01*
X182957050Y-75872614D01*
X182963508Y-75874820D01*
X182969958Y-75877208D01*
X182976315Y-75879782D01*
X182982485Y-75882541D01*
X182988469Y-75885487D01*
X182994267Y-75888618D01*
X182999879Y-75891936D01*
X183005305Y-75895440D01*
X183010545Y-75899129D01*
X183015599Y-75903005D01*
X183020467Y-75907067D01*
X183025149Y-75911315D01*
X183029645Y-75915749D01*
X183033954Y-75920368D01*
X183038078Y-75925174D01*
X183042016Y-75930166D01*
X183045768Y-75935344D01*
X183049333Y-75940708D01*
X183053148Y-75946289D01*
X183056661Y-75952113D01*
X183059879Y-75958178D01*
X183062810Y-75964479D01*
X183065463Y-75971013D01*
X183067844Y-75977776D01*
X183069961Y-75984763D01*
X183071823Y-75991971D01*
X183073436Y-75999397D01*
X183074810Y-76007035D01*
X183075950Y-76014883D01*
X183076866Y-76022936D01*
X183077565Y-76031191D01*
X183078055Y-76039643D01*
X183078343Y-76048289D01*
X183078437Y-76057125D01*
X183078437Y-76104750D01*
X183078427Y-76107726D01*
X183078355Y-76110703D01*
X183078276Y-76112191D01*
X183078158Y-76113679D01*
X183077994Y-76115168D01*
X183077776Y-76116656D01*
X183077496Y-76118144D01*
X183077145Y-76119633D01*
X183076718Y-76121121D01*
X183076205Y-76122609D01*
X183075599Y-76124097D01*
X183074892Y-76125586D01*
X183074077Y-76127074D01*
X183073146Y-76128562D01*
X183073115Y-76130051D01*
X183073027Y-76131544D01*
X183072884Y-76133045D01*
X183072691Y-76134557D01*
X183072451Y-76136085D01*
X183072169Y-76137632D01*
X183071492Y-76140799D01*
X183070691Y-76144091D01*
X183069797Y-76147538D01*
X183067854Y-76155021D01*
X182824437Y-76226459D01*
X182825264Y-76223441D01*
X182826112Y-76220180D01*
X182827083Y-76216206D01*
X182828055Y-76211860D01*
X182828502Y-76209654D01*
X182828902Y-76207483D01*
X182829241Y-76205390D01*
X182829502Y-76203416D01*
X182829670Y-76201605D01*
X182829729Y-76200000D01*
X182829729Y-76173542D01*
X182829667Y-76167216D01*
X182829476Y-76161135D01*
X182829154Y-76155293D01*
X182828696Y-76149688D01*
X182828098Y-76144316D01*
X182827357Y-76139172D01*
X182826469Y-76134253D01*
X182825430Y-76129555D01*
X182824235Y-76125074D01*
X182822882Y-76120806D01*
X182821366Y-76116747D01*
X182819683Y-76112894D01*
X182817830Y-76109243D01*
X182815802Y-76105789D01*
X182813596Y-76102528D01*
X182811208Y-76099458D01*
X182809163Y-76096574D01*
X182806997Y-76093877D01*
X182804714Y-76091365D01*
X182802320Y-76089040D01*
X182799817Y-76086901D01*
X182797209Y-76084947D01*
X182794500Y-76083180D01*
X182791695Y-76081599D01*
X182788797Y-76080203D01*
X182785809Y-76078994D01*
X182782736Y-76077971D01*
X182779582Y-76077134D01*
X182776351Y-76076483D01*
X182773045Y-76076018D01*
X182769670Y-76075739D01*
X182766229Y-76075646D01*
X182764213Y-76075708D01*
X182762131Y-76075894D01*
X182759979Y-76076204D01*
X182757754Y-76076638D01*
X182755451Y-76077196D01*
X182753067Y-76077878D01*
X182750597Y-76078684D01*
X182748039Y-76079614D01*
X182745387Y-76080669D01*
X182742639Y-76081847D01*
X182739789Y-76083149D01*
X182736835Y-76084575D01*
X182733773Y-76086126D01*
X182730598Y-76087800D01*
X182727307Y-76089598D01*
X182723896Y-76091520D01*
X182720424Y-76093566D01*
X182716961Y-76095727D01*
X182713513Y-76097997D01*
X182710088Y-76100368D01*
X182706694Y-76102831D01*
X182703339Y-76105380D01*
X182700030Y-76108007D01*
X182696776Y-76110703D01*
X182693584Y-76113461D01*
X182690461Y-76116274D01*
X182687416Y-76119133D01*
X182684456Y-76122031D01*
X182681590Y-76124959D01*
X182678823Y-76127911D01*
X182676166Y-76130879D01*
X182673625Y-76133854D01*
X182670741Y-76137357D01*
X182668044Y-76140918D01*
X182665532Y-76144533D01*
X182663207Y-76148199D01*
X182661067Y-76151911D01*
X182659114Y-76155666D01*
X182657347Y-76159460D01*
X182655765Y-76163289D01*
X182654370Y-76167148D01*
X182653161Y-76171035D01*
X182652138Y-76174945D01*
X182651301Y-76178874D01*
X182650649Y-76182819D01*
X182650184Y-76186776D01*
X182649905Y-76190740D01*
X182649812Y-76194708D01*
X182649998Y-76201561D01*
X182650551Y-76208232D01*
X182651469Y-76214724D01*
X182652748Y-76221042D01*
X182654382Y-76227190D01*
X182656370Y-76233171D01*
X182658706Y-76238989D01*
X182661388Y-76244648D01*
X182664410Y-76250152D01*
X182667770Y-76255505D01*
X182671463Y-76260711D01*
X182675485Y-76265773D01*
X182679833Y-76270696D01*
X182684503Y-76275483D01*
X182689490Y-76280139D01*
X182694791Y-76284666D01*
X182706827Y-76293596D01*
X182719141Y-76302526D01*
X182731766Y-76311455D01*
X182744732Y-76320385D01*
X182758069Y-76329315D01*
X182771810Y-76338245D01*
X182785985Y-76347174D01*
X182800624Y-76356104D01*
X182804128Y-76358181D01*
X182807694Y-76360440D01*
X182811322Y-76362877D01*
X182815011Y-76365489D01*
X182818763Y-76368271D01*
X182822577Y-76371220D01*
X182826452Y-76374331D01*
X182830390Y-76377602D01*
X182838452Y-76384604D01*
X182846761Y-76392195D01*
X182855319Y-76400344D01*
X182864124Y-76409021D01*
X182868558Y-76413579D01*
X182872925Y-76418327D01*
X182877223Y-76423270D01*
X182881447Y-76428409D01*
X182885593Y-76433751D01*
X182889658Y-76439298D01*
X182893638Y-76445054D01*
X182897528Y-76451023D01*
X182901326Y-76457209D01*
X182905027Y-76463616D01*
X182908627Y-76470248D01*
X182912122Y-76477109D01*
X182915509Y-76484202D01*
X182918783Y-76491532D01*
X182921941Y-76499102D01*
X182924979Y-76506916D01*
X182928328Y-76514512D01*
X182931433Y-76522414D01*
X182934298Y-76530618D01*
X182936926Y-76539121D01*
X182939322Y-76547918D01*
X182941489Y-76557006D01*
X182943432Y-76566381D01*
X182945153Y-76576039D01*
X182946658Y-76585975D01*
X182947949Y-76596187D01*
X182949031Y-76606670D01*
X182949907Y-76617421D01*
X182950582Y-76628435D01*
X182951060Y-76639709D01*
X182951343Y-76651239D01*
X182951437Y-76663020D01*
X182951190Y-76678305D01*
X182950450Y-76693396D01*
X182949222Y-76708285D01*
X182947510Y-76722965D01*
X182945317Y-76737428D01*
X182942647Y-76751666D01*
X182939504Y-76765672D01*
X182935893Y-76779437D01*
X182931816Y-76792954D01*
X182927278Y-76806216D01*
X182922283Y-76819214D01*
X182916835Y-76831940D01*
X182910936Y-76844388D01*
X182904593Y-76856548D01*
X182897807Y-76868414D01*
X182890583Y-76879978D01*
X182882956Y-76891699D01*
X182874961Y-76903052D01*
X182866602Y-76914040D01*
X182857882Y-76924668D01*
X182848806Y-76934940D01*
X182839377Y-76944858D01*
X182829599Y-76954428D01*
X182819476Y-76963653D01*
X182809012Y-76972537D01*
X182798211Y-76981083D01*
X182787077Y-76989297D01*
X182775613Y-76997181D01*
X182763824Y-77004739D01*
X182751713Y-77011976D01*
X182739284Y-77018895D01*
X182726541Y-77025499D01*
X182713550Y-77031762D01*
X182700372Y-77037649D01*
X182687009Y-77043155D01*
X182673459Y-77048279D01*
X182659723Y-77053014D01*
X182645802Y-77057358D01*
X182631694Y-77061307D01*
X182617400Y-77064856D01*
X182602921Y-77068003D01*
X182588255Y-77070742D01*
X182573403Y-77073071D01*
X182558365Y-77074985D01*
X182543141Y-77076480D01*
X182527731Y-77077553D01*
X182512135Y-77078200D01*
X182496353Y-77078416D01*
X182504292Y-77083709D01*
X182495859Y-77083555D01*
X182487425Y-77083094D01*
X182478991Y-77082331D01*
X182470558Y-77081270D01*
X182462124Y-77079914D01*
X182453691Y-77078268D01*
X182445257Y-77076334D01*
X182436823Y-77074118D01*
X182428390Y-77071623D01*
X182419956Y-77068852D01*
X182411523Y-77065810D01*
X182403089Y-77062501D01*
X182394655Y-77058928D01*
X182386222Y-77055096D01*
X182377788Y-77051008D01*
X182369354Y-77046667D01*
X182360951Y-77042047D01*
X182352606Y-77037112D01*
X182344315Y-77031860D01*
X182336075Y-77026286D01*
X182327881Y-77020387D01*
X182319730Y-77014158D01*
X182311617Y-77007596D01*
X182303539Y-77000696D01*
X182295493Y-76993456D01*
X182287473Y-76985870D01*
X182279477Y-76977936D01*
X182271500Y-76969649D01*
X182263539Y-76961005D01*
X182255589Y-76952001D01*
X182247647Y-76942633D01*
X182239709Y-76932897D01*
X182364063Y-76689480D01*
X182369163Y-76697413D01*
X182371836Y-76701369D01*
X182374605Y-76705314D01*
X182377482Y-76709244D01*
X182380480Y-76713154D01*
X182383610Y-76717040D01*
X182386883Y-76720900D01*
X182390311Y-76724728D01*
X182393906Y-76728522D01*
X182397679Y-76732277D01*
X182401642Y-76735989D01*
X182405806Y-76739655D01*
X182410184Y-76743271D01*
X182414786Y-76746832D01*
X182419625Y-76750335D01*
X182428674Y-76757151D01*
X182437939Y-76763688D01*
X182447391Y-76769915D01*
X182456998Y-76775801D01*
X182466728Y-76781315D01*
X182471630Y-76783922D01*
X182476552Y-76786425D01*
X182481489Y-76788820D01*
X182486438Y-76791102D01*
X182491394Y-76793268D01*
X182496354Y-76795313D01*
X182506147Y-76799034D01*
X182515661Y-76802258D01*
X182524864Y-76804987D01*
X182533727Y-76807220D01*
X182538021Y-76808150D01*
X182542217Y-76808956D01*
X182546313Y-76809638D01*
X182550305Y-76810196D01*
X182554187Y-76810631D01*
X182557958Y-76810941D01*
X182561612Y-76811127D01*
X182565146Y-76811189D01*
X182570573Y-76811095D01*
X182575941Y-76810812D01*
X182581256Y-76810334D01*
X182586519Y-76809659D01*
X182591737Y-76808783D01*
X182596912Y-76807701D01*
X182602048Y-76806409D01*
X182607149Y-76804905D01*
X182612219Y-76803184D01*
X182617262Y-76801241D01*
X182622281Y-76799074D01*
X182627282Y-76796678D01*
X182632267Y-76794050D01*
X182637240Y-76791185D01*
X182642205Y-76788080D01*
X182647167Y-76784731D01*
X182651973Y-76781196D01*
X182656469Y-76777538D01*
X182660654Y-76773755D01*
X182664530Y-76769848D01*
X182668096Y-76765817D01*
X182671351Y-76761662D01*
X182674297Y-76757384D01*
X182676933Y-76752981D01*
X182679258Y-76748454D01*
X182681273Y-76743803D01*
X182682979Y-76739028D01*
X182684374Y-76734129D01*
X182685459Y-76729106D01*
X182686234Y-76723959D01*
X182686699Y-76718688D01*
X182686854Y-76713293D01*
X182686638Y-76705913D01*
X182685991Y-76698653D01*
X182684919Y-76691509D01*
X182683423Y-76684478D01*
X182681509Y-76677555D01*
X182679181Y-76670737D01*
X182676441Y-76664020D01*
X182673295Y-76657400D01*
X182669745Y-76650872D01*
X182665796Y-76644434D01*
X182661452Y-76638081D01*
X182656717Y-76631809D01*
X182651594Y-76625615D01*
X182646087Y-76619495D01*
X182640200Y-76613444D01*
X182633937Y-76607459D01*
X182620677Y-76595553D01*
X182606735Y-76583647D01*
X182592173Y-76571740D01*
X182577052Y-76559834D01*
X182561435Y-76547928D01*
X182545385Y-76536022D01*
X182528962Y-76524115D01*
X182512229Y-76512209D01*
X182496370Y-76500174D01*
X182480603Y-76487859D01*
X182465023Y-76475235D01*
X182449722Y-76462269D01*
X182434792Y-76448931D01*
X182420328Y-76435190D01*
X182413299Y-76428159D01*
X182406422Y-76421015D01*
X182399707Y-76413755D01*
X182393167Y-76406375D01*
X182386438Y-76398871D01*
X182380144Y-76391239D01*
X182374284Y-76383475D01*
X182368858Y-76375576D01*
X182363866Y-76367537D01*
X182359308Y-76359355D01*
X182355184Y-76351025D01*
X182351495Y-76342545D01*
X182348239Y-76333909D01*
X182345418Y-76325114D01*
X182343030Y-76316157D01*
X182341077Y-76307033D01*
X182339558Y-76297738D01*
X182338472Y-76288269D01*
X182337821Y-76278622D01*
X182337604Y-76268792D01*
X182337791Y-76257940D01*
X182338353Y-76247207D01*
X182339296Y-76236591D01*
X182340622Y-76226087D01*
X182342336Y-76215691D01*
X182344441Y-76205401D01*
X182346941Y-76195211D01*
X182349841Y-76185118D01*
X182353144Y-76175118D01*
X182356854Y-76165207D01*
X182360974Y-76155381D01*
X182365509Y-76145637D01*
X182370463Y-76135970D01*
X182375840Y-76126377D01*
X182381642Y-76116854D01*
X182387875Y-76107396D01*
X182394418Y-76098063D01*
X182401151Y-76088912D01*
X182408078Y-76079939D01*
X182415202Y-76071140D01*
X182422528Y-76062512D01*
X182430059Y-76054050D01*
X182437799Y-76045752D01*
X182445753Y-76037612D01*
X182453924Y-76029627D01*
X182462315Y-76021794D01*
X182470932Y-76014108D01*
X182479777Y-76006565D01*
X182488854Y-75999161D01*
X182498168Y-75991894D01*
X182507723Y-75984758D01*
X182517521Y-75977750D01*
X182537608Y-75964231D01*
X182558159Y-75951457D01*
X182579145Y-75939427D01*
X182600534Y-75928141D01*
X182622295Y-75917599D01*
X182644397Y-75907801D01*
X182666809Y-75898747D01*
X182689500Y-75890438D01*
X182712191Y-75882996D01*
X182734603Y-75876547D01*
X182756705Y-75871090D01*
X182778466Y-75866625D01*
X182799855Y-75863152D01*
X182820841Y-75860672D01*
X182831173Y-75859804D01*
X182841393Y-75859184D01*
X182851496Y-75858812D01*
X182861479Y-75858688D01*
X182876124Y-75858941D01*
G37*
G36*
X180721000Y-75946000D02*
G01*
X180713062Y-76030666D01*
X180709094Y-76069320D01*
X180705125Y-76105742D01*
X180701156Y-76139683D01*
X180697187Y-76170896D01*
X180676021Y-76374625D01*
X180668414Y-76459622D01*
X180665231Y-76497036D01*
X180662791Y-76530728D01*
X180661686Y-76546474D01*
X180660394Y-76561941D01*
X180657500Y-76591914D01*
X180654606Y-76620398D01*
X180652208Y-76647145D01*
X180651097Y-76661046D01*
X180649769Y-76675009D01*
X180646586Y-76703369D01*
X180638979Y-76763561D01*
X180668083Y-76763561D01*
X180855937Y-75874561D01*
X180948542Y-75869270D01*
X181035854Y-75869270D01*
X181047347Y-75869228D01*
X181052876Y-75869130D01*
X181058344Y-75868939D01*
X181063811Y-75868624D01*
X181069340Y-75868153D01*
X181074994Y-75867497D01*
X181080833Y-75866624D01*
X181090755Y-75866582D01*
X181095716Y-75866484D01*
X181100677Y-75866293D01*
X181105638Y-75865978D01*
X181110599Y-75865507D01*
X181115560Y-75864851D01*
X181118040Y-75864443D01*
X181120520Y-75863978D01*
X181104646Y-75915034D01*
X181088771Y-75968819D01*
X181072895Y-76025084D01*
X181057021Y-76083582D01*
X181024940Y-76208597D01*
X181008279Y-76272593D01*
X180990875Y-76337582D01*
X180974586Y-76402611D01*
X180957802Y-76466897D01*
X180941017Y-76530686D01*
X180924729Y-76594227D01*
X180911252Y-76647888D01*
X180898271Y-76702045D01*
X180871812Y-76813831D01*
X180857963Y-76869435D01*
X180844362Y-76925288D01*
X180831257Y-76981635D01*
X180818896Y-77038727D01*
X180384979Y-77104873D01*
X180384979Y-77096938D01*
X180396555Y-76979529D01*
X180401723Y-76921693D01*
X180406146Y-76864104D01*
X180424667Y-76636562D01*
X180433679Y-76535401D01*
X180441203Y-76434487D01*
X180453771Y-76234396D01*
X180458815Y-76137079D01*
X180462370Y-76043235D01*
X180467000Y-75863979D01*
X180532484Y-75863442D01*
X180597969Y-75861664D01*
X180630711Y-75860233D01*
X180663453Y-75858398D01*
X180696195Y-75856129D01*
X180728937Y-75853396D01*
X180721000Y-75946000D01*
G37*
G36*
X186004729Y-70741647D02*
G01*
X185464980Y-70741647D01*
X185359147Y-71352834D01*
X185464980Y-71350188D01*
X185795709Y-71350188D01*
X185811088Y-71350147D01*
X185818406Y-71350049D01*
X185825475Y-71349858D01*
X185832296Y-71349542D01*
X185838869Y-71349072D01*
X185845195Y-71348416D01*
X185851272Y-71347543D01*
X185851034Y-71359449D01*
X185850362Y-71371355D01*
X185849318Y-71383261D01*
X185847964Y-71395168D01*
X185846362Y-71407074D01*
X185844574Y-71418980D01*
X185840688Y-71442793D01*
X185827459Y-71538042D01*
X185795709Y-71723251D01*
X185755980Y-71723168D01*
X185708065Y-71722589D01*
X185680961Y-71721959D01*
X185651717Y-71721018D01*
X185620303Y-71719706D01*
X185586688Y-71717959D01*
X185298292Y-71710021D01*
X185139542Y-72723375D01*
X185023125Y-72744542D01*
X184965909Y-72756448D01*
X184906708Y-72768355D01*
X184882534Y-72772561D01*
X184857678Y-72777202D01*
X184806167Y-72787537D01*
X184697687Y-72810688D01*
X184642124Y-72822553D01*
X184590531Y-72834170D01*
X184499250Y-72855667D01*
X184501896Y-72850376D01*
X184525667Y-72764510D01*
X184549190Y-72673436D01*
X184560781Y-72625868D01*
X184572217Y-72576904D01*
X184583467Y-72526515D01*
X184594500Y-72474668D01*
X184637826Y-72261017D01*
X184658868Y-72152455D01*
X184679167Y-72043397D01*
X184753250Y-71633293D01*
X184785000Y-71460321D01*
X184797899Y-71386610D01*
X184808813Y-71321084D01*
X184828202Y-71205536D01*
X184846847Y-71089243D01*
X184882896Y-70855417D01*
X184954334Y-70376522D01*
X186105271Y-70318313D01*
X186004729Y-70741647D01*
G37*
G36*
X181498875Y-77083709D02*
G01*
X181496229Y-77083709D01*
X181499024Y-77082969D01*
X181498875Y-77083709D01*
G37*
G36*
X184821910Y-81282820D02*
G01*
X184827588Y-81283221D01*
X184833219Y-81283986D01*
X184838781Y-81285128D01*
X184844249Y-81286657D01*
X184849602Y-81288585D01*
X184854815Y-81290924D01*
X184859865Y-81293685D01*
X184864730Y-81296349D01*
X184869394Y-81299365D01*
X184873841Y-81302714D01*
X184878055Y-81306377D01*
X184882021Y-81310335D01*
X184885724Y-81314568D01*
X184889147Y-81319057D01*
X184892276Y-81323782D01*
X184895095Y-81328724D01*
X184897589Y-81333864D01*
X184899741Y-81339182D01*
X184901537Y-81344659D01*
X184902960Y-81350276D01*
X184903996Y-81356013D01*
X184904630Y-81361850D01*
X184904844Y-81367769D01*
X184978927Y-84357560D01*
X184979332Y-84361002D01*
X184979558Y-84364381D01*
X184979613Y-84367699D01*
X184979506Y-84370955D01*
X184979244Y-84374148D01*
X184978834Y-84377280D01*
X184978285Y-84380349D01*
X184977604Y-84383357D01*
X184976799Y-84386303D01*
X184975878Y-84389186D01*
X184974849Y-84392008D01*
X184973718Y-84394767D01*
X184972495Y-84397465D01*
X184971186Y-84400100D01*
X184969800Y-84402674D01*
X184968344Y-84405185D01*
X184966267Y-84408625D01*
X184964008Y-84411991D01*
X184961571Y-84415272D01*
X184958959Y-84418456D01*
X184956177Y-84421531D01*
X184953228Y-84424486D01*
X184950117Y-84427310D01*
X184946846Y-84429990D01*
X184943421Y-84432515D01*
X184939844Y-84434873D01*
X184936120Y-84437053D01*
X184932253Y-84439043D01*
X184928246Y-84440832D01*
X184924103Y-84442408D01*
X184919829Y-84443758D01*
X184915427Y-84444873D01*
X184822823Y-84468685D01*
X184817833Y-84469553D01*
X184812797Y-84470173D01*
X184807731Y-84470545D01*
X184802648Y-84470670D01*
X184797566Y-84470545D01*
X184792499Y-84470173D01*
X184787463Y-84469553D01*
X184782474Y-84468685D01*
X184777546Y-84467569D01*
X184772696Y-84466205D01*
X184767940Y-84464592D01*
X184763291Y-84462732D01*
X184758767Y-84460624D01*
X184754382Y-84458267D01*
X184750153Y-84455663D01*
X184746093Y-84452810D01*
X184742219Y-84449712D01*
X184738538Y-84446382D01*
X184735059Y-84442834D01*
X184731789Y-84439085D01*
X184728737Y-84435150D01*
X184725909Y-84431044D01*
X184723313Y-84426783D01*
X184720958Y-84422383D01*
X184718851Y-84417859D01*
X184717000Y-84413226D01*
X184715412Y-84408500D01*
X184714095Y-84403697D01*
X184713058Y-84398832D01*
X184712308Y-84393920D01*
X184711851Y-84388977D01*
X184711698Y-84384019D01*
X184691771Y-83519617D01*
X184677746Y-83102469D01*
X184661427Y-82713506D01*
X184643123Y-82366338D01*
X184623145Y-82074578D01*
X184601803Y-81851837D01*
X184590717Y-81770603D01*
X184579406Y-81711727D01*
X184552152Y-81722994D01*
X184520490Y-81739482D01*
X184485162Y-81760520D01*
X184446908Y-81785438D01*
X184406468Y-81813565D01*
X184364582Y-81844230D01*
X184321991Y-81876764D01*
X184279435Y-81910495D01*
X184237654Y-81944753D01*
X184197388Y-81978868D01*
X184159378Y-82012169D01*
X184124364Y-82043986D01*
X184093086Y-82073647D01*
X184066285Y-82100483D01*
X184044701Y-82123824D01*
X184029073Y-82142998D01*
X184023213Y-82274199D01*
X184022872Y-82514944D01*
X184035026Y-83229443D01*
X184084635Y-84921123D01*
X184084791Y-84925083D01*
X184084764Y-84929022D01*
X184084558Y-84932935D01*
X184084176Y-84936817D01*
X184083621Y-84940662D01*
X184082897Y-84944464D01*
X184082008Y-84948219D01*
X184080956Y-84951922D01*
X184079746Y-84955566D01*
X184078379Y-84959147D01*
X184076861Y-84962658D01*
X184075194Y-84966096D01*
X184073382Y-84969455D01*
X184071428Y-84972728D01*
X184069335Y-84975912D01*
X184067107Y-84979000D01*
X184064747Y-84981987D01*
X184062259Y-84984868D01*
X184059646Y-84987638D01*
X184056911Y-84990291D01*
X184054058Y-84992822D01*
X184051090Y-84995226D01*
X184048011Y-84997496D01*
X184044824Y-84999629D01*
X184041532Y-85001618D01*
X184038139Y-85003459D01*
X184034648Y-85005146D01*
X184031063Y-85006673D01*
X184027386Y-85008035D01*
X184023622Y-85009228D01*
X184019773Y-85010245D01*
X184015844Y-85011081D01*
X183835927Y-85048123D01*
X183830967Y-85048961D01*
X183826015Y-85049497D01*
X183821079Y-85049739D01*
X183816166Y-85049693D01*
X183811284Y-85049369D01*
X183806441Y-85048773D01*
X183801644Y-85047914D01*
X183796901Y-85046799D01*
X183792220Y-85045436D01*
X183787610Y-85043833D01*
X183783076Y-85041997D01*
X183778628Y-85039937D01*
X183774273Y-85037659D01*
X183770019Y-85035172D01*
X183765873Y-85032484D01*
X183761844Y-85029601D01*
X183758435Y-85026067D01*
X183755162Y-85022413D01*
X183752036Y-85018643D01*
X183749069Y-85014760D01*
X183746273Y-85010769D01*
X183743659Y-85006673D01*
X183741239Y-85002476D01*
X183739024Y-84998182D01*
X183737026Y-84993796D01*
X183735256Y-84989320D01*
X183733727Y-84984759D01*
X183732450Y-84980116D01*
X183731437Y-84975396D01*
X183730698Y-84970603D01*
X183730247Y-84965739D01*
X183730094Y-84960810D01*
X183726620Y-84738560D01*
X183907365Y-84738560D01*
X183907365Y-84852331D01*
X183910010Y-84852331D01*
X183909897Y-84840931D01*
X183909597Y-84828601D01*
X183908688Y-84801398D01*
X183907778Y-84771219D01*
X183907478Y-84755169D01*
X183907365Y-84738560D01*
X183726620Y-84738560D01*
X183718353Y-84209641D01*
X183699667Y-83414320D01*
X183675027Y-82732109D01*
X183660785Y-82482563D01*
X183645427Y-82320268D01*
X183617140Y-82332709D01*
X183584330Y-82349843D01*
X183547683Y-82371155D01*
X183507885Y-82396130D01*
X183465622Y-82424251D01*
X183421580Y-82455005D01*
X183376445Y-82487874D01*
X183330904Y-82522344D01*
X183285641Y-82557900D01*
X183241343Y-82594025D01*
X183198697Y-82630204D01*
X183158387Y-82665922D01*
X183121101Y-82700663D01*
X183087523Y-82733913D01*
X183058341Y-82765154D01*
X183034240Y-82793873D01*
X183022595Y-82835497D01*
X183013388Y-82903504D01*
X183001870Y-83110835D01*
X182998847Y-83400208D01*
X183003482Y-83755964D01*
X183032379Y-84603995D01*
X183081865Y-85529664D01*
X183082059Y-85532633D01*
X183082146Y-85535585D01*
X183082127Y-85538518D01*
X183082004Y-85541431D01*
X183081779Y-85544323D01*
X183081452Y-85547192D01*
X183081025Y-85550037D01*
X183080500Y-85552857D01*
X183079879Y-85555649D01*
X183079161Y-85558412D01*
X183078350Y-85561146D01*
X183077446Y-85563848D01*
X183076452Y-85566517D01*
X183075367Y-85569152D01*
X183072935Y-85574313D01*
X183070162Y-85579318D01*
X183067059Y-85584157D01*
X183063639Y-85588817D01*
X183059913Y-85593288D01*
X183055892Y-85597557D01*
X183051588Y-85601613D01*
X183047012Y-85605444D01*
X183042177Y-85609039D01*
X182938990Y-85675185D01*
X182933939Y-85678471D01*
X182928722Y-85681381D01*
X182923357Y-85683911D01*
X182917864Y-85686058D01*
X182912263Y-85687817D01*
X182906573Y-85689184D01*
X182900813Y-85690156D01*
X182895003Y-85690729D01*
X182889161Y-85690899D01*
X182883308Y-85690662D01*
X182877463Y-85690014D01*
X182871645Y-85688952D01*
X182865873Y-85687471D01*
X182860168Y-85685567D01*
X182854547Y-85683237D01*
X182849031Y-85680477D01*
X182843700Y-85677348D01*
X182838629Y-85673924D01*
X182833829Y-85670221D01*
X182829312Y-85666255D01*
X182825089Y-85662041D01*
X182821173Y-85657594D01*
X182817574Y-85652931D01*
X182814305Y-85648065D01*
X182811377Y-85643014D01*
X182808801Y-85637792D01*
X182806590Y-85632415D01*
X182804755Y-85626899D01*
X182803307Y-85621258D01*
X182802259Y-85615509D01*
X182801621Y-85609667D01*
X182801406Y-85603748D01*
X182778214Y-84829428D01*
X182746836Y-84010955D01*
X182710993Y-83315515D01*
X182692560Y-83066176D01*
X182674406Y-82910289D01*
X182655982Y-82917689D01*
X182634538Y-82927947D01*
X182610218Y-82941002D01*
X182583166Y-82956798D01*
X182521439Y-82996377D01*
X182450503Y-83046218D01*
X182371505Y-83105858D01*
X182285593Y-83174831D01*
X182193914Y-83252671D01*
X182097615Y-83338914D01*
X182082167Y-83382482D01*
X182068536Y-83453305D01*
X182046558Y-83668651D01*
X182031340Y-83968829D01*
X182022539Y-84337716D01*
X182019816Y-84759189D01*
X182022829Y-85217125D01*
X182044698Y-86177893D01*
X182045040Y-86182822D01*
X182045075Y-86187686D01*
X182044808Y-86192479D01*
X182044243Y-86197199D01*
X182043384Y-86201841D01*
X182042233Y-86206402D01*
X182040796Y-86210878D01*
X182039076Y-86215265D01*
X182037076Y-86219558D01*
X182034802Y-86223755D01*
X182032256Y-86227851D01*
X182029443Y-86231842D01*
X182026366Y-86235725D01*
X182023030Y-86239495D01*
X182019438Y-86243150D01*
X182015594Y-86246683D01*
X182012030Y-86250032D01*
X182008292Y-86253128D01*
X182004391Y-86255968D01*
X182000339Y-86258549D01*
X181996147Y-86260866D01*
X181991828Y-86262916D01*
X181987392Y-86264694D01*
X181982852Y-86266198D01*
X181978218Y-86267422D01*
X181973503Y-86268363D01*
X181968719Y-86269017D01*
X181963876Y-86269381D01*
X181958987Y-86269450D01*
X181954063Y-86269221D01*
X181949115Y-86268689D01*
X181944156Y-86267851D01*
X181944157Y-86273144D01*
X181830386Y-86254623D01*
X181826449Y-86253794D01*
X181822578Y-86252799D01*
X181818776Y-86251643D01*
X181815048Y-86250329D01*
X181811398Y-86248861D01*
X181807829Y-86247245D01*
X181804345Y-86245485D01*
X181800951Y-86243585D01*
X181797649Y-86241549D01*
X181794445Y-86239382D01*
X181791341Y-86237087D01*
X181788342Y-86234671D01*
X181785451Y-86232136D01*
X181782673Y-86229487D01*
X181780011Y-86226728D01*
X181777469Y-86223865D01*
X181775051Y-86220901D01*
X181772761Y-86217840D01*
X181770603Y-86214688D01*
X181768581Y-86211447D01*
X181766698Y-86208123D01*
X181764958Y-86204721D01*
X181763366Y-86201244D01*
X181761925Y-86197696D01*
X181760639Y-86194083D01*
X181759512Y-86190408D01*
X181758547Y-86186676D01*
X181757749Y-86182891D01*
X181757122Y-86179057D01*
X181756669Y-86175180D01*
X181756395Y-86171263D01*
X181756303Y-86167310D01*
X181733667Y-83368018D01*
X181907115Y-83368018D01*
X181910091Y-83354120D01*
X181913068Y-83341172D01*
X181916044Y-83329131D01*
X181919021Y-83317954D01*
X181921998Y-83307599D01*
X181924974Y-83298022D01*
X181927951Y-83289182D01*
X181930927Y-83281036D01*
X181933904Y-83273541D01*
X181936880Y-83266655D01*
X181939857Y-83260334D01*
X181942833Y-83254537D01*
X181945810Y-83249220D01*
X181948787Y-83244341D01*
X181951763Y-83239858D01*
X181954740Y-83235727D01*
X181907115Y-83264831D01*
X181907115Y-83368018D01*
X181733667Y-83368018D01*
X181732490Y-83222498D01*
X181732536Y-83219529D01*
X181732675Y-83216578D01*
X181732904Y-83213647D01*
X181733224Y-83210736D01*
X181733633Y-83207849D01*
X181734129Y-83204987D01*
X181734714Y-83202152D01*
X181735384Y-83199347D01*
X181736139Y-83196572D01*
X181736979Y-83193830D01*
X181738908Y-83188453D01*
X181739995Y-83185822D01*
X181741163Y-83183231D01*
X181742409Y-83180683D01*
X181743735Y-83178180D01*
X181745138Y-83175723D01*
X181746617Y-83173315D01*
X181748172Y-83170956D01*
X181749802Y-83168651D01*
X181751505Y-83166399D01*
X181753281Y-83164204D01*
X181755128Y-83162067D01*
X181757047Y-83159990D01*
X181759035Y-83157975D01*
X181761092Y-83156024D01*
X181763216Y-83154138D01*
X181765408Y-83152321D01*
X181767665Y-83150573D01*
X181769988Y-83148897D01*
X181772374Y-83147295D01*
X181774823Y-83145769D01*
X182430041Y-82740956D01*
X182756427Y-82740956D01*
X182761792Y-82743033D01*
X182766974Y-82745297D01*
X182771978Y-82747746D01*
X182776808Y-82750382D01*
X182781468Y-82753203D01*
X182785960Y-82756211D01*
X182790290Y-82759404D01*
X182794461Y-82762784D01*
X182798477Y-82766350D01*
X182802342Y-82770101D01*
X182806059Y-82774039D01*
X182809633Y-82778163D01*
X182813068Y-82782473D01*
X182816366Y-82786968D01*
X182819534Y-82791650D01*
X182822573Y-82796518D01*
X182822573Y-82796519D01*
X182824671Y-82800983D01*
X182826955Y-82806440D01*
X182829363Y-82812889D01*
X182831834Y-82820331D01*
X182834304Y-82828765D01*
X182836712Y-82838190D01*
X182838996Y-82848608D01*
X182841094Y-82860019D01*
X182844100Y-82837827D01*
X182845624Y-82827551D01*
X182847161Y-82817799D01*
X182848709Y-82808555D01*
X182850268Y-82799801D01*
X182851836Y-82791523D01*
X182853414Y-82783703D01*
X182854999Y-82776325D01*
X182856590Y-82769372D01*
X182858188Y-82762828D01*
X182859790Y-82756676D01*
X182861397Y-82750901D01*
X182863006Y-82745485D01*
X182864617Y-82740411D01*
X182866229Y-82735665D01*
X182867841Y-82731228D01*
X182869453Y-82727085D01*
X182871062Y-82723219D01*
X182872668Y-82719614D01*
X182874271Y-82716253D01*
X182875868Y-82713120D01*
X182879045Y-82707470D01*
X182882191Y-82702534D01*
X182885298Y-82698179D01*
X182888358Y-82694273D01*
X182891365Y-82690686D01*
X182919146Y-82657943D01*
X182927331Y-82648595D01*
X182936013Y-82638968D01*
X182945191Y-82629154D01*
X182954865Y-82619248D01*
X182756427Y-82740956D01*
X182430041Y-82740956D01*
X183393598Y-82145643D01*
X183727448Y-82145643D01*
X183730138Y-82146418D01*
X183732752Y-82147251D01*
X183735291Y-82148139D01*
X183737757Y-82149079D01*
X183740152Y-82150068D01*
X183742476Y-82151102D01*
X183744731Y-82152177D01*
X183746919Y-82153291D01*
X183749042Y-82154439D01*
X183751099Y-82155620D01*
X183755028Y-82158061D01*
X183758715Y-82160587D01*
X183762174Y-82163171D01*
X183765416Y-82165787D01*
X183768453Y-82168406D01*
X183771296Y-82171002D01*
X183773957Y-82173548D01*
X183783010Y-82182684D01*
X183790953Y-82192658D01*
X183798927Y-82207903D01*
X183806962Y-82233193D01*
X183815091Y-82273304D01*
X183823344Y-82333011D01*
X183831752Y-82417089D01*
X183840345Y-82530312D01*
X183849156Y-82677455D01*
X183848489Y-82626171D01*
X183847970Y-82577921D01*
X183847595Y-82532610D01*
X183847358Y-82490139D01*
X183847252Y-82450412D01*
X183847273Y-82413332D01*
X183847413Y-82378803D01*
X183847668Y-82346726D01*
X183848031Y-82317007D01*
X183848497Y-82289547D01*
X183849060Y-82264249D01*
X183849714Y-82241017D01*
X183850454Y-82219754D01*
X183851272Y-82200363D01*
X183852165Y-82182748D01*
X183853125Y-82166810D01*
X183854147Y-82152454D01*
X183855226Y-82139582D01*
X183856354Y-82128097D01*
X183857528Y-82117903D01*
X183858740Y-82108903D01*
X183859985Y-82101000D01*
X183861257Y-82094097D01*
X183862551Y-82088096D01*
X183863860Y-82082902D01*
X183865179Y-82078417D01*
X183866501Y-82074545D01*
X183867822Y-82071188D01*
X183869135Y-82068249D01*
X183870434Y-82065632D01*
X183872969Y-82060976D01*
X183872992Y-82060706D01*
X183873058Y-82060392D01*
X183873165Y-82060038D01*
X183873310Y-82059648D01*
X183873701Y-82058773D01*
X183874209Y-82057793D01*
X183874810Y-82056736D01*
X183875480Y-82055628D01*
X183876197Y-82054497D01*
X183876938Y-82053370D01*
X183878395Y-82051236D01*
X183879666Y-82049442D01*
X183880906Y-82047747D01*
X183727448Y-82142998D01*
X183727448Y-82145643D01*
X183393598Y-82145643D01*
X184357153Y-81550331D01*
X184687886Y-81550331D01*
X184691327Y-81552354D01*
X184694707Y-81554485D01*
X184698024Y-81556772D01*
X184701280Y-81559260D01*
X184704474Y-81561996D01*
X184707605Y-81565027D01*
X184710675Y-81568399D01*
X184713682Y-81572159D01*
X184716628Y-81576352D01*
X184719512Y-81581026D01*
X184722333Y-81586228D01*
X184725093Y-81592002D01*
X184727790Y-81598397D01*
X184730426Y-81605459D01*
X184732999Y-81613234D01*
X184735511Y-81621768D01*
X184735511Y-81521227D01*
X184687886Y-81550331D01*
X184357153Y-81550331D01*
X184772552Y-81293685D01*
X184777602Y-81291331D01*
X184782815Y-81289236D01*
X184788167Y-81287413D01*
X184793636Y-81285872D01*
X184799198Y-81284626D01*
X184804829Y-81283686D01*
X184810507Y-81283064D01*
X184816208Y-81282771D01*
X184821910Y-81282820D01*
G37*
G36*
X182760937Y-74099209D02*
G01*
X182745062Y-74165727D01*
X182729187Y-74234478D01*
X182713312Y-74305709D01*
X182697437Y-74379668D01*
X182682017Y-74454164D01*
X182667340Y-74527173D01*
X182639228Y-74670709D01*
X182626289Y-74738592D01*
X182615085Y-74803001D01*
X182605370Y-74863442D01*
X182596895Y-74919418D01*
X182625173Y-74917475D01*
X182654442Y-74915780D01*
X182669449Y-74915103D01*
X182684704Y-74914581D01*
X182700207Y-74914245D01*
X182715958Y-74914126D01*
X182827083Y-74914126D01*
X182827316Y-74927035D01*
X182827951Y-74940006D01*
X182828897Y-74953100D01*
X182830060Y-74966381D01*
X182832664Y-74993749D01*
X182833920Y-75007960D01*
X182835021Y-75022605D01*
X182842628Y-75075522D01*
X182845811Y-75099252D01*
X182848250Y-75120501D01*
X182849350Y-75129922D01*
X182850606Y-75138319D01*
X182851924Y-75145663D01*
X182853211Y-75151921D01*
X182855319Y-75161057D01*
X182855955Y-75163873D01*
X182856187Y-75165480D01*
X182790042Y-75165480D01*
X182745352Y-75165604D01*
X182722186Y-75165899D01*
X182698430Y-75166473D01*
X182674055Y-75167418D01*
X182649028Y-75168829D01*
X182623319Y-75170798D01*
X182596896Y-75173418D01*
X182543773Y-75177883D01*
X182491394Y-75183340D01*
X182439510Y-75189789D01*
X182387875Y-75197230D01*
X182362445Y-75201437D01*
X182337729Y-75206078D01*
X182313694Y-75211090D01*
X182290310Y-75216413D01*
X182267547Y-75221984D01*
X182245372Y-75227741D01*
X182202667Y-75239564D01*
X182202667Y-75234272D01*
X182215028Y-75146546D01*
X182228133Y-75058324D01*
X182255584Y-74882376D01*
X182269516Y-74794030D01*
X182283695Y-74707420D01*
X182298372Y-74622299D01*
X182313792Y-74538418D01*
X182343557Y-74380991D01*
X182369354Y-74239439D01*
X182398458Y-74094579D01*
X182413258Y-74020661D01*
X182427562Y-73945751D01*
X182441908Y-73871875D01*
X182456997Y-73797254D01*
X182488416Y-73646772D01*
X182877354Y-73596501D01*
X182760937Y-74099209D01*
G37*
G36*
X188393374Y-70331987D02*
G01*
X188387756Y-70351138D01*
X188377049Y-70389751D01*
X188356875Y-70466480D01*
X188325125Y-70601418D01*
X188298667Y-70725772D01*
X188287133Y-70725999D01*
X188274358Y-70726599D01*
X188245089Y-70728418D01*
X188228594Y-70729389D01*
X188210858Y-70730237D01*
X188191883Y-70730836D01*
X188171667Y-70731064D01*
X188129954Y-70731105D01*
X188087993Y-70731394D01*
X188045536Y-70732180D01*
X188002334Y-70733710D01*
X187980991Y-70734469D01*
X187960579Y-70734826D01*
X187941035Y-70734872D01*
X187922297Y-70734702D01*
X187886992Y-70734082D01*
X187854167Y-70733710D01*
X187788021Y-70733710D01*
X187668959Y-71350189D01*
X187867396Y-71339605D01*
X187944125Y-71336959D01*
X188089646Y-71336959D01*
X188104529Y-71336918D01*
X188111227Y-71336820D01*
X188117428Y-71336629D01*
X188123133Y-71336314D01*
X188128342Y-71335843D01*
X188133054Y-71335187D01*
X188135225Y-71334779D01*
X188137271Y-71334314D01*
X188124043Y-71429563D01*
X188122932Y-71441470D01*
X188121604Y-71453376D01*
X188120090Y-71465282D01*
X188118420Y-71477188D01*
X188114741Y-71501001D01*
X188110813Y-71524813D01*
X188079064Y-71715314D01*
X188074640Y-71715727D01*
X188063520Y-71716636D01*
X188056456Y-71717122D01*
X188048926Y-71717546D01*
X188041335Y-71717846D01*
X188034085Y-71717959D01*
X187967939Y-71717959D01*
X187888564Y-71720605D01*
X187867604Y-71720647D01*
X187847885Y-71720936D01*
X187838257Y-71721251D01*
X187828661Y-71721722D01*
X187819003Y-71722378D01*
X187809190Y-71723251D01*
X187716585Y-71725897D01*
X187692277Y-71725938D01*
X187666977Y-71726228D01*
X187653954Y-71726543D01*
X187640684Y-71727013D01*
X187627165Y-71727670D01*
X187613399Y-71728543D01*
X187496982Y-72360897D01*
X187999691Y-72281522D01*
X187965295Y-72673105D01*
X186863213Y-72843666D01*
X187311771Y-70405626D01*
X188399208Y-70313022D01*
X188393374Y-70331987D01*
G37*
G36*
X186241650Y-73603235D02*
G01*
X186238017Y-73615477D01*
X186234570Y-73627905D01*
X186231279Y-73640488D01*
X186225036Y-73665996D01*
X186219042Y-73691751D01*
X186197875Y-73779063D01*
X186195023Y-73789967D01*
X186192418Y-73800809D01*
X186190062Y-73811526D01*
X186187953Y-73822058D01*
X186186093Y-73832342D01*
X186184481Y-73842315D01*
X186183116Y-73851917D01*
X186182000Y-73861084D01*
X186166208Y-73861125D01*
X186146943Y-73861415D01*
X186136163Y-73861730D01*
X186124701Y-73862200D01*
X186112619Y-73862857D01*
X186099980Y-73863730D01*
X186086962Y-73864490D01*
X186073728Y-73864846D01*
X186060308Y-73864893D01*
X186046732Y-73864722D01*
X186019240Y-73864102D01*
X186005386Y-73863839D01*
X185991500Y-73863730D01*
X185853917Y-73863730D01*
X185777187Y-74260605D01*
X185906833Y-74255313D01*
X186084105Y-74255313D01*
X186076167Y-74316167D01*
X186076107Y-74320106D01*
X186075935Y-74323991D01*
X186075661Y-74327829D01*
X186075299Y-74331629D01*
X186074353Y-74339142D01*
X186073190Y-74346594D01*
X186070586Y-74361560D01*
X186069330Y-74369198D01*
X186068229Y-74377021D01*
X186047063Y-74498729D01*
X185748083Y-74498729D01*
X185671354Y-74906187D01*
X185996791Y-74855917D01*
X185975624Y-75109916D01*
X185258603Y-75221041D01*
X185253313Y-75231626D01*
X185544355Y-73652064D01*
X186245500Y-73591210D01*
X186241650Y-73603235D01*
G37*
G36*
X187218624Y-70331987D02*
G01*
X187213007Y-70351138D01*
X187202300Y-70389751D01*
X187182125Y-70466480D01*
X187150375Y-70601418D01*
X187123918Y-70725772D01*
X187112383Y-70725999D01*
X187099609Y-70726599D01*
X187070339Y-70728418D01*
X187053844Y-70729389D01*
X187036109Y-70730237D01*
X187017134Y-70730836D01*
X186996918Y-70731064D01*
X186955205Y-70731105D01*
X186913244Y-70731394D01*
X186870786Y-70732180D01*
X186827584Y-70733710D01*
X186806242Y-70734469D01*
X186785830Y-70734826D01*
X186766286Y-70734872D01*
X186747548Y-70734702D01*
X186712243Y-70734082D01*
X186679418Y-70733710D01*
X186613272Y-70733710D01*
X186494209Y-71350189D01*
X186692646Y-71339605D01*
X186769376Y-71336959D01*
X186914896Y-71336959D01*
X186929779Y-71336918D01*
X186936477Y-71336820D01*
X186942678Y-71336629D01*
X186948383Y-71336314D01*
X186953592Y-71335843D01*
X186958305Y-71335187D01*
X186960475Y-71334779D01*
X186962522Y-71334314D01*
X186949292Y-71429563D01*
X186948182Y-71441470D01*
X186946854Y-71453376D01*
X186945340Y-71465282D01*
X186943671Y-71477188D01*
X186939991Y-71501001D01*
X186936064Y-71524813D01*
X186904314Y-71715314D01*
X186899891Y-71715727D01*
X186888770Y-71716636D01*
X186881706Y-71717122D01*
X186874177Y-71717546D01*
X186866585Y-71717846D01*
X186859335Y-71717959D01*
X186793189Y-71717959D01*
X186713815Y-71720605D01*
X186692855Y-71720647D01*
X186673135Y-71720936D01*
X186663508Y-71721251D01*
X186653911Y-71721722D01*
X186644253Y-71722378D01*
X186634440Y-71723251D01*
X186541836Y-71725897D01*
X186517527Y-71725938D01*
X186492227Y-71726228D01*
X186479204Y-71726543D01*
X186465934Y-71727013D01*
X186452416Y-71727670D01*
X186438649Y-71728543D01*
X186322232Y-72360897D01*
X186824940Y-72281522D01*
X186790544Y-72673105D01*
X185688464Y-72843666D01*
X186137021Y-70405626D01*
X187224459Y-70313022D01*
X187218624Y-70331987D01*
G37*
G36*
X185446458Y-73707626D02*
G01*
X185345917Y-73845210D01*
X185292339Y-73919293D01*
X185264061Y-73959063D01*
X185234792Y-74001314D01*
X185205109Y-74042944D01*
X185175922Y-74084327D01*
X185147727Y-74125213D01*
X185134157Y-74145393D01*
X185121021Y-74165356D01*
X185107497Y-74184941D01*
X185094687Y-74203969D01*
X185071081Y-74240101D01*
X185031063Y-74302939D01*
X185043424Y-74358460D01*
X185056529Y-74413734D01*
X185070130Y-74468511D01*
X185083980Y-74522544D01*
X185098325Y-74576122D01*
X185113414Y-74629700D01*
X185144834Y-74736856D01*
X185177906Y-74841697D01*
X185194691Y-74894986D01*
X185210980Y-74948522D01*
X185227309Y-75002100D01*
X185244383Y-75055678D01*
X185279771Y-75162835D01*
X185253974Y-75162793D01*
X185228177Y-75162504D01*
X185215279Y-75162189D01*
X185202381Y-75161719D01*
X185189482Y-75161062D01*
X185176584Y-75160189D01*
X185163577Y-75159429D01*
X185150415Y-75159073D01*
X185137191Y-75159026D01*
X185123998Y-75159197D01*
X185098077Y-75159817D01*
X185085535Y-75160080D01*
X185073396Y-75160189D01*
X184949042Y-75160189D01*
X184918822Y-75160230D01*
X184887858Y-75160520D01*
X184856397Y-75161305D01*
X184840558Y-75161961D01*
X184824689Y-75162835D01*
X184820265Y-75126661D01*
X184815097Y-75089744D01*
X184809434Y-75052330D01*
X184803522Y-75014668D01*
X184797610Y-74976510D01*
X184791946Y-74937608D01*
X184786779Y-74898210D01*
X184784458Y-74878403D01*
X184782355Y-74858564D01*
X184770780Y-74780843D01*
X184765612Y-74742850D01*
X184763292Y-74723962D01*
X184761189Y-74705105D01*
X184755277Y-74667444D01*
X184749613Y-74630030D01*
X184744445Y-74593113D01*
X184740022Y-74556939D01*
X184700335Y-74604564D01*
X184696361Y-74621054D01*
X184692356Y-74638753D01*
X184684129Y-74677655D01*
X184665939Y-74768606D01*
X184663841Y-74780517D01*
X184661557Y-74792460D01*
X184656679Y-74816562D01*
X184651800Y-74841160D01*
X184649516Y-74853722D01*
X184647418Y-74866502D01*
X184644560Y-74878403D01*
X184641920Y-74890273D01*
X184639465Y-74902081D01*
X184637165Y-74913796D01*
X184628897Y-74959106D01*
X184626794Y-74972123D01*
X184624474Y-74985358D01*
X184619306Y-75012354D01*
X184613642Y-75039846D01*
X184607730Y-75067586D01*
X184601819Y-75095367D01*
X184596155Y-75123148D01*
X184593494Y-75137039D01*
X184590988Y-75150929D01*
X184588667Y-75164820D01*
X184586564Y-75178711D01*
X184226730Y-75231627D01*
X184226729Y-75231626D01*
X184259471Y-75077175D01*
X184275470Y-75000570D01*
X184290229Y-74924709D01*
X184320656Y-74774558D01*
X184335622Y-74700723D01*
X184351083Y-74628376D01*
X184397054Y-74365446D01*
X184441042Y-74104501D01*
X184461381Y-73976964D01*
X184478745Y-73852155D01*
X184493131Y-73729826D01*
X184499209Y-73669514D01*
X184504542Y-73609730D01*
X184620958Y-73617667D01*
X184628890Y-73617786D01*
X184636792Y-73618122D01*
X184644631Y-73618644D01*
X184652377Y-73619321D01*
X184660000Y-73620122D01*
X184667467Y-73621016D01*
X184681812Y-73622959D01*
X184689631Y-73623078D01*
X184697232Y-73623414D01*
X184704648Y-73623936D01*
X184711908Y-73624613D01*
X184719045Y-73625414D01*
X184726088Y-73626308D01*
X184740020Y-73628251D01*
X184756309Y-73628293D01*
X184764670Y-73628391D01*
X184773093Y-73628582D01*
X184781517Y-73628897D01*
X184789878Y-73629367D01*
X184798115Y-73630023D01*
X184806166Y-73630897D01*
X184872312Y-73630897D01*
X184871201Y-73635486D01*
X184869873Y-73641315D01*
X184868359Y-73648384D01*
X184866690Y-73656694D01*
X184864896Y-73666244D01*
X184863010Y-73677034D01*
X184861062Y-73689064D01*
X184859083Y-73702335D01*
X184856980Y-73715352D01*
X184854660Y-73728586D01*
X184849492Y-73755582D01*
X184843828Y-73783074D01*
X184837916Y-73810814D01*
X184835937Y-73824089D01*
X184833989Y-73836156D01*
X184830309Y-73856785D01*
X184824688Y-73884897D01*
X184785000Y-74104501D01*
X184798229Y-74104501D01*
X184831426Y-74051378D01*
X184867352Y-73995030D01*
X184946396Y-73871668D01*
X185105146Y-73620314D01*
X185160708Y-73615890D01*
X185216271Y-73610723D01*
X185327396Y-73599147D01*
X185382958Y-73593111D01*
X185438521Y-73586579D01*
X185466302Y-73582972D01*
X185494083Y-73579055D01*
X185521864Y-73574766D01*
X185549646Y-73570043D01*
X185446458Y-73707626D01*
G37*
G36*
X187244144Y-76792854D02*
G01*
X187255577Y-76793407D01*
X187266683Y-76794325D01*
X187277456Y-76795604D01*
X187287889Y-76797239D01*
X187297972Y-76799226D01*
X187307699Y-76801563D01*
X187317061Y-76804244D01*
X187326052Y-76807267D01*
X187334662Y-76810626D01*
X187342885Y-76814319D01*
X187350713Y-76818342D01*
X187358138Y-76822690D01*
X187365151Y-76827359D01*
X187371747Y-76832346D01*
X187377915Y-76837648D01*
X187383683Y-76843632D01*
X187389078Y-76849683D01*
X187394100Y-76855803D01*
X187398751Y-76861997D01*
X187403030Y-76868269D01*
X187406937Y-76874622D01*
X187410471Y-76881060D01*
X187413634Y-76887588D01*
X187416424Y-76894208D01*
X187418843Y-76900925D01*
X187420889Y-76907744D01*
X187422564Y-76914666D01*
X187423866Y-76921698D01*
X187424796Y-76928841D01*
X187425354Y-76936101D01*
X187425540Y-76943482D01*
X187425323Y-76951853D01*
X187424672Y-76960100D01*
X187423587Y-76968224D01*
X187422068Y-76976223D01*
X187420114Y-76984099D01*
X187417727Y-76991850D01*
X187414905Y-76999478D01*
X187411650Y-77006981D01*
X187407960Y-77014360D01*
X187403836Y-77021616D01*
X187399278Y-77028747D01*
X187394287Y-77035755D01*
X187388861Y-77042638D01*
X187383001Y-77049397D01*
X187376706Y-77056033D01*
X187369978Y-77062544D01*
X187362847Y-77068807D01*
X187355343Y-77074693D01*
X187347468Y-77080200D01*
X187339220Y-77085323D01*
X187330601Y-77090059D01*
X187321609Y-77094403D01*
X187312245Y-77098351D01*
X187302509Y-77101901D01*
X187292402Y-77105047D01*
X187281922Y-77107787D01*
X187271070Y-77110115D01*
X187259845Y-77112029D01*
X187248249Y-77113525D01*
X187236281Y-77114598D01*
X187223941Y-77115244D01*
X187211228Y-77115461D01*
X187211229Y-77118105D01*
X187204873Y-77118012D01*
X187198698Y-77117733D01*
X187192701Y-77117268D01*
X187186879Y-77116617D01*
X187181228Y-77115780D01*
X187175743Y-77114756D01*
X187170421Y-77113547D01*
X187165258Y-77112152D01*
X187160250Y-77110571D01*
X187155393Y-77108803D01*
X187150683Y-77106850D01*
X187146117Y-77104711D01*
X187141690Y-77102385D01*
X187137399Y-77099874D01*
X187133240Y-77097176D01*
X187129209Y-77094293D01*
X187125302Y-77091255D01*
X187121519Y-77088097D01*
X187117860Y-77084822D01*
X187114325Y-77081435D01*
X187110915Y-77077940D01*
X187107628Y-77074340D01*
X187104466Y-77070640D01*
X187101427Y-77066842D01*
X187098512Y-77062951D01*
X187095722Y-77058972D01*
X187093055Y-77054907D01*
X187090513Y-77050761D01*
X187088095Y-77046537D01*
X187085800Y-77042239D01*
X187083630Y-77037872D01*
X187081583Y-77033439D01*
X187079661Y-77028973D01*
X187077863Y-77024504D01*
X187076188Y-77020027D01*
X187074638Y-77015538D01*
X187073212Y-77011033D01*
X187071910Y-77006510D01*
X187070731Y-77001963D01*
X187069677Y-76997389D01*
X187068747Y-76992784D01*
X187067941Y-76988144D01*
X187067259Y-76983465D01*
X187066700Y-76978744D01*
X187066266Y-76973976D01*
X187065956Y-76969158D01*
X187065770Y-76964286D01*
X187065708Y-76959355D01*
X187065894Y-76951014D01*
X187066447Y-76942850D01*
X187067365Y-76934857D01*
X187068643Y-76927027D01*
X187070278Y-76919352D01*
X187072266Y-76911824D01*
X187074602Y-76904435D01*
X187077284Y-76897179D01*
X187080306Y-76890046D01*
X187083666Y-76883030D01*
X187087358Y-76876122D01*
X187091381Y-76869315D01*
X187095728Y-76862601D01*
X187100398Y-76855972D01*
X187105385Y-76849421D01*
X187110686Y-76842940D01*
X187116297Y-76837143D01*
X187122210Y-76831664D01*
X187128418Y-76826510D01*
X187134912Y-76821690D01*
X187141686Y-76817211D01*
X187148731Y-76813081D01*
X187156039Y-76809307D01*
X187163603Y-76805898D01*
X187171415Y-76802861D01*
X187179468Y-76800203D01*
X187187753Y-76797933D01*
X187196263Y-76796059D01*
X187204989Y-76794587D01*
X187213925Y-76793526D01*
X187223063Y-76792884D01*
X187232394Y-76792668D01*
X187244144Y-76792854D01*
G37*
G36*
X184621213Y-78925923D02*
G01*
X184626844Y-78926629D01*
X184632406Y-78927731D01*
X184637875Y-78929237D01*
X184643227Y-78931152D01*
X184648440Y-78933487D01*
X184653490Y-78936248D01*
X184658821Y-78938911D01*
X184663893Y-78941927D01*
X184668693Y-78945276D01*
X184673210Y-78948940D01*
X184677433Y-78952897D01*
X184681349Y-78957130D01*
X184684948Y-78961619D01*
X184688217Y-78966344D01*
X184691145Y-78971286D01*
X184693720Y-78976426D01*
X184695931Y-78981744D01*
X184697767Y-78987221D01*
X184699214Y-78992838D01*
X184700263Y-78998575D01*
X184700900Y-79004412D01*
X184701115Y-79010331D01*
X184775199Y-80891518D01*
X184775603Y-80894524D01*
X184775829Y-80897580D01*
X184775884Y-80900675D01*
X184775777Y-80903797D01*
X184775515Y-80906934D01*
X184775105Y-80910076D01*
X184774556Y-80913209D01*
X184773876Y-80916323D01*
X184773071Y-80919407D01*
X184772150Y-80922447D01*
X184771120Y-80925433D01*
X184769989Y-80928354D01*
X184768766Y-80931196D01*
X184767457Y-80933950D01*
X184766071Y-80936603D01*
X184764615Y-80939144D01*
X184763826Y-80940399D01*
X184762951Y-80941680D01*
X184760972Y-80944306D01*
X184758737Y-80946986D01*
X184756305Y-80949686D01*
X184753734Y-80952370D01*
X184751081Y-80955003D01*
X184748405Y-80957551D01*
X184745763Y-80959980D01*
X184740818Y-80964336D01*
X184736710Y-80967793D01*
X184732865Y-80970894D01*
X182039406Y-82568977D01*
X182036761Y-82568977D01*
X182031711Y-82571331D01*
X182026498Y-82573426D01*
X182021146Y-82575250D01*
X182015677Y-82576790D01*
X182010116Y-82578036D01*
X182004484Y-82578976D01*
X181998806Y-82579598D01*
X181993105Y-82579891D01*
X181987404Y-82579842D01*
X181981726Y-82579441D01*
X181976094Y-82578676D01*
X181970533Y-82577534D01*
X181965064Y-82576005D01*
X181959712Y-82574077D01*
X181954499Y-82571738D01*
X181949449Y-82568977D01*
X181944583Y-82565877D01*
X181939920Y-82562538D01*
X181935473Y-82558966D01*
X181931259Y-82555169D01*
X181927292Y-82551155D01*
X181923590Y-82546931D01*
X181920166Y-82542507D01*
X181917037Y-82537888D01*
X181914218Y-82533084D01*
X181911725Y-82528101D01*
X181909573Y-82522947D01*
X181907777Y-82517631D01*
X181906353Y-82512160D01*
X181905317Y-82506541D01*
X181904684Y-82500783D01*
X181904470Y-82494893D01*
X181840069Y-80738060D01*
X182018240Y-80738060D01*
X182020885Y-80740706D01*
X182079094Y-82344081D01*
X182092323Y-82336143D01*
X182071483Y-80817435D01*
X182171698Y-80817435D01*
X182192865Y-82269997D01*
X184537073Y-80880935D01*
X184500032Y-79304019D01*
X182171698Y-80817435D01*
X182071483Y-80817435D01*
X182071156Y-80793623D01*
X182071249Y-80790182D01*
X182071528Y-80786806D01*
X182071993Y-80783501D01*
X182072645Y-80780269D01*
X182073482Y-80777115D01*
X182074505Y-80774042D01*
X182075714Y-80771055D01*
X182077109Y-80768156D01*
X182078691Y-80765351D01*
X182080458Y-80762642D01*
X182082411Y-80760035D01*
X182084551Y-80757532D01*
X182086876Y-80755137D01*
X182089388Y-80752855D01*
X182092085Y-80750689D01*
X182094969Y-80748643D01*
X184208990Y-79372810D01*
X182018240Y-80738060D01*
X181840069Y-80738060D01*
X181838324Y-80690435D01*
X181838508Y-80684952D01*
X181839057Y-80679433D01*
X181839963Y-80673907D01*
X181841218Y-80668400D01*
X181842813Y-80662940D01*
X181844742Y-80657554D01*
X181846996Y-80652268D01*
X181849568Y-80647110D01*
X181852451Y-80642107D01*
X181855635Y-80637286D01*
X181859114Y-80632675D01*
X181862880Y-80628299D01*
X181864868Y-80626209D01*
X181866925Y-80624188D01*
X181869050Y-80622239D01*
X181871242Y-80620367D01*
X181873499Y-80618574D01*
X181875821Y-80616864D01*
X181878208Y-80615240D01*
X181880657Y-80613706D01*
X184566178Y-78938894D01*
X184571228Y-78936073D01*
X184576440Y-78933571D01*
X184581793Y-78931394D01*
X184587261Y-78929551D01*
X184592823Y-78928048D01*
X184598455Y-78926894D01*
X184604132Y-78926097D01*
X184609834Y-78925664D01*
X184615535Y-78925604D01*
X184621213Y-78925923D01*
G37*
G36*
X183050945Y-70276385D02*
G01*
X183075626Y-70277598D01*
X183099563Y-70279626D01*
X183122755Y-70282471D01*
X183145203Y-70286139D01*
X183166907Y-70290631D01*
X183187867Y-70295953D01*
X183208083Y-70302108D01*
X183227555Y-70309101D01*
X183246282Y-70316934D01*
X183264266Y-70325613D01*
X183281505Y-70335140D01*
X183298000Y-70345520D01*
X183313751Y-70356756D01*
X183328758Y-70368853D01*
X183343021Y-70381814D01*
X183356663Y-70394960D01*
X183369805Y-70408598D01*
X183382443Y-70422724D01*
X183394573Y-70437335D01*
X183406192Y-70452427D01*
X183417295Y-70467995D01*
X183427879Y-70484036D01*
X183437940Y-70500546D01*
X183447474Y-70517521D01*
X183456476Y-70534957D01*
X183464944Y-70552851D01*
X183472873Y-70571198D01*
X183480260Y-70589995D01*
X183487100Y-70609237D01*
X183493390Y-70628921D01*
X183499125Y-70649043D01*
X183509414Y-70689966D01*
X183518431Y-70731353D01*
X183526147Y-70773175D01*
X183532529Y-70815400D01*
X183537547Y-70857997D01*
X183541169Y-70900935D01*
X183543365Y-70944183D01*
X183544104Y-70987710D01*
X183542125Y-71089037D01*
X183536208Y-71188628D01*
X183526384Y-71286482D01*
X183512685Y-71382600D01*
X183495141Y-71476982D01*
X183473783Y-71569628D01*
X183448643Y-71660537D01*
X183419750Y-71749710D01*
X183386884Y-71836283D01*
X183351785Y-71919415D01*
X183314454Y-71999136D01*
X183294952Y-72037728D01*
X183274891Y-72075478D01*
X183254272Y-72112391D01*
X183233095Y-72148471D01*
X183211360Y-72183721D01*
X183189067Y-72218146D01*
X183166215Y-72251750D01*
X183142806Y-72284535D01*
X183118838Y-72316507D01*
X183094313Y-72347668D01*
X183069385Y-72378487D01*
X183044212Y-72408429D01*
X183018800Y-72437488D01*
X182993151Y-72465656D01*
X182967269Y-72492924D01*
X182941159Y-72519286D01*
X182914824Y-72544732D01*
X182888268Y-72569257D01*
X182861495Y-72592851D01*
X182834509Y-72615507D01*
X182807314Y-72637218D01*
X182779913Y-72657975D01*
X182752311Y-72677771D01*
X182724511Y-72696598D01*
X182696517Y-72714448D01*
X182668334Y-72731314D01*
X182640149Y-72747189D01*
X182612151Y-72762067D01*
X182584339Y-72775945D01*
X182556712Y-72788820D01*
X182529272Y-72800687D01*
X182502018Y-72811542D01*
X182474950Y-72821382D01*
X182448068Y-72830202D01*
X182421372Y-72838000D01*
X182394862Y-72844770D01*
X182368538Y-72850509D01*
X182342400Y-72855214D01*
X182316448Y-72858880D01*
X182290682Y-72861503D01*
X182265102Y-72863080D01*
X182239709Y-72863606D01*
X182242354Y-72860960D01*
X182214387Y-72860278D01*
X182187045Y-72858231D01*
X182160330Y-72854820D01*
X182134247Y-72850046D01*
X182108800Y-72843906D01*
X182083992Y-72836403D01*
X182059827Y-72827535D01*
X182036310Y-72817303D01*
X182013444Y-72805707D01*
X181991233Y-72792747D01*
X181969680Y-72778422D01*
X181948791Y-72762733D01*
X181928568Y-72745680D01*
X181909015Y-72727262D01*
X181890137Y-72707481D01*
X181871938Y-72686335D01*
X181854607Y-72663794D01*
X181838338Y-72639831D01*
X181823138Y-72614449D01*
X181809016Y-72587653D01*
X181795980Y-72559446D01*
X181784036Y-72529832D01*
X181773193Y-72498816D01*
X181763458Y-72466400D01*
X181754840Y-72432588D01*
X181747346Y-72397386D01*
X181740983Y-72360796D01*
X181735760Y-72322822D01*
X181731684Y-72283468D01*
X181728763Y-72242739D01*
X181727005Y-72200638D01*
X181726417Y-72157168D01*
X181727161Y-72108179D01*
X181728881Y-72069856D01*
X182237063Y-72069856D01*
X182237250Y-72078817D01*
X182237818Y-72087839D01*
X182238772Y-72096924D01*
X182240122Y-72106071D01*
X182241875Y-72115279D01*
X182244039Y-72124550D01*
X182246622Y-72133883D01*
X182249631Y-72143278D01*
X182253074Y-72152734D01*
X182256958Y-72162253D01*
X182261293Y-72171834D01*
X182266084Y-72181477D01*
X182271341Y-72191182D01*
X182277071Y-72200949D01*
X182283281Y-72210778D01*
X182289980Y-72220668D01*
X182296553Y-72230251D01*
X182303379Y-72239158D01*
X182310461Y-72247399D01*
X182314099Y-72251272D01*
X182317802Y-72254982D01*
X182321571Y-72258528D01*
X182325407Y-72261913D01*
X182329309Y-72265136D01*
X182333279Y-72268200D01*
X182337317Y-72271105D01*
X182341423Y-72273853D01*
X182345597Y-72276443D01*
X182349841Y-72278877D01*
X182354155Y-72281156D01*
X182358539Y-72283281D01*
X182362994Y-72285253D01*
X182367520Y-72287073D01*
X182372118Y-72288741D01*
X182376788Y-72290260D01*
X182381530Y-72291629D01*
X182386346Y-72292850D01*
X182396199Y-72294851D01*
X182406350Y-72296271D01*
X182416804Y-72297117D01*
X182427563Y-72297398D01*
X182427563Y-72294751D01*
X182446756Y-72294348D01*
X182465643Y-72293139D01*
X182484228Y-72291124D01*
X182502514Y-72288302D01*
X182520506Y-72284674D01*
X182538207Y-72280241D01*
X182555621Y-72275001D01*
X182572753Y-72268955D01*
X182589605Y-72262102D01*
X182606182Y-72254444D01*
X182622488Y-72245979D01*
X182638527Y-72236709D01*
X182654302Y-72226632D01*
X182669817Y-72215749D01*
X182685076Y-72204060D01*
X182700084Y-72191564D01*
X182714812Y-72178449D01*
X182729234Y-72164899D01*
X182743354Y-72150915D01*
X182757176Y-72136498D01*
X182770703Y-72121646D01*
X182783939Y-72106360D01*
X182796889Y-72090640D01*
X182809555Y-72074486D01*
X182821943Y-72057898D01*
X182834055Y-72040875D01*
X182845896Y-72023419D01*
X182857469Y-72005529D01*
X182868779Y-71987204D01*
X182879830Y-71968446D01*
X182890624Y-71949253D01*
X182901167Y-71929627D01*
X182921269Y-71889577D01*
X182939945Y-71848846D01*
X182957257Y-71807495D01*
X182973266Y-71765585D01*
X182988035Y-71723179D01*
X183001626Y-71680339D01*
X183014101Y-71637128D01*
X183025521Y-71593606D01*
X183035696Y-71550445D01*
X183044414Y-71508278D01*
X183051705Y-71467102D01*
X183057602Y-71426918D01*
X183062134Y-71387727D01*
X183065333Y-71349528D01*
X183067229Y-71312321D01*
X183067855Y-71276106D01*
X183067725Y-71262091D01*
X183067317Y-71247828D01*
X183066599Y-71233318D01*
X183065539Y-71218559D01*
X183064108Y-71203552D01*
X183062273Y-71188297D01*
X183060004Y-71172794D01*
X183057271Y-71157043D01*
X183054036Y-71141416D01*
X183052213Y-71133789D01*
X183050243Y-71126286D01*
X183048118Y-71118906D01*
X183045830Y-71111651D01*
X183043371Y-71104519D01*
X183040734Y-71097512D01*
X183037912Y-71090629D01*
X183034895Y-71083870D01*
X183031677Y-71077234D01*
X183028249Y-71070723D01*
X183024605Y-71064336D01*
X183020736Y-71058073D01*
X183016634Y-71051933D01*
X183012292Y-71045918D01*
X183007702Y-71040151D01*
X183002861Y-71034756D01*
X182997763Y-71029733D01*
X182992407Y-71025082D01*
X182986786Y-71020804D01*
X182980898Y-71016897D01*
X182974739Y-71013362D01*
X182968305Y-71010200D01*
X182961591Y-71007409D01*
X182954595Y-71004991D01*
X182947312Y-71002944D01*
X182939738Y-71001270D01*
X182931870Y-70999968D01*
X182923703Y-70999037D01*
X182915234Y-70998479D01*
X182906458Y-70998293D01*
X182886739Y-70998758D01*
X182867267Y-71000148D01*
X182848043Y-71002462D01*
X182829068Y-71005693D01*
X182810340Y-71009840D01*
X182791861Y-71014897D01*
X182773629Y-71020861D01*
X182755646Y-71027728D01*
X182737910Y-71035494D01*
X182720423Y-71044156D01*
X182703184Y-71053709D01*
X182686193Y-71064150D01*
X182669450Y-71075474D01*
X182652955Y-71087678D01*
X182636708Y-71100758D01*
X182620709Y-71114710D01*
X182604989Y-71129344D01*
X182589579Y-71144470D01*
X182574479Y-71160085D01*
X182559689Y-71176184D01*
X182545209Y-71192764D01*
X182531039Y-71209820D01*
X182517180Y-71227349D01*
X182503630Y-71245348D01*
X182490391Y-71263811D01*
X182477461Y-71282736D01*
X182464842Y-71302117D01*
X182452533Y-71321953D01*
X182440533Y-71342238D01*
X182428844Y-71362968D01*
X182417465Y-71384141D01*
X182406396Y-71405751D01*
X182385312Y-71450281D01*
X182365716Y-71494594D01*
X182347609Y-71538720D01*
X182330990Y-71582692D01*
X182315859Y-71626539D01*
X182302216Y-71670293D01*
X182290062Y-71713986D01*
X182279396Y-71757647D01*
X182269981Y-71799929D01*
X182261620Y-71841404D01*
X182254375Y-71882012D01*
X182248308Y-71921689D01*
X182243481Y-71960374D01*
X182239957Y-71998005D01*
X182237797Y-72034519D01*
X182237063Y-72069856D01*
X181728881Y-72069856D01*
X181729393Y-72058445D01*
X181733114Y-72007968D01*
X181738323Y-71956746D01*
X181745020Y-71904780D01*
X181753206Y-71852070D01*
X181762880Y-71798616D01*
X181774042Y-71744418D01*
X181786568Y-71690085D01*
X181800335Y-71636187D01*
X181815342Y-71582660D01*
X181831589Y-71529444D01*
X181849076Y-71476476D01*
X181867804Y-71423693D01*
X181887771Y-71371035D01*
X181908980Y-71318439D01*
X181931180Y-71266349D01*
X181954124Y-71215252D01*
X181977813Y-71165146D01*
X182002245Y-71116033D01*
X182027422Y-71067912D01*
X182053343Y-71020783D01*
X182080008Y-70974646D01*
X182107417Y-70929501D01*
X182130454Y-70893720D01*
X182153926Y-70858803D01*
X182177831Y-70824746D01*
X182202171Y-70791546D01*
X182226944Y-70759199D01*
X182252152Y-70727700D01*
X182277794Y-70697046D01*
X182303870Y-70667233D01*
X182330380Y-70638258D01*
X182357324Y-70610115D01*
X182384702Y-70582802D01*
X182412514Y-70556315D01*
X182440761Y-70530649D01*
X182469441Y-70505801D01*
X182498555Y-70481767D01*
X182528104Y-70458543D01*
X182557962Y-70436436D01*
X182588002Y-70415755D01*
X182618221Y-70396500D01*
X182648614Y-70378672D01*
X182679177Y-70362270D01*
X182709907Y-70347294D01*
X182740800Y-70333745D01*
X182771852Y-70321621D01*
X182803058Y-70310924D01*
X182834416Y-70301654D01*
X182865921Y-70293809D01*
X182897570Y-70287391D01*
X182929358Y-70282399D01*
X182961282Y-70278833D01*
X182993337Y-70276694D01*
X183025520Y-70275981D01*
X183050945Y-70276385D01*
G37*
G36*
X182144530Y-73607425D02*
G01*
X182157636Y-73608444D01*
X182170541Y-73610137D01*
X182183237Y-73612500D01*
X182195715Y-73615530D01*
X182207969Y-73619223D01*
X182219991Y-73623575D01*
X182231771Y-73628582D01*
X182243304Y-73634240D01*
X182254581Y-73640545D01*
X182265595Y-73647493D01*
X182276337Y-73655082D01*
X182286800Y-73663305D01*
X182296977Y-73672161D01*
X182306859Y-73681644D01*
X182316438Y-73691751D01*
X182325584Y-73702416D01*
X182334169Y-73713574D01*
X182342187Y-73725220D01*
X182349635Y-73737350D01*
X182356510Y-73749961D01*
X182362808Y-73763049D01*
X182368524Y-73776609D01*
X182373655Y-73790639D01*
X182378196Y-73805133D01*
X182382145Y-73820089D01*
X182385497Y-73835502D01*
X182388248Y-73851369D01*
X182390395Y-73867685D01*
X182391933Y-73884447D01*
X182392858Y-73901651D01*
X182393168Y-73919293D01*
X182393168Y-73977501D01*
X182102126Y-74054230D01*
X182098623Y-74047502D01*
X182095062Y-74041208D01*
X182091446Y-74035348D01*
X182087780Y-74029922D01*
X182084068Y-74024930D01*
X182080313Y-74020372D01*
X182076520Y-74016248D01*
X182072691Y-74012558D01*
X182068831Y-74009303D01*
X182064945Y-74006481D01*
X182061035Y-74004094D01*
X182057105Y-74002141D01*
X182053161Y-74000621D01*
X182049204Y-73999536D01*
X182045240Y-73998885D01*
X182041272Y-73998668D01*
X182038032Y-73998753D01*
X182034763Y-73999009D01*
X182031465Y-73999435D01*
X182028141Y-74000032D01*
X182024792Y-74000800D01*
X182021418Y-74001737D01*
X182018023Y-74002846D01*
X182014607Y-74004125D01*
X182011171Y-74005575D01*
X182007718Y-74007195D01*
X182000763Y-74010946D01*
X181993753Y-74015380D01*
X181986702Y-74020496D01*
X181979619Y-74026294D01*
X181972516Y-74032775D01*
X181965406Y-74039937D01*
X181958300Y-74047781D01*
X181951209Y-74056308D01*
X181944146Y-74065517D01*
X181937121Y-74075408D01*
X181930147Y-74085981D01*
X181915388Y-74108305D01*
X181900877Y-74131621D01*
X181886615Y-74155930D01*
X181872600Y-74181230D01*
X181858833Y-74207523D01*
X181845315Y-74234809D01*
X181832044Y-74263086D01*
X181819022Y-74292356D01*
X181810216Y-74312318D01*
X181801659Y-74332498D01*
X181793349Y-74352864D01*
X181785287Y-74373384D01*
X181777474Y-74394029D01*
X181769909Y-74414767D01*
X181762591Y-74435567D01*
X181755522Y-74456398D01*
X181748819Y-74477109D01*
X181742582Y-74497573D01*
X181736779Y-74517789D01*
X181731379Y-74537757D01*
X181726351Y-74557477D01*
X181721663Y-74576948D01*
X181717286Y-74596172D01*
X181713189Y-74615148D01*
X181709468Y-74633503D01*
X181706243Y-74650867D01*
X181703515Y-74667238D01*
X181701282Y-74682616D01*
X181699546Y-74697003D01*
X181698306Y-74710398D01*
X181697561Y-74722800D01*
X181697313Y-74734210D01*
X181697572Y-74750576D01*
X181697906Y-74758377D01*
X181698388Y-74765919D01*
X181699025Y-74773197D01*
X181699825Y-74780207D01*
X181700795Y-74786947D01*
X181701944Y-74793411D01*
X181703278Y-74799596D01*
X181704807Y-74805498D01*
X181706536Y-74811113D01*
X181708476Y-74816438D01*
X181710632Y-74821468D01*
X181713013Y-74826199D01*
X181715626Y-74830629D01*
X181718480Y-74834752D01*
X181720526Y-74838131D01*
X181722697Y-74841320D01*
X181724991Y-74844315D01*
X181727410Y-74847113D01*
X181729952Y-74849709D01*
X181731270Y-74850930D01*
X181732619Y-74852100D01*
X181733999Y-74853217D01*
X181735409Y-74854281D01*
X181736851Y-74855292D01*
X181738324Y-74856249D01*
X181739828Y-74857152D01*
X181741362Y-74858000D01*
X181742928Y-74858793D01*
X181744525Y-74859531D01*
X181746153Y-74860212D01*
X181747812Y-74860836D01*
X181749502Y-74861403D01*
X181751222Y-74861913D01*
X181752974Y-74862364D01*
X181754757Y-74862757D01*
X181756571Y-74863091D01*
X181758416Y-74863365D01*
X181760292Y-74863579D01*
X181762199Y-74863733D01*
X181764136Y-74863825D01*
X181766105Y-74863856D01*
X181770135Y-74863732D01*
X181774280Y-74863360D01*
X181778535Y-74862740D01*
X181782890Y-74861872D01*
X181787338Y-74860755D01*
X181791871Y-74859391D01*
X181796482Y-74857779D01*
X181801163Y-74855918D01*
X181805905Y-74853810D01*
X181810702Y-74851454D01*
X181815545Y-74848849D01*
X181820427Y-74845996D01*
X181825341Y-74842896D01*
X181830277Y-74839547D01*
X181835229Y-74835951D01*
X181840188Y-74832106D01*
X181845119Y-74828074D01*
X181849991Y-74823915D01*
X181854810Y-74819624D01*
X181859577Y-74815197D01*
X181864299Y-74810631D01*
X181868977Y-74805921D01*
X181873617Y-74801065D01*
X181878222Y-74796056D01*
X181882796Y-74790893D01*
X181887343Y-74785571D01*
X181891867Y-74780086D01*
X181896371Y-74774435D01*
X181900860Y-74768613D01*
X181905337Y-74762617D01*
X181909806Y-74756442D01*
X181914271Y-74750085D01*
X181918614Y-74743666D01*
X181922715Y-74737306D01*
X181926585Y-74730999D01*
X181930229Y-74724743D01*
X181933657Y-74718534D01*
X181936875Y-74712367D01*
X181939892Y-74706239D01*
X181942715Y-74700145D01*
X181945351Y-74694083D01*
X181947810Y-74688048D01*
X181950098Y-74682036D01*
X181952223Y-74676043D01*
X181954193Y-74670066D01*
X181956016Y-74664101D01*
X181959251Y-74652189D01*
X182213251Y-74755376D01*
X182199671Y-74786103D01*
X182185723Y-74815776D01*
X182171410Y-74844394D01*
X182156737Y-74871959D01*
X182141708Y-74898469D01*
X182126326Y-74923924D01*
X182110595Y-74948326D01*
X182094519Y-74971673D01*
X182078102Y-74993967D01*
X182061348Y-75015206D01*
X182044261Y-75035390D01*
X182026844Y-75054521D01*
X182009101Y-75072597D01*
X181991037Y-75089619D01*
X181972655Y-75105587D01*
X181953960Y-75120501D01*
X181935170Y-75134453D01*
X181916504Y-75147533D01*
X181897963Y-75159737D01*
X181879545Y-75171061D01*
X181861252Y-75181502D01*
X181843083Y-75191055D01*
X181825037Y-75199717D01*
X181807116Y-75207483D01*
X181789318Y-75214350D01*
X181771645Y-75220314D01*
X181754096Y-75225372D01*
X181736670Y-75229518D01*
X181719369Y-75232750D01*
X181702192Y-75235063D01*
X181685139Y-75236454D01*
X181668209Y-75236918D01*
X181662917Y-75234272D01*
X181645740Y-75233775D01*
X181628940Y-75232282D01*
X181612519Y-75229789D01*
X181596482Y-75226293D01*
X181580832Y-75221789D01*
X181565574Y-75216273D01*
X181550711Y-75209742D01*
X181536248Y-75202191D01*
X181522187Y-75193617D01*
X181508534Y-75184016D01*
X181495291Y-75173385D01*
X181482463Y-75161718D01*
X181470054Y-75149013D01*
X181458067Y-75135265D01*
X181446506Y-75120471D01*
X181435376Y-75104626D01*
X181424773Y-75087882D01*
X181414798Y-75070390D01*
X181405459Y-75052147D01*
X181396763Y-75033147D01*
X181388718Y-75013388D01*
X181381332Y-74992865D01*
X181374613Y-74971575D01*
X181368568Y-74949514D01*
X181363205Y-74926677D01*
X181358533Y-74903062D01*
X181354557Y-74878664D01*
X181351288Y-74853478D01*
X181348731Y-74827503D01*
X181346895Y-74800732D01*
X181345788Y-74773164D01*
X181345417Y-74744793D01*
X181346290Y-74692439D01*
X181348931Y-74640489D01*
X181353370Y-74588848D01*
X181359639Y-74537425D01*
X181367767Y-74486126D01*
X181377787Y-74434858D01*
X181389730Y-74383528D01*
X181403626Y-74332043D01*
X181419134Y-74282061D01*
X181435913Y-74233320D01*
X181453995Y-74185819D01*
X181473409Y-74139558D01*
X181494189Y-74094538D01*
X181516363Y-74050758D01*
X181539963Y-74008218D01*
X181565021Y-73966918D01*
X181578075Y-73946826D01*
X181591444Y-73927230D01*
X181605129Y-73908131D01*
X181619137Y-73889527D01*
X181633470Y-73871420D01*
X181648133Y-73853808D01*
X181663128Y-73836693D01*
X181678461Y-73820074D01*
X181694135Y-73803951D01*
X181710155Y-73788324D01*
X181726522Y-73773193D01*
X181743243Y-73758559D01*
X181760320Y-73744420D01*
X181777758Y-73730777D01*
X181795559Y-73717631D01*
X181813729Y-73704981D01*
X181832149Y-73692981D01*
X181850704Y-73681783D01*
X181869406Y-73671384D01*
X181888268Y-73661779D01*
X181907299Y-73652965D01*
X181926513Y-73644938D01*
X181945921Y-73637693D01*
X181965534Y-73631228D01*
X181985365Y-73625538D01*
X182005423Y-73620619D01*
X182025723Y-73616467D01*
X182046274Y-73613079D01*
X182067088Y-73610451D01*
X182088178Y-73608578D01*
X182109555Y-73607457D01*
X182131230Y-73607084D01*
X182144530Y-73607425D01*
G37*
G36*
X183487468Y-73692577D02*
G01*
X183472667Y-73766496D01*
X183443563Y-73911355D01*
X183385355Y-74199751D01*
X183369480Y-74278547D01*
X183353605Y-74359824D01*
X183321855Y-74527834D01*
X183289113Y-74700475D01*
X183273114Y-74785307D01*
X183258355Y-74869147D01*
X183200147Y-75181355D01*
X183178856Y-75181438D01*
X183167172Y-75181634D01*
X183154837Y-75182017D01*
X183141882Y-75182647D01*
X183128338Y-75183588D01*
X183114235Y-75184900D01*
X183099606Y-75186647D01*
X183084723Y-75187758D01*
X183069840Y-75189086D01*
X183040074Y-75192270D01*
X183010309Y-75195949D01*
X182980543Y-75199876D01*
X182925311Y-75207483D01*
X182901292Y-75210666D01*
X182880002Y-75213105D01*
X182870586Y-75214205D01*
X182862225Y-75215461D01*
X182854980Y-75216779D01*
X182848913Y-75218066D01*
X182844086Y-75219229D01*
X182840562Y-75220174D01*
X182837668Y-75221043D01*
X182835021Y-75226335D01*
X182844824Y-75192983D01*
X182854410Y-75158452D01*
X182863810Y-75122806D01*
X182873055Y-75086105D01*
X182891204Y-75009790D01*
X182909105Y-74930001D01*
X182926964Y-74847277D01*
X182944824Y-74762321D01*
X182980542Y-74588688D01*
X183046688Y-74257959D01*
X183102251Y-73969563D01*
X183155167Y-73673230D01*
X183501772Y-73617667D01*
X183487468Y-73692577D01*
G37*
G36*
X186130250Y-76792854D02*
G01*
X186141682Y-76793407D01*
X186152789Y-76794325D01*
X186163562Y-76795604D01*
X186173994Y-76797239D01*
X186184078Y-76799226D01*
X186193804Y-76801563D01*
X186203167Y-76804244D01*
X186212157Y-76807267D01*
X186220768Y-76810626D01*
X186228991Y-76814319D01*
X186236819Y-76818342D01*
X186244243Y-76822690D01*
X186251257Y-76827359D01*
X186257852Y-76832346D01*
X186264021Y-76837648D01*
X186269788Y-76843632D01*
X186275183Y-76849683D01*
X186280206Y-76855803D01*
X186284857Y-76861997D01*
X186289136Y-76868269D01*
X186293042Y-76874622D01*
X186296577Y-76881060D01*
X186299739Y-76887588D01*
X186302530Y-76894208D01*
X186304948Y-76900925D01*
X186306995Y-76907744D01*
X186308669Y-76914666D01*
X186309971Y-76921698D01*
X186310901Y-76928841D01*
X186311460Y-76936101D01*
X186311646Y-76943482D01*
X186311429Y-76951853D01*
X186310777Y-76960100D01*
X186309692Y-76968224D01*
X186308173Y-76976223D01*
X186306220Y-76984099D01*
X186303832Y-76991850D01*
X186301011Y-76999478D01*
X186297755Y-77006981D01*
X186294066Y-77014360D01*
X186289942Y-77021616D01*
X186285384Y-77028747D01*
X186280392Y-77035755D01*
X186274966Y-77042638D01*
X186269106Y-77049397D01*
X186262812Y-77056033D01*
X186256084Y-77062544D01*
X186248952Y-77068807D01*
X186241449Y-77074693D01*
X186233573Y-77080200D01*
X186225326Y-77085323D01*
X186216706Y-77090059D01*
X186207715Y-77094403D01*
X186198351Y-77098351D01*
X186188615Y-77101901D01*
X186178507Y-77105047D01*
X186168027Y-77107787D01*
X186157175Y-77110115D01*
X186145951Y-77112029D01*
X186134355Y-77113525D01*
X186122387Y-77114598D01*
X186110046Y-77115244D01*
X186097334Y-77115461D01*
X186097334Y-77118105D01*
X186090977Y-77118012D01*
X186084802Y-77117733D01*
X186078806Y-77117268D01*
X186072984Y-77116617D01*
X186067332Y-77115780D01*
X186061847Y-77114756D01*
X186056525Y-77113547D01*
X186051362Y-77112152D01*
X186046354Y-77110571D01*
X186041497Y-77108803D01*
X186036788Y-77106850D01*
X186032221Y-77104711D01*
X186027795Y-77102385D01*
X186023504Y-77099874D01*
X186019345Y-77097176D01*
X186015313Y-77094293D01*
X186011406Y-77091255D01*
X186007624Y-77088097D01*
X186003965Y-77084822D01*
X186000430Y-77081435D01*
X185997020Y-77077940D01*
X185993733Y-77074340D01*
X185990570Y-77070640D01*
X185987532Y-77066842D01*
X185984617Y-77062951D01*
X185981827Y-77058972D01*
X185979160Y-77054907D01*
X185976618Y-77050761D01*
X185974199Y-77046537D01*
X185971905Y-77042239D01*
X185969734Y-77037872D01*
X185967688Y-77033439D01*
X185965765Y-77028973D01*
X185963967Y-77024504D01*
X185962293Y-77020027D01*
X185960742Y-77015538D01*
X185959316Y-77011033D01*
X185958014Y-77006510D01*
X185956835Y-77001963D01*
X185955781Y-76997389D01*
X185954851Y-76992784D01*
X185954045Y-76988144D01*
X185953363Y-76983465D01*
X185952805Y-76978744D01*
X185952371Y-76973976D01*
X185952061Y-76969158D01*
X185951875Y-76964286D01*
X185951813Y-76959355D01*
X185951998Y-76951014D01*
X185952552Y-76942850D01*
X185953470Y-76934857D01*
X185954748Y-76927027D01*
X185956383Y-76919352D01*
X185958371Y-76911824D01*
X185960707Y-76904435D01*
X185963388Y-76897179D01*
X185966411Y-76890046D01*
X185969770Y-76883030D01*
X185973463Y-76876122D01*
X185977486Y-76869315D01*
X185981834Y-76862601D01*
X185986503Y-76855972D01*
X185991491Y-76849421D01*
X185996792Y-76842940D01*
X186002403Y-76837143D01*
X186008316Y-76831664D01*
X186014523Y-76826510D01*
X186021018Y-76821690D01*
X186027791Y-76817211D01*
X186034836Y-76813081D01*
X186042145Y-76809307D01*
X186049709Y-76805898D01*
X186057521Y-76802861D01*
X186065573Y-76800203D01*
X186073858Y-76797933D01*
X186082368Y-76796059D01*
X186091095Y-76794587D01*
X186100031Y-76793526D01*
X186109169Y-76792884D01*
X186118500Y-76792668D01*
X186130250Y-76792854D01*
G37*
G36*
X182146793Y-75858906D02*
G01*
X182161734Y-75859557D01*
X182176046Y-75860642D01*
X182189727Y-75862162D01*
X182202772Y-75864115D01*
X182215177Y-75866502D01*
X182226940Y-75869324D01*
X182238055Y-75872580D01*
X182248519Y-75876269D01*
X182258327Y-75880393D01*
X182267477Y-75884951D01*
X182275965Y-75889943D01*
X182283785Y-75895369D01*
X182290935Y-75901229D01*
X182297411Y-75907523D01*
X182303208Y-75914251D01*
X182308946Y-75921351D01*
X182314257Y-75928757D01*
X182319149Y-75936465D01*
X182323631Y-75944472D01*
X182327710Y-75952773D01*
X182331393Y-75961365D01*
X182334689Y-75970244D01*
X182337604Y-75979405D01*
X182340148Y-75988846D01*
X182342328Y-75998562D01*
X182344150Y-76008549D01*
X182345624Y-76018803D01*
X182346757Y-76029321D01*
X182347557Y-76040099D01*
X182348031Y-76051133D01*
X182348188Y-76062418D01*
X182348033Y-76072866D01*
X182347567Y-76083373D01*
X182346792Y-76093933D01*
X182345707Y-76104544D01*
X182344312Y-76115202D01*
X182342607Y-76125902D01*
X182340591Y-76136641D01*
X182338266Y-76147415D01*
X182335630Y-76158220D01*
X182332685Y-76169052D01*
X182329429Y-76179907D01*
X182325863Y-76190782D01*
X182321988Y-76201672D01*
X182317802Y-76212574D01*
X182313306Y-76223484D01*
X182308500Y-76234397D01*
X182303445Y-76245219D01*
X182298201Y-76255863D01*
X182292763Y-76266337D01*
X182287127Y-76276647D01*
X182281289Y-76286803D01*
X182275246Y-76296811D01*
X182268994Y-76306680D01*
X182262529Y-76316417D01*
X182255846Y-76326030D01*
X182248943Y-76335527D01*
X182241815Y-76344916D01*
X182234458Y-76354203D01*
X182226869Y-76363398D01*
X182219043Y-76372507D01*
X182210977Y-76381539D01*
X182202667Y-76390501D01*
X182194668Y-76398841D01*
X182186549Y-76406991D01*
X182178314Y-76414947D01*
X182169966Y-76422705D01*
X182161510Y-76430262D01*
X182152949Y-76437614D01*
X182144287Y-76444756D01*
X182135529Y-76451686D01*
X182126677Y-76458398D01*
X182117737Y-76464889D01*
X182108711Y-76471155D01*
X182099603Y-76477193D01*
X182090418Y-76482998D01*
X182081160Y-76488567D01*
X182071832Y-76493895D01*
X182062438Y-76498980D01*
X182078313Y-76533252D01*
X182094188Y-76568764D01*
X182110063Y-76605764D01*
X182125938Y-76644501D01*
X182143301Y-76683692D01*
X182159672Y-76721891D01*
X182175051Y-76759098D01*
X182189438Y-76795313D01*
X182223834Y-76879979D01*
X182258229Y-76964646D01*
X181998938Y-77054605D01*
X181991000Y-77025335D01*
X181983063Y-76997057D01*
X181975125Y-76969773D01*
X181967188Y-76943481D01*
X181938083Y-76837647D01*
X181930146Y-76806392D01*
X181922209Y-76776131D01*
X181914271Y-76746861D01*
X181906334Y-76718584D01*
X181879875Y-76615397D01*
X181877136Y-76604855D01*
X181874831Y-76595057D01*
X181872899Y-76586003D01*
X181871276Y-76577693D01*
X181866646Y-76551896D01*
X181845479Y-76559833D01*
X181842503Y-76573217D01*
X181839526Y-76587531D01*
X181833573Y-76618703D01*
X181827620Y-76652851D01*
X181821667Y-76689479D01*
X181815300Y-76727141D01*
X181808438Y-76764555D01*
X181801575Y-76801473D01*
X181795208Y-76837647D01*
X181766104Y-77012271D01*
X181499024Y-77082969D01*
X181586188Y-76649793D01*
X181607354Y-76527423D01*
X181618186Y-76464502D01*
X181628521Y-76401085D01*
X181636667Y-76356105D01*
X181890459Y-76356105D01*
X181894459Y-76355982D01*
X181898525Y-76355619D01*
X181902661Y-76355024D01*
X181906871Y-76354203D01*
X181911158Y-76353166D01*
X181915527Y-76351919D01*
X181919981Y-76350471D01*
X181924524Y-76348829D01*
X181929160Y-76347001D01*
X181933893Y-76344994D01*
X181938726Y-76342817D01*
X181943665Y-76340478D01*
X181953871Y-76335341D01*
X181964542Y-76329646D01*
X181975461Y-76323569D01*
X181986411Y-76317244D01*
X181997424Y-76310671D01*
X182008529Y-76303850D01*
X182019758Y-76296780D01*
X182031143Y-76289463D01*
X182054500Y-76274084D01*
X182065280Y-76266028D01*
X182075750Y-76257754D01*
X182085847Y-76249295D01*
X182095511Y-76240681D01*
X182104678Y-76231942D01*
X182109056Y-76227536D01*
X182113288Y-76223111D01*
X182117364Y-76218670D01*
X182121277Y-76214217D01*
X182125020Y-76209757D01*
X182128584Y-76205293D01*
X182132399Y-76200860D01*
X182135912Y-76196492D01*
X182139130Y-76192195D01*
X182142061Y-76187971D01*
X182144713Y-76183824D01*
X182147094Y-76179759D01*
X182149212Y-76175780D01*
X182151074Y-76171889D01*
X182152687Y-76168091D01*
X182154060Y-76164391D01*
X182155201Y-76160791D01*
X182156117Y-76157296D01*
X182156816Y-76153909D01*
X182157306Y-76150635D01*
X182157594Y-76147477D01*
X182157688Y-76144439D01*
X182157649Y-76142470D01*
X182157533Y-76140533D01*
X182157339Y-76138627D01*
X182157068Y-76136755D01*
X182156719Y-76134915D01*
X182156293Y-76133108D01*
X182155789Y-76131336D01*
X182155208Y-76129597D01*
X182154549Y-76127894D01*
X182153813Y-76126226D01*
X182152999Y-76124594D01*
X182152107Y-76122998D01*
X182151138Y-76121439D01*
X182150092Y-76119918D01*
X182148968Y-76118434D01*
X182147766Y-76116988D01*
X182146487Y-76115581D01*
X182145131Y-76114214D01*
X182143697Y-76112886D01*
X182142185Y-76111598D01*
X182140596Y-76110351D01*
X182138930Y-76109146D01*
X182137186Y-76107981D01*
X182135364Y-76106859D01*
X182133465Y-76105780D01*
X182131488Y-76104744D01*
X182127302Y-76102803D01*
X182122807Y-76101040D01*
X182118001Y-76099459D01*
X182112947Y-76098032D01*
X182107707Y-76096725D01*
X182102281Y-76095535D01*
X182096669Y-76094457D01*
X182090871Y-76093487D01*
X182084886Y-76092622D01*
X182072360Y-76091191D01*
X182059090Y-76090132D01*
X182045075Y-76089413D01*
X182030316Y-76089005D01*
X182014813Y-76088876D01*
X181943376Y-76088876D01*
X181890459Y-76356105D01*
X181636667Y-76356105D01*
X181640014Y-76337626D01*
X181651011Y-76274415D01*
X181662007Y-76211701D01*
X181673500Y-76149730D01*
X181679097Y-76119215D01*
X181684042Y-76089165D01*
X181688430Y-76059549D01*
X181692352Y-76030337D01*
X181699173Y-75972997D01*
X181705250Y-75916897D01*
X181729311Y-75909321D01*
X181753867Y-75902428D01*
X181778920Y-75896154D01*
X181804469Y-75890439D01*
X181830514Y-75885220D01*
X181857055Y-75880434D01*
X181884092Y-75876021D01*
X181911625Y-75871918D01*
X181939293Y-75868311D01*
X181966774Y-75865386D01*
X181994132Y-75863081D01*
X182021427Y-75861335D01*
X182048722Y-75860084D01*
X182076080Y-75859268D01*
X182103561Y-75858823D01*
X182131229Y-75858689D01*
X182146793Y-75858906D01*
G37*
G36*
X186002084Y-75231626D02*
G01*
X186002080Y-75228980D01*
X186002647Y-75228834D01*
X186002084Y-75231626D01*
G37*
G36*
X184832626Y-70741647D02*
G01*
X184292876Y-70741647D01*
X184187043Y-71352834D01*
X184292876Y-71350188D01*
X184623605Y-71350188D01*
X184638984Y-71350147D01*
X184646301Y-71350049D01*
X184653371Y-71349858D01*
X184660192Y-71349542D01*
X184666765Y-71349072D01*
X184673090Y-71348416D01*
X184679167Y-71347543D01*
X184678930Y-71359449D01*
X184678258Y-71371355D01*
X184677214Y-71383261D01*
X184675860Y-71395168D01*
X184674258Y-71407074D01*
X184672470Y-71418980D01*
X184668584Y-71442793D01*
X184655355Y-71538042D01*
X184623604Y-71723251D01*
X184583876Y-71723168D01*
X184535961Y-71722589D01*
X184508857Y-71721959D01*
X184479613Y-71721018D01*
X184448199Y-71719706D01*
X184414583Y-71717959D01*
X184126187Y-71710021D01*
X183967437Y-72723375D01*
X183851021Y-72744542D01*
X183793805Y-72756448D01*
X183734604Y-72768355D01*
X183710430Y-72772561D01*
X183685573Y-72777202D01*
X183634062Y-72787537D01*
X183525583Y-72810688D01*
X183470020Y-72822553D01*
X183418427Y-72834170D01*
X183327145Y-72855667D01*
X183329792Y-72850376D01*
X183353563Y-72764510D01*
X183377086Y-72673436D01*
X183388677Y-72625868D01*
X183400113Y-72576904D01*
X183411363Y-72526515D01*
X183422396Y-72474668D01*
X183465722Y-72261017D01*
X183486764Y-72152455D01*
X183507063Y-72043397D01*
X183581146Y-71633293D01*
X183612896Y-71460321D01*
X183625794Y-71386610D01*
X183636708Y-71321084D01*
X183656097Y-71205536D01*
X183674742Y-71089243D01*
X183710792Y-70855417D01*
X183782230Y-70376522D01*
X184933167Y-70318313D01*
X184832626Y-70741647D01*
G37*
G36*
X186861979Y-72850376D02*
G01*
X186854045Y-72845085D01*
X186863213Y-72843666D01*
X186861979Y-72850376D01*
G37*
G36*
X186925190Y-75848323D02*
G01*
X186935240Y-75848974D01*
X186945051Y-75850059D01*
X186954624Y-75851578D01*
X186963965Y-75853531D01*
X186973078Y-75855919D01*
X186981966Y-75858740D01*
X186990633Y-75861996D01*
X186999082Y-75865686D01*
X187007319Y-75869809D01*
X187015346Y-75874367D01*
X187023168Y-75879359D01*
X187030788Y-75884785D01*
X187038211Y-75890645D01*
X187045440Y-75896939D01*
X187052479Y-75903668D01*
X187058864Y-75910738D01*
X187065114Y-75918059D01*
X187071216Y-75925637D01*
X187077160Y-75933475D01*
X187082933Y-75941575D01*
X187088523Y-75949944D01*
X187093920Y-75958583D01*
X187099112Y-75967498D01*
X187104087Y-75976692D01*
X187108832Y-75986169D01*
X187113338Y-75995933D01*
X187117592Y-76005987D01*
X187121582Y-76016336D01*
X187125296Y-76026983D01*
X187128725Y-76037933D01*
X187131854Y-76049189D01*
X187135203Y-76060692D01*
X187138308Y-76072381D01*
X187141173Y-76084256D01*
X187143801Y-76096318D01*
X187148364Y-76120998D01*
X187152028Y-76146423D01*
X187154824Y-76172592D01*
X187156782Y-76199505D01*
X187157935Y-76227162D01*
X187158312Y-76255564D01*
X187157811Y-76290404D01*
X187156286Y-76325430D01*
X187153707Y-76360580D01*
X187150043Y-76395793D01*
X187145263Y-76431005D01*
X187139336Y-76466155D01*
X187132230Y-76501181D01*
X187123916Y-76536021D01*
X187114604Y-76570613D01*
X187104486Y-76604896D01*
X187093499Y-76638806D01*
X187081583Y-76672282D01*
X187068674Y-76705262D01*
X187054711Y-76737684D01*
X187039631Y-76769485D01*
X187023374Y-76800605D01*
X187014816Y-76815798D01*
X187006010Y-76830619D01*
X186996957Y-76845067D01*
X186987655Y-76859144D01*
X186978105Y-76872849D01*
X186968307Y-76886181D01*
X186958261Y-76899142D01*
X186947967Y-76911730D01*
X186937425Y-76923946D01*
X186926635Y-76935791D01*
X186915597Y-76947263D01*
X186904311Y-76958363D01*
X186892777Y-76969091D01*
X186880994Y-76979447D01*
X186868964Y-76989431D01*
X186856686Y-76999043D01*
X186844190Y-77008189D01*
X186831509Y-77016773D01*
X186818642Y-77024791D01*
X186805588Y-77032239D01*
X186792349Y-77039114D01*
X186778923Y-77045411D01*
X186765312Y-77051128D01*
X186751514Y-77056258D01*
X186737531Y-77060800D01*
X186723361Y-77064749D01*
X186709005Y-77068101D01*
X186694463Y-77070852D01*
X186679736Y-77072998D01*
X186664822Y-77074536D01*
X186649722Y-77075462D01*
X186634436Y-77075771D01*
X186631791Y-77078417D01*
X186619048Y-77078230D01*
X186606615Y-77077668D01*
X186594491Y-77076725D01*
X186582678Y-77075399D01*
X186571175Y-77073685D01*
X186559982Y-77071580D01*
X186549099Y-77069080D01*
X186538526Y-77066180D01*
X186528263Y-77062877D01*
X186518310Y-77059168D01*
X186508667Y-77055047D01*
X186499334Y-77050512D01*
X186490311Y-77045558D01*
X186481598Y-77040182D01*
X186473196Y-77034380D01*
X186465103Y-77028147D01*
X186457291Y-77022039D01*
X186449730Y-77015626D01*
X186442425Y-77008910D01*
X186435379Y-77001895D01*
X186428598Y-76994586D01*
X186422083Y-76986987D01*
X186415840Y-76979100D01*
X186409872Y-76970931D01*
X186404183Y-76962482D01*
X186398777Y-76953758D01*
X186393658Y-76944763D01*
X186388830Y-76935501D01*
X186384296Y-76925975D01*
X186380060Y-76916190D01*
X186376127Y-76906148D01*
X186372500Y-76895855D01*
X186365932Y-76874771D01*
X186360139Y-76853191D01*
X186355152Y-76831115D01*
X186351002Y-76808543D01*
X186349251Y-76797071D01*
X186347721Y-76785475D01*
X186346415Y-76773755D01*
X186345338Y-76761910D01*
X186344494Y-76749942D01*
X186343886Y-76737850D01*
X186343519Y-76725634D01*
X186343395Y-76713293D01*
X186344021Y-76681057D01*
X186345052Y-76663021D01*
X186597397Y-76663021D01*
X186597489Y-76670836D01*
X186597764Y-76678411D01*
X186598217Y-76685752D01*
X186598844Y-76692870D01*
X186599642Y-76699770D01*
X186600606Y-76706461D01*
X186601733Y-76712950D01*
X186603019Y-76719245D01*
X186604461Y-76725355D01*
X186606053Y-76731286D01*
X186607793Y-76737047D01*
X186609676Y-76742644D01*
X186611698Y-76748087D01*
X186613857Y-76753383D01*
X186616147Y-76758539D01*
X186618565Y-76763563D01*
X186619836Y-76766005D01*
X186621168Y-76768369D01*
X186622560Y-76770656D01*
X186624011Y-76772865D01*
X186625521Y-76774997D01*
X186627087Y-76777051D01*
X186628710Y-76779027D01*
X186630388Y-76780926D01*
X186632120Y-76782748D01*
X186633906Y-76784492D01*
X186635744Y-76786159D01*
X186637633Y-76787748D01*
X186639573Y-76789259D01*
X186641562Y-76790693D01*
X186643599Y-76792050D01*
X186645684Y-76793329D01*
X186647816Y-76794531D01*
X186649993Y-76795655D01*
X186652214Y-76796701D01*
X186654480Y-76797670D01*
X186656788Y-76798561D01*
X186659137Y-76799375D01*
X186661527Y-76800112D01*
X186663957Y-76800771D01*
X186666426Y-76801352D01*
X186668932Y-76801856D01*
X186671476Y-76802282D01*
X186674055Y-76802631D01*
X186676669Y-76802903D01*
X186679317Y-76803096D01*
X186684711Y-76803251D01*
X186682063Y-76797959D01*
X186689939Y-76797804D01*
X186697695Y-76797339D01*
X186705335Y-76796564D01*
X186712862Y-76795479D01*
X186720281Y-76794084D01*
X186727595Y-76792379D01*
X186734808Y-76790363D01*
X186741925Y-76788038D01*
X186748948Y-76785402D01*
X186755882Y-76782457D01*
X186762732Y-76779201D01*
X186769499Y-76775635D01*
X186776189Y-76771759D01*
X186782806Y-76767574D01*
X186789353Y-76763077D01*
X186795834Y-76758271D01*
X186802221Y-76753188D01*
X186808484Y-76747864D01*
X186814623Y-76742307D01*
X186820639Y-76736526D01*
X186826530Y-76730528D01*
X186832297Y-76724320D01*
X186837940Y-76717911D01*
X186843459Y-76711308D01*
X186848854Y-76704519D01*
X186854125Y-76697552D01*
X186859272Y-76690414D01*
X186864295Y-76683113D01*
X186869194Y-76675658D01*
X186873969Y-76668055D01*
X186878620Y-76660312D01*
X186883146Y-76652438D01*
X186891828Y-76636325D01*
X186900014Y-76619779D01*
X186907703Y-76602860D01*
X186914897Y-76585631D01*
X186921594Y-76568154D01*
X186927795Y-76550490D01*
X186933500Y-76532703D01*
X186938709Y-76514855D01*
X186943417Y-76496246D01*
X186947597Y-76478103D01*
X186951220Y-76460393D01*
X186954253Y-76443087D01*
X186956667Y-76426152D01*
X186958429Y-76409559D01*
X186959509Y-76393275D01*
X186959876Y-76377271D01*
X186959753Y-76368405D01*
X186959390Y-76359670D01*
X186958795Y-76351075D01*
X186957974Y-76342627D01*
X186956937Y-76334334D01*
X186955690Y-76326204D01*
X186954242Y-76318245D01*
X186952600Y-76310464D01*
X186950772Y-76302869D01*
X186948766Y-76295467D01*
X186946589Y-76288268D01*
X186944249Y-76281277D01*
X186941755Y-76274504D01*
X186939113Y-76267955D01*
X186936331Y-76261639D01*
X186933418Y-76255563D01*
X186931884Y-76252625D01*
X186930258Y-76249766D01*
X186928542Y-76246986D01*
X186926737Y-76244287D01*
X186924845Y-76241669D01*
X186922867Y-76239134D01*
X186920805Y-76236682D01*
X186918660Y-76234314D01*
X186916433Y-76232031D01*
X186914127Y-76229835D01*
X186911742Y-76227725D01*
X186909280Y-76225704D01*
X186906743Y-76223772D01*
X186904131Y-76221931D01*
X186901447Y-76220180D01*
X186898692Y-76218521D01*
X186895866Y-76216956D01*
X186892973Y-76215484D01*
X186890013Y-76214107D01*
X186886987Y-76212826D01*
X186883897Y-76211643D01*
X186880745Y-76210557D01*
X186877532Y-76209569D01*
X186874259Y-76208682D01*
X186870928Y-76207895D01*
X186867540Y-76207210D01*
X186864097Y-76206628D01*
X186860601Y-76206150D01*
X186857052Y-76205776D01*
X186853452Y-76205508D01*
X186849803Y-76205346D01*
X186846106Y-76205292D01*
X186840153Y-76205477D01*
X186834205Y-76206031D01*
X186828264Y-76206949D01*
X186822335Y-76208227D01*
X186816421Y-76209862D01*
X186810527Y-76211850D01*
X186804655Y-76214186D01*
X186798811Y-76216867D01*
X186792998Y-76219890D01*
X186787220Y-76223249D01*
X186781481Y-76226942D01*
X186775784Y-76230965D01*
X186770134Y-76235313D01*
X186764535Y-76239982D01*
X186758989Y-76244970D01*
X186753502Y-76250271D01*
X186742603Y-76262436D01*
X186731797Y-76275159D01*
X186726458Y-76281749D01*
X186721178Y-76288502D01*
X186715967Y-76295425D01*
X186710837Y-76302527D01*
X186705801Y-76309814D01*
X186700869Y-76317296D01*
X186696053Y-76324979D01*
X186691366Y-76332871D01*
X186686817Y-76340980D01*
X186682421Y-76349314D01*
X186678186Y-76357881D01*
X186674127Y-76366688D01*
X186658376Y-76402903D01*
X186650733Y-76421383D01*
X186643369Y-76440110D01*
X186636377Y-76459086D01*
X186629851Y-76478310D01*
X186623882Y-76497781D01*
X186618565Y-76517501D01*
X186613857Y-76537102D01*
X186609676Y-76556238D01*
X186606053Y-76574939D01*
X186603020Y-76593238D01*
X186600606Y-76611165D01*
X186598844Y-76628750D01*
X186597764Y-76646025D01*
X186597397Y-76663021D01*
X186345052Y-76663021D01*
X186345917Y-76647891D01*
X186349116Y-76613857D01*
X186353648Y-76579017D01*
X186359544Y-76543432D01*
X186366836Y-76507166D01*
X186375554Y-76470279D01*
X186385729Y-76432835D01*
X186397263Y-76395374D01*
X186410038Y-76358379D01*
X186424052Y-76321818D01*
X186439307Y-76285660D01*
X186455802Y-76249874D01*
X186473538Y-76214429D01*
X186492513Y-76179294D01*
X186512729Y-76144439D01*
X186522744Y-76128719D01*
X186532950Y-76113314D01*
X186543349Y-76098226D01*
X186553946Y-76083460D01*
X186564744Y-76069020D01*
X186575748Y-76054909D01*
X186586961Y-76041131D01*
X186598387Y-76027691D01*
X186610031Y-76014592D01*
X186621895Y-76001837D01*
X186633984Y-75989432D01*
X186646302Y-75977379D01*
X186658852Y-75965682D01*
X186671639Y-75954347D01*
X186684666Y-75943375D01*
X186697937Y-75932772D01*
X186710867Y-75922665D01*
X186723863Y-75913181D01*
X186736929Y-75904326D01*
X186750068Y-75896102D01*
X186763285Y-75888514D01*
X186776583Y-75881566D01*
X186789967Y-75875261D01*
X186803440Y-75869603D01*
X186817005Y-75864596D01*
X186830668Y-75860244D01*
X186844431Y-75856551D01*
X186858299Y-75853521D01*
X186872276Y-75851158D01*
X186886365Y-75849465D01*
X186900570Y-75848446D01*
X186914895Y-75848106D01*
X186925190Y-75848323D01*
G37*
G36*
X184176530Y-73607425D02*
G01*
X184189636Y-73608444D01*
X184202541Y-73610137D01*
X184215237Y-73612500D01*
X184227716Y-73615530D01*
X184239969Y-73619223D01*
X184251991Y-73623575D01*
X184263772Y-73628582D01*
X184275304Y-73634240D01*
X184286582Y-73640545D01*
X184297595Y-73647493D01*
X184308337Y-73655082D01*
X184318801Y-73663305D01*
X184328977Y-73672161D01*
X184338859Y-73681644D01*
X184348438Y-73691751D01*
X184357584Y-73702416D01*
X184366168Y-73713574D01*
X184374187Y-73725220D01*
X184381635Y-73737350D01*
X184388510Y-73749961D01*
X184394808Y-73763049D01*
X184400524Y-73776609D01*
X184405654Y-73790639D01*
X184410196Y-73805133D01*
X184414145Y-73820089D01*
X184417497Y-73835502D01*
X184420248Y-73851369D01*
X184422395Y-73867685D01*
X184423933Y-73884447D01*
X184424858Y-73901651D01*
X184425168Y-73919293D01*
X184425168Y-73977501D01*
X184134126Y-74054230D01*
X184130623Y-74047502D01*
X184127062Y-74041208D01*
X184123446Y-74035348D01*
X184119780Y-74029922D01*
X184116068Y-74024930D01*
X184112313Y-74020372D01*
X184108520Y-74016248D01*
X184104691Y-74012558D01*
X184100832Y-74009303D01*
X184096945Y-74006481D01*
X184093035Y-74004094D01*
X184089106Y-74002141D01*
X184085161Y-74000621D01*
X184081204Y-73999536D01*
X184077240Y-73998885D01*
X184073272Y-73998668D01*
X184070032Y-73998753D01*
X184066763Y-73999009D01*
X184063465Y-73999435D01*
X184060141Y-74000032D01*
X184056792Y-74000800D01*
X184053418Y-74001737D01*
X184050023Y-74002846D01*
X184046607Y-74004125D01*
X184043171Y-74005575D01*
X184039718Y-74007195D01*
X184032763Y-74010946D01*
X184025753Y-74015380D01*
X184018701Y-74020496D01*
X184011618Y-74026294D01*
X184004516Y-74032775D01*
X183997406Y-74039937D01*
X183990300Y-74047781D01*
X183983209Y-74056308D01*
X183976146Y-74065517D01*
X183969121Y-74075408D01*
X183962147Y-74085981D01*
X183947388Y-74108305D01*
X183932877Y-74131621D01*
X183918615Y-74155930D01*
X183904600Y-74181230D01*
X183890833Y-74207523D01*
X183877315Y-74234809D01*
X183864044Y-74263086D01*
X183851022Y-74292356D01*
X183842216Y-74312318D01*
X183833658Y-74332498D01*
X183825349Y-74352864D01*
X183817287Y-74373384D01*
X183809474Y-74394029D01*
X183801909Y-74414767D01*
X183794591Y-74435567D01*
X183787522Y-74456398D01*
X183780820Y-74477109D01*
X183774582Y-74497573D01*
X183768779Y-74517789D01*
X183763379Y-74537757D01*
X183758350Y-74557477D01*
X183753663Y-74576948D01*
X183749286Y-74596172D01*
X183745188Y-74615148D01*
X183741468Y-74633503D01*
X183738243Y-74650867D01*
X183735515Y-74667238D01*
X183733282Y-74682616D01*
X183731546Y-74697003D01*
X183730306Y-74710398D01*
X183729562Y-74722800D01*
X183729313Y-74734210D01*
X183729572Y-74750576D01*
X183729906Y-74758377D01*
X183730388Y-74765919D01*
X183731025Y-74773197D01*
X183731825Y-74780207D01*
X183732795Y-74786947D01*
X183733944Y-74793411D01*
X183735278Y-74799596D01*
X183736807Y-74805498D01*
X183738537Y-74811113D01*
X183740476Y-74816438D01*
X183742632Y-74821468D01*
X183745013Y-74826199D01*
X183747626Y-74830629D01*
X183750480Y-74834752D01*
X183752527Y-74838131D01*
X183754697Y-74841320D01*
X183756992Y-74844315D01*
X183759410Y-74847113D01*
X183761952Y-74849709D01*
X183763270Y-74850930D01*
X183764619Y-74852100D01*
X183765999Y-74853217D01*
X183767409Y-74854281D01*
X183768851Y-74855292D01*
X183770324Y-74856249D01*
X183771828Y-74857152D01*
X183773363Y-74858000D01*
X183774928Y-74858793D01*
X183776525Y-74859531D01*
X183778153Y-74860212D01*
X183779812Y-74860836D01*
X183781502Y-74861403D01*
X183783222Y-74861913D01*
X183784974Y-74862364D01*
X183786757Y-74862757D01*
X183788571Y-74863091D01*
X183790416Y-74863365D01*
X183792292Y-74863579D01*
X183794199Y-74863733D01*
X183796136Y-74863825D01*
X183798105Y-74863856D01*
X183802135Y-74863732D01*
X183806281Y-74863360D01*
X183810535Y-74862740D01*
X183814890Y-74861872D01*
X183819338Y-74860755D01*
X183823871Y-74859391D01*
X183828482Y-74857779D01*
X183833163Y-74855918D01*
X183837905Y-74853810D01*
X183842702Y-74851454D01*
X183847546Y-74848849D01*
X183852428Y-74845996D01*
X183857341Y-74842896D01*
X183862277Y-74839547D01*
X183867229Y-74835951D01*
X183872189Y-74832106D01*
X183877119Y-74828074D01*
X183881992Y-74823915D01*
X183886810Y-74819624D01*
X183891578Y-74815197D01*
X183896299Y-74810631D01*
X183900978Y-74805921D01*
X183905618Y-74801065D01*
X183910223Y-74796056D01*
X183914797Y-74790893D01*
X183919344Y-74785571D01*
X183923867Y-74780086D01*
X183928372Y-74774435D01*
X183932860Y-74768613D01*
X183937338Y-74762617D01*
X183941807Y-74756442D01*
X183946272Y-74750085D01*
X183950615Y-74743666D01*
X183954716Y-74737306D01*
X183958586Y-74730999D01*
X183962230Y-74724743D01*
X183965658Y-74718534D01*
X183968876Y-74712367D01*
X183971892Y-74706239D01*
X183974715Y-74700145D01*
X183977352Y-74694083D01*
X183979810Y-74688048D01*
X183982098Y-74682036D01*
X183984224Y-74676043D01*
X183986194Y-74670066D01*
X183988017Y-74664101D01*
X183991252Y-74652189D01*
X184245251Y-74755376D01*
X184231671Y-74786103D01*
X184217723Y-74815776D01*
X184203411Y-74844394D01*
X184188738Y-74871959D01*
X184173709Y-74898469D01*
X184158326Y-74923924D01*
X184142595Y-74948326D01*
X184126520Y-74971673D01*
X184110103Y-74993967D01*
X184093348Y-75015206D01*
X184076261Y-75035390D01*
X184058844Y-75054521D01*
X184041102Y-75072597D01*
X184023037Y-75089619D01*
X184004656Y-75105587D01*
X183985960Y-75120501D01*
X183967170Y-75134453D01*
X183948505Y-75147533D01*
X183929963Y-75159737D01*
X183911546Y-75171061D01*
X183893252Y-75181502D01*
X183875083Y-75191055D01*
X183857038Y-75199717D01*
X183839116Y-75207483D01*
X183821319Y-75214350D01*
X183803646Y-75220314D01*
X183786096Y-75225372D01*
X183768671Y-75229518D01*
X183751370Y-75232750D01*
X183734192Y-75235063D01*
X183717139Y-75236454D01*
X183700210Y-75236918D01*
X183694917Y-75234272D01*
X183677740Y-75233775D01*
X183660940Y-75232282D01*
X183644519Y-75229789D01*
X183628482Y-75226293D01*
X183612832Y-75221789D01*
X183597574Y-75216273D01*
X183582711Y-75209742D01*
X183568248Y-75202191D01*
X183554187Y-75193617D01*
X183540534Y-75184016D01*
X183527291Y-75173385D01*
X183514463Y-75161718D01*
X183502054Y-75149013D01*
X183490067Y-75135265D01*
X183478506Y-75120471D01*
X183467375Y-75104626D01*
X183456773Y-75087882D01*
X183446798Y-75070390D01*
X183437459Y-75052147D01*
X183428763Y-75033147D01*
X183420718Y-75013388D01*
X183413332Y-74992865D01*
X183406613Y-74971575D01*
X183400568Y-74949514D01*
X183395205Y-74926677D01*
X183390532Y-74903062D01*
X183386557Y-74878664D01*
X183383287Y-74853478D01*
X183380730Y-74827503D01*
X183378895Y-74800732D01*
X183377788Y-74773164D01*
X183377417Y-74744793D01*
X183378290Y-74692439D01*
X183380931Y-74640489D01*
X183385370Y-74588848D01*
X183391638Y-74537425D01*
X183399767Y-74486126D01*
X183409787Y-74434858D01*
X183421729Y-74383528D01*
X183435625Y-74332043D01*
X183451133Y-74282061D01*
X183467912Y-74233320D01*
X183485994Y-74185819D01*
X183505409Y-74139558D01*
X183526188Y-74094538D01*
X183548363Y-74050758D01*
X183571963Y-74008218D01*
X183597021Y-73966918D01*
X183610075Y-73946826D01*
X183623443Y-73927230D01*
X183637129Y-73908131D01*
X183651137Y-73889527D01*
X183665470Y-73871420D01*
X183680132Y-73853808D01*
X183695128Y-73836693D01*
X183710461Y-73820074D01*
X183726135Y-73803951D01*
X183742154Y-73788324D01*
X183758522Y-73773193D01*
X183775243Y-73758559D01*
X183792320Y-73744420D01*
X183809757Y-73730777D01*
X183827559Y-73717631D01*
X183845729Y-73704981D01*
X183864149Y-73692981D01*
X183882704Y-73681783D01*
X183901406Y-73671384D01*
X183920268Y-73661779D01*
X183939299Y-73652965D01*
X183958513Y-73644938D01*
X183977921Y-73637693D01*
X183997534Y-73631228D01*
X184017364Y-73625538D01*
X184037423Y-73620619D01*
X184057722Y-73616467D01*
X184078273Y-73613079D01*
X184099088Y-73610451D01*
X184120178Y-73608578D01*
X184141555Y-73607457D01*
X184163230Y-73607084D01*
X184176530Y-73607425D01*
G37*
D11*
X200075220Y-112268000D02*
G75*
G03*
X200075220Y-112268000I-5003220J0D01*
G01*
D10*
G36*
X181675526Y-75866378D02*
G01*
X181672648Y-75875731D01*
X181669862Y-75885147D01*
X181667201Y-75894562D01*
X181664695Y-75903915D01*
X181662374Y-75913145D01*
X181660271Y-75922188D01*
X181652334Y-75954269D01*
X181648365Y-75970929D01*
X181644396Y-75988334D01*
X181642525Y-75997026D01*
X181640841Y-76005284D01*
X181637781Y-76020746D01*
X181636283Y-76028074D01*
X181634722Y-76035215D01*
X181633038Y-76042233D01*
X181631167Y-76049189D01*
X181385104Y-76049189D01*
X181326896Y-76348168D01*
X181424792Y-76342876D01*
X181557084Y-76342876D01*
X181557024Y-76345852D01*
X181556856Y-76348824D01*
X181556595Y-76351788D01*
X181556257Y-76354740D01*
X181555409Y-76360595D01*
X181554438Y-76366357D01*
X181553466Y-76371995D01*
X181552619Y-76377478D01*
X181552280Y-76380152D01*
X181552019Y-76382775D01*
X181551851Y-76385344D01*
X181551792Y-76387855D01*
X181551761Y-76390802D01*
X181551673Y-76393694D01*
X181551337Y-76399347D01*
X181550815Y-76404877D01*
X181550138Y-76410344D01*
X181549337Y-76415811D01*
X181548443Y-76421341D01*
X181546500Y-76432833D01*
X181530625Y-76525437D01*
X181303084Y-76525437D01*
X181247521Y-76832354D01*
X181490938Y-76792666D01*
X181475063Y-76983166D01*
X180935604Y-77067787D01*
X181152271Y-75893084D01*
X181681438Y-75848105D01*
X181675526Y-75866378D01*
G37*
G36*
X180932667Y-77083709D02*
G01*
X180935313Y-77067833D01*
X180935604Y-77067787D01*
X180932667Y-77083709D01*
G37*
G36*
X183969100Y-75829771D02*
G01*
X183981029Y-75830334D01*
X183992631Y-75831276D01*
X184003901Y-75832603D01*
X184014829Y-75834316D01*
X184025409Y-75836422D01*
X184035631Y-75838922D01*
X184045490Y-75841822D01*
X184054977Y-75845124D01*
X184064083Y-75848834D01*
X184072802Y-75852955D01*
X184081126Y-75857490D01*
X184089047Y-75862444D01*
X184096556Y-75867820D01*
X184103648Y-75873623D01*
X184110313Y-75879856D01*
X184117104Y-75886399D01*
X184123593Y-75893131D01*
X184129788Y-75900058D01*
X184135696Y-75907182D01*
X184141325Y-75914508D01*
X184146683Y-75922039D01*
X184151777Y-75929780D01*
X184156615Y-75937733D01*
X184161205Y-75945904D01*
X184165555Y-75954296D01*
X184169672Y-75962912D01*
X184173565Y-75971757D01*
X184177240Y-75980835D01*
X184180707Y-75990149D01*
X184183971Y-75999703D01*
X184187042Y-76009502D01*
X184189896Y-76019454D01*
X184192510Y-76029464D01*
X184194891Y-76039529D01*
X184197047Y-76049644D01*
X184200716Y-76070009D01*
X184203579Y-76090530D01*
X184205697Y-76111175D01*
X184207134Y-76131912D01*
X184207950Y-76152712D01*
X184208209Y-76173543D01*
X184207222Y-76222775D01*
X184204281Y-76271232D01*
X184199419Y-76318883D01*
X184192665Y-76365697D01*
X184184050Y-76411642D01*
X184173606Y-76456689D01*
X184161364Y-76500805D01*
X184147355Y-76543960D01*
X184131852Y-76585875D01*
X184123635Y-76606264D01*
X184115109Y-76626270D01*
X184106272Y-76645888D01*
X184097125Y-76665115D01*
X184087669Y-76683947D01*
X184077902Y-76702379D01*
X184067825Y-76720408D01*
X184057438Y-76738030D01*
X184046741Y-76755242D01*
X184035734Y-76772039D01*
X184024416Y-76788417D01*
X184012789Y-76804372D01*
X184000852Y-76819902D01*
X183988605Y-76835001D01*
X183976636Y-76850133D01*
X183964544Y-76864777D01*
X183952328Y-76878940D01*
X183939987Y-76892631D01*
X183927523Y-76905856D01*
X183914935Y-76918624D01*
X183902222Y-76930942D01*
X183889386Y-76942819D01*
X183876425Y-76954261D01*
X183863341Y-76965277D01*
X183850132Y-76975875D01*
X183836800Y-76986061D01*
X183823343Y-76995845D01*
X183809763Y-77005233D01*
X183796058Y-77014234D01*
X183782230Y-77022855D01*
X183768400Y-77030544D01*
X183754691Y-77037738D01*
X183741098Y-77044435D01*
X183727618Y-77050636D01*
X183714246Y-77056341D01*
X183700979Y-77061551D01*
X183687812Y-77066263D01*
X183674742Y-77070480D01*
X183661766Y-77074201D01*
X183648878Y-77077426D01*
X183636076Y-77080154D01*
X183623355Y-77082387D01*
X183610712Y-77084123D01*
X183598142Y-77085363D01*
X183585642Y-77086107D01*
X183573208Y-77086355D01*
X183559473Y-77086015D01*
X183546052Y-77084996D01*
X183532949Y-77083303D01*
X183520168Y-77080940D01*
X183507712Y-77077909D01*
X183495585Y-77074217D01*
X183483792Y-77069865D01*
X183472336Y-77064858D01*
X183461221Y-77059200D01*
X183450451Y-77052895D01*
X183440030Y-77045946D01*
X183429961Y-77038358D01*
X183420249Y-77030135D01*
X183410898Y-77021279D01*
X183401911Y-77011796D01*
X183393292Y-77001689D01*
X183384641Y-76990900D01*
X183376548Y-76979375D01*
X183369014Y-76967121D01*
X183362038Y-76954146D01*
X183355619Y-76940459D01*
X183349759Y-76926065D01*
X183344457Y-76910975D01*
X183339714Y-76895194D01*
X183335528Y-76878731D01*
X183331900Y-76861594D01*
X183328830Y-76843790D01*
X183326319Y-76825327D01*
X183324366Y-76806213D01*
X183322970Y-76786456D01*
X183322133Y-76766064D01*
X183321854Y-76745043D01*
X183322226Y-76721101D01*
X183323196Y-76700065D01*
X183575854Y-76700065D01*
X183575947Y-76704530D01*
X183576226Y-76708994D01*
X183576692Y-76713459D01*
X183577343Y-76717924D01*
X183578180Y-76722389D01*
X183579203Y-76726854D01*
X183580412Y-76731319D01*
X183581807Y-76735784D01*
X183583389Y-76740249D01*
X183585156Y-76744713D01*
X183587109Y-76749178D01*
X183589249Y-76753643D01*
X183591574Y-76758108D01*
X183594086Y-76762573D01*
X183596783Y-76767038D01*
X183599667Y-76771503D01*
X183602735Y-76775843D01*
X183605982Y-76779931D01*
X183609399Y-76783763D01*
X183612979Y-76787336D01*
X183616713Y-76790645D01*
X183620596Y-76793687D01*
X183624617Y-76796458D01*
X183628771Y-76798953D01*
X183633048Y-76801169D01*
X183637442Y-76803103D01*
X183641945Y-76804749D01*
X183646548Y-76806105D01*
X183651244Y-76807166D01*
X183656025Y-76807929D01*
X183660884Y-76808390D01*
X183665813Y-76808544D01*
X183665813Y-76811189D01*
X183675176Y-76811002D01*
X183684411Y-76810439D01*
X183693514Y-76809497D01*
X183702482Y-76808171D01*
X183711311Y-76806457D01*
X183719995Y-76804352D01*
X183728533Y-76801851D01*
X183736920Y-76798952D01*
X183745151Y-76795649D01*
X183753223Y-76791939D01*
X183761133Y-76787818D01*
X183768876Y-76783283D01*
X183776449Y-76778329D01*
X183783847Y-76772953D01*
X183791067Y-76767151D01*
X183798104Y-76760918D01*
X183805017Y-76754376D01*
X183811861Y-76747647D01*
X183818626Y-76740733D01*
X183825307Y-76733633D01*
X183831894Y-76726347D01*
X183838381Y-76718874D01*
X183844759Y-76711216D01*
X183851021Y-76703371D01*
X183857159Y-76695341D01*
X183863165Y-76687124D01*
X183869032Y-76678722D01*
X183874751Y-76670133D01*
X183880315Y-76661358D01*
X183885717Y-76652398D01*
X183890948Y-76643251D01*
X183896000Y-76633918D01*
X183905669Y-76614064D01*
X183914811Y-76594148D01*
X183923394Y-76574108D01*
X183931388Y-76553882D01*
X183938763Y-76533407D01*
X183945486Y-76512623D01*
X183951527Y-76491467D01*
X183956854Y-76469876D01*
X183961562Y-76449175D01*
X183965743Y-76428784D01*
X183969365Y-76408764D01*
X183972399Y-76389179D01*
X183974812Y-76370090D01*
X183976574Y-76351559D01*
X183977654Y-76333648D01*
X183978021Y-76316419D01*
X183977939Y-76302487D01*
X183977742Y-76295443D01*
X183977360Y-76288307D01*
X183976729Y-76281046D01*
X183976302Y-76277360D01*
X183975789Y-76273631D01*
X183975183Y-76269855D01*
X183974476Y-76266029D01*
X183973661Y-76262149D01*
X183972729Y-76258210D01*
X183970735Y-76250397D01*
X183968678Y-76242831D01*
X183966497Y-76235514D01*
X183964130Y-76228445D01*
X183962858Y-76225003D01*
X183961515Y-76221624D01*
X183960096Y-76218306D01*
X183958591Y-76215050D01*
X183956992Y-76211857D01*
X183955294Y-76208725D01*
X183953486Y-76205656D01*
X183951563Y-76202648D01*
X183950547Y-76201183D01*
X183949486Y-76199765D01*
X183948379Y-76198393D01*
X183947227Y-76197067D01*
X183946030Y-76195788D01*
X183944790Y-76194556D01*
X183943505Y-76193370D01*
X183942178Y-76192230D01*
X183940808Y-76191137D01*
X183939396Y-76190091D01*
X183937942Y-76189091D01*
X183936447Y-76188138D01*
X183934911Y-76187231D01*
X183933336Y-76186370D01*
X183931720Y-76185556D01*
X183930065Y-76184789D01*
X183926640Y-76183394D01*
X183923063Y-76182185D01*
X183919339Y-76181161D01*
X183915472Y-76180324D01*
X183911465Y-76179673D01*
X183907322Y-76179208D01*
X183903048Y-76178929D01*
X183898646Y-76178836D01*
X183889252Y-76179053D01*
X183879929Y-76179704D01*
X183870682Y-76180789D01*
X183861522Y-76182309D01*
X183852454Y-76184262D01*
X183843486Y-76186649D01*
X183834628Y-76189471D01*
X183825885Y-76192726D01*
X183817267Y-76196416D01*
X183808780Y-76200540D01*
X183800433Y-76205098D01*
X183792234Y-76210090D01*
X183784189Y-76215516D01*
X183776307Y-76221376D01*
X183768595Y-76227670D01*
X183761062Y-76234398D01*
X183753218Y-76241467D01*
X183745559Y-76248780D01*
X183738087Y-76256333D01*
X183730801Y-76264122D01*
X183723700Y-76272144D01*
X183716786Y-76280395D01*
X183710058Y-76288871D01*
X183703515Y-76297567D01*
X183697159Y-76306481D01*
X183690989Y-76315607D01*
X183685005Y-76324943D01*
X183679207Y-76334485D01*
X183673595Y-76344228D01*
X183668169Y-76354168D01*
X183662929Y-76364303D01*
X183657875Y-76374627D01*
X183647447Y-76396342D01*
X183637949Y-76417870D01*
X183629319Y-76439274D01*
X183621495Y-76460617D01*
X183614415Y-76481959D01*
X183608018Y-76503363D01*
X183602240Y-76524892D01*
X183597021Y-76546606D01*
X183592313Y-76567959D01*
X183588133Y-76588444D01*
X183584510Y-76608184D01*
X183581477Y-76627304D01*
X183579064Y-76645929D01*
X183577301Y-76664181D01*
X183576221Y-76682185D01*
X183575854Y-76700065D01*
X183323196Y-76700065D01*
X183323342Y-76696880D01*
X183325203Y-76672349D01*
X183327807Y-76647478D01*
X183331156Y-76622234D01*
X183335249Y-76596587D01*
X183340086Y-76570506D01*
X183345667Y-76543960D01*
X183351873Y-76517295D01*
X183358606Y-76490878D01*
X183365898Y-76464709D01*
X183373778Y-76438788D01*
X183382279Y-76413115D01*
X183391431Y-76387690D01*
X183401265Y-76362513D01*
X183411812Y-76337585D01*
X183422856Y-76312801D01*
X183434178Y-76288141D01*
X183445810Y-76263729D01*
X183457784Y-76239689D01*
X183470129Y-76216145D01*
X183482878Y-76193221D01*
X183496061Y-76171042D01*
X183509709Y-76149731D01*
X183520746Y-76132553D01*
X183532027Y-76115748D01*
X183543549Y-76099315D01*
X183555308Y-76083254D01*
X183567298Y-76067565D01*
X183579518Y-76052248D01*
X183591962Y-76037303D01*
X183604628Y-76022731D01*
X183617510Y-76008530D01*
X183630605Y-75994701D01*
X183643910Y-75981245D01*
X183657420Y-75968160D01*
X183671132Y-75955448D01*
X183685041Y-75943108D01*
X183699145Y-75931140D01*
X183713438Y-75919543D01*
X183727886Y-75908941D01*
X183742454Y-75898966D01*
X183757139Y-75889627D01*
X183771936Y-75880931D01*
X183786841Y-75872886D01*
X183801851Y-75865500D01*
X183816962Y-75858781D01*
X183832170Y-75852736D01*
X183847470Y-75847373D01*
X183862860Y-75842700D01*
X183878335Y-75838725D01*
X183893892Y-75835455D01*
X183909526Y-75832899D01*
X183925234Y-75831063D01*
X183941011Y-75829956D01*
X183956854Y-75829585D01*
X183969100Y-75829771D01*
G37*
G36*
X185771699Y-75861489D02*
G01*
X185782024Y-75861950D01*
X185792287Y-75862713D01*
X185802488Y-75863774D01*
X185812627Y-75865130D01*
X185822704Y-75866776D01*
X185832719Y-75868710D01*
X185842671Y-75870926D01*
X185852562Y-75873421D01*
X185862391Y-75876192D01*
X185872158Y-75879234D01*
X185881863Y-75882543D01*
X185891506Y-75886116D01*
X185901087Y-75889948D01*
X185910605Y-75894036D01*
X185920062Y-75898377D01*
X185928899Y-75902996D01*
X185937550Y-75907926D01*
X185946014Y-75913166D01*
X185954293Y-75918716D01*
X185962385Y-75924576D01*
X185970292Y-75930747D01*
X185978012Y-75937227D01*
X185985547Y-75944017D01*
X185992895Y-75951117D01*
X186000058Y-75958528D01*
X186007034Y-75966248D01*
X186013824Y-75974279D01*
X186020428Y-75982619D01*
X186026846Y-75991270D01*
X186033079Y-76000231D01*
X186039125Y-76009502D01*
X186044862Y-76019053D01*
X186050173Y-76028860D01*
X186055066Y-76038930D01*
X186059547Y-76049272D01*
X186063626Y-76059893D01*
X186067309Y-76070800D01*
X186070605Y-76082002D01*
X186073521Y-76093507D01*
X186076064Y-76105321D01*
X186078244Y-76117454D01*
X186080067Y-76129911D01*
X186081541Y-76142703D01*
X186082674Y-76155835D01*
X186083473Y-76169316D01*
X186083947Y-76183153D01*
X186084104Y-76197355D01*
X186083919Y-76207773D01*
X186083370Y-76218186D01*
X186082464Y-76228592D01*
X186081210Y-76238986D01*
X186079614Y-76249364D01*
X186077686Y-76259723D01*
X186075431Y-76270059D01*
X186072859Y-76280368D01*
X186069977Y-76290646D01*
X186066792Y-76300889D01*
X186063313Y-76311093D01*
X186059547Y-76321255D01*
X186055502Y-76331370D01*
X186051186Y-76341434D01*
X186046607Y-76351445D01*
X186041771Y-76361397D01*
X186036189Y-76371317D01*
X186030356Y-76381230D01*
X186024266Y-76391128D01*
X186017917Y-76401002D01*
X186011304Y-76410845D01*
X186004424Y-76420649D01*
X185997273Y-76430407D01*
X185989846Y-76440110D01*
X185982141Y-76449752D01*
X185974152Y-76459324D01*
X185965877Y-76468818D01*
X185957311Y-76478227D01*
X185948450Y-76487543D01*
X185939292Y-76496758D01*
X185929830Y-76505865D01*
X185920063Y-76514856D01*
X185900715Y-76533702D01*
X185880375Y-76552517D01*
X185859043Y-76571270D01*
X185836719Y-76589931D01*
X185813403Y-76608467D01*
X185789094Y-76626849D01*
X185763793Y-76645044D01*
X185737500Y-76663022D01*
X185710572Y-76680763D01*
X185683302Y-76698286D01*
X185655598Y-76715624D01*
X185627367Y-76732806D01*
X185598516Y-76749864D01*
X185568952Y-76766830D01*
X185538582Y-76783733D01*
X185507312Y-76800606D01*
X185546959Y-76800482D01*
X185568193Y-76800187D01*
X185590326Y-76799614D01*
X185613327Y-76798668D01*
X185637165Y-76797257D01*
X185661810Y-76795288D01*
X185687229Y-76792668D01*
X185800008Y-76784400D01*
X185863218Y-76779646D01*
X185930646Y-76774148D01*
X185904187Y-77017564D01*
X185883837Y-77019435D01*
X185862433Y-77021119D01*
X185816213Y-77024179D01*
X185708396Y-77030793D01*
X185467625Y-77046668D01*
X185184521Y-77067836D01*
X185181875Y-77065189D01*
X185210980Y-76853521D01*
X185211660Y-76847071D01*
X185212705Y-76840613D01*
X185214107Y-76834139D01*
X185215858Y-76827642D01*
X185217949Y-76821114D01*
X185220374Y-76814547D01*
X185223125Y-76807934D01*
X185226193Y-76801267D01*
X185229571Y-76794537D01*
X185233252Y-76787738D01*
X185237227Y-76780861D01*
X185241489Y-76773899D01*
X185246030Y-76766844D01*
X185250842Y-76759688D01*
X185255918Y-76752424D01*
X185261250Y-76745043D01*
X185273410Y-76730274D01*
X185286096Y-76715690D01*
X185299341Y-76701231D01*
X185313175Y-76686834D01*
X185327629Y-76672437D01*
X185342734Y-76657978D01*
X185358521Y-76643395D01*
X185375021Y-76628626D01*
X185391888Y-76613873D01*
X185408756Y-76599398D01*
X185425623Y-76585234D01*
X185442490Y-76571410D01*
X185459357Y-76557959D01*
X185476225Y-76544911D01*
X185493092Y-76532297D01*
X185509959Y-76520147D01*
X185527694Y-76507140D01*
X185545182Y-76493978D01*
X185579412Y-76467561D01*
X185612650Y-76441640D01*
X185644896Y-76416960D01*
X185660399Y-76405059D01*
X185675158Y-76393189D01*
X185689173Y-76381381D01*
X185702443Y-76369666D01*
X185714970Y-76358075D01*
X185726752Y-76346639D01*
X185737790Y-76335389D01*
X185748084Y-76324355D01*
X185752890Y-76318960D01*
X185757385Y-76313684D01*
X185761571Y-76308525D01*
X185765447Y-76303478D01*
X185769013Y-76298540D01*
X185772268Y-76293706D01*
X185775214Y-76288973D01*
X185777849Y-76284337D01*
X185780175Y-76279794D01*
X185782190Y-76275340D01*
X185783895Y-76270972D01*
X185785290Y-76266684D01*
X185786376Y-76262475D01*
X185787151Y-76258339D01*
X185787616Y-76254272D01*
X185787771Y-76250272D01*
X185787708Y-76243946D01*
X185787518Y-76237859D01*
X185787195Y-76232006D01*
X185786737Y-76226377D01*
X185786140Y-76220965D01*
X185785399Y-76215763D01*
X185784511Y-76210762D01*
X185783472Y-76205955D01*
X185782277Y-76201334D01*
X185780924Y-76196891D01*
X185779408Y-76192618D01*
X185777725Y-76188509D01*
X185775872Y-76184554D01*
X185773844Y-76180747D01*
X185771639Y-76177079D01*
X185769251Y-76173543D01*
X185766739Y-76170194D01*
X185764165Y-76167089D01*
X185761530Y-76164224D01*
X185758832Y-76161595D01*
X185756073Y-76159199D01*
X185753251Y-76157032D01*
X185750368Y-76155090D01*
X185747422Y-76153368D01*
X185744415Y-76151864D01*
X185741345Y-76150573D01*
X185738213Y-76149491D01*
X185735020Y-76148614D01*
X185731764Y-76147939D01*
X185728447Y-76147462D01*
X185725067Y-76147178D01*
X185721625Y-76147084D01*
X185714804Y-76147240D01*
X185708231Y-76147710D01*
X185701906Y-76148497D01*
X185695829Y-76149606D01*
X185689999Y-76151041D01*
X185684418Y-76152805D01*
X185679085Y-76154902D01*
X185674000Y-76157337D01*
X185669164Y-76160113D01*
X185664575Y-76163233D01*
X185660234Y-76166703D01*
X185656141Y-76170525D01*
X185652296Y-76174704D01*
X185648700Y-76179243D01*
X185645351Y-76184146D01*
X185642251Y-76189418D01*
X185639367Y-76194876D01*
X185636670Y-76200342D01*
X185634158Y-76205824D01*
X185631833Y-76211329D01*
X185629693Y-76216864D01*
X185627740Y-76222439D01*
X185625973Y-76228060D01*
X185624391Y-76233735D01*
X185622996Y-76239473D01*
X185621787Y-76245280D01*
X185620763Y-76251164D01*
X185619926Y-76257134D01*
X185619275Y-76263197D01*
X185618810Y-76269361D01*
X185618531Y-76275633D01*
X185618438Y-76282022D01*
X185618438Y-76305834D01*
X185606945Y-76305875D01*
X185601416Y-76305974D01*
X185595948Y-76306165D01*
X185590481Y-76306480D01*
X185584952Y-76306950D01*
X185579298Y-76307607D01*
X185573459Y-76308480D01*
X185567506Y-76308599D01*
X185561553Y-76308935D01*
X185555599Y-76309457D01*
X185549646Y-76310134D01*
X185543693Y-76310935D01*
X185537740Y-76311829D01*
X185525834Y-76313772D01*
X185515457Y-76313814D01*
X185509974Y-76313912D01*
X185504336Y-76314103D01*
X185498574Y-76314418D01*
X185492720Y-76314888D01*
X185486803Y-76315545D01*
X185480855Y-76316418D01*
X185474902Y-76316537D01*
X185468948Y-76316873D01*
X185462995Y-76317395D01*
X185457042Y-76318072D01*
X185451089Y-76318873D01*
X185445136Y-76319767D01*
X185433230Y-76321710D01*
X185380313Y-76327002D01*
X185374246Y-76327121D01*
X185367993Y-76327456D01*
X185361616Y-76327978D01*
X185355177Y-76328655D01*
X185348738Y-76329456D01*
X185342361Y-76330350D01*
X185330042Y-76332294D01*
X185330042Y-76279376D01*
X185330196Y-76267066D01*
X185330656Y-76254938D01*
X185331419Y-76242989D01*
X185332481Y-76231214D01*
X185333836Y-76219609D01*
X185335483Y-76208171D01*
X185337416Y-76196896D01*
X185339633Y-76185780D01*
X185342128Y-76174819D01*
X185344898Y-76164009D01*
X185347940Y-76153346D01*
X185351249Y-76142827D01*
X185354822Y-76132447D01*
X185358655Y-76122202D01*
X185362743Y-76112090D01*
X185367083Y-76102105D01*
X185372107Y-76092306D01*
X185377263Y-76082747D01*
X185382559Y-76073421D01*
X185388002Y-76064320D01*
X185393600Y-76055435D01*
X185399360Y-76046760D01*
X185405291Y-76038286D01*
X185411401Y-76030006D01*
X185417696Y-76021913D01*
X185424185Y-76013997D01*
X185430876Y-76006252D01*
X185437776Y-75998670D01*
X185444893Y-75991243D01*
X185452235Y-75983963D01*
X185459810Y-75976823D01*
X185467624Y-75969814D01*
X185483634Y-75957174D01*
X185499953Y-75945092D01*
X185508249Y-75939280D01*
X185516645Y-75933630D01*
X185525149Y-75928151D01*
X185533770Y-75922851D01*
X185542515Y-75917736D01*
X185551392Y-75912815D01*
X185560408Y-75908096D01*
X185569572Y-75903586D01*
X185578891Y-75899293D01*
X185588372Y-75895224D01*
X185598024Y-75891389D01*
X185607854Y-75887793D01*
X185617310Y-75884444D01*
X185626819Y-75881339D01*
X185636376Y-75878474D01*
X185645971Y-75875846D01*
X185655597Y-75873450D01*
X185665246Y-75871283D01*
X185674911Y-75869340D01*
X185684583Y-75867619D01*
X185694256Y-75866114D01*
X185703920Y-75864823D01*
X185723196Y-75862865D01*
X185742347Y-75861712D01*
X185761312Y-75861335D01*
X185771699Y-75861489D01*
G37*
G36*
X185003613Y-75953276D02*
G01*
X184990507Y-76013386D01*
X184978146Y-76073000D01*
X184954334Y-76190078D01*
X184930521Y-76303188D01*
X184909644Y-76402861D01*
X184890503Y-76499310D01*
X184872850Y-76592286D01*
X184856438Y-76681542D01*
X184841555Y-76766373D01*
X184828656Y-76846244D01*
X184817742Y-76921155D01*
X184808813Y-76991103D01*
X184536292Y-77054604D01*
X184509833Y-76797958D01*
X184509772Y-76792964D01*
X184509595Y-76787902D01*
X184508923Y-76777535D01*
X184507880Y-76766797D01*
X184506526Y-76755625D01*
X184503136Y-76731730D01*
X184499250Y-76705354D01*
X184486021Y-76594229D01*
X184482465Y-76565414D01*
X184479406Y-76538336D01*
X184476347Y-76512746D01*
X184474662Y-76500431D01*
X184472792Y-76488396D01*
X184469278Y-76466072D01*
X184466508Y-76446724D01*
X184464234Y-76430353D01*
X184462208Y-76416958D01*
X184446333Y-76514193D01*
X184430458Y-76607458D01*
X184422479Y-76653057D01*
X184414252Y-76698409D01*
X184405529Y-76743264D01*
X184400904Y-76765428D01*
X184396062Y-76787375D01*
X184384156Y-76847237D01*
X184372250Y-76909084D01*
X184348437Y-77036083D01*
X184105021Y-77094292D01*
X184107667Y-77089001D01*
X184131149Y-76971592D01*
X184142270Y-76913755D01*
X184152646Y-76856167D01*
X184197625Y-76628625D01*
X184221438Y-76497326D01*
X184245250Y-76364042D01*
X184268732Y-76231089D01*
X184279853Y-76166101D01*
X184290229Y-76102104D01*
X184299655Y-76039638D01*
X184308089Y-75979404D01*
X184315530Y-75921650D01*
X184321980Y-75866625D01*
X184335457Y-75866584D01*
X184341978Y-75866486D01*
X184348438Y-75866295D01*
X184354898Y-75865980D01*
X184361419Y-75865509D01*
X184368065Y-75864853D01*
X184374897Y-75863980D01*
X184386803Y-75863939D01*
X184392756Y-75863840D01*
X184398709Y-75863649D01*
X184404662Y-75863334D01*
X184410615Y-75862864D01*
X184416569Y-75862207D01*
X184422522Y-75861334D01*
X184432898Y-75861293D01*
X184438381Y-75861194D01*
X184444019Y-75861003D01*
X184449781Y-75860688D01*
X184455636Y-75860218D01*
X184461553Y-75859561D01*
X184467501Y-75858688D01*
X184478994Y-75858647D01*
X184484523Y-75858548D01*
X184489990Y-75858357D01*
X184495458Y-75858042D01*
X184500987Y-75857572D01*
X184506640Y-75856915D01*
X184512480Y-75856042D01*
X184591855Y-75850750D01*
X184597767Y-75882459D01*
X184603430Y-75913920D01*
X184608598Y-75944884D01*
X184610918Y-75960103D01*
X184613021Y-75975104D01*
X184615120Y-75990860D01*
X184617404Y-76006399D01*
X184622282Y-76036950D01*
X184627160Y-76067006D01*
X184629444Y-76081924D01*
X184631542Y-76096812D01*
X184635511Y-76117607D01*
X184639480Y-76140138D01*
X184643449Y-76164157D01*
X184647417Y-76189417D01*
X184665938Y-76297896D01*
X184668036Y-76311667D01*
X184670320Y-76325222D01*
X184675198Y-76351805D01*
X184680077Y-76377891D01*
X184682361Y-76390825D01*
X184684459Y-76403729D01*
X184688428Y-76426549D01*
X184692396Y-76447385D01*
X184696365Y-76466237D01*
X184700334Y-76483104D01*
X184715547Y-76402406D01*
X184721914Y-76367762D01*
X184724570Y-76352083D01*
X184726792Y-76337583D01*
X184732332Y-76308313D01*
X184737375Y-76280036D01*
X184742419Y-76252751D01*
X184745096Y-76239480D01*
X184747959Y-76226458D01*
X184760196Y-76166927D01*
X184766934Y-76134185D01*
X184774417Y-76099458D01*
X184827334Y-75856042D01*
X185031063Y-75829583D01*
X185003613Y-75953276D01*
G37*
G36*
X181598930Y-70329394D02*
G01*
X181619292Y-70330886D01*
X181639328Y-70333379D01*
X181659031Y-70336876D01*
X181678393Y-70341380D01*
X181697406Y-70346896D01*
X181716063Y-70353427D01*
X181734355Y-70360978D01*
X181752275Y-70369551D01*
X181769815Y-70379152D01*
X181786968Y-70389784D01*
X181803725Y-70401451D01*
X181820079Y-70414156D01*
X181836023Y-70427904D01*
X181851548Y-70442698D01*
X181866646Y-70458543D01*
X181881094Y-70475256D01*
X181894665Y-70492654D01*
X181907353Y-70510743D01*
X181919150Y-70529525D01*
X181930047Y-70549005D01*
X181940037Y-70569187D01*
X181949113Y-70590074D01*
X181957266Y-70611670D01*
X181964489Y-70633980D01*
X181970774Y-70657006D01*
X181976114Y-70680753D01*
X181980500Y-70705225D01*
X181983925Y-70730426D01*
X181986381Y-70756359D01*
X181987860Y-70783029D01*
X181988355Y-70810439D01*
X181988355Y-70876584D01*
X181988313Y-70879189D01*
X181988215Y-70882026D01*
X181988024Y-70885514D01*
X181987709Y-70889374D01*
X181987495Y-70891357D01*
X181987239Y-70893328D01*
X181986936Y-70895252D01*
X181986582Y-70897095D01*
X181986175Y-70898821D01*
X181985709Y-70900397D01*
X181535917Y-71022105D01*
X181530865Y-71011562D01*
X181525639Y-71001755D01*
X181520250Y-70992677D01*
X181514709Y-70984319D01*
X181509029Y-70976675D01*
X181503222Y-70969736D01*
X181497298Y-70963495D01*
X181491269Y-70957944D01*
X181485147Y-70953075D01*
X181478944Y-70948880D01*
X181472671Y-70945352D01*
X181466340Y-70942482D01*
X181459963Y-70940264D01*
X181453550Y-70938689D01*
X181447115Y-70937750D01*
X181440667Y-70937439D01*
X181435451Y-70937570D01*
X181430218Y-70937966D01*
X181424971Y-70938625D01*
X181419707Y-70939547D01*
X181414429Y-70940733D01*
X181409134Y-70942183D01*
X181403825Y-70943896D01*
X181398499Y-70945872D01*
X181393159Y-70948112D01*
X181387802Y-70950616D01*
X181377043Y-70956414D01*
X181366222Y-70963266D01*
X181355339Y-70971173D01*
X181344394Y-70980134D01*
X181333387Y-70990149D01*
X181322318Y-71001218D01*
X181311187Y-71013341D01*
X181299994Y-71026518D01*
X181288739Y-71040750D01*
X181277421Y-71056036D01*
X181266042Y-71072376D01*
X181243346Y-71106860D01*
X181220898Y-71142863D01*
X181198698Y-71180416D01*
X181176746Y-71219551D01*
X181155041Y-71260298D01*
X181133585Y-71302688D01*
X181112377Y-71346752D01*
X181091417Y-71392522D01*
X181077770Y-71423404D01*
X181064587Y-71454534D01*
X181051838Y-71485912D01*
X181039493Y-71517538D01*
X181027520Y-71549412D01*
X181015887Y-71581534D01*
X181004565Y-71613904D01*
X180993522Y-71646522D01*
X180982974Y-71679011D01*
X180973140Y-71710973D01*
X180963989Y-71742377D01*
X180955488Y-71773191D01*
X180947607Y-71803386D01*
X180940316Y-71832929D01*
X180933582Y-71861791D01*
X180927376Y-71889939D01*
X180921795Y-71917973D01*
X180916958Y-71944550D01*
X180912865Y-71969701D01*
X180909516Y-71993457D01*
X180906912Y-72015848D01*
X180905051Y-72036906D01*
X180903935Y-72056662D01*
X180903563Y-72075147D01*
X180903687Y-72088294D01*
X180904059Y-72100949D01*
X180904679Y-72113116D01*
X180905548Y-72124798D01*
X180906664Y-72135999D01*
X180908028Y-72146724D01*
X180909640Y-72156976D01*
X180911501Y-72166759D01*
X180913609Y-72176077D01*
X180915965Y-72184934D01*
X180918570Y-72193333D01*
X180921423Y-72201279D01*
X180924523Y-72208775D01*
X180927872Y-72215826D01*
X180931468Y-72222435D01*
X180935313Y-72228605D01*
X180936832Y-72231295D01*
X180938413Y-72233907D01*
X180940055Y-72236440D01*
X180941757Y-72238894D01*
X180943520Y-72241269D01*
X180945342Y-72243564D01*
X180947223Y-72245778D01*
X180949163Y-72247912D01*
X180951160Y-72249964D01*
X180953216Y-72251934D01*
X180955329Y-72253822D01*
X180957498Y-72255627D01*
X180959724Y-72257349D01*
X180962005Y-72258987D01*
X180964341Y-72260540D01*
X180966733Y-72262009D01*
X180969178Y-72263393D01*
X180971677Y-72264690D01*
X180974230Y-72265902D01*
X180976835Y-72267027D01*
X180979493Y-72268064D01*
X180982202Y-72269014D01*
X180984963Y-72269876D01*
X180987775Y-72270649D01*
X180990637Y-72271333D01*
X180993549Y-72271928D01*
X180996511Y-72272432D01*
X180999521Y-72272846D01*
X181002580Y-72273168D01*
X181005687Y-72273399D01*
X181008841Y-72273538D01*
X181012042Y-72273585D01*
X181018523Y-72273398D01*
X181025070Y-72272835D01*
X181031687Y-72271893D01*
X181038377Y-72270567D01*
X181045144Y-72268853D01*
X181051994Y-72266748D01*
X181058928Y-72264247D01*
X181065951Y-72261348D01*
X181073068Y-72258045D01*
X181080281Y-72254335D01*
X181087595Y-72250215D01*
X181095014Y-72245679D01*
X181102542Y-72240726D01*
X181110181Y-72235349D01*
X181117937Y-72229547D01*
X181125813Y-72223314D01*
X181133690Y-72216801D01*
X181141451Y-72210157D01*
X181149103Y-72203373D01*
X181156654Y-72196442D01*
X181164112Y-72189356D01*
X181171485Y-72182107D01*
X181178780Y-72174688D01*
X181186006Y-72167090D01*
X181193170Y-72159306D01*
X181200279Y-72151329D01*
X181207342Y-72143150D01*
X181214366Y-72134761D01*
X181228329Y-72117325D01*
X181242230Y-72098960D01*
X181248555Y-72089534D01*
X181254632Y-72080108D01*
X181260461Y-72070682D01*
X181266042Y-72061256D01*
X181271375Y-72051831D01*
X181276460Y-72042405D01*
X181281297Y-72032979D01*
X181285886Y-72023553D01*
X181290227Y-72014127D01*
X181294320Y-72004702D01*
X181298164Y-71995276D01*
X181301761Y-71985850D01*
X181305110Y-71976424D01*
X181308210Y-71966999D01*
X181311063Y-71957573D01*
X181313667Y-71948147D01*
X181705251Y-72106897D01*
X181684137Y-72154213D01*
X181662473Y-72199920D01*
X181640266Y-72244022D01*
X181617525Y-72286524D01*
X181594256Y-72327430D01*
X181570468Y-72366742D01*
X181546169Y-72404465D01*
X181521365Y-72440603D01*
X181496066Y-72475160D01*
X181470278Y-72508139D01*
X181444010Y-72539544D01*
X181417268Y-72569380D01*
X181390062Y-72597651D01*
X181362398Y-72624359D01*
X181334285Y-72649509D01*
X181305730Y-72673105D01*
X181277019Y-72695183D01*
X181248436Y-72715780D01*
X181219985Y-72734904D01*
X181191670Y-72752563D01*
X181163494Y-72768765D01*
X181135461Y-72783517D01*
X181107576Y-72796828D01*
X181079842Y-72808704D01*
X181052263Y-72819155D01*
X181024843Y-72828186D01*
X180997585Y-72835807D01*
X180970495Y-72842025D01*
X180943574Y-72846848D01*
X180916829Y-72850283D01*
X180890261Y-72852339D01*
X180863876Y-72853022D01*
X180855938Y-72853022D01*
X180828992Y-72852216D01*
X180802721Y-72849802D01*
X180777117Y-72845784D01*
X180752172Y-72840165D01*
X180727877Y-72832949D01*
X180704226Y-72824140D01*
X180681211Y-72813742D01*
X180658823Y-72801759D01*
X180637056Y-72788194D01*
X180615901Y-72773052D01*
X180595351Y-72756337D01*
X180575397Y-72738052D01*
X180556032Y-72718201D01*
X180537249Y-72696788D01*
X180519040Y-72673818D01*
X180501396Y-72649293D01*
X180484590Y-72623402D01*
X180468897Y-72596329D01*
X180454312Y-72568071D01*
X180440831Y-72538622D01*
X180428452Y-72507980D01*
X180417169Y-72476140D01*
X180406979Y-72443099D01*
X180397878Y-72408852D01*
X180389862Y-72373396D01*
X180382928Y-72336728D01*
X180377071Y-72298842D01*
X180372288Y-72259735D01*
X180368574Y-72219403D01*
X180365927Y-72177843D01*
X180364341Y-72135051D01*
X180363813Y-72091022D01*
X180365182Y-72010665D01*
X180369311Y-71930370D01*
X180376231Y-71850199D01*
X180385972Y-71770214D01*
X180398565Y-71690478D01*
X180414042Y-71611051D01*
X180432434Y-71531996D01*
X180453771Y-71453376D01*
X180477594Y-71375872D01*
X180503463Y-71300166D01*
X180531441Y-71226320D01*
X180561589Y-71154397D01*
X180593970Y-71084458D01*
X180628644Y-71016565D01*
X180665676Y-70950781D01*
X180685094Y-70918699D01*
X180705125Y-70887168D01*
X180725683Y-70856286D01*
X180746678Y-70826148D01*
X180768116Y-70796755D01*
X180789999Y-70768105D01*
X180812332Y-70740200D01*
X180835118Y-70713039D01*
X180858361Y-70686622D01*
X180882066Y-70660949D01*
X180906235Y-70636020D01*
X180930874Y-70611836D01*
X180955986Y-70588395D01*
X180981574Y-70565699D01*
X181007643Y-70543747D01*
X181034196Y-70522539D01*
X181061237Y-70502075D01*
X181088771Y-70482355D01*
X181116738Y-70463627D01*
X181145073Y-70446135D01*
X181173772Y-70429876D01*
X181202831Y-70414845D01*
X181232248Y-70401039D01*
X181262016Y-70388454D01*
X181292134Y-70377086D01*
X181322597Y-70366931D01*
X181353400Y-70357985D01*
X181384541Y-70350244D01*
X181416016Y-70343705D01*
X181447819Y-70338364D01*
X181479948Y-70334216D01*
X181512399Y-70331259D01*
X181545168Y-70329487D01*
X181578251Y-70328897D01*
X181598930Y-70329394D01*
G37*
G36*
X188119122Y-75940461D02*
G01*
X188097640Y-75993470D01*
X188076748Y-76046542D01*
X188056475Y-76099613D01*
X188036854Y-76152623D01*
X188017914Y-76205509D01*
X187999688Y-76258208D01*
X187851521Y-76686834D01*
X187827667Y-76686876D01*
X187803565Y-76687165D01*
X187791343Y-76687480D01*
X187778967Y-76687950D01*
X187766404Y-76688606D01*
X187753625Y-76689479D01*
X187741714Y-76689712D01*
X187729771Y-76690347D01*
X187717767Y-76691293D01*
X187705669Y-76692456D01*
X187681071Y-76695060D01*
X187668509Y-76696316D01*
X187655729Y-76697416D01*
X187653083Y-76694771D01*
X187706000Y-76488397D01*
X187756271Y-76284667D01*
X187768218Y-76233115D01*
X187780414Y-76181810D01*
X187793106Y-76131002D01*
X187806542Y-76080938D01*
X187859458Y-75877209D01*
X187906091Y-75869767D01*
X187950739Y-75863318D01*
X187993403Y-75857861D01*
X188034083Y-75853396D01*
X188163729Y-75834875D01*
X188119122Y-75940461D01*
G37*
G36*
X184965646Y-77453000D02*
G01*
X185013671Y-77463626D01*
X185067315Y-77479469D01*
X185125950Y-77500055D01*
X185188950Y-77524913D01*
X185255687Y-77553569D01*
X185325531Y-77585550D01*
X185472034Y-77657597D01*
X185623436Y-77737272D01*
X185774713Y-77820791D01*
X185920844Y-77904373D01*
X185918197Y-77904372D01*
X186063217Y-77989897D01*
X186210686Y-78080072D01*
X186354869Y-78172356D01*
X186423935Y-78218494D01*
X186490028Y-78264206D01*
X186552432Y-78309173D01*
X186610429Y-78353079D01*
X186663302Y-78395605D01*
X186710335Y-78436433D01*
X186750810Y-78475246D01*
X186784010Y-78511726D01*
X186797658Y-78528991D01*
X186809218Y-78545554D01*
X186818602Y-78561375D01*
X186825718Y-78576414D01*
X186856285Y-78858872D01*
X186889177Y-79490177D01*
X186954372Y-81336349D01*
X187029448Y-84122080D01*
X187072773Y-86180869D01*
X187098239Y-87868580D01*
X187101108Y-88177799D01*
X187102833Y-88450229D01*
X187103512Y-88688274D01*
X187103241Y-88894336D01*
X187102118Y-89070819D01*
X187101267Y-89148719D01*
X187100239Y-89220125D01*
X187099046Y-89285338D01*
X187097701Y-89344657D01*
X187096215Y-89398384D01*
X187094601Y-89446819D01*
X187092871Y-89490262D01*
X187091036Y-89529013D01*
X187089110Y-89563373D01*
X187087103Y-89593642D01*
X187085029Y-89620121D01*
X187082899Y-89643109D01*
X187080725Y-89662908D01*
X187078520Y-89679818D01*
X187076295Y-89694138D01*
X187074063Y-89706170D01*
X187071836Y-89716214D01*
X187069626Y-89724569D01*
X187067445Y-89731538D01*
X187065305Y-89737419D01*
X187061198Y-89747121D01*
X187060087Y-89750217D01*
X187058759Y-89753529D01*
X187057245Y-89757027D01*
X187055576Y-89760681D01*
X187053783Y-89764458D01*
X187051896Y-89768329D01*
X187047969Y-89776225D01*
X187019309Y-89816383D01*
X186962558Y-89875734D01*
X186865003Y-89960819D01*
X186713932Y-90078181D01*
X186496633Y-90234363D01*
X186200393Y-90435906D01*
X185812499Y-90689354D01*
X185320240Y-91001247D01*
X184724142Y-91369348D01*
X184190800Y-91691810D01*
X183792891Y-91926958D01*
X183667436Y-91998767D01*
X183603094Y-92033121D01*
X183572574Y-92045033D01*
X183554318Y-92048999D01*
X183532566Y-92050526D01*
X183506194Y-92048783D01*
X183474078Y-92042935D01*
X183435095Y-92032150D01*
X183388120Y-92015593D01*
X183332029Y-91992432D01*
X183265698Y-91961834D01*
X183188004Y-91922965D01*
X183097822Y-91874992D01*
X182994029Y-91817082D01*
X182875500Y-91748400D01*
X182589740Y-91575393D01*
X182432116Y-91476887D01*
X182279268Y-91379684D01*
X182003026Y-91200346D01*
X181791277Y-91059703D01*
X181682057Y-90985372D01*
X182184928Y-90985372D01*
X182371350Y-91106372D01*
X182568036Y-91231558D01*
X182766892Y-91355442D01*
X182959826Y-91472536D01*
X183138745Y-91577351D01*
X183295557Y-91664400D01*
X183363144Y-91699547D01*
X183422170Y-91728195D01*
X183471622Y-91749657D01*
X183510490Y-91763247D01*
X183728358Y-91638851D01*
X184108448Y-91413004D01*
X184597680Y-91116216D01*
X185142969Y-90778997D01*
X185389638Y-90623669D01*
X185610672Y-90482674D01*
X185807475Y-90355337D01*
X185981450Y-90240983D01*
X186134000Y-90138939D01*
X186266529Y-90048530D01*
X186380438Y-89969081D01*
X186477131Y-89899919D01*
X186558011Y-89840368D01*
X186624481Y-89789755D01*
X186677944Y-89747405D01*
X186719803Y-89712643D01*
X186751462Y-89684796D01*
X186774322Y-89663189D01*
X186789787Y-89647147D01*
X186799261Y-89635996D01*
X186812185Y-89452695D01*
X186819311Y-89099761D01*
X186816790Y-87935719D01*
X186792936Y-86245321D01*
X186748990Y-84130019D01*
X186697355Y-82166645D01*
X186645472Y-80484060D01*
X186599045Y-79261851D01*
X186579662Y-78879507D01*
X186563781Y-78679602D01*
X186563781Y-78679601D01*
X186536383Y-78650602D01*
X186496643Y-78615657D01*
X186445742Y-78575457D01*
X186384857Y-78530691D01*
X186237848Y-78430221D01*
X186065042Y-78319768D01*
X185875865Y-78204850D01*
X185679742Y-78090986D01*
X185486100Y-77983696D01*
X185304365Y-77888497D01*
X185367844Y-78393578D01*
X185421774Y-79039393D01*
X185466774Y-79777917D01*
X185503464Y-80561119D01*
X185554396Y-82069451D01*
X185579532Y-83180164D01*
X185599375Y-84791393D01*
X185597391Y-86525158D01*
X185583562Y-87311332D01*
X185558696Y-87976149D01*
X185520931Y-88468946D01*
X185496630Y-88635004D01*
X185468407Y-88739059D01*
X185466298Y-88745012D01*
X185463942Y-88750965D01*
X185461337Y-88756919D01*
X185458485Y-88762872D01*
X185455384Y-88768825D01*
X185452036Y-88774778D01*
X185448439Y-88780731D01*
X185444594Y-88786684D01*
X185385293Y-88872365D01*
X185303559Y-88965371D01*
X185200772Y-89065214D01*
X185078311Y-89171405D01*
X184937558Y-89283456D01*
X184779890Y-89400879D01*
X184419334Y-89649888D01*
X184007679Y-89914523D01*
X183555965Y-90190878D01*
X183075230Y-90475046D01*
X182576511Y-90763122D01*
X182261657Y-90945684D01*
X182251849Y-90951405D01*
X182242226Y-90956722D01*
X182232728Y-90961730D01*
X182223292Y-90966521D01*
X182184928Y-90985372D01*
X181682057Y-90985372D01*
X181674282Y-90980080D01*
X181653670Y-90964794D01*
X181634468Y-90948269D01*
X181616627Y-90930597D01*
X181600100Y-90911873D01*
X181584838Y-90892189D01*
X181570794Y-90871639D01*
X181557919Y-90850318D01*
X181546165Y-90828317D01*
X181535486Y-90805732D01*
X181525831Y-90782654D01*
X181517155Y-90759178D01*
X181509408Y-90735398D01*
X181496511Y-90687297D01*
X181486758Y-90639099D01*
X181479764Y-90591552D01*
X181475147Y-90545404D01*
X181472521Y-90501404D01*
X181471503Y-90460298D01*
X181472759Y-90389765D01*
X181475844Y-90339789D01*
X181325032Y-85177768D01*
X181313234Y-84700908D01*
X181302616Y-84252972D01*
X181293131Y-83833042D01*
X181284734Y-83440200D01*
X181277380Y-83073526D01*
X181271023Y-82732104D01*
X181265618Y-82415012D01*
X181261118Y-82121335D01*
X181257479Y-81850152D01*
X181254655Y-81600545D01*
X181252600Y-81371596D01*
X181251269Y-81162385D01*
X181251043Y-81096447D01*
X181528554Y-81096447D01*
X181569440Y-83750011D01*
X181753656Y-90339789D01*
X181753656Y-90358310D01*
X181751583Y-90383956D01*
X181750339Y-90411056D01*
X181749947Y-90439264D01*
X181750432Y-90468236D01*
X181751815Y-90497627D01*
X181754121Y-90527091D01*
X181757373Y-90556283D01*
X181761594Y-90584860D01*
X181766807Y-90612475D01*
X181773035Y-90638784D01*
X181780302Y-90663442D01*
X181788631Y-90686104D01*
X181798045Y-90706425D01*
X181803166Y-90715600D01*
X181808568Y-90724060D01*
X181814252Y-90731763D01*
X181820222Y-90738665D01*
X181826481Y-90744723D01*
X181833031Y-90749894D01*
X181833032Y-90752541D01*
X181838111Y-90756509D01*
X181843408Y-90760478D01*
X181848891Y-90764446D01*
X181854529Y-90768415D01*
X181866146Y-90776353D01*
X181878011Y-90784291D01*
X181892429Y-90783109D01*
X181906913Y-90781536D01*
X181921467Y-90779552D01*
X181936095Y-90777138D01*
X181950800Y-90774275D01*
X181965587Y-90770942D01*
X181980459Y-90767121D01*
X181995420Y-90762793D01*
X182010474Y-90757937D01*
X182025624Y-90752535D01*
X182040876Y-90746567D01*
X182056232Y-90740013D01*
X182071697Y-90732856D01*
X182087274Y-90725074D01*
X182102968Y-90716649D01*
X182118782Y-90707561D01*
X182253058Y-90628847D01*
X182339791Y-90578824D01*
X182438927Y-90522353D01*
X183119237Y-90126676D01*
X183553464Y-89866345D01*
X184001953Y-89587380D01*
X184428366Y-89307051D01*
X184621939Y-89171772D01*
X184796365Y-89042628D01*
X184947102Y-88921778D01*
X185069609Y-88811381D01*
X185159343Y-88713596D01*
X185190500Y-88670107D01*
X185211761Y-88630581D01*
X185243076Y-88464581D01*
X185270796Y-88127087D01*
X185293802Y-87629665D01*
X185310979Y-86983880D01*
X185323381Y-85293482D01*
X185299073Y-83148414D01*
X185273085Y-82015445D01*
X185241485Y-81015088D01*
X185205358Y-80146505D01*
X185165789Y-79408860D01*
X185123864Y-78801316D01*
X185080668Y-78323035D01*
X185037285Y-77973180D01*
X185015864Y-77846151D01*
X184994802Y-77750915D01*
X184984136Y-77747840D01*
X184973966Y-77744672D01*
X184955115Y-77738678D01*
X184946433Y-77736161D01*
X184942278Y-77735091D01*
X184938247Y-77734172D01*
X184934341Y-77733423D01*
X184930558Y-77732864D01*
X184926899Y-77732515D01*
X184923365Y-77732394D01*
X184850129Y-77764573D01*
X184728400Y-77826115D01*
X184355833Y-78029720D01*
X183838408Y-78328079D01*
X183208865Y-78706061D01*
X182996556Y-78836415D01*
X182801727Y-78957751D01*
X182623749Y-79070289D01*
X182461995Y-79174249D01*
X182315838Y-79269854D01*
X182184648Y-79357323D01*
X182067799Y-79436879D01*
X181964661Y-79508740D01*
X181874609Y-79573130D01*
X181797013Y-79630268D01*
X181731246Y-79680375D01*
X181676679Y-79723673D01*
X181632686Y-79760382D01*
X181598637Y-79790723D01*
X181573906Y-79814917D01*
X181557865Y-79833186D01*
X181532745Y-80245899D01*
X181528554Y-81096447D01*
X181251043Y-81096447D01*
X181250616Y-80971996D01*
X181250596Y-80799508D01*
X181251163Y-80644004D01*
X181252271Y-80504565D01*
X181253876Y-80380272D01*
X181255931Y-80270207D01*
X181258392Y-80173452D01*
X181261211Y-80089087D01*
X181264345Y-80016194D01*
X181267747Y-79953855D01*
X181271372Y-79901150D01*
X181275174Y-79857163D01*
X181279108Y-79820973D01*
X181283129Y-79791663D01*
X181287190Y-79768314D01*
X181291246Y-79750007D01*
X181295251Y-79735823D01*
X181299161Y-79724845D01*
X181306511Y-79708831D01*
X181328367Y-79675068D01*
X181362172Y-79635301D01*
X181407906Y-79589542D01*
X181465550Y-79537803D01*
X181616492Y-79416430D01*
X181814841Y-79271276D01*
X182060444Y-79102434D01*
X182353145Y-78909996D01*
X182692788Y-78694056D01*
X183079219Y-78454706D01*
X183910672Y-77959935D01*
X184227521Y-77778107D01*
X184519131Y-77617548D01*
X184751086Y-77500521D01*
X184833938Y-77465290D01*
X184888969Y-77449289D01*
X184923870Y-77448063D01*
X184965646Y-77453000D01*
G37*
G36*
X185687229Y-72850376D02*
G01*
X185679294Y-72845085D01*
X185688464Y-72843666D01*
X185687229Y-72850376D01*
G37*
D11*
X180652200Y-103493332D02*
X180699819Y-103350475D01*
X180699819Y-103350475D02*
X180699819Y-103112380D01*
X180699819Y-103112380D02*
X180652200Y-103017142D01*
X180652200Y-103017142D02*
X180604580Y-102969523D01*
X180604580Y-102969523D02*
X180509342Y-102921904D01*
X180509342Y-102921904D02*
X180414104Y-102921904D01*
X180414104Y-102921904D02*
X180318866Y-102969523D01*
X180318866Y-102969523D02*
X180271247Y-103017142D01*
X180271247Y-103017142D02*
X180223628Y-103112380D01*
X180223628Y-103112380D02*
X180176009Y-103302856D01*
X180176009Y-103302856D02*
X180128390Y-103398094D01*
X180128390Y-103398094D02*
X180080771Y-103445713D01*
X180080771Y-103445713D02*
X179985533Y-103493332D01*
X179985533Y-103493332D02*
X179890295Y-103493332D01*
X179890295Y-103493332D02*
X179795057Y-103445713D01*
X179795057Y-103445713D02*
X179747438Y-103398094D01*
X179747438Y-103398094D02*
X179699819Y-103302856D01*
X179699819Y-103302856D02*
X179699819Y-103064761D01*
X179699819Y-103064761D02*
X179747438Y-102921904D01*
X179699819Y-102588570D02*
X180699819Y-102350475D01*
X180699819Y-102350475D02*
X179985533Y-102159999D01*
X179985533Y-102159999D02*
X180699819Y-101969523D01*
X180699819Y-101969523D02*
X179699819Y-101731428D01*
X179699819Y-101445713D02*
X179699819Y-100826666D01*
X179699819Y-100826666D02*
X180080771Y-101159999D01*
X180080771Y-101159999D02*
X180080771Y-101017142D01*
X180080771Y-101017142D02*
X180128390Y-100921904D01*
X180128390Y-100921904D02*
X180176009Y-100874285D01*
X180176009Y-100874285D02*
X180271247Y-100826666D01*
X180271247Y-100826666D02*
X180509342Y-100826666D01*
X180509342Y-100826666D02*
X180604580Y-100874285D01*
X180604580Y-100874285D02*
X180652200Y-100921904D01*
X180652200Y-100921904D02*
X180699819Y-101017142D01*
X180699819Y-101017142D02*
X180699819Y-101302856D01*
X180699819Y-101302856D02*
X180652200Y-101398094D01*
X180652200Y-101398094D02*
X180604580Y-101445713D01*
X191971333Y-123262580D02*
X191923714Y-123310200D01*
X191923714Y-123310200D02*
X191780857Y-123357819D01*
X191780857Y-123357819D02*
X191685619Y-123357819D01*
X191685619Y-123357819D02*
X191542762Y-123310200D01*
X191542762Y-123310200D02*
X191447524Y-123214961D01*
X191447524Y-123214961D02*
X191399905Y-123119723D01*
X191399905Y-123119723D02*
X191352286Y-122929247D01*
X191352286Y-122929247D02*
X191352286Y-122786390D01*
X191352286Y-122786390D02*
X191399905Y-122595914D01*
X191399905Y-122595914D02*
X191447524Y-122500676D01*
X191447524Y-122500676D02*
X191542762Y-122405438D01*
X191542762Y-122405438D02*
X191685619Y-122357819D01*
X191685619Y-122357819D02*
X191780857Y-122357819D01*
X191780857Y-122357819D02*
X191923714Y-122405438D01*
X191923714Y-122405438D02*
X191971333Y-122453057D01*
X192352286Y-122453057D02*
X192399905Y-122405438D01*
X192399905Y-122405438D02*
X192495143Y-122357819D01*
X192495143Y-122357819D02*
X192733238Y-122357819D01*
X192733238Y-122357819D02*
X192828476Y-122405438D01*
X192828476Y-122405438D02*
X192876095Y-122453057D01*
X192876095Y-122453057D02*
X192923714Y-122548295D01*
X192923714Y-122548295D02*
X192923714Y-122643533D01*
X192923714Y-122643533D02*
X192876095Y-122786390D01*
X192876095Y-122786390D02*
X192304667Y-123357819D01*
X192304667Y-123357819D02*
X192923714Y-123357819D01*
X192007261Y-127690057D02*
X191912023Y-127642438D01*
X191912023Y-127642438D02*
X191816785Y-127547200D01*
X191816785Y-127547200D02*
X191673928Y-127404342D01*
X191673928Y-127404342D02*
X191578690Y-127356723D01*
X191578690Y-127356723D02*
X191483452Y-127356723D01*
X191531071Y-127594819D02*
X191435833Y-127547200D01*
X191435833Y-127547200D02*
X191340595Y-127451961D01*
X191340595Y-127451961D02*
X191292976Y-127261485D01*
X191292976Y-127261485D02*
X191292976Y-126928152D01*
X191292976Y-126928152D02*
X191340595Y-126737676D01*
X191340595Y-126737676D02*
X191435833Y-126642438D01*
X191435833Y-126642438D02*
X191531071Y-126594819D01*
X191531071Y-126594819D02*
X191721547Y-126594819D01*
X191721547Y-126594819D02*
X191816785Y-126642438D01*
X191816785Y-126642438D02*
X191912023Y-126737676D01*
X191912023Y-126737676D02*
X191959642Y-126928152D01*
X191959642Y-126928152D02*
X191959642Y-127261485D01*
X191959642Y-127261485D02*
X191912023Y-127451961D01*
X191912023Y-127451961D02*
X191816785Y-127547200D01*
X191816785Y-127547200D02*
X191721547Y-127594819D01*
X191721547Y-127594819D02*
X191531071Y-127594819D01*
X192912023Y-127594819D02*
X192340595Y-127594819D01*
X192626309Y-127594819D02*
X192626309Y-126594819D01*
X192626309Y-126594819D02*
X192531071Y-126737676D01*
X192531071Y-126737676D02*
X192435833Y-126832914D01*
X192435833Y-126832914D02*
X192340595Y-126880533D01*
X196596095Y-68074819D02*
X196596095Y-67074819D01*
X196596095Y-67551009D02*
X197167523Y-67551009D01*
X197167523Y-68074819D02*
X197167523Y-67074819D01*
X197548476Y-67074819D02*
X198167523Y-67074819D01*
X198167523Y-67074819D02*
X197834190Y-67455771D01*
X197834190Y-67455771D02*
X197977047Y-67455771D01*
X197977047Y-67455771D02*
X198072285Y-67503390D01*
X198072285Y-67503390D02*
X198119904Y-67551009D01*
X198119904Y-67551009D02*
X198167523Y-67646247D01*
X198167523Y-67646247D02*
X198167523Y-67884342D01*
X198167523Y-67884342D02*
X198119904Y-67979580D01*
X198119904Y-67979580D02*
X198072285Y-68027200D01*
X198072285Y-68027200D02*
X197977047Y-68074819D01*
X197977047Y-68074819D02*
X197691333Y-68074819D01*
X197691333Y-68074819D02*
X197596095Y-68027200D01*
X197596095Y-68027200D02*
X197548476Y-67979580D01*
X196572095Y-125864819D02*
X196572095Y-126674342D01*
X196572095Y-126674342D02*
X196619714Y-126769580D01*
X196619714Y-126769580D02*
X196667333Y-126817200D01*
X196667333Y-126817200D02*
X196762571Y-126864819D01*
X196762571Y-126864819D02*
X196953047Y-126864819D01*
X196953047Y-126864819D02*
X197048285Y-126817200D01*
X197048285Y-126817200D02*
X197095904Y-126769580D01*
X197095904Y-126769580D02*
X197143523Y-126674342D01*
X197143523Y-126674342D02*
X197143523Y-125864819D01*
X197572095Y-125960057D02*
X197619714Y-125912438D01*
X197619714Y-125912438D02*
X197714952Y-125864819D01*
X197714952Y-125864819D02*
X197953047Y-125864819D01*
X197953047Y-125864819D02*
X198048285Y-125912438D01*
X198048285Y-125912438D02*
X198095904Y-125960057D01*
X198095904Y-125960057D02*
X198143523Y-126055295D01*
X198143523Y-126055295D02*
X198143523Y-126150533D01*
X198143523Y-126150533D02*
X198095904Y-126293390D01*
X198095904Y-126293390D02*
X197524476Y-126864819D01*
X197524476Y-126864819D02*
X198143523Y-126864819D01*
X191997333Y-119960580D02*
X191949714Y-120008200D01*
X191949714Y-120008200D02*
X191806857Y-120055819D01*
X191806857Y-120055819D02*
X191711619Y-120055819D01*
X191711619Y-120055819D02*
X191568762Y-120008200D01*
X191568762Y-120008200D02*
X191473524Y-119912961D01*
X191473524Y-119912961D02*
X191425905Y-119817723D01*
X191425905Y-119817723D02*
X191378286Y-119627247D01*
X191378286Y-119627247D02*
X191378286Y-119484390D01*
X191378286Y-119484390D02*
X191425905Y-119293914D01*
X191425905Y-119293914D02*
X191473524Y-119198676D01*
X191473524Y-119198676D02*
X191568762Y-119103438D01*
X191568762Y-119103438D02*
X191711619Y-119055819D01*
X191711619Y-119055819D02*
X191806857Y-119055819D01*
X191806857Y-119055819D02*
X191949714Y-119103438D01*
X191949714Y-119103438D02*
X191997333Y-119151057D01*
X192949714Y-120055819D02*
X192378286Y-120055819D01*
X192664000Y-120055819D02*
X192664000Y-119055819D01*
X192664000Y-119055819D02*
X192568762Y-119198676D01*
X192568762Y-119198676D02*
X192473524Y-119293914D01*
X192473524Y-119293914D02*
X192378286Y-119341533D01*
X171557333Y-84928819D02*
X171224000Y-84452628D01*
X170985905Y-84928819D02*
X170985905Y-83928819D01*
X170985905Y-83928819D02*
X171366857Y-83928819D01*
X171366857Y-83928819D02*
X171462095Y-83976438D01*
X171462095Y-83976438D02*
X171509714Y-84024057D01*
X171509714Y-84024057D02*
X171557333Y-84119295D01*
X171557333Y-84119295D02*
X171557333Y-84262152D01*
X171557333Y-84262152D02*
X171509714Y-84357390D01*
X171509714Y-84357390D02*
X171462095Y-84405009D01*
X171462095Y-84405009D02*
X171366857Y-84452628D01*
X171366857Y-84452628D02*
X170985905Y-84452628D01*
X172414476Y-84262152D02*
X172414476Y-84928819D01*
X172176381Y-83881200D02*
X171938286Y-84595485D01*
X171938286Y-84595485D02*
X172557333Y-84595485D01*
X171072200Y-103493332D02*
X171119819Y-103350475D01*
X171119819Y-103350475D02*
X171119819Y-103112380D01*
X171119819Y-103112380D02*
X171072200Y-103017142D01*
X171072200Y-103017142D02*
X171024580Y-102969523D01*
X171024580Y-102969523D02*
X170929342Y-102921904D01*
X170929342Y-102921904D02*
X170834104Y-102921904D01*
X170834104Y-102921904D02*
X170738866Y-102969523D01*
X170738866Y-102969523D02*
X170691247Y-103017142D01*
X170691247Y-103017142D02*
X170643628Y-103112380D01*
X170643628Y-103112380D02*
X170596009Y-103302856D01*
X170596009Y-103302856D02*
X170548390Y-103398094D01*
X170548390Y-103398094D02*
X170500771Y-103445713D01*
X170500771Y-103445713D02*
X170405533Y-103493332D01*
X170405533Y-103493332D02*
X170310295Y-103493332D01*
X170310295Y-103493332D02*
X170215057Y-103445713D01*
X170215057Y-103445713D02*
X170167438Y-103398094D01*
X170167438Y-103398094D02*
X170119819Y-103302856D01*
X170119819Y-103302856D02*
X170119819Y-103064761D01*
X170119819Y-103064761D02*
X170167438Y-102921904D01*
X170119819Y-102588570D02*
X171119819Y-102350475D01*
X171119819Y-102350475D02*
X170405533Y-102159999D01*
X170405533Y-102159999D02*
X171119819Y-101969523D01*
X171119819Y-101969523D02*
X170119819Y-101731428D01*
X170215057Y-101398094D02*
X170167438Y-101350475D01*
X170167438Y-101350475D02*
X170119819Y-101255237D01*
X170119819Y-101255237D02*
X170119819Y-101017142D01*
X170119819Y-101017142D02*
X170167438Y-100921904D01*
X170167438Y-100921904D02*
X170215057Y-100874285D01*
X170215057Y-100874285D02*
X170310295Y-100826666D01*
X170310295Y-100826666D02*
X170405533Y-100826666D01*
X170405533Y-100826666D02*
X170548390Y-100874285D01*
X170548390Y-100874285D02*
X171119819Y-101445713D01*
X171119819Y-101445713D02*
X171119819Y-100826666D01*
X190125819Y-94694333D02*
X190840104Y-94694333D01*
X190840104Y-94694333D02*
X190982961Y-94741952D01*
X190982961Y-94741952D02*
X191078200Y-94837190D01*
X191078200Y-94837190D02*
X191125819Y-94980047D01*
X191125819Y-94980047D02*
X191125819Y-95075285D01*
X190459152Y-93789571D02*
X191125819Y-93789571D01*
X190078200Y-94027666D02*
X190792485Y-94265761D01*
X190792485Y-94265761D02*
X190792485Y-93646714D01*
X195874819Y-123608666D02*
X195398628Y-123941999D01*
X195874819Y-124180094D02*
X194874819Y-124180094D01*
X194874819Y-124180094D02*
X194874819Y-123799142D01*
X194874819Y-123799142D02*
X194922438Y-123703904D01*
X194922438Y-123703904D02*
X194970057Y-123656285D01*
X194970057Y-123656285D02*
X195065295Y-123608666D01*
X195065295Y-123608666D02*
X195208152Y-123608666D01*
X195208152Y-123608666D02*
X195303390Y-123656285D01*
X195303390Y-123656285D02*
X195351009Y-123703904D01*
X195351009Y-123703904D02*
X195398628Y-123799142D01*
X195398628Y-123799142D02*
X195398628Y-124180094D01*
X194970057Y-123227713D02*
X194922438Y-123180094D01*
X194922438Y-123180094D02*
X194874819Y-123084856D01*
X194874819Y-123084856D02*
X194874819Y-122846761D01*
X194874819Y-122846761D02*
X194922438Y-122751523D01*
X194922438Y-122751523D02*
X194970057Y-122703904D01*
X194970057Y-122703904D02*
X195065295Y-122656285D01*
X195065295Y-122656285D02*
X195160533Y-122656285D01*
X195160533Y-122656285D02*
X195303390Y-122703904D01*
X195303390Y-122703904D02*
X195874819Y-123275332D01*
X195874819Y-123275332D02*
X195874819Y-122656285D01*
X196747905Y-118088819D02*
X196747905Y-117088819D01*
X196747905Y-117088819D02*
X196986000Y-117088819D01*
X196986000Y-117088819D02*
X197128857Y-117136438D01*
X197128857Y-117136438D02*
X197224095Y-117231676D01*
X197224095Y-117231676D02*
X197271714Y-117326914D01*
X197271714Y-117326914D02*
X197319333Y-117517390D01*
X197319333Y-117517390D02*
X197319333Y-117660247D01*
X197319333Y-117660247D02*
X197271714Y-117850723D01*
X197271714Y-117850723D02*
X197224095Y-117945961D01*
X197224095Y-117945961D02*
X197128857Y-118041200D01*
X197128857Y-118041200D02*
X196986000Y-118088819D01*
X196986000Y-118088819D02*
X196747905Y-118088819D01*
X197700286Y-117184057D02*
X197747905Y-117136438D01*
X197747905Y-117136438D02*
X197843143Y-117088819D01*
X197843143Y-117088819D02*
X198081238Y-117088819D01*
X198081238Y-117088819D02*
X198176476Y-117136438D01*
X198176476Y-117136438D02*
X198224095Y-117184057D01*
X198224095Y-117184057D02*
X198271714Y-117279295D01*
X198271714Y-117279295D02*
X198271714Y-117374533D01*
X198271714Y-117374533D02*
X198224095Y-117517390D01*
X198224095Y-117517390D02*
X197652667Y-118088819D01*
X197652667Y-118088819D02*
X198271714Y-118088819D01*
X197128333Y-92242819D02*
X196795000Y-91766628D01*
X196556905Y-92242819D02*
X196556905Y-91242819D01*
X196556905Y-91242819D02*
X196937857Y-91242819D01*
X196937857Y-91242819D02*
X197033095Y-91290438D01*
X197033095Y-91290438D02*
X197080714Y-91338057D01*
X197080714Y-91338057D02*
X197128333Y-91433295D01*
X197128333Y-91433295D02*
X197128333Y-91576152D01*
X197128333Y-91576152D02*
X197080714Y-91671390D01*
X197080714Y-91671390D02*
X197033095Y-91719009D01*
X197033095Y-91719009D02*
X196937857Y-91766628D01*
X196937857Y-91766628D02*
X196556905Y-91766628D01*
X198033095Y-91242819D02*
X197556905Y-91242819D01*
X197556905Y-91242819D02*
X197509286Y-91719009D01*
X197509286Y-91719009D02*
X197556905Y-91671390D01*
X197556905Y-91671390D02*
X197652143Y-91623771D01*
X197652143Y-91623771D02*
X197890238Y-91623771D01*
X197890238Y-91623771D02*
X197985476Y-91671390D01*
X197985476Y-91671390D02*
X198033095Y-91719009D01*
X198033095Y-91719009D02*
X198080714Y-91814247D01*
X198080714Y-91814247D02*
X198080714Y-92052342D01*
X198080714Y-92052342D02*
X198033095Y-92147580D01*
X198033095Y-92147580D02*
X197985476Y-92195200D01*
X197985476Y-92195200D02*
X197890238Y-92242819D01*
X197890238Y-92242819D02*
X197652143Y-92242819D01*
X197652143Y-92242819D02*
X197556905Y-92195200D01*
X197556905Y-92195200D02*
X197509286Y-92147580D01*
D12*
X183769095Y-56607419D02*
X183769095Y-57416942D01*
X183769095Y-57416942D02*
X183816714Y-57512180D01*
X183816714Y-57512180D02*
X183864333Y-57559800D01*
X183864333Y-57559800D02*
X183959571Y-57607419D01*
X183959571Y-57607419D02*
X184150047Y-57607419D01*
X184150047Y-57607419D02*
X184245285Y-57559800D01*
X184245285Y-57559800D02*
X184292904Y-57512180D01*
X184292904Y-57512180D02*
X184340523Y-57416942D01*
X184340523Y-57416942D02*
X184340523Y-56607419D01*
X185340523Y-57607419D02*
X184769095Y-57607419D01*
X185054809Y-57607419D02*
X185054809Y-56607419D01*
X185054809Y-56607419D02*
X184959571Y-56750276D01*
X184959571Y-56750276D02*
X184864333Y-56845514D01*
X184864333Y-56845514D02*
X184769095Y-56893133D01*
X196786667Y-75085800D02*
X196929524Y-75133419D01*
X196929524Y-75133419D02*
X197167619Y-75133419D01*
X197167619Y-75133419D02*
X197262857Y-75085800D01*
X197262857Y-75085800D02*
X197310476Y-75038180D01*
X197310476Y-75038180D02*
X197358095Y-74942942D01*
X197358095Y-74942942D02*
X197358095Y-74847704D01*
X197358095Y-74847704D02*
X197310476Y-74752466D01*
X197310476Y-74752466D02*
X197262857Y-74704847D01*
X197262857Y-74704847D02*
X197167619Y-74657228D01*
X197167619Y-74657228D02*
X196977143Y-74609609D01*
X196977143Y-74609609D02*
X196881905Y-74561990D01*
X196881905Y-74561990D02*
X196834286Y-74514371D01*
X196834286Y-74514371D02*
X196786667Y-74419133D01*
X196786667Y-74419133D02*
X196786667Y-74323895D01*
X196786667Y-74323895D02*
X196834286Y-74228657D01*
X196834286Y-74228657D02*
X196881905Y-74181038D01*
X196881905Y-74181038D02*
X196977143Y-74133419D01*
X196977143Y-74133419D02*
X197215238Y-74133419D01*
X197215238Y-74133419D02*
X197358095Y-74181038D01*
X197691429Y-74133419D02*
X197929524Y-75133419D01*
X197929524Y-75133419D02*
X198120000Y-74419133D01*
X198120000Y-74419133D02*
X198310476Y-75133419D01*
X198310476Y-75133419D02*
X198548572Y-74133419D01*
X199453333Y-75133419D02*
X198881905Y-75133419D01*
X199167619Y-75133419D02*
X199167619Y-74133419D01*
X199167619Y-74133419D02*
X199072381Y-74276276D01*
X199072381Y-74276276D02*
X198977143Y-74371514D01*
X198977143Y-74371514D02*
X198881905Y-74419133D01*
D11*
X168066819Y-94059333D02*
X168781104Y-94059333D01*
X168781104Y-94059333D02*
X168923961Y-94106952D01*
X168923961Y-94106952D02*
X169019200Y-94202190D01*
X169019200Y-94202190D02*
X169066819Y-94345047D01*
X169066819Y-94345047D02*
X169066819Y-94440285D01*
X168066819Y-93678380D02*
X168066819Y-93059333D01*
X168066819Y-93059333D02*
X168447771Y-93392666D01*
X168447771Y-93392666D02*
X168447771Y-93249809D01*
X168447771Y-93249809D02*
X168495390Y-93154571D01*
X168495390Y-93154571D02*
X168543009Y-93106952D01*
X168543009Y-93106952D02*
X168638247Y-93059333D01*
X168638247Y-93059333D02*
X168876342Y-93059333D01*
X168876342Y-93059333D02*
X168971580Y-93106952D01*
X168971580Y-93106952D02*
X169019200Y-93154571D01*
X169019200Y-93154571D02*
X169066819Y-93249809D01*
X169066819Y-93249809D02*
X169066819Y-93535523D01*
X169066819Y-93535523D02*
X169019200Y-93630761D01*
X169019200Y-93630761D02*
X168971580Y-93678380D01*
X171524333Y-88083580D02*
X171476714Y-88131200D01*
X171476714Y-88131200D02*
X171333857Y-88178819D01*
X171333857Y-88178819D02*
X171238619Y-88178819D01*
X171238619Y-88178819D02*
X171095762Y-88131200D01*
X171095762Y-88131200D02*
X171000524Y-88035961D01*
X171000524Y-88035961D02*
X170952905Y-87940723D01*
X170952905Y-87940723D02*
X170905286Y-87750247D01*
X170905286Y-87750247D02*
X170905286Y-87607390D01*
X170905286Y-87607390D02*
X170952905Y-87416914D01*
X170952905Y-87416914D02*
X171000524Y-87321676D01*
X171000524Y-87321676D02*
X171095762Y-87226438D01*
X171095762Y-87226438D02*
X171238619Y-87178819D01*
X171238619Y-87178819D02*
X171333857Y-87178819D01*
X171333857Y-87178819D02*
X171476714Y-87226438D01*
X171476714Y-87226438D02*
X171524333Y-87274057D01*
X171857667Y-87178819D02*
X172476714Y-87178819D01*
X172476714Y-87178819D02*
X172143381Y-87559771D01*
X172143381Y-87559771D02*
X172286238Y-87559771D01*
X172286238Y-87559771D02*
X172381476Y-87607390D01*
X172381476Y-87607390D02*
X172429095Y-87655009D01*
X172429095Y-87655009D02*
X172476714Y-87750247D01*
X172476714Y-87750247D02*
X172476714Y-87988342D01*
X172476714Y-87988342D02*
X172429095Y-88083580D01*
X172429095Y-88083580D02*
X172381476Y-88131200D01*
X172381476Y-88131200D02*
X172286238Y-88178819D01*
X172286238Y-88178819D02*
X172000524Y-88178819D01*
X172000524Y-88178819D02*
X171905286Y-88131200D01*
X171905286Y-88131200D02*
X171857667Y-88083580D01*
X176729580Y-109780666D02*
X176777200Y-109828285D01*
X176777200Y-109828285D02*
X176824819Y-109971142D01*
X176824819Y-109971142D02*
X176824819Y-110066380D01*
X176824819Y-110066380D02*
X176777200Y-110209237D01*
X176777200Y-110209237D02*
X176681961Y-110304475D01*
X176681961Y-110304475D02*
X176586723Y-110352094D01*
X176586723Y-110352094D02*
X176396247Y-110399713D01*
X176396247Y-110399713D02*
X176253390Y-110399713D01*
X176253390Y-110399713D02*
X176062914Y-110352094D01*
X176062914Y-110352094D02*
X175967676Y-110304475D01*
X175967676Y-110304475D02*
X175872438Y-110209237D01*
X175872438Y-110209237D02*
X175824819Y-110066380D01*
X175824819Y-110066380D02*
X175824819Y-109971142D01*
X175824819Y-109971142D02*
X175872438Y-109828285D01*
X175872438Y-109828285D02*
X175920057Y-109780666D01*
X176158152Y-108923523D02*
X176824819Y-108923523D01*
X175777200Y-109161618D02*
X176491485Y-109399713D01*
X176491485Y-109399713D02*
X176491485Y-108780666D01*
X190754095Y-136979819D02*
X190754095Y-135979819D01*
X190754095Y-136456009D02*
X191325523Y-136456009D01*
X191325523Y-136979819D02*
X191325523Y-135979819D01*
X192325523Y-136979819D02*
X191754095Y-136979819D01*
X192039809Y-136979819D02*
X192039809Y-135979819D01*
X192039809Y-135979819D02*
X191944571Y-136122676D01*
X191944571Y-136122676D02*
X191849333Y-136217914D01*
X191849333Y-136217914D02*
X191754095Y-136265533D01*
X197128333Y-95163819D02*
X196795000Y-94687628D01*
X196556905Y-95163819D02*
X196556905Y-94163819D01*
X196556905Y-94163819D02*
X196937857Y-94163819D01*
X196937857Y-94163819D02*
X197033095Y-94211438D01*
X197033095Y-94211438D02*
X197080714Y-94259057D01*
X197080714Y-94259057D02*
X197128333Y-94354295D01*
X197128333Y-94354295D02*
X197128333Y-94497152D01*
X197128333Y-94497152D02*
X197080714Y-94592390D01*
X197080714Y-94592390D02*
X197033095Y-94640009D01*
X197033095Y-94640009D02*
X196937857Y-94687628D01*
X196937857Y-94687628D02*
X196556905Y-94687628D01*
X197985476Y-94163819D02*
X197795000Y-94163819D01*
X197795000Y-94163819D02*
X197699762Y-94211438D01*
X197699762Y-94211438D02*
X197652143Y-94259057D01*
X197652143Y-94259057D02*
X197556905Y-94401914D01*
X197556905Y-94401914D02*
X197509286Y-94592390D01*
X197509286Y-94592390D02*
X197509286Y-94973342D01*
X197509286Y-94973342D02*
X197556905Y-95068580D01*
X197556905Y-95068580D02*
X197604524Y-95116200D01*
X197604524Y-95116200D02*
X197699762Y-95163819D01*
X197699762Y-95163819D02*
X197890238Y-95163819D01*
X197890238Y-95163819D02*
X197985476Y-95116200D01*
X197985476Y-95116200D02*
X198033095Y-95068580D01*
X198033095Y-95068580D02*
X198080714Y-94973342D01*
X198080714Y-94973342D02*
X198080714Y-94735247D01*
X198080714Y-94735247D02*
X198033095Y-94640009D01*
X198033095Y-94640009D02*
X197985476Y-94592390D01*
X197985476Y-94592390D02*
X197890238Y-94544771D01*
X197890238Y-94544771D02*
X197699762Y-94544771D01*
X197699762Y-94544771D02*
X197604524Y-94592390D01*
X197604524Y-94592390D02*
X197556905Y-94640009D01*
X197556905Y-94640009D02*
X197509286Y-94735247D01*
X170820595Y-74778819D02*
X170820595Y-75588342D01*
X170820595Y-75588342D02*
X170868214Y-75683580D01*
X170868214Y-75683580D02*
X170915833Y-75731200D01*
X170915833Y-75731200D02*
X171011071Y-75778819D01*
X171011071Y-75778819D02*
X171201547Y-75778819D01*
X171201547Y-75778819D02*
X171296785Y-75731200D01*
X171296785Y-75731200D02*
X171344404Y-75683580D01*
X171344404Y-75683580D02*
X171392023Y-75588342D01*
X171392023Y-75588342D02*
X171392023Y-74778819D01*
X171772976Y-74778819D02*
X172392023Y-74778819D01*
X172392023Y-74778819D02*
X172058690Y-75159771D01*
X172058690Y-75159771D02*
X172201547Y-75159771D01*
X172201547Y-75159771D02*
X172296785Y-75207390D01*
X172296785Y-75207390D02*
X172344404Y-75255009D01*
X172344404Y-75255009D02*
X172392023Y-75350247D01*
X172392023Y-75350247D02*
X172392023Y-75588342D01*
X172392023Y-75588342D02*
X172344404Y-75683580D01*
X172344404Y-75683580D02*
X172296785Y-75731200D01*
X172296785Y-75731200D02*
X172201547Y-75778819D01*
X172201547Y-75778819D02*
X171915833Y-75778819D01*
X171915833Y-75778819D02*
X171820595Y-75731200D01*
X171820595Y-75731200D02*
X171772976Y-75683580D01*
X170688095Y-106682819D02*
X170688095Y-105682819D01*
X170688095Y-106159009D02*
X171259523Y-106159009D01*
X171259523Y-106682819D02*
X171259523Y-105682819D01*
X171688095Y-105778057D02*
X171735714Y-105730438D01*
X171735714Y-105730438D02*
X171830952Y-105682819D01*
X171830952Y-105682819D02*
X172069047Y-105682819D01*
X172069047Y-105682819D02*
X172164285Y-105730438D01*
X172164285Y-105730438D02*
X172211904Y-105778057D01*
X172211904Y-105778057D02*
X172259523Y-105873295D01*
X172259523Y-105873295D02*
X172259523Y-105968533D01*
X172259523Y-105968533D02*
X172211904Y-106111390D01*
X172211904Y-106111390D02*
X171640476Y-106682819D01*
X171640476Y-106682819D02*
X172259523Y-106682819D01*
X190177200Y-103493332D02*
X190224819Y-103350475D01*
X190224819Y-103350475D02*
X190224819Y-103112380D01*
X190224819Y-103112380D02*
X190177200Y-103017142D01*
X190177200Y-103017142D02*
X190129580Y-102969523D01*
X190129580Y-102969523D02*
X190034342Y-102921904D01*
X190034342Y-102921904D02*
X189939104Y-102921904D01*
X189939104Y-102921904D02*
X189843866Y-102969523D01*
X189843866Y-102969523D02*
X189796247Y-103017142D01*
X189796247Y-103017142D02*
X189748628Y-103112380D01*
X189748628Y-103112380D02*
X189701009Y-103302856D01*
X189701009Y-103302856D02*
X189653390Y-103398094D01*
X189653390Y-103398094D02*
X189605771Y-103445713D01*
X189605771Y-103445713D02*
X189510533Y-103493332D01*
X189510533Y-103493332D02*
X189415295Y-103493332D01*
X189415295Y-103493332D02*
X189320057Y-103445713D01*
X189320057Y-103445713D02*
X189272438Y-103398094D01*
X189272438Y-103398094D02*
X189224819Y-103302856D01*
X189224819Y-103302856D02*
X189224819Y-103064761D01*
X189224819Y-103064761D02*
X189272438Y-102921904D01*
X189224819Y-102588570D02*
X190224819Y-102350475D01*
X190224819Y-102350475D02*
X189510533Y-102159999D01*
X189510533Y-102159999D02*
X190224819Y-101969523D01*
X190224819Y-101969523D02*
X189224819Y-101731428D01*
X189558152Y-100921904D02*
X190224819Y-100921904D01*
X189177200Y-101159999D02*
X189891485Y-101398094D01*
X189891485Y-101398094D02*
X189891485Y-100779047D01*
X195119666Y-150999319D02*
X195119666Y-151713604D01*
X195119666Y-151713604D02*
X195072047Y-151856461D01*
X195072047Y-151856461D02*
X194976809Y-151951700D01*
X194976809Y-151951700D02*
X194833952Y-151999319D01*
X194833952Y-151999319D02*
X194738714Y-151999319D01*
X196119666Y-151999319D02*
X195548238Y-151999319D01*
X195833952Y-151999319D02*
X195833952Y-150999319D01*
X195833952Y-150999319D02*
X195738714Y-151142176D01*
X195738714Y-151142176D02*
X195643476Y-151237414D01*
X195643476Y-151237414D02*
X195548238Y-151285033D01*
X170889819Y-72444594D02*
X169889819Y-72444594D01*
X169889819Y-72444594D02*
X169889819Y-72206499D01*
X169889819Y-72206499D02*
X169937438Y-72063642D01*
X169937438Y-72063642D02*
X170032676Y-71968404D01*
X170032676Y-71968404D02*
X170127914Y-71920785D01*
X170127914Y-71920785D02*
X170318390Y-71873166D01*
X170318390Y-71873166D02*
X170461247Y-71873166D01*
X170461247Y-71873166D02*
X170651723Y-71920785D01*
X170651723Y-71920785D02*
X170746961Y-71968404D01*
X170746961Y-71968404D02*
X170842200Y-72063642D01*
X170842200Y-72063642D02*
X170889819Y-72206499D01*
X170889819Y-72206499D02*
X170889819Y-72444594D01*
X170889819Y-70920785D02*
X170889819Y-71492213D01*
X170889819Y-71206499D02*
X169889819Y-71206499D01*
X169889819Y-71206499D02*
X170032676Y-71301737D01*
X170032676Y-71301737D02*
X170127914Y-71396975D01*
X170127914Y-71396975D02*
X170175533Y-71492213D01*
X180387666Y-105979819D02*
X180387666Y-106694104D01*
X180387666Y-106694104D02*
X180340047Y-106836961D01*
X180340047Y-106836961D02*
X180244809Y-106932200D01*
X180244809Y-106932200D02*
X180101952Y-106979819D01*
X180101952Y-106979819D02*
X180006714Y-106979819D01*
X180816238Y-106075057D02*
X180863857Y-106027438D01*
X180863857Y-106027438D02*
X180959095Y-105979819D01*
X180959095Y-105979819D02*
X181197190Y-105979819D01*
X181197190Y-105979819D02*
X181292428Y-106027438D01*
X181292428Y-106027438D02*
X181340047Y-106075057D01*
X181340047Y-106075057D02*
X181387666Y-106170295D01*
X181387666Y-106170295D02*
X181387666Y-106265533D01*
X181387666Y-106265533D02*
X181340047Y-106408390D01*
X181340047Y-106408390D02*
X180768619Y-106979819D01*
X180768619Y-106979819D02*
X181387666Y-106979819D01*
X171557333Y-81828819D02*
X171224000Y-81352628D01*
X170985905Y-81828819D02*
X170985905Y-80828819D01*
X170985905Y-80828819D02*
X171366857Y-80828819D01*
X171366857Y-80828819D02*
X171462095Y-80876438D01*
X171462095Y-80876438D02*
X171509714Y-80924057D01*
X171509714Y-80924057D02*
X171557333Y-81019295D01*
X171557333Y-81019295D02*
X171557333Y-81162152D01*
X171557333Y-81162152D02*
X171509714Y-81257390D01*
X171509714Y-81257390D02*
X171462095Y-81305009D01*
X171462095Y-81305009D02*
X171366857Y-81352628D01*
X171366857Y-81352628D02*
X170985905Y-81352628D01*
X171890667Y-80828819D02*
X172509714Y-80828819D01*
X172509714Y-80828819D02*
X172176381Y-81209771D01*
X172176381Y-81209771D02*
X172319238Y-81209771D01*
X172319238Y-81209771D02*
X172414476Y-81257390D01*
X172414476Y-81257390D02*
X172462095Y-81305009D01*
X172462095Y-81305009D02*
X172509714Y-81400247D01*
X172509714Y-81400247D02*
X172509714Y-81638342D01*
X172509714Y-81638342D02*
X172462095Y-81733580D01*
X172462095Y-81733580D02*
X172414476Y-81781200D01*
X172414476Y-81781200D02*
X172319238Y-81828819D01*
X172319238Y-81828819D02*
X172033524Y-81828819D01*
X172033524Y-81828819D02*
X171938286Y-81781200D01*
X171938286Y-81781200D02*
X171890667Y-81733580D01*
X198414819Y-123608666D02*
X197938628Y-123941999D01*
X198414819Y-124180094D02*
X197414819Y-124180094D01*
X197414819Y-124180094D02*
X197414819Y-123799142D01*
X197414819Y-123799142D02*
X197462438Y-123703904D01*
X197462438Y-123703904D02*
X197510057Y-123656285D01*
X197510057Y-123656285D02*
X197605295Y-123608666D01*
X197605295Y-123608666D02*
X197748152Y-123608666D01*
X197748152Y-123608666D02*
X197843390Y-123656285D01*
X197843390Y-123656285D02*
X197891009Y-123703904D01*
X197891009Y-123703904D02*
X197938628Y-123799142D01*
X197938628Y-123799142D02*
X197938628Y-124180094D01*
X198414819Y-122656285D02*
X198414819Y-123227713D01*
X198414819Y-122941999D02*
X197414819Y-122941999D01*
X197414819Y-122941999D02*
X197557676Y-123037237D01*
X197557676Y-123037237D02*
X197652914Y-123132475D01*
X197652914Y-123132475D02*
X197700533Y-123227713D01*
X196778666Y-85665819D02*
X196778666Y-86380104D01*
X196778666Y-86380104D02*
X196731047Y-86522961D01*
X196731047Y-86522961D02*
X196635809Y-86618200D01*
X196635809Y-86618200D02*
X196492952Y-86665819D01*
X196492952Y-86665819D02*
X196397714Y-86665819D01*
X197254857Y-86665819D02*
X197254857Y-85665819D01*
X197254857Y-85665819D02*
X197635809Y-85665819D01*
X197635809Y-85665819D02*
X197731047Y-85713438D01*
X197731047Y-85713438D02*
X197778666Y-85761057D01*
X197778666Y-85761057D02*
X197826285Y-85856295D01*
X197826285Y-85856295D02*
X197826285Y-85999152D01*
X197826285Y-85999152D02*
X197778666Y-86094390D01*
X197778666Y-86094390D02*
X197731047Y-86142009D01*
X197731047Y-86142009D02*
X197635809Y-86189628D01*
X197635809Y-86189628D02*
X197254857Y-86189628D01*
X198778666Y-86665819D02*
X198207238Y-86665819D01*
X198492952Y-86665819D02*
X198492952Y-85665819D01*
X198492952Y-85665819D02*
X198397714Y-85808676D01*
X198397714Y-85808676D02*
X198302476Y-85903914D01*
X198302476Y-85903914D02*
X198207238Y-85951533D01*
D13*
%TO.C,SW3*%
X183745000Y-105660000D02*
X185245000Y-105660000D01*
X187745000Y-104410000D02*
X187745000Y-99910000D01*
X181245000Y-99910000D02*
X181245000Y-104410000D01*
X185245000Y-98660000D02*
X183745000Y-98660000D01*
%TO.C,C2*%
X191997420Y-123823000D02*
X192278580Y-123823000D01*
X191997420Y-124843000D02*
X192278580Y-124843000D01*
%TO.C,Q1*%
X192102500Y-127980000D02*
X190427500Y-127980000D01*
X192102500Y-127980000D02*
X192752500Y-127980000D01*
X192102500Y-131100000D02*
X191452500Y-131100000D01*
X192102500Y-131100000D02*
X192752500Y-131100000D01*
%TO.C,U2*%
X195228000Y-132040000D02*
X195228000Y-130900000D01*
X194998000Y-130900000D02*
X195228000Y-130900000D01*
X194998000Y-130900000D02*
X194998000Y-128180000D01*
X199718000Y-130900000D02*
X199488000Y-130900000D01*
X194998000Y-128180000D02*
X196308000Y-128180000D01*
X198408000Y-128180000D02*
X199718000Y-128180000D01*
X199718000Y-128180000D02*
X199718000Y-130900000D01*
%TO.C,C1*%
X192023420Y-120521000D02*
X192304580Y-120521000D01*
X192023420Y-121541000D02*
X192304580Y-121541000D01*
%TO.C,R4*%
X171486742Y-85381500D02*
X171961258Y-85381500D01*
X171486742Y-86426500D02*
X171961258Y-86426500D01*
%TO.C,SW2*%
X174165000Y-105660000D02*
X175665000Y-105660000D01*
X178165000Y-104410000D02*
X178165000Y-99910000D01*
X171665000Y-99910000D02*
X171665000Y-104410000D01*
X175665000Y-98660000D02*
X174165000Y-98660000D01*
%TO.C,J4*%
X189671000Y-93031000D02*
X189671000Y-94361000D01*
X188341000Y-93031000D02*
X189671000Y-93031000D01*
X187071000Y-93031000D02*
X179391000Y-93031000D01*
X187071000Y-93031000D02*
X187071000Y-95691000D01*
X179391000Y-93031000D02*
X179391000Y-95691000D01*
X187071000Y-95691000D02*
X179391000Y-95691000D01*
%TO.C,R2*%
X196327500Y-123679258D02*
X196327500Y-123204742D01*
X197372500Y-123679258D02*
X197372500Y-123204742D01*
%TO.C,D2*%
X195126000Y-118634000D02*
X195126000Y-120634000D01*
X195126000Y-118634000D02*
X199136000Y-118634000D01*
X195126000Y-120634000D02*
X199136000Y-120634000D01*
%TO.C,R5*%
X197057742Y-92695500D02*
X197532258Y-92695500D01*
X197057742Y-93740500D02*
X197532258Y-93740500D01*
D12*
%TO.C,U1*%
X175641000Y-67310000D02*
X193421000Y-67310000D01*
X193421000Y-67310000D02*
X193421000Y-90170000D01*
X193421000Y-90170000D02*
X175641000Y-90170000D01*
X175641000Y-90170000D02*
X175641000Y-67310000D01*
X179451000Y-64770000D02*
X189611000Y-64770000D01*
X189611000Y-64770000D02*
X189611000Y-72390000D01*
X189611000Y-72390000D02*
X179451000Y-72390000D01*
X179451000Y-72390000D02*
X179451000Y-64770000D01*
%TO.C,SW1*%
X196088000Y-75819000D02*
X199898000Y-75819000D01*
X199898000Y-75819000D02*
X199898000Y-84709000D01*
X199898000Y-84709000D02*
X196088000Y-84709000D01*
X196088000Y-84709000D02*
X196088000Y-75819000D01*
D13*
%TO.C,J3*%
X169612000Y-96326000D02*
X169612000Y-94996000D01*
X170942000Y-96326000D02*
X169612000Y-96326000D01*
X172212000Y-96326000D02*
X177352000Y-96326000D01*
X172212000Y-96326000D02*
X172212000Y-93726000D01*
X177352000Y-96326000D02*
X177352000Y-91126000D01*
X169612000Y-93726000D02*
X169612000Y-91126000D01*
X172212000Y-93726000D02*
X169612000Y-93726000D01*
X169612000Y-91126000D02*
X177352000Y-91126000D01*
%TO.C,C3*%
X171550420Y-88644000D02*
X171831580Y-88644000D01*
X171550420Y-89664000D02*
X171831580Y-89664000D01*
%TO.C,C4*%
X177290000Y-109754580D02*
X177290000Y-109473420D01*
X178310000Y-109754580D02*
X178310000Y-109473420D01*
%TO.C,R6*%
X197057742Y-95616500D02*
X197532258Y-95616500D01*
X197057742Y-96661500D02*
X197532258Y-96661500D01*
%TO.C,U3*%
X171582500Y-76164000D02*
X169782500Y-76164000D01*
X171582500Y-76164000D02*
X172382500Y-76164000D01*
X171582500Y-79284000D02*
X170782500Y-79284000D01*
X171582500Y-79284000D02*
X172382500Y-79284000D01*
%TO.C,SW4*%
X193270000Y-105660000D02*
X194770000Y-105660000D01*
X197270000Y-104410000D02*
X197270000Y-99910000D01*
X190770000Y-99910000D02*
X190770000Y-104410000D01*
X194770000Y-98660000D02*
X193270000Y-98660000D01*
%TO.C,J1*%
X199313000Y-150454500D02*
X191593000Y-150454500D01*
X199313000Y-149234500D02*
X198093000Y-149234500D01*
X199313000Y-142034500D02*
X199313000Y-150454500D01*
X198093000Y-149234500D02*
X198093000Y-144234500D01*
X198093000Y-145234500D02*
X192813000Y-145234500D01*
X198093000Y-144234500D02*
X199313000Y-144234500D01*
X198093000Y-144234500D02*
X198093000Y-142034500D01*
X198093000Y-142034500D02*
X199313000Y-142034500D01*
X197023000Y-148654500D02*
X196703000Y-148734500D01*
X197023000Y-145234500D02*
X197023000Y-148654500D01*
X197003000Y-141544500D02*
X196403000Y-141544500D01*
X196703000Y-148734500D02*
X196383000Y-148654500D01*
X196703000Y-145234500D02*
X197023000Y-145234500D01*
X196703000Y-142144500D02*
X197003000Y-141544500D01*
X196403000Y-141544500D02*
X196703000Y-142144500D01*
X196383000Y-148654500D02*
X196383000Y-145234500D01*
X196383000Y-145234500D02*
X196703000Y-145234500D01*
X195533000Y-144234500D02*
X195373000Y-144234500D01*
X194523000Y-148654500D02*
X194203000Y-148734500D01*
X194523000Y-145234500D02*
X194523000Y-148654500D01*
X194203000Y-148734500D02*
X193883000Y-148654500D01*
X194203000Y-145234500D02*
X194523000Y-145234500D01*
X193883000Y-148654500D02*
X193883000Y-145234500D01*
X193883000Y-145234500D02*
X194203000Y-145234500D01*
X192813000Y-149234500D02*
X192813000Y-144234500D01*
X192813000Y-144234500D02*
X191593000Y-144234500D01*
X192813000Y-142034500D02*
X192813000Y-144234500D01*
X191593000Y-150454500D02*
X191593000Y-142034500D01*
X191593000Y-149234500D02*
X192813000Y-149234500D01*
X191593000Y-142034500D02*
X192813000Y-142034500D01*
%TO.C,D1*%
X171125000Y-73391500D02*
X173045000Y-73391500D01*
X173045000Y-73391500D02*
X173045000Y-70706500D01*
X171125000Y-70706500D02*
X171125000Y-73391500D01*
%TO.C,J2*%
X179661000Y-107525000D02*
X180721000Y-107525000D01*
X179661000Y-108585000D02*
X179661000Y-107525000D01*
X179661000Y-109585000D02*
X179661000Y-111645000D01*
X179661000Y-109585000D02*
X181781000Y-109585000D01*
X179661000Y-111645000D02*
X181781000Y-111645000D01*
X181781000Y-109585000D02*
X181781000Y-111645000D01*
%TO.C,R3*%
X171486742Y-82281500D02*
X171961258Y-82281500D01*
X171486742Y-83326500D02*
X171961258Y-83326500D01*
%TO.C,R1*%
X198867500Y-123679258D02*
X198867500Y-123204742D01*
X199912500Y-123679258D02*
X199912500Y-123204742D01*
%TO.C,JP1*%
X196212000Y-87011000D02*
X199012000Y-87011000D01*
X196212000Y-89011000D02*
X196212000Y-87011000D01*
X199012000Y-87011000D02*
X199012000Y-89011000D01*
X199012000Y-89011000D02*
X196212000Y-89011000D01*
%TD*%
M02*
