%TF.GenerationSoftware,KiCad,Pcbnew,7.0.7*%
%TF.CreationDate,2024-05-31T07:58:15-05:00*%
%TF.ProjectId,ThinkTankTimerVote,5468696e-6b54-4616-9e6b-54696d657256,rev?*%
%TF.SameCoordinates,Original*%
%TF.FileFunction,Drillmap*%
%TF.FilePolarity,Positive*%
%FSLAX45Y45*%
G04 Gerber Fmt 4.5, Leading zero omitted, Abs format (unit mm)*
G04 Created by KiCad (PCBNEW 7.0.7) date 2024-05-31 07:58:15*
%MOMM*%
%LPD*%
G01*
G04 APERTURE LIST*
%ADD10C,0.003779*%
%ADD11C,0.200000*%
%ADD12C,0.250000*%
G04 APERTURE END LIST*
D10*
X16975000Y-6911600D02*
X17025500Y-6861100D01*
X17212000Y-6759300D02*
X17281700Y-6744100D01*
X18452900Y-6739000D02*
X19552900Y-6739000D01*
X19760600Y-6784200D02*
X19823200Y-6818400D01*
X20032600Y-7098100D02*
X20047800Y-7167800D01*
X19693800Y-6759300D02*
X19760600Y-6784200D01*
X18979300Y-14710000D02*
X18979300Y-11210000D01*
X17145200Y-6784200D02*
X17212000Y-6759300D01*
X16932300Y-6968700D02*
X16975000Y-6911600D01*
X16898100Y-7031300D02*
X16932300Y-6968700D01*
X20052900Y-10724500D02*
X20052900Y-11210000D01*
X16852900Y-10724500D02*
X16852900Y-7447700D01*
X20052900Y-11210000D02*
X20052900Y-14710000D01*
X16858000Y-7167800D02*
X16873200Y-7098100D01*
X16852900Y-7447700D02*
X16852900Y-7239000D01*
X19552900Y-6739000D02*
X19624100Y-6744100D01*
X20052900Y-7447700D02*
X20052900Y-10724500D01*
X20047800Y-7167800D02*
X20052900Y-7239000D01*
X19973500Y-6968700D02*
X20007700Y-7031300D01*
X19624100Y-6744100D02*
X19693800Y-6759300D01*
X16852900Y-11210000D02*
X16852900Y-10724500D01*
X17281700Y-6744100D02*
X17352900Y-6739000D01*
X19823200Y-6818400D02*
X19880300Y-6861100D01*
X17025500Y-6861100D02*
X17082600Y-6818400D01*
X17352900Y-6739000D02*
X18452900Y-6739000D01*
X19880300Y-6861100D02*
X19930800Y-6911600D01*
X20007700Y-7031300D02*
X20032600Y-7098100D01*
X16852900Y-7239000D02*
X16858000Y-7167800D01*
X16873200Y-7098100D02*
X16898100Y-7031300D01*
X17082600Y-6818400D02*
X17145200Y-6784200D01*
X19930800Y-6911600D02*
X19973500Y-6968700D01*
X20052900Y-7239000D02*
X20052900Y-7447700D01*
X20052900Y-14710000D02*
X18979300Y-14710000D01*
X18979300Y-11210000D02*
X16852900Y-11210000D01*
D11*
D12*
X17020000Y-10847800D02*
X17270000Y-11097800D01*
X17270000Y-10847800D02*
X17020000Y-11097800D01*
X19433000Y-13502100D02*
X19683000Y-13752100D01*
X19683000Y-13502100D02*
X19433000Y-13752100D01*
X19610800Y-6987000D02*
X19860800Y-7237000D01*
X19860800Y-6987000D02*
X19610800Y-7237000D01*
D11*
X17113488Y-15021673D02*
X17113488Y-14821673D01*
X17113488Y-14821673D02*
X17161107Y-14821673D01*
X17161107Y-14821673D02*
X17189678Y-14831196D01*
X17189678Y-14831196D02*
X17208726Y-14850244D01*
X17208726Y-14850244D02*
X17218250Y-14869292D01*
X17218250Y-14869292D02*
X17227774Y-14907387D01*
X17227774Y-14907387D02*
X17227774Y-14935958D01*
X17227774Y-14935958D02*
X17218250Y-14974053D01*
X17218250Y-14974053D02*
X17208726Y-14993101D01*
X17208726Y-14993101D02*
X17189678Y-15012149D01*
X17189678Y-15012149D02*
X17161107Y-15021673D01*
X17161107Y-15021673D02*
X17113488Y-15021673D01*
X17313488Y-15021673D02*
X17313488Y-14888339D01*
X17313488Y-14926434D02*
X17323012Y-14907387D01*
X17323012Y-14907387D02*
X17332536Y-14897863D01*
X17332536Y-14897863D02*
X17351583Y-14888339D01*
X17351583Y-14888339D02*
X17370631Y-14888339D01*
X17437297Y-15021673D02*
X17437297Y-14888339D01*
X17437297Y-14821673D02*
X17427774Y-14831196D01*
X17427774Y-14831196D02*
X17437297Y-14840720D01*
X17437297Y-14840720D02*
X17446821Y-14831196D01*
X17446821Y-14831196D02*
X17437297Y-14821673D01*
X17437297Y-14821673D02*
X17437297Y-14840720D01*
X17561107Y-15021673D02*
X17542059Y-15012149D01*
X17542059Y-15012149D02*
X17532536Y-14993101D01*
X17532536Y-14993101D02*
X17532536Y-14821673D01*
X17665869Y-15021673D02*
X17646821Y-15012149D01*
X17646821Y-15012149D02*
X17637297Y-14993101D01*
X17637297Y-14993101D02*
X17637297Y-14821673D01*
X17894440Y-15021673D02*
X17894440Y-14821673D01*
X17894440Y-14821673D02*
X17961107Y-14964530D01*
X17961107Y-14964530D02*
X18027774Y-14821673D01*
X18027774Y-14821673D02*
X18027774Y-15021673D01*
X18208726Y-15021673D02*
X18208726Y-14916911D01*
X18208726Y-14916911D02*
X18199202Y-14897863D01*
X18199202Y-14897863D02*
X18180155Y-14888339D01*
X18180155Y-14888339D02*
X18142059Y-14888339D01*
X18142059Y-14888339D02*
X18123012Y-14897863D01*
X18208726Y-15012149D02*
X18189678Y-15021673D01*
X18189678Y-15021673D02*
X18142059Y-15021673D01*
X18142059Y-15021673D02*
X18123012Y-15012149D01*
X18123012Y-15012149D02*
X18113488Y-14993101D01*
X18113488Y-14993101D02*
X18113488Y-14974053D01*
X18113488Y-14974053D02*
X18123012Y-14955006D01*
X18123012Y-14955006D02*
X18142059Y-14945482D01*
X18142059Y-14945482D02*
X18189678Y-14945482D01*
X18189678Y-14945482D02*
X18208726Y-14935958D01*
X18303964Y-14888339D02*
X18303964Y-15088339D01*
X18303964Y-14897863D02*
X18323012Y-14888339D01*
X18323012Y-14888339D02*
X18361107Y-14888339D01*
X18361107Y-14888339D02*
X18380155Y-14897863D01*
X18380155Y-14897863D02*
X18389678Y-14907387D01*
X18389678Y-14907387D02*
X18399202Y-14926434D01*
X18399202Y-14926434D02*
X18399202Y-14983577D01*
X18399202Y-14983577D02*
X18389678Y-15002625D01*
X18389678Y-15002625D02*
X18380155Y-15012149D01*
X18380155Y-15012149D02*
X18361107Y-15021673D01*
X18361107Y-15021673D02*
X18323012Y-15021673D01*
X18323012Y-15021673D02*
X18303964Y-15012149D01*
X18484917Y-15002625D02*
X18494440Y-15012149D01*
X18494440Y-15012149D02*
X18484917Y-15021673D01*
X18484917Y-15021673D02*
X18475393Y-15012149D01*
X18475393Y-15012149D02*
X18484917Y-15002625D01*
X18484917Y-15002625D02*
X18484917Y-15021673D01*
X18484917Y-14897863D02*
X18494440Y-14907387D01*
X18494440Y-14907387D02*
X18484917Y-14916911D01*
X18484917Y-14916911D02*
X18475393Y-14907387D01*
X18475393Y-14907387D02*
X18484917Y-14897863D01*
X18484917Y-14897863D02*
X18484917Y-14916911D01*
X16652711Y-15250189D02*
X16852711Y-15450189D01*
X16852711Y-15250189D02*
X16652711Y-15450189D01*
X17103964Y-15260720D02*
X17113488Y-15251196D01*
X17113488Y-15251196D02*
X17132536Y-15241673D01*
X17132536Y-15241673D02*
X17180155Y-15241673D01*
X17180155Y-15241673D02*
X17199202Y-15251196D01*
X17199202Y-15251196D02*
X17208726Y-15260720D01*
X17208726Y-15260720D02*
X17218250Y-15279768D01*
X17218250Y-15279768D02*
X17218250Y-15298815D01*
X17218250Y-15298815D02*
X17208726Y-15327387D01*
X17208726Y-15327387D02*
X17094440Y-15441673D01*
X17094440Y-15441673D02*
X17218250Y-15441673D01*
X17303964Y-15422625D02*
X17313488Y-15432149D01*
X17313488Y-15432149D02*
X17303964Y-15441673D01*
X17303964Y-15441673D02*
X17294440Y-15432149D01*
X17294440Y-15432149D02*
X17303964Y-15422625D01*
X17303964Y-15422625D02*
X17303964Y-15441673D01*
X17494440Y-15241673D02*
X17399202Y-15241673D01*
X17399202Y-15241673D02*
X17389678Y-15336911D01*
X17389678Y-15336911D02*
X17399202Y-15327387D01*
X17399202Y-15327387D02*
X17418250Y-15317863D01*
X17418250Y-15317863D02*
X17465869Y-15317863D01*
X17465869Y-15317863D02*
X17484917Y-15327387D01*
X17484917Y-15327387D02*
X17494440Y-15336911D01*
X17494440Y-15336911D02*
X17503964Y-15355958D01*
X17503964Y-15355958D02*
X17503964Y-15403577D01*
X17503964Y-15403577D02*
X17494440Y-15422625D01*
X17494440Y-15422625D02*
X17484917Y-15432149D01*
X17484917Y-15432149D02*
X17465869Y-15441673D01*
X17465869Y-15441673D02*
X17418250Y-15441673D01*
X17418250Y-15441673D02*
X17399202Y-15432149D01*
X17399202Y-15432149D02*
X17389678Y-15422625D01*
X17627774Y-15241673D02*
X17646821Y-15241673D01*
X17646821Y-15241673D02*
X17665869Y-15251196D01*
X17665869Y-15251196D02*
X17675393Y-15260720D01*
X17675393Y-15260720D02*
X17684917Y-15279768D01*
X17684917Y-15279768D02*
X17694440Y-15317863D01*
X17694440Y-15317863D02*
X17694440Y-15365482D01*
X17694440Y-15365482D02*
X17684917Y-15403577D01*
X17684917Y-15403577D02*
X17675393Y-15422625D01*
X17675393Y-15422625D02*
X17665869Y-15432149D01*
X17665869Y-15432149D02*
X17646821Y-15441673D01*
X17646821Y-15441673D02*
X17627774Y-15441673D01*
X17627774Y-15441673D02*
X17608726Y-15432149D01*
X17608726Y-15432149D02*
X17599202Y-15422625D01*
X17599202Y-15422625D02*
X17589678Y-15403577D01*
X17589678Y-15403577D02*
X17580155Y-15365482D01*
X17580155Y-15365482D02*
X17580155Y-15317863D01*
X17580155Y-15317863D02*
X17589678Y-15279768D01*
X17589678Y-15279768D02*
X17599202Y-15260720D01*
X17599202Y-15260720D02*
X17608726Y-15251196D01*
X17608726Y-15251196D02*
X17627774Y-15241673D01*
X17818250Y-15241673D02*
X17837298Y-15241673D01*
X17837298Y-15241673D02*
X17856345Y-15251196D01*
X17856345Y-15251196D02*
X17865869Y-15260720D01*
X17865869Y-15260720D02*
X17875393Y-15279768D01*
X17875393Y-15279768D02*
X17884917Y-15317863D01*
X17884917Y-15317863D02*
X17884917Y-15365482D01*
X17884917Y-15365482D02*
X17875393Y-15403577D01*
X17875393Y-15403577D02*
X17865869Y-15422625D01*
X17865869Y-15422625D02*
X17856345Y-15432149D01*
X17856345Y-15432149D02*
X17837298Y-15441673D01*
X17837298Y-15441673D02*
X17818250Y-15441673D01*
X17818250Y-15441673D02*
X17799202Y-15432149D01*
X17799202Y-15432149D02*
X17789678Y-15422625D01*
X17789678Y-15422625D02*
X17780155Y-15403577D01*
X17780155Y-15403577D02*
X17770631Y-15365482D01*
X17770631Y-15365482D02*
X17770631Y-15317863D01*
X17770631Y-15317863D02*
X17780155Y-15279768D01*
X17780155Y-15279768D02*
X17789678Y-15260720D01*
X17789678Y-15260720D02*
X17799202Y-15251196D01*
X17799202Y-15251196D02*
X17818250Y-15241673D01*
X17970631Y-15441673D02*
X17970631Y-15308339D01*
X17970631Y-15327387D02*
X17980155Y-15317863D01*
X17980155Y-15317863D02*
X17999202Y-15308339D01*
X17999202Y-15308339D02*
X18027774Y-15308339D01*
X18027774Y-15308339D02*
X18046821Y-15317863D01*
X18046821Y-15317863D02*
X18056345Y-15336911D01*
X18056345Y-15336911D02*
X18056345Y-15441673D01*
X18056345Y-15336911D02*
X18065869Y-15317863D01*
X18065869Y-15317863D02*
X18084917Y-15308339D01*
X18084917Y-15308339D02*
X18113488Y-15308339D01*
X18113488Y-15308339D02*
X18132536Y-15317863D01*
X18132536Y-15317863D02*
X18142059Y-15336911D01*
X18142059Y-15336911D02*
X18142059Y-15441673D01*
X18237298Y-15441673D02*
X18237298Y-15308339D01*
X18237298Y-15327387D02*
X18246821Y-15317863D01*
X18246821Y-15317863D02*
X18265869Y-15308339D01*
X18265869Y-15308339D02*
X18294440Y-15308339D01*
X18294440Y-15308339D02*
X18313488Y-15317863D01*
X18313488Y-15317863D02*
X18323012Y-15336911D01*
X18323012Y-15336911D02*
X18323012Y-15441673D01*
X18323012Y-15336911D02*
X18332536Y-15317863D01*
X18332536Y-15317863D02*
X18351583Y-15308339D01*
X18351583Y-15308339D02*
X18380155Y-15308339D01*
X18380155Y-15308339D02*
X18399202Y-15317863D01*
X18399202Y-15317863D02*
X18408726Y-15336911D01*
X18408726Y-15336911D02*
X18408726Y-15441673D01*
X18799202Y-15232149D02*
X18627774Y-15489292D01*
X19056345Y-15241673D02*
X19075393Y-15241673D01*
X19075393Y-15241673D02*
X19094441Y-15251196D01*
X19094441Y-15251196D02*
X19103964Y-15260720D01*
X19103964Y-15260720D02*
X19113488Y-15279768D01*
X19113488Y-15279768D02*
X19123012Y-15317863D01*
X19123012Y-15317863D02*
X19123012Y-15365482D01*
X19123012Y-15365482D02*
X19113488Y-15403577D01*
X19113488Y-15403577D02*
X19103964Y-15422625D01*
X19103964Y-15422625D02*
X19094441Y-15432149D01*
X19094441Y-15432149D02*
X19075393Y-15441673D01*
X19075393Y-15441673D02*
X19056345Y-15441673D01*
X19056345Y-15441673D02*
X19037298Y-15432149D01*
X19037298Y-15432149D02*
X19027774Y-15422625D01*
X19027774Y-15422625D02*
X19018250Y-15403577D01*
X19018250Y-15403577D02*
X19008726Y-15365482D01*
X19008726Y-15365482D02*
X19008726Y-15317863D01*
X19008726Y-15317863D02*
X19018250Y-15279768D01*
X19018250Y-15279768D02*
X19027774Y-15260720D01*
X19027774Y-15260720D02*
X19037298Y-15251196D01*
X19037298Y-15251196D02*
X19056345Y-15241673D01*
X19208726Y-15422625D02*
X19218250Y-15432149D01*
X19218250Y-15432149D02*
X19208726Y-15441673D01*
X19208726Y-15441673D02*
X19199202Y-15432149D01*
X19199202Y-15432149D02*
X19208726Y-15422625D01*
X19208726Y-15422625D02*
X19208726Y-15441673D01*
X19342060Y-15241673D02*
X19361107Y-15241673D01*
X19361107Y-15241673D02*
X19380155Y-15251196D01*
X19380155Y-15251196D02*
X19389679Y-15260720D01*
X19389679Y-15260720D02*
X19399202Y-15279768D01*
X19399202Y-15279768D02*
X19408726Y-15317863D01*
X19408726Y-15317863D02*
X19408726Y-15365482D01*
X19408726Y-15365482D02*
X19399202Y-15403577D01*
X19399202Y-15403577D02*
X19389679Y-15422625D01*
X19389679Y-15422625D02*
X19380155Y-15432149D01*
X19380155Y-15432149D02*
X19361107Y-15441673D01*
X19361107Y-15441673D02*
X19342060Y-15441673D01*
X19342060Y-15441673D02*
X19323012Y-15432149D01*
X19323012Y-15432149D02*
X19313488Y-15422625D01*
X19313488Y-15422625D02*
X19303964Y-15403577D01*
X19303964Y-15403577D02*
X19294441Y-15365482D01*
X19294441Y-15365482D02*
X19294441Y-15317863D01*
X19294441Y-15317863D02*
X19303964Y-15279768D01*
X19303964Y-15279768D02*
X19313488Y-15260720D01*
X19313488Y-15260720D02*
X19323012Y-15251196D01*
X19323012Y-15251196D02*
X19342060Y-15241673D01*
X19503964Y-15441673D02*
X19542060Y-15441673D01*
X19542060Y-15441673D02*
X19561107Y-15432149D01*
X19561107Y-15432149D02*
X19570631Y-15422625D01*
X19570631Y-15422625D02*
X19589679Y-15394053D01*
X19589679Y-15394053D02*
X19599202Y-15355958D01*
X19599202Y-15355958D02*
X19599202Y-15279768D01*
X19599202Y-15279768D02*
X19589679Y-15260720D01*
X19589679Y-15260720D02*
X19580155Y-15251196D01*
X19580155Y-15251196D02*
X19561107Y-15241673D01*
X19561107Y-15241673D02*
X19523012Y-15241673D01*
X19523012Y-15241673D02*
X19503964Y-15251196D01*
X19503964Y-15251196D02*
X19494441Y-15260720D01*
X19494441Y-15260720D02*
X19484917Y-15279768D01*
X19484917Y-15279768D02*
X19484917Y-15327387D01*
X19484917Y-15327387D02*
X19494441Y-15346434D01*
X19494441Y-15346434D02*
X19503964Y-15355958D01*
X19503964Y-15355958D02*
X19523012Y-15365482D01*
X19523012Y-15365482D02*
X19561107Y-15365482D01*
X19561107Y-15365482D02*
X19580155Y-15355958D01*
X19580155Y-15355958D02*
X19589679Y-15346434D01*
X19589679Y-15346434D02*
X19599202Y-15327387D01*
X19713488Y-15327387D02*
X19694441Y-15317863D01*
X19694441Y-15317863D02*
X19684917Y-15308339D01*
X19684917Y-15308339D02*
X19675393Y-15289292D01*
X19675393Y-15289292D02*
X19675393Y-15279768D01*
X19675393Y-15279768D02*
X19684917Y-15260720D01*
X19684917Y-15260720D02*
X19694441Y-15251196D01*
X19694441Y-15251196D02*
X19713488Y-15241673D01*
X19713488Y-15241673D02*
X19751583Y-15241673D01*
X19751583Y-15241673D02*
X19770631Y-15251196D01*
X19770631Y-15251196D02*
X19780155Y-15260720D01*
X19780155Y-15260720D02*
X19789679Y-15279768D01*
X19789679Y-15279768D02*
X19789679Y-15289292D01*
X19789679Y-15289292D02*
X19780155Y-15308339D01*
X19780155Y-15308339D02*
X19770631Y-15317863D01*
X19770631Y-15317863D02*
X19751583Y-15327387D01*
X19751583Y-15327387D02*
X19713488Y-15327387D01*
X19713488Y-15327387D02*
X19694441Y-15336911D01*
X19694441Y-15336911D02*
X19684917Y-15346434D01*
X19684917Y-15346434D02*
X19675393Y-15365482D01*
X19675393Y-15365482D02*
X19675393Y-15403577D01*
X19675393Y-15403577D02*
X19684917Y-15422625D01*
X19684917Y-15422625D02*
X19694441Y-15432149D01*
X19694441Y-15432149D02*
X19713488Y-15441673D01*
X19713488Y-15441673D02*
X19751583Y-15441673D01*
X19751583Y-15441673D02*
X19770631Y-15432149D01*
X19770631Y-15432149D02*
X19780155Y-15422625D01*
X19780155Y-15422625D02*
X19789679Y-15403577D01*
X19789679Y-15403577D02*
X19789679Y-15365482D01*
X19789679Y-15365482D02*
X19780155Y-15346434D01*
X19780155Y-15346434D02*
X19770631Y-15336911D01*
X19770631Y-15336911D02*
X19751583Y-15327387D01*
X19961107Y-15308339D02*
X19961107Y-15441673D01*
X19913488Y-15232149D02*
X19865869Y-15375006D01*
X19865869Y-15375006D02*
X19989679Y-15375006D01*
X20056345Y-15241673D02*
X20056345Y-15279768D01*
X20132536Y-15241673D02*
X20132536Y-15279768D01*
X20427774Y-15517863D02*
X20418250Y-15508339D01*
X20418250Y-15508339D02*
X20399203Y-15479768D01*
X20399203Y-15479768D02*
X20389679Y-15460720D01*
X20389679Y-15460720D02*
X20380155Y-15432149D01*
X20380155Y-15432149D02*
X20370631Y-15384530D01*
X20370631Y-15384530D02*
X20370631Y-15346434D01*
X20370631Y-15346434D02*
X20380155Y-15298815D01*
X20380155Y-15298815D02*
X20389679Y-15270244D01*
X20389679Y-15270244D02*
X20399203Y-15251196D01*
X20399203Y-15251196D02*
X20418250Y-15222625D01*
X20418250Y-15222625D02*
X20427774Y-15213101D01*
X20484917Y-15241673D02*
X20608726Y-15241673D01*
X20608726Y-15241673D02*
X20542060Y-15317863D01*
X20542060Y-15317863D02*
X20570631Y-15317863D01*
X20570631Y-15317863D02*
X20589679Y-15327387D01*
X20589679Y-15327387D02*
X20599203Y-15336911D01*
X20599203Y-15336911D02*
X20608726Y-15355958D01*
X20608726Y-15355958D02*
X20608726Y-15403577D01*
X20608726Y-15403577D02*
X20599203Y-15422625D01*
X20599203Y-15422625D02*
X20589679Y-15432149D01*
X20589679Y-15432149D02*
X20570631Y-15441673D01*
X20570631Y-15441673D02*
X20513488Y-15441673D01*
X20513488Y-15441673D02*
X20494441Y-15432149D01*
X20494441Y-15432149D02*
X20484917Y-15422625D01*
X20846822Y-15441673D02*
X20846822Y-15241673D01*
X20932536Y-15441673D02*
X20932536Y-15336911D01*
X20932536Y-15336911D02*
X20923012Y-15317863D01*
X20923012Y-15317863D02*
X20903965Y-15308339D01*
X20903965Y-15308339D02*
X20875393Y-15308339D01*
X20875393Y-15308339D02*
X20856345Y-15317863D01*
X20856345Y-15317863D02*
X20846822Y-15327387D01*
X21056345Y-15441673D02*
X21037298Y-15432149D01*
X21037298Y-15432149D02*
X21027774Y-15422625D01*
X21027774Y-15422625D02*
X21018250Y-15403577D01*
X21018250Y-15403577D02*
X21018250Y-15346434D01*
X21018250Y-15346434D02*
X21027774Y-15327387D01*
X21027774Y-15327387D02*
X21037298Y-15317863D01*
X21037298Y-15317863D02*
X21056345Y-15308339D01*
X21056345Y-15308339D02*
X21084917Y-15308339D01*
X21084917Y-15308339D02*
X21103965Y-15317863D01*
X21103965Y-15317863D02*
X21113488Y-15327387D01*
X21113488Y-15327387D02*
X21123012Y-15346434D01*
X21123012Y-15346434D02*
X21123012Y-15403577D01*
X21123012Y-15403577D02*
X21113488Y-15422625D01*
X21113488Y-15422625D02*
X21103965Y-15432149D01*
X21103965Y-15432149D02*
X21084917Y-15441673D01*
X21084917Y-15441673D02*
X21056345Y-15441673D01*
X21237298Y-15441673D02*
X21218250Y-15432149D01*
X21218250Y-15432149D02*
X21208726Y-15413101D01*
X21208726Y-15413101D02*
X21208726Y-15241673D01*
X21389679Y-15432149D02*
X21370631Y-15441673D01*
X21370631Y-15441673D02*
X21332536Y-15441673D01*
X21332536Y-15441673D02*
X21313488Y-15432149D01*
X21313488Y-15432149D02*
X21303965Y-15413101D01*
X21303965Y-15413101D02*
X21303965Y-15336911D01*
X21303965Y-15336911D02*
X21313488Y-15317863D01*
X21313488Y-15317863D02*
X21332536Y-15308339D01*
X21332536Y-15308339D02*
X21370631Y-15308339D01*
X21370631Y-15308339D02*
X21389679Y-15317863D01*
X21389679Y-15317863D02*
X21399203Y-15336911D01*
X21399203Y-15336911D02*
X21399203Y-15355958D01*
X21399203Y-15355958D02*
X21303965Y-15375006D01*
X21475393Y-15432149D02*
X21494441Y-15441673D01*
X21494441Y-15441673D02*
X21532536Y-15441673D01*
X21532536Y-15441673D02*
X21551584Y-15432149D01*
X21551584Y-15432149D02*
X21561107Y-15413101D01*
X21561107Y-15413101D02*
X21561107Y-15403577D01*
X21561107Y-15403577D02*
X21551584Y-15384530D01*
X21551584Y-15384530D02*
X21532536Y-15375006D01*
X21532536Y-15375006D02*
X21503965Y-15375006D01*
X21503965Y-15375006D02*
X21484917Y-15365482D01*
X21484917Y-15365482D02*
X21475393Y-15346434D01*
X21475393Y-15346434D02*
X21475393Y-15336911D01*
X21475393Y-15336911D02*
X21484917Y-15317863D01*
X21484917Y-15317863D02*
X21503965Y-15308339D01*
X21503965Y-15308339D02*
X21532536Y-15308339D01*
X21532536Y-15308339D02*
X21551584Y-15317863D01*
X21627774Y-15517863D02*
X21637298Y-15508339D01*
X21637298Y-15508339D02*
X21656346Y-15479768D01*
X21656346Y-15479768D02*
X21665869Y-15460720D01*
X21665869Y-15460720D02*
X21675393Y-15432149D01*
X21675393Y-15432149D02*
X21684917Y-15384530D01*
X21684917Y-15384530D02*
X21684917Y-15346434D01*
X21684917Y-15346434D02*
X21675393Y-15298815D01*
X21675393Y-15298815D02*
X21665869Y-15270244D01*
X21665869Y-15270244D02*
X21656346Y-15251196D01*
X21656346Y-15251196D02*
X21637298Y-15222625D01*
X21637298Y-15222625D02*
X21627774Y-15213101D01*
X21989679Y-15517863D02*
X21980155Y-15508339D01*
X21980155Y-15508339D02*
X21961107Y-15479768D01*
X21961107Y-15479768D02*
X21951584Y-15460720D01*
X21951584Y-15460720D02*
X21942060Y-15432149D01*
X21942060Y-15432149D02*
X21932536Y-15384530D01*
X21932536Y-15384530D02*
X21932536Y-15346434D01*
X21932536Y-15346434D02*
X21942060Y-15298815D01*
X21942060Y-15298815D02*
X21951584Y-15270244D01*
X21951584Y-15270244D02*
X21961107Y-15251196D01*
X21961107Y-15251196D02*
X21980155Y-15222625D01*
X21980155Y-15222625D02*
X21989679Y-15213101D01*
X22065869Y-15308339D02*
X22065869Y-15441673D01*
X22065869Y-15327387D02*
X22075393Y-15317863D01*
X22075393Y-15317863D02*
X22094441Y-15308339D01*
X22094441Y-15308339D02*
X22123012Y-15308339D01*
X22123012Y-15308339D02*
X22142060Y-15317863D01*
X22142060Y-15317863D02*
X22151584Y-15336911D01*
X22151584Y-15336911D02*
X22151584Y-15441673D01*
X22275393Y-15441673D02*
X22256346Y-15432149D01*
X22256346Y-15432149D02*
X22246822Y-15422625D01*
X22246822Y-15422625D02*
X22237298Y-15403577D01*
X22237298Y-15403577D02*
X22237298Y-15346434D01*
X22237298Y-15346434D02*
X22246822Y-15327387D01*
X22246822Y-15327387D02*
X22256346Y-15317863D01*
X22256346Y-15317863D02*
X22275393Y-15308339D01*
X22275393Y-15308339D02*
X22303965Y-15308339D01*
X22303965Y-15308339D02*
X22323012Y-15317863D01*
X22323012Y-15317863D02*
X22332536Y-15327387D01*
X22332536Y-15327387D02*
X22342060Y-15346434D01*
X22342060Y-15346434D02*
X22342060Y-15403577D01*
X22342060Y-15403577D02*
X22332536Y-15422625D01*
X22332536Y-15422625D02*
X22323012Y-15432149D01*
X22323012Y-15432149D02*
X22303965Y-15441673D01*
X22303965Y-15441673D02*
X22275393Y-15441673D01*
X22399203Y-15308339D02*
X22475393Y-15308339D01*
X22427774Y-15241673D02*
X22427774Y-15413101D01*
X22427774Y-15413101D02*
X22437298Y-15432149D01*
X22437298Y-15432149D02*
X22456345Y-15441673D01*
X22456345Y-15441673D02*
X22475393Y-15441673D01*
X22694441Y-15308339D02*
X22694441Y-15508339D01*
X22694441Y-15317863D02*
X22713488Y-15308339D01*
X22713488Y-15308339D02*
X22751584Y-15308339D01*
X22751584Y-15308339D02*
X22770631Y-15317863D01*
X22770631Y-15317863D02*
X22780155Y-15327387D01*
X22780155Y-15327387D02*
X22789679Y-15346434D01*
X22789679Y-15346434D02*
X22789679Y-15403577D01*
X22789679Y-15403577D02*
X22780155Y-15422625D01*
X22780155Y-15422625D02*
X22770631Y-15432149D01*
X22770631Y-15432149D02*
X22751584Y-15441673D01*
X22751584Y-15441673D02*
X22713488Y-15441673D01*
X22713488Y-15441673D02*
X22694441Y-15432149D01*
X22903965Y-15441673D02*
X22884917Y-15432149D01*
X22884917Y-15432149D02*
X22875393Y-15413101D01*
X22875393Y-15413101D02*
X22875393Y-15241673D01*
X23065869Y-15441673D02*
X23065869Y-15336911D01*
X23065869Y-15336911D02*
X23056346Y-15317863D01*
X23056346Y-15317863D02*
X23037298Y-15308339D01*
X23037298Y-15308339D02*
X22999203Y-15308339D01*
X22999203Y-15308339D02*
X22980155Y-15317863D01*
X23065869Y-15432149D02*
X23046822Y-15441673D01*
X23046822Y-15441673D02*
X22999203Y-15441673D01*
X22999203Y-15441673D02*
X22980155Y-15432149D01*
X22980155Y-15432149D02*
X22970631Y-15413101D01*
X22970631Y-15413101D02*
X22970631Y-15394053D01*
X22970631Y-15394053D02*
X22980155Y-15375006D01*
X22980155Y-15375006D02*
X22999203Y-15365482D01*
X22999203Y-15365482D02*
X23046822Y-15365482D01*
X23046822Y-15365482D02*
X23065869Y-15355958D01*
X23132536Y-15308339D02*
X23208726Y-15308339D01*
X23161107Y-15241673D02*
X23161107Y-15413101D01*
X23161107Y-15413101D02*
X23170631Y-15432149D01*
X23170631Y-15432149D02*
X23189679Y-15441673D01*
X23189679Y-15441673D02*
X23208726Y-15441673D01*
X23351584Y-15432149D02*
X23332536Y-15441673D01*
X23332536Y-15441673D02*
X23294441Y-15441673D01*
X23294441Y-15441673D02*
X23275393Y-15432149D01*
X23275393Y-15432149D02*
X23265869Y-15413101D01*
X23265869Y-15413101D02*
X23265869Y-15336911D01*
X23265869Y-15336911D02*
X23275393Y-15317863D01*
X23275393Y-15317863D02*
X23294441Y-15308339D01*
X23294441Y-15308339D02*
X23332536Y-15308339D01*
X23332536Y-15308339D02*
X23351584Y-15317863D01*
X23351584Y-15317863D02*
X23361107Y-15336911D01*
X23361107Y-15336911D02*
X23361107Y-15355958D01*
X23361107Y-15355958D02*
X23265869Y-15375006D01*
X23532536Y-15441673D02*
X23532536Y-15241673D01*
X23532536Y-15432149D02*
X23513488Y-15441673D01*
X23513488Y-15441673D02*
X23475393Y-15441673D01*
X23475393Y-15441673D02*
X23456346Y-15432149D01*
X23456346Y-15432149D02*
X23446822Y-15422625D01*
X23446822Y-15422625D02*
X23437298Y-15403577D01*
X23437298Y-15403577D02*
X23437298Y-15346434D01*
X23437298Y-15346434D02*
X23446822Y-15327387D01*
X23446822Y-15327387D02*
X23456346Y-15317863D01*
X23456346Y-15317863D02*
X23475393Y-15308339D01*
X23475393Y-15308339D02*
X23513488Y-15308339D01*
X23513488Y-15308339D02*
X23532536Y-15317863D01*
X23608727Y-15517863D02*
X23618250Y-15508339D01*
X23618250Y-15508339D02*
X23637298Y-15479768D01*
X23637298Y-15479768D02*
X23646822Y-15460720D01*
X23646822Y-15460720D02*
X23656346Y-15432149D01*
X23656346Y-15432149D02*
X23665869Y-15384530D01*
X23665869Y-15384530D02*
X23665869Y-15346434D01*
X23665869Y-15346434D02*
X23656346Y-15298815D01*
X23656346Y-15298815D02*
X23646822Y-15270244D01*
X23646822Y-15270244D02*
X23637298Y-15251196D01*
X23637298Y-15251196D02*
X23618250Y-15222625D01*
X23618250Y-15222625D02*
X23608727Y-15213101D01*
M02*
