%TF.GenerationSoftware,KiCad,Pcbnew,7.0.7*%
%TF.CreationDate,2024-05-31T07:58:12-05:00*%
%TF.ProjectId,ThinkTankTimerVote,5468696e-6b54-4616-9e6b-54696d657256,rev?*%
%TF.SameCoordinates,Original*%
%TF.FileFunction,Soldermask,Bot*%
%TF.FilePolarity,Negative*%
%FSLAX46Y46*%
G04 Gerber Fmt 4.6, Leading zero omitted, Abs format (unit mm)*
G04 Created by KiCad (PCBNEW 7.0.7) date 2024-05-31 07:58:12*
%MOMM*%
%LPD*%
G01*
G04 APERTURE LIST*
G04 Aperture macros list*
%AMRoundRect*
0 Rectangle with rounded corners*
0 $1 Rounding radius*
0 $2 $3 $4 $5 $6 $7 $8 $9 X,Y pos of 4 corners*
0 Add a 4 corners polygon primitive as box body*
4,1,4,$2,$3,$4,$5,$6,$7,$8,$9,$2,$3,0*
0 Add four circle primitives for the rounded corners*
1,1,$1+$1,$2,$3*
1,1,$1+$1,$4,$5*
1,1,$1+$1,$6,$7*
1,1,$1+$1,$8,$9*
0 Add four rect primitives between the rounded corners*
20,1,$1+$1,$2,$3,$4,$5,0*
20,1,$1+$1,$4,$5,$6,$7,0*
20,1,$1+$1,$6,$7,$8,$9,0*
20,1,$1+$1,$8,$9,$2,$3,0*%
G04 Aperture macros list end*
%ADD10C,2.000000*%
%ADD11C,2.500000*%
%ADD12R,1.700000X1.700000*%
%ADD13O,1.700000X1.700000*%
%ADD14RoundRect,0.381000X-1.119000X-0.381000X1.119000X-0.381000X1.119000X0.381000X-1.119000X0.381000X0*%
%ADD15RoundRect,0.250000X0.600000X0.750000X-0.600000X0.750000X-0.600000X-0.750000X0.600000X-0.750000X0*%
%ADD16O,1.700000X2.000000*%
%ADD17R,1.350000X1.350000*%
%ADD18O,1.350000X1.350000*%
G04 APERTURE END LIST*
D10*
%TO.C,SW3*%
X182245000Y-105410000D03*
X182245000Y-98910000D03*
X186745000Y-105410000D03*
X186745000Y-98910000D03*
%TD*%
D11*
%TO.C,H3*%
X197358000Y-71120000D03*
%TD*%
D10*
%TO.C,SW2*%
X172665000Y-105410000D03*
X172665000Y-98910000D03*
X177165000Y-105410000D03*
X177165000Y-98910000D03*
%TD*%
D12*
%TO.C,J4*%
X188341000Y-94361000D03*
D13*
X185801000Y-94361000D03*
X183261000Y-94361000D03*
X180721000Y-94361000D03*
%TD*%
D14*
%TO.C,U1*%
X192651000Y-87630000D03*
X192651000Y-85090000D03*
X192651000Y-82550000D03*
X192651000Y-80010000D03*
X192651000Y-77470000D03*
X176411000Y-69850000D03*
X176411000Y-72390000D03*
X176411000Y-74930000D03*
X176411000Y-77470000D03*
X176411000Y-80010000D03*
X176411000Y-82550000D03*
X176411000Y-85090000D03*
X176411000Y-87630000D03*
X192651000Y-69850000D03*
X192651000Y-72390000D03*
X192651000Y-74930000D03*
%TD*%
D10*
%TO.C,SW1*%
X197993000Y-77724000D03*
X197993000Y-80264000D03*
X197993000Y-82804000D03*
%TD*%
D12*
%TO.C,J3*%
X170942000Y-94996000D03*
D13*
X170942000Y-92456000D03*
X173482000Y-94996000D03*
X173482000Y-92456000D03*
X176022000Y-94996000D03*
X176022000Y-92456000D03*
%TD*%
D11*
%TO.C,H1*%
X195580000Y-136271000D03*
%TD*%
%TO.C,H2*%
X171450000Y-109728000D03*
%TD*%
D10*
%TO.C,SW4*%
X191770000Y-105410000D03*
X191770000Y-98910000D03*
X196270000Y-105410000D03*
X196270000Y-98910000D03*
%TD*%
D15*
%TO.C,J1*%
X196703000Y-143644500D03*
D16*
X194203000Y-143644500D03*
%TD*%
D17*
%TO.C,J2*%
X180721000Y-108585000D03*
D18*
X180721000Y-110585000D03*
%TD*%
M02*
