%TF.GenerationSoftware,KiCad,Pcbnew,7.0.7*%
%TF.CreationDate,2024-05-31T07:58:12-05:00*%
%TF.ProjectId,ThinkTankTimerVote,5468696e-6b54-4616-9e6b-54696d657256,rev?*%
%TF.SameCoordinates,Original*%
%TF.FileFunction,Legend,Bot*%
%TF.FilePolarity,Positive*%
%FSLAX46Y46*%
G04 Gerber Fmt 4.6, Leading zero omitted, Abs format (unit mm)*
G04 Created by KiCad (PCBNEW 7.0.7) date 2024-05-31 07:58:12*
%MOMM*%
%LPD*%
G01*
G04 APERTURE LIST*
%ADD10C,0.000000*%
G04 APERTURE END LIST*
D10*
G36*
X188345749Y-70374319D02*
G01*
X188340131Y-70393470D01*
X188329424Y-70432083D01*
X188309250Y-70508812D01*
X188277500Y-70643750D01*
X188251042Y-70768104D01*
X188239508Y-70768331D01*
X188226733Y-70768931D01*
X188197464Y-70770750D01*
X188180969Y-70771721D01*
X188163233Y-70772569D01*
X188144258Y-70773168D01*
X188124042Y-70773396D01*
X188082329Y-70773437D01*
X188040368Y-70773726D01*
X187997911Y-70774512D01*
X187954709Y-70776042D01*
X187933366Y-70776801D01*
X187912954Y-70777158D01*
X187893410Y-70777204D01*
X187874672Y-70777034D01*
X187839367Y-70776414D01*
X187806542Y-70776042D01*
X187740396Y-70776042D01*
X187621334Y-71392521D01*
X187819771Y-71381937D01*
X187896500Y-71379291D01*
X188042021Y-71379291D01*
X188056904Y-71379250D01*
X188063602Y-71379152D01*
X188069803Y-71378961D01*
X188075508Y-71378646D01*
X188080717Y-71378175D01*
X188085429Y-71377519D01*
X188087600Y-71377111D01*
X188089646Y-71376646D01*
X188076418Y-71471895D01*
X188075307Y-71483802D01*
X188073979Y-71495708D01*
X188072465Y-71507614D01*
X188070795Y-71519520D01*
X188067116Y-71543333D01*
X188063188Y-71567145D01*
X188031439Y-71757646D01*
X188027015Y-71758059D01*
X188015895Y-71758968D01*
X188008831Y-71759454D01*
X188001301Y-71759878D01*
X187993710Y-71760178D01*
X187986460Y-71760291D01*
X187920314Y-71760291D01*
X187840939Y-71762937D01*
X187819979Y-71762979D01*
X187800260Y-71763268D01*
X187790632Y-71763583D01*
X187781036Y-71764054D01*
X187771378Y-71764710D01*
X187761565Y-71765583D01*
X187668960Y-71768229D01*
X187644652Y-71768270D01*
X187619352Y-71768560D01*
X187606329Y-71768875D01*
X187593059Y-71769345D01*
X187579540Y-71770002D01*
X187565774Y-71770875D01*
X187449357Y-72403229D01*
X187952066Y-72323854D01*
X187917670Y-72715437D01*
X186815588Y-72885998D01*
X187264146Y-70447958D01*
X188351583Y-70355354D01*
X188345749Y-70374319D01*
G37*
G36*
X186813620Y-73649696D02*
G01*
X186833246Y-73650538D01*
X186852067Y-73651945D01*
X186870081Y-73653923D01*
X186887289Y-73656473D01*
X186903691Y-73659602D01*
X186919287Y-73663311D01*
X186934077Y-73667606D01*
X186948060Y-73672490D01*
X186961238Y-73677968D01*
X186973609Y-73684041D01*
X186985174Y-73690716D01*
X186995933Y-73697995D01*
X187005886Y-73705883D01*
X187015033Y-73714383D01*
X187023373Y-73723500D01*
X187031033Y-73733083D01*
X187038143Y-73742987D01*
X187044709Y-73753225D01*
X187050741Y-73763807D01*
X187056246Y-73774747D01*
X187061232Y-73786054D01*
X187065706Y-73797741D01*
X187069676Y-73809820D01*
X187073150Y-73822302D01*
X187076136Y-73835199D01*
X187078641Y-73848521D01*
X187080673Y-73862282D01*
X187082240Y-73876493D01*
X187083350Y-73891164D01*
X187084010Y-73906309D01*
X187084228Y-73921937D01*
X187084012Y-73936294D01*
X187083365Y-73950597D01*
X187082292Y-73964853D01*
X187080797Y-73979071D01*
X187078883Y-73993257D01*
X187076554Y-74007421D01*
X187073815Y-74021568D01*
X187070668Y-74035708D01*
X187067118Y-74049848D01*
X187063170Y-74063996D01*
X187058826Y-74078159D01*
X187054090Y-74092346D01*
X187048967Y-74106563D01*
X187043460Y-74120819D01*
X187037573Y-74135122D01*
X187031311Y-74149479D01*
X187024708Y-74163773D01*
X187017802Y-74177881D01*
X187010603Y-74191802D01*
X187003116Y-74205538D01*
X186995350Y-74219088D01*
X186987313Y-74232451D01*
X186979013Y-74245629D01*
X186970457Y-74258620D01*
X186961652Y-74271425D01*
X186952608Y-74284045D01*
X186943330Y-74296478D01*
X186933829Y-74308725D01*
X186914181Y-74332662D01*
X186893728Y-74355854D01*
X186871765Y-74378168D01*
X186860671Y-74388934D01*
X186849492Y-74399428D01*
X186838220Y-74409643D01*
X186826848Y-74419571D01*
X186815366Y-74429205D01*
X186803769Y-74438537D01*
X186792047Y-74447558D01*
X186780194Y-74456262D01*
X186768201Y-74464640D01*
X186756061Y-74472684D01*
X186743766Y-74480388D01*
X186731308Y-74487743D01*
X186718680Y-74494741D01*
X186705873Y-74501375D01*
X186726172Y-74546437D01*
X186747215Y-74593979D01*
X186768754Y-74643506D01*
X186790540Y-74694521D01*
X186833866Y-74797047D01*
X186875207Y-74895604D01*
X186920186Y-75006729D01*
X186932050Y-75034510D01*
X186943667Y-75062292D01*
X186954788Y-75090073D01*
X186960084Y-75103963D01*
X186965164Y-75117854D01*
X186621206Y-75236917D01*
X186609754Y-75198139D01*
X186599047Y-75160849D01*
X186578872Y-75088750D01*
X186559360Y-75017643D01*
X186550224Y-74982710D01*
X186541832Y-74948521D01*
X186530380Y-74907345D01*
X186519672Y-74867162D01*
X186499498Y-74789771D01*
X186465102Y-74652187D01*
X186461381Y-74637806D01*
X186458156Y-74624448D01*
X186455428Y-74612143D01*
X186453195Y-74600924D01*
X186451459Y-74590822D01*
X186450218Y-74581866D01*
X186449474Y-74574089D01*
X186449226Y-74567521D01*
X186420122Y-74575458D01*
X186413673Y-74613120D01*
X186406232Y-74654503D01*
X186397798Y-74699358D01*
X186388372Y-74747437D01*
X186378905Y-74797419D01*
X186370182Y-74847649D01*
X186353976Y-74945875D01*
X186314289Y-75178708D01*
X185955022Y-75271166D01*
X186070875Y-74697166D01*
X186098987Y-74535109D01*
X186113663Y-74452344D01*
X186129083Y-74369083D01*
X186139853Y-74310875D01*
X186473040Y-74310875D01*
X186475688Y-74310874D01*
X186480740Y-74310285D01*
X186485971Y-74309505D01*
X186491373Y-74308532D01*
X186496937Y-74307361D01*
X186502656Y-74305988D01*
X186508523Y-74304410D01*
X186514529Y-74302623D01*
X186520667Y-74300622D01*
X186526928Y-74298405D01*
X186533307Y-74295966D01*
X186539793Y-74293303D01*
X186546381Y-74290411D01*
X186553061Y-74287287D01*
X186559827Y-74283926D01*
X186566670Y-74280325D01*
X186573583Y-74276479D01*
X186588461Y-74268412D01*
X186603307Y-74260067D01*
X186618092Y-74251411D01*
X186632783Y-74242414D01*
X186647351Y-74233045D01*
X186661763Y-74223273D01*
X186675990Y-74213067D01*
X186689999Y-74202395D01*
X186697348Y-74196909D01*
X186704515Y-74191368D01*
X186718318Y-74180154D01*
X186731439Y-74168816D01*
X186743908Y-74157416D01*
X186755758Y-74146017D01*
X186767018Y-74134679D01*
X186777720Y-74123465D01*
X186787895Y-74112437D01*
X186792701Y-74106545D01*
X186797197Y-74100774D01*
X186801382Y-74095118D01*
X186805258Y-74089576D01*
X186808824Y-74084141D01*
X186812079Y-74078811D01*
X186815025Y-74073582D01*
X186817661Y-74068450D01*
X186819986Y-74063411D01*
X186822002Y-74058461D01*
X186823707Y-74053597D01*
X186825102Y-74048813D01*
X186826188Y-74044108D01*
X186826963Y-74039475D01*
X186827428Y-74034913D01*
X186827583Y-74030416D01*
X186827529Y-74027711D01*
X186827367Y-74025054D01*
X186827097Y-74022445D01*
X186826720Y-74019885D01*
X186826237Y-74017375D01*
X186825647Y-74014917D01*
X186824952Y-74012512D01*
X186824152Y-74010159D01*
X186823247Y-74007861D01*
X186822238Y-74005618D01*
X186821125Y-74003431D01*
X186819909Y-74001302D01*
X186818590Y-73999230D01*
X186817169Y-73997218D01*
X186815647Y-73995266D01*
X186814023Y-73993375D01*
X186812298Y-73991546D01*
X186810473Y-73989779D01*
X186808549Y-73988077D01*
X186806524Y-73986440D01*
X186804402Y-73984868D01*
X186802180Y-73983364D01*
X186799861Y-73981927D01*
X186797445Y-73980559D01*
X186794931Y-73979261D01*
X186792322Y-73978033D01*
X186789616Y-73976878D01*
X186786815Y-73975795D01*
X186780928Y-73973850D01*
X186774666Y-73972208D01*
X186768092Y-73970316D01*
X186761266Y-73968601D01*
X186754184Y-73967057D01*
X186746843Y-73965676D01*
X186739238Y-73964450D01*
X186731366Y-73963372D01*
X186723222Y-73962432D01*
X186714804Y-73961625D01*
X186697125Y-73960375D01*
X186678300Y-73959558D01*
X186658296Y-73959114D01*
X186637083Y-73958980D01*
X186544477Y-73958980D01*
X186473040Y-74310875D01*
X186139853Y-74310875D01*
X186144504Y-74285739D01*
X186159180Y-74202395D01*
X186187292Y-74035708D01*
X186200231Y-73954225D01*
X186211435Y-73875966D01*
X186221150Y-73800187D01*
X186229624Y-73726145D01*
X186261628Y-73716590D01*
X186294158Y-73707748D01*
X186327247Y-73699589D01*
X186360924Y-73692080D01*
X186395222Y-73685192D01*
X186430171Y-73678892D01*
X186465802Y-73673151D01*
X186502145Y-73667937D01*
X186538851Y-73663343D01*
X186575526Y-73659462D01*
X186612139Y-73656264D01*
X186648659Y-73653716D01*
X186685054Y-73651788D01*
X186721295Y-73650450D01*
X186757349Y-73649670D01*
X186793187Y-73649416D01*
X186813620Y-73649696D01*
G37*
G36*
X181627901Y-75908710D02*
G01*
X181625023Y-75918063D01*
X181622237Y-75927479D01*
X181619576Y-75936894D01*
X181617070Y-75946247D01*
X181614749Y-75955477D01*
X181612646Y-75964520D01*
X181604709Y-75996601D01*
X181600740Y-76013261D01*
X181596771Y-76030666D01*
X181594900Y-76039358D01*
X181593216Y-76047616D01*
X181590156Y-76063078D01*
X181588658Y-76070406D01*
X181587097Y-76077547D01*
X181585413Y-76084565D01*
X181583542Y-76091521D01*
X181337479Y-76091521D01*
X181279271Y-76390500D01*
X181377167Y-76385208D01*
X181509459Y-76385208D01*
X181509399Y-76388184D01*
X181509231Y-76391156D01*
X181508970Y-76394120D01*
X181508632Y-76397072D01*
X181507784Y-76402927D01*
X181506813Y-76408689D01*
X181505841Y-76414327D01*
X181504994Y-76419810D01*
X181504655Y-76422484D01*
X181504394Y-76425107D01*
X181504226Y-76427676D01*
X181504167Y-76430187D01*
X181504136Y-76433134D01*
X181504048Y-76436026D01*
X181503712Y-76441679D01*
X181503190Y-76447209D01*
X181502513Y-76452676D01*
X181501712Y-76458143D01*
X181500818Y-76463673D01*
X181498875Y-76475165D01*
X181483000Y-76567769D01*
X181255459Y-76567769D01*
X181199896Y-76874686D01*
X181443313Y-76834998D01*
X181427438Y-77025498D01*
X180887979Y-77110119D01*
X181104646Y-75935416D01*
X181633813Y-75890437D01*
X181627901Y-75908710D01*
G37*
G36*
X197067143Y-112794370D02*
G01*
X197175623Y-112757329D01*
X197408456Y-112908141D01*
X197456081Y-113426724D01*
X197162394Y-113603995D01*
X197204727Y-114061724D01*
X196614707Y-113720412D01*
X196567082Y-112543016D01*
X197067143Y-112794370D01*
G37*
G36*
X182828499Y-75901273D02*
G01*
X182842710Y-75902053D01*
X182849672Y-75902651D01*
X182856549Y-75903392D01*
X182863349Y-75904280D01*
X182870078Y-75905319D01*
X182876746Y-75906514D01*
X182883359Y-75907867D01*
X182889926Y-75909383D01*
X182896454Y-75911066D01*
X182902951Y-75912919D01*
X182909425Y-75914946D01*
X182915883Y-75917152D01*
X182922333Y-75919540D01*
X182928690Y-75922114D01*
X182934860Y-75924873D01*
X182940844Y-75927819D01*
X182946642Y-75930950D01*
X182952254Y-75934268D01*
X182957680Y-75937772D01*
X182962920Y-75941461D01*
X182967974Y-75945337D01*
X182972842Y-75949399D01*
X182977524Y-75953647D01*
X182982020Y-75958081D01*
X182986329Y-75962700D01*
X182990453Y-75967506D01*
X182994391Y-75972498D01*
X182998143Y-75977676D01*
X183001708Y-75983040D01*
X183005523Y-75988621D01*
X183009036Y-75994445D01*
X183012254Y-76000510D01*
X183015185Y-76006811D01*
X183017838Y-76013345D01*
X183020219Y-76020108D01*
X183022336Y-76027095D01*
X183024198Y-76034303D01*
X183025811Y-76041729D01*
X183027185Y-76049367D01*
X183028325Y-76057215D01*
X183029241Y-76065268D01*
X183029940Y-76073523D01*
X183030430Y-76081975D01*
X183030718Y-76090621D01*
X183030812Y-76099457D01*
X183030812Y-76147082D01*
X183030802Y-76150058D01*
X183030730Y-76153035D01*
X183030651Y-76154523D01*
X183030533Y-76156011D01*
X183030369Y-76157500D01*
X183030151Y-76158988D01*
X183029871Y-76160476D01*
X183029520Y-76161965D01*
X183029093Y-76163453D01*
X183028580Y-76164941D01*
X183027974Y-76166429D01*
X183027267Y-76167918D01*
X183026452Y-76169406D01*
X183025521Y-76170894D01*
X183025490Y-76172383D01*
X183025402Y-76173876D01*
X183025259Y-76175377D01*
X183025066Y-76176889D01*
X183024826Y-76178417D01*
X183024544Y-76179964D01*
X183023867Y-76183131D01*
X183023066Y-76186423D01*
X183022172Y-76189870D01*
X183020229Y-76197353D01*
X182776812Y-76268791D01*
X182777639Y-76265773D01*
X182778487Y-76262512D01*
X182779458Y-76258538D01*
X182780430Y-76254192D01*
X182780877Y-76251986D01*
X182781277Y-76249815D01*
X182781616Y-76247722D01*
X182781877Y-76245748D01*
X182782045Y-76243937D01*
X182782104Y-76242332D01*
X182782104Y-76215874D01*
X182782042Y-76209548D01*
X182781851Y-76203467D01*
X182781529Y-76197625D01*
X182781071Y-76192020D01*
X182780473Y-76186648D01*
X182779732Y-76181504D01*
X182778844Y-76176585D01*
X182777805Y-76171887D01*
X182776610Y-76167406D01*
X182775257Y-76163138D01*
X182773741Y-76159079D01*
X182772058Y-76155226D01*
X182770205Y-76151575D01*
X182768177Y-76148121D01*
X182765971Y-76144860D01*
X182763583Y-76141790D01*
X182761538Y-76138906D01*
X182759372Y-76136209D01*
X182757089Y-76133697D01*
X182754695Y-76131372D01*
X182752192Y-76129233D01*
X182749584Y-76127279D01*
X182746875Y-76125512D01*
X182744070Y-76123931D01*
X182741172Y-76122535D01*
X182738184Y-76121326D01*
X182735111Y-76120303D01*
X182731957Y-76119466D01*
X182728726Y-76118815D01*
X182725420Y-76118350D01*
X182722045Y-76118071D01*
X182718604Y-76117978D01*
X182716588Y-76118040D01*
X182714506Y-76118226D01*
X182712354Y-76118536D01*
X182710129Y-76118970D01*
X182707826Y-76119528D01*
X182705442Y-76120210D01*
X182702972Y-76121016D01*
X182700414Y-76121946D01*
X182697762Y-76123001D01*
X182695014Y-76124179D01*
X182692164Y-76125481D01*
X182689210Y-76126907D01*
X182686148Y-76128458D01*
X182682973Y-76130132D01*
X182679682Y-76131930D01*
X182676271Y-76133852D01*
X182672799Y-76135898D01*
X182669336Y-76138059D01*
X182665888Y-76140329D01*
X182662463Y-76142700D01*
X182659069Y-76145163D01*
X182655714Y-76147712D01*
X182652405Y-76150339D01*
X182649151Y-76153035D01*
X182645959Y-76155793D01*
X182642836Y-76158606D01*
X182639791Y-76161465D01*
X182636831Y-76164363D01*
X182633965Y-76167291D01*
X182631198Y-76170243D01*
X182628541Y-76173211D01*
X182626000Y-76176186D01*
X182623116Y-76179689D01*
X182620419Y-76183250D01*
X182617907Y-76186865D01*
X182615582Y-76190531D01*
X182613442Y-76194243D01*
X182611489Y-76197998D01*
X182609722Y-76201792D01*
X182608140Y-76205621D01*
X182606745Y-76209480D01*
X182605536Y-76213367D01*
X182604513Y-76217277D01*
X182603676Y-76221206D01*
X182603024Y-76225151D01*
X182602559Y-76229108D01*
X182602280Y-76233072D01*
X182602187Y-76237040D01*
X182602373Y-76243893D01*
X182602926Y-76250564D01*
X182603844Y-76257056D01*
X182605123Y-76263374D01*
X182606757Y-76269522D01*
X182608745Y-76275503D01*
X182611081Y-76281321D01*
X182613763Y-76286980D01*
X182616785Y-76292484D01*
X182620145Y-76297837D01*
X182623838Y-76303043D01*
X182627860Y-76308105D01*
X182632208Y-76313028D01*
X182636878Y-76317815D01*
X182641865Y-76322471D01*
X182647166Y-76326998D01*
X182659202Y-76335928D01*
X182671516Y-76344858D01*
X182684141Y-76353787D01*
X182697107Y-76362717D01*
X182710444Y-76371647D01*
X182724185Y-76380577D01*
X182738360Y-76389506D01*
X182752999Y-76398436D01*
X182756503Y-76400513D01*
X182760069Y-76402772D01*
X182763697Y-76405209D01*
X182767386Y-76407821D01*
X182771138Y-76410603D01*
X182774952Y-76413552D01*
X182778827Y-76416663D01*
X182782765Y-76419934D01*
X182790827Y-76426936D01*
X182799136Y-76434527D01*
X182807694Y-76442676D01*
X182816499Y-76451353D01*
X182820933Y-76455911D01*
X182825300Y-76460659D01*
X182829598Y-76465602D01*
X182833822Y-76470741D01*
X182837968Y-76476083D01*
X182842033Y-76481630D01*
X182846013Y-76487386D01*
X182849903Y-76493355D01*
X182853701Y-76499541D01*
X182857402Y-76505948D01*
X182861002Y-76512580D01*
X182864497Y-76519441D01*
X182867884Y-76526534D01*
X182871158Y-76533864D01*
X182874316Y-76541434D01*
X182877354Y-76549248D01*
X182880703Y-76556844D01*
X182883808Y-76564746D01*
X182886673Y-76572950D01*
X182889301Y-76581453D01*
X182891697Y-76590250D01*
X182893864Y-76599338D01*
X182895807Y-76608713D01*
X182897528Y-76618371D01*
X182899033Y-76628307D01*
X182900324Y-76638519D01*
X182901406Y-76649002D01*
X182902282Y-76659753D01*
X182902957Y-76670767D01*
X182903435Y-76682041D01*
X182903718Y-76693571D01*
X182903812Y-76705352D01*
X182903565Y-76720637D01*
X182902825Y-76735728D01*
X182901597Y-76750617D01*
X182899885Y-76765297D01*
X182897692Y-76779760D01*
X182895022Y-76793998D01*
X182891879Y-76808004D01*
X182888268Y-76821769D01*
X182884191Y-76835286D01*
X182879653Y-76848548D01*
X182874658Y-76861546D01*
X182869210Y-76874272D01*
X182863311Y-76886720D01*
X182856968Y-76898880D01*
X182850182Y-76910746D01*
X182842958Y-76922310D01*
X182835331Y-76934031D01*
X182827336Y-76945384D01*
X182818977Y-76956372D01*
X182810257Y-76967000D01*
X182801181Y-76977272D01*
X182791752Y-76987190D01*
X182781974Y-76996760D01*
X182771851Y-77005985D01*
X182761387Y-77014869D01*
X182750586Y-77023415D01*
X182739452Y-77031629D01*
X182727988Y-77039513D01*
X182716199Y-77047071D01*
X182704088Y-77054308D01*
X182691659Y-77061227D01*
X182678916Y-77067831D01*
X182665925Y-77074094D01*
X182652747Y-77079981D01*
X182639384Y-77085487D01*
X182625834Y-77090611D01*
X182612098Y-77095346D01*
X182598177Y-77099690D01*
X182584069Y-77103639D01*
X182569775Y-77107188D01*
X182555296Y-77110335D01*
X182540630Y-77113074D01*
X182525778Y-77115403D01*
X182510740Y-77117317D01*
X182495516Y-77118812D01*
X182480106Y-77119885D01*
X182464510Y-77120532D01*
X182448728Y-77120748D01*
X182456667Y-77126041D01*
X182448234Y-77125887D01*
X182439800Y-77125426D01*
X182431366Y-77124663D01*
X182422933Y-77123602D01*
X182414499Y-77122246D01*
X182406066Y-77120600D01*
X182397632Y-77118666D01*
X182389198Y-77116450D01*
X182380765Y-77113955D01*
X182372331Y-77111184D01*
X182363898Y-77108142D01*
X182355464Y-77104833D01*
X182347030Y-77101260D01*
X182338597Y-77097428D01*
X182330163Y-77093340D01*
X182321729Y-77088999D01*
X182313326Y-77084379D01*
X182304981Y-77079444D01*
X182296690Y-77074192D01*
X182288450Y-77068618D01*
X182280256Y-77062719D01*
X182272105Y-77056490D01*
X182263992Y-77049928D01*
X182255914Y-77043028D01*
X182247868Y-77035788D01*
X182239848Y-77028202D01*
X182231852Y-77020268D01*
X182223875Y-77011981D01*
X182215914Y-77003337D01*
X182207964Y-76994333D01*
X182200022Y-76984965D01*
X182192084Y-76975229D01*
X182316438Y-76731812D01*
X182321538Y-76739745D01*
X182324211Y-76743701D01*
X182326980Y-76747646D01*
X182329857Y-76751576D01*
X182332855Y-76755486D01*
X182335985Y-76759372D01*
X182339258Y-76763232D01*
X182342686Y-76767060D01*
X182346281Y-76770854D01*
X182350054Y-76774609D01*
X182354017Y-76778321D01*
X182358181Y-76781987D01*
X182362559Y-76785603D01*
X182367161Y-76789164D01*
X182372000Y-76792667D01*
X182381049Y-76799483D01*
X182390314Y-76806020D01*
X182399766Y-76812247D01*
X182409373Y-76818133D01*
X182419103Y-76823647D01*
X182424005Y-76826254D01*
X182428927Y-76828757D01*
X182433864Y-76831152D01*
X182438813Y-76833434D01*
X182443769Y-76835600D01*
X182448729Y-76837645D01*
X182458522Y-76841366D01*
X182468036Y-76844590D01*
X182477239Y-76847319D01*
X182486102Y-76849552D01*
X182490396Y-76850482D01*
X182494592Y-76851288D01*
X182498688Y-76851970D01*
X182502680Y-76852528D01*
X182506562Y-76852963D01*
X182510333Y-76853273D01*
X182513987Y-76853459D01*
X182517521Y-76853521D01*
X182522948Y-76853427D01*
X182528316Y-76853144D01*
X182533631Y-76852666D01*
X182538894Y-76851991D01*
X182544112Y-76851115D01*
X182549287Y-76850033D01*
X182554423Y-76848741D01*
X182559524Y-76847237D01*
X182564594Y-76845516D01*
X182569637Y-76843573D01*
X182574656Y-76841406D01*
X182579657Y-76839010D01*
X182584642Y-76836382D01*
X182589615Y-76833517D01*
X182594580Y-76830412D01*
X182599542Y-76827063D01*
X182604348Y-76823528D01*
X182608844Y-76819870D01*
X182613029Y-76816087D01*
X182616905Y-76812180D01*
X182620471Y-76808149D01*
X182623726Y-76803994D01*
X182626672Y-76799716D01*
X182629308Y-76795313D01*
X182631633Y-76790786D01*
X182633648Y-76786135D01*
X182635354Y-76781360D01*
X182636749Y-76776461D01*
X182637834Y-76771438D01*
X182638609Y-76766291D01*
X182639074Y-76761020D01*
X182639229Y-76755625D01*
X182639013Y-76748245D01*
X182638366Y-76740985D01*
X182637294Y-76733841D01*
X182635798Y-76726810D01*
X182633884Y-76719887D01*
X182631556Y-76713069D01*
X182628816Y-76706352D01*
X182625670Y-76699732D01*
X182622120Y-76693204D01*
X182618171Y-76686766D01*
X182613827Y-76680413D01*
X182609092Y-76674141D01*
X182603969Y-76667947D01*
X182598462Y-76661827D01*
X182592575Y-76655776D01*
X182586312Y-76649791D01*
X182573052Y-76637885D01*
X182559110Y-76625979D01*
X182544548Y-76614072D01*
X182529427Y-76602166D01*
X182513810Y-76590260D01*
X182497760Y-76578354D01*
X182481337Y-76566447D01*
X182464604Y-76554541D01*
X182448745Y-76542506D01*
X182432978Y-76530191D01*
X182417398Y-76517567D01*
X182402097Y-76504601D01*
X182387167Y-76491263D01*
X182372703Y-76477522D01*
X182365674Y-76470491D01*
X182358797Y-76463347D01*
X182352082Y-76456087D01*
X182345542Y-76448707D01*
X182338813Y-76441203D01*
X182332519Y-76433571D01*
X182326659Y-76425807D01*
X182321233Y-76417908D01*
X182316241Y-76409869D01*
X182311683Y-76401687D01*
X182307559Y-76393357D01*
X182303870Y-76384877D01*
X182300614Y-76376241D01*
X182297793Y-76367446D01*
X182295405Y-76358489D01*
X182293452Y-76349365D01*
X182291933Y-76340070D01*
X182290847Y-76330601D01*
X182290196Y-76320954D01*
X182289979Y-76311124D01*
X182290166Y-76300272D01*
X182290728Y-76289539D01*
X182291671Y-76278923D01*
X182292997Y-76268419D01*
X182294711Y-76258023D01*
X182296816Y-76247733D01*
X182299316Y-76237543D01*
X182302216Y-76227450D01*
X182305519Y-76217450D01*
X182309229Y-76207539D01*
X182313349Y-76197713D01*
X182317884Y-76187969D01*
X182322838Y-76178302D01*
X182328215Y-76168709D01*
X182334017Y-76159186D01*
X182340250Y-76149728D01*
X182346793Y-76140395D01*
X182353526Y-76131244D01*
X182360453Y-76122271D01*
X182367577Y-76113472D01*
X182374903Y-76104844D01*
X182382434Y-76096382D01*
X182390174Y-76088084D01*
X182398128Y-76079944D01*
X182406299Y-76071959D01*
X182414690Y-76064126D01*
X182423307Y-76056440D01*
X182432152Y-76048897D01*
X182441229Y-76041493D01*
X182450543Y-76034226D01*
X182460098Y-76027090D01*
X182469896Y-76020082D01*
X182489983Y-76006563D01*
X182510534Y-75993789D01*
X182531520Y-75981759D01*
X182552909Y-75970473D01*
X182574670Y-75959931D01*
X182596772Y-75950133D01*
X182619184Y-75941079D01*
X182641875Y-75932770D01*
X182664566Y-75925328D01*
X182686978Y-75918879D01*
X182709080Y-75913422D01*
X182730841Y-75908957D01*
X182752230Y-75905484D01*
X182773216Y-75903004D01*
X182783548Y-75902136D01*
X182793768Y-75901516D01*
X182803871Y-75901144D01*
X182813854Y-75901020D01*
X182828499Y-75901273D01*
G37*
G36*
X185639604Y-72892708D02*
G01*
X185631669Y-72887417D01*
X185640839Y-72885998D01*
X185639604Y-72892708D01*
G37*
G36*
X180885042Y-77126041D02*
G01*
X180887688Y-77110165D01*
X180887979Y-77110119D01*
X180885042Y-77126041D01*
G37*
G36*
X187170999Y-70374319D02*
G01*
X187165382Y-70393470D01*
X187154675Y-70432083D01*
X187134500Y-70508812D01*
X187102750Y-70643750D01*
X187076293Y-70768104D01*
X187064758Y-70768331D01*
X187051984Y-70768931D01*
X187022714Y-70770750D01*
X187006219Y-70771721D01*
X186988484Y-70772569D01*
X186969509Y-70773168D01*
X186949293Y-70773396D01*
X186907580Y-70773437D01*
X186865619Y-70773726D01*
X186823161Y-70774512D01*
X186779959Y-70776042D01*
X186758617Y-70776801D01*
X186738205Y-70777158D01*
X186718661Y-70777204D01*
X186699923Y-70777034D01*
X186664618Y-70776414D01*
X186631793Y-70776042D01*
X186565647Y-70776042D01*
X186446584Y-71392521D01*
X186645021Y-71381937D01*
X186721751Y-71379291D01*
X186867271Y-71379291D01*
X186882154Y-71379250D01*
X186888852Y-71379152D01*
X186895053Y-71378961D01*
X186900758Y-71378646D01*
X186905967Y-71378175D01*
X186910680Y-71377519D01*
X186912850Y-71377111D01*
X186914897Y-71376646D01*
X186901667Y-71471895D01*
X186900557Y-71483802D01*
X186899229Y-71495708D01*
X186897715Y-71507614D01*
X186896046Y-71519520D01*
X186892366Y-71543333D01*
X186888439Y-71567145D01*
X186856689Y-71757646D01*
X186852266Y-71758059D01*
X186841145Y-71758968D01*
X186834081Y-71759454D01*
X186826552Y-71759878D01*
X186818960Y-71760178D01*
X186811710Y-71760291D01*
X186745564Y-71760291D01*
X186666190Y-71762937D01*
X186645230Y-71762979D01*
X186625510Y-71763268D01*
X186615883Y-71763583D01*
X186606286Y-71764054D01*
X186596628Y-71764710D01*
X186586815Y-71765583D01*
X186494211Y-71768229D01*
X186469902Y-71768270D01*
X186444602Y-71768560D01*
X186431579Y-71768875D01*
X186418309Y-71769345D01*
X186404791Y-71770002D01*
X186391024Y-71770875D01*
X186274607Y-72403229D01*
X186777315Y-72323854D01*
X186742919Y-72715437D01*
X185640839Y-72885998D01*
X186089396Y-70447958D01*
X187176834Y-70355354D01*
X187170999Y-70374319D01*
G37*
G36*
X184785001Y-70783979D02*
G01*
X184245251Y-70783979D01*
X184139418Y-71395166D01*
X184245251Y-71392520D01*
X184575980Y-71392520D01*
X184591359Y-71392479D01*
X184598676Y-71392381D01*
X184605746Y-71392190D01*
X184612567Y-71391874D01*
X184619140Y-71391404D01*
X184625465Y-71390748D01*
X184631542Y-71389875D01*
X184631305Y-71401781D01*
X184630633Y-71413687D01*
X184629589Y-71425593D01*
X184628235Y-71437500D01*
X184626633Y-71449406D01*
X184624845Y-71461312D01*
X184620959Y-71485125D01*
X184607730Y-71580374D01*
X184575979Y-71765583D01*
X184536251Y-71765500D01*
X184488336Y-71764921D01*
X184461232Y-71764291D01*
X184431988Y-71763350D01*
X184400574Y-71762038D01*
X184366958Y-71760291D01*
X184078562Y-71752353D01*
X183919812Y-72765707D01*
X183803396Y-72786874D01*
X183746180Y-72798780D01*
X183686979Y-72810687D01*
X183662805Y-72814893D01*
X183637948Y-72819534D01*
X183586437Y-72829869D01*
X183477958Y-72853020D01*
X183422395Y-72864885D01*
X183370802Y-72876502D01*
X183279520Y-72897999D01*
X183282167Y-72892708D01*
X183305938Y-72806842D01*
X183329461Y-72715768D01*
X183341052Y-72668200D01*
X183352488Y-72619236D01*
X183363738Y-72568847D01*
X183374771Y-72517000D01*
X183418097Y-72303349D01*
X183439139Y-72194787D01*
X183459438Y-72085729D01*
X183533521Y-71675625D01*
X183565271Y-71502653D01*
X183578169Y-71428942D01*
X183589083Y-71363416D01*
X183608472Y-71247868D01*
X183627117Y-71131575D01*
X183663167Y-70897749D01*
X183734605Y-70418854D01*
X184885542Y-70360645D01*
X184785001Y-70783979D01*
G37*
G36*
X185398833Y-73749958D02*
G01*
X185298292Y-73887542D01*
X185244714Y-73961625D01*
X185216436Y-74001395D01*
X185187167Y-74043646D01*
X185157484Y-74085276D01*
X185128297Y-74126659D01*
X185100102Y-74167545D01*
X185086532Y-74187725D01*
X185073396Y-74207688D01*
X185059872Y-74227273D01*
X185047062Y-74246301D01*
X185023456Y-74282433D01*
X184983438Y-74345271D01*
X184995799Y-74400792D01*
X185008904Y-74456066D01*
X185022505Y-74510843D01*
X185036355Y-74564876D01*
X185050700Y-74618454D01*
X185065789Y-74672032D01*
X185097209Y-74779188D01*
X185130281Y-74884029D01*
X185147066Y-74937318D01*
X185163355Y-74990854D01*
X185179684Y-75044432D01*
X185196758Y-75098010D01*
X185232146Y-75205167D01*
X185206349Y-75205125D01*
X185180552Y-75204836D01*
X185167654Y-75204521D01*
X185154756Y-75204051D01*
X185141857Y-75203394D01*
X185128959Y-75202521D01*
X185115952Y-75201761D01*
X185102790Y-75201405D01*
X185089566Y-75201358D01*
X185076373Y-75201529D01*
X185050452Y-75202149D01*
X185037910Y-75202412D01*
X185025771Y-75202521D01*
X184901417Y-75202521D01*
X184871197Y-75202562D01*
X184840233Y-75202852D01*
X184808772Y-75203637D01*
X184792933Y-75204293D01*
X184777064Y-75205167D01*
X184772640Y-75168993D01*
X184767472Y-75132076D01*
X184761809Y-75094662D01*
X184755897Y-75057000D01*
X184749985Y-75018842D01*
X184744321Y-74979940D01*
X184739154Y-74940542D01*
X184736833Y-74920735D01*
X184734730Y-74900896D01*
X184723155Y-74823175D01*
X184717987Y-74785182D01*
X184715667Y-74766294D01*
X184713564Y-74747437D01*
X184707652Y-74709776D01*
X184701988Y-74672362D01*
X184696820Y-74635445D01*
X184692397Y-74599271D01*
X184652710Y-74646896D01*
X184648736Y-74663386D01*
X184644731Y-74681085D01*
X184636504Y-74719987D01*
X184618314Y-74810938D01*
X184616216Y-74822849D01*
X184613932Y-74834792D01*
X184609054Y-74858894D01*
X184604175Y-74883492D01*
X184601891Y-74896054D01*
X184599793Y-74908834D01*
X184596935Y-74920735D01*
X184594295Y-74932605D01*
X184591840Y-74944413D01*
X184589540Y-74956128D01*
X184581272Y-75001438D01*
X184579169Y-75014455D01*
X184576849Y-75027690D01*
X184571681Y-75054686D01*
X184566017Y-75082178D01*
X184560105Y-75109918D01*
X184554194Y-75137699D01*
X184548530Y-75165480D01*
X184545869Y-75179371D01*
X184543363Y-75193261D01*
X184541042Y-75207152D01*
X184538939Y-75221043D01*
X184179105Y-75273959D01*
X184179104Y-75273958D01*
X184211846Y-75119507D01*
X184227845Y-75042902D01*
X184242604Y-74967041D01*
X184273031Y-74816890D01*
X184287997Y-74743055D01*
X184303458Y-74670708D01*
X184349429Y-74407778D01*
X184393417Y-74146833D01*
X184413756Y-74019296D01*
X184431120Y-73894487D01*
X184445506Y-73772158D01*
X184451584Y-73711846D01*
X184456917Y-73652062D01*
X184573333Y-73659999D01*
X184581265Y-73660118D01*
X184589167Y-73660454D01*
X184597006Y-73660976D01*
X184604752Y-73661653D01*
X184612375Y-73662454D01*
X184619842Y-73663348D01*
X184634187Y-73665291D01*
X184642006Y-73665410D01*
X184649607Y-73665746D01*
X184657023Y-73666268D01*
X184664283Y-73666945D01*
X184671420Y-73667746D01*
X184678463Y-73668640D01*
X184692395Y-73670583D01*
X184708684Y-73670625D01*
X184717045Y-73670723D01*
X184725468Y-73670914D01*
X184733892Y-73671229D01*
X184742253Y-73671699D01*
X184750490Y-73672355D01*
X184758541Y-73673229D01*
X184824687Y-73673229D01*
X184823576Y-73677818D01*
X184822248Y-73683647D01*
X184820734Y-73690716D01*
X184819065Y-73699026D01*
X184817271Y-73708576D01*
X184815385Y-73719366D01*
X184813437Y-73731396D01*
X184811458Y-73744667D01*
X184809355Y-73757684D01*
X184807035Y-73770918D01*
X184801867Y-73797914D01*
X184796203Y-73825406D01*
X184790291Y-73853146D01*
X184788312Y-73866421D01*
X184786364Y-73878488D01*
X184782684Y-73899117D01*
X184777063Y-73927229D01*
X184737375Y-74146833D01*
X184750604Y-74146833D01*
X184783801Y-74093710D01*
X184819727Y-74037362D01*
X184898771Y-73914000D01*
X185057521Y-73662646D01*
X185113083Y-73658222D01*
X185168646Y-73653055D01*
X185279771Y-73641479D01*
X185335333Y-73635443D01*
X185390896Y-73628911D01*
X185418677Y-73625304D01*
X185446458Y-73621387D01*
X185474239Y-73617098D01*
X185502021Y-73612375D01*
X185398833Y-73749958D01*
G37*
G36*
X186194025Y-73645567D02*
G01*
X186190392Y-73657809D01*
X186186945Y-73670237D01*
X186183654Y-73682820D01*
X186177411Y-73708328D01*
X186171417Y-73734083D01*
X186150250Y-73821395D01*
X186147398Y-73832299D01*
X186144793Y-73843141D01*
X186142437Y-73853858D01*
X186140328Y-73864390D01*
X186138468Y-73874674D01*
X186136856Y-73884647D01*
X186135491Y-73894249D01*
X186134375Y-73903416D01*
X186118583Y-73903457D01*
X186099318Y-73903747D01*
X186088538Y-73904062D01*
X186077076Y-73904532D01*
X186064994Y-73905189D01*
X186052355Y-73906062D01*
X186039337Y-73906822D01*
X186026103Y-73907178D01*
X186012683Y-73907225D01*
X185999107Y-73907054D01*
X185971615Y-73906434D01*
X185957761Y-73906171D01*
X185943875Y-73906062D01*
X185806292Y-73906062D01*
X185729562Y-74302937D01*
X185859208Y-74297645D01*
X186036480Y-74297645D01*
X186028542Y-74358499D01*
X186028482Y-74362438D01*
X186028310Y-74366323D01*
X186028036Y-74370161D01*
X186027674Y-74373961D01*
X186026728Y-74381474D01*
X186025565Y-74388926D01*
X186022961Y-74403892D01*
X186021705Y-74411530D01*
X186020604Y-74419353D01*
X185999438Y-74541061D01*
X185700458Y-74541061D01*
X185623729Y-74948519D01*
X185949166Y-74898249D01*
X185927999Y-75152248D01*
X185210978Y-75263373D01*
X185205688Y-75273958D01*
X185496730Y-73694396D01*
X186197875Y-73633542D01*
X186194025Y-73645567D01*
G37*
G36*
X187635728Y-76835186D02*
G01*
X187647160Y-76835739D01*
X187658267Y-76836657D01*
X187669040Y-76837936D01*
X187679472Y-76839571D01*
X187689556Y-76841558D01*
X187699283Y-76843895D01*
X187708645Y-76846576D01*
X187717635Y-76849599D01*
X187726246Y-76852958D01*
X187734469Y-76856651D01*
X187742296Y-76860674D01*
X187749721Y-76865022D01*
X187756735Y-76869691D01*
X187763330Y-76874678D01*
X187769499Y-76879980D01*
X187775266Y-76885964D01*
X187780661Y-76892015D01*
X187785684Y-76898135D01*
X187790334Y-76904329D01*
X187794613Y-76910601D01*
X187798520Y-76916954D01*
X187802055Y-76923392D01*
X187805217Y-76929920D01*
X187808008Y-76936540D01*
X187810427Y-76943257D01*
X187812473Y-76950076D01*
X187814147Y-76956998D01*
X187815450Y-76964030D01*
X187816380Y-76971173D01*
X187816938Y-76978433D01*
X187817124Y-76985814D01*
X187816907Y-76994185D01*
X187816256Y-77002432D01*
X187815171Y-77010556D01*
X187813651Y-77018555D01*
X187811698Y-77026431D01*
X187809310Y-77034182D01*
X187806489Y-77041810D01*
X187803233Y-77049313D01*
X187799543Y-77056692D01*
X187795420Y-77063948D01*
X187790862Y-77071079D01*
X187785870Y-77078087D01*
X187780444Y-77084970D01*
X187774584Y-77091729D01*
X187768289Y-77098365D01*
X187761561Y-77104876D01*
X187754430Y-77111139D01*
X187746927Y-77117025D01*
X187739051Y-77122532D01*
X187730804Y-77127655D01*
X187722184Y-77132391D01*
X187713192Y-77136735D01*
X187703829Y-77140683D01*
X187694093Y-77144233D01*
X187683985Y-77147379D01*
X187673505Y-77150119D01*
X187662653Y-77152447D01*
X187651429Y-77154361D01*
X187639832Y-77155857D01*
X187627864Y-77156930D01*
X187615524Y-77157576D01*
X187602812Y-77157793D01*
X187602812Y-77160437D01*
X187596456Y-77160344D01*
X187590281Y-77160065D01*
X187584285Y-77159600D01*
X187578463Y-77158949D01*
X187572811Y-77158112D01*
X187567327Y-77157088D01*
X187562005Y-77155879D01*
X187556841Y-77154484D01*
X187551833Y-77152903D01*
X187546976Y-77151135D01*
X187542267Y-77149182D01*
X187537700Y-77147043D01*
X187533274Y-77144717D01*
X187528982Y-77142206D01*
X187524823Y-77139508D01*
X187520792Y-77136625D01*
X187516885Y-77133587D01*
X187513102Y-77130429D01*
X187509444Y-77127154D01*
X187505909Y-77123767D01*
X187502498Y-77120272D01*
X187499212Y-77116672D01*
X187496049Y-77112972D01*
X187493010Y-77109174D01*
X187490096Y-77105283D01*
X187487305Y-77101304D01*
X187484639Y-77097239D01*
X187482096Y-77093093D01*
X187479678Y-77088869D01*
X187477383Y-77084571D01*
X187475213Y-77080204D01*
X187473166Y-77075771D01*
X187471244Y-77071305D01*
X187469446Y-77066836D01*
X187467771Y-77062359D01*
X187466221Y-77057870D01*
X187464795Y-77053365D01*
X187463493Y-77048842D01*
X187462314Y-77044295D01*
X187461260Y-77039721D01*
X187460330Y-77035116D01*
X187459524Y-77030476D01*
X187458842Y-77025797D01*
X187458284Y-77021076D01*
X187457849Y-77016308D01*
X187457539Y-77011490D01*
X187457353Y-77006618D01*
X187457291Y-77001687D01*
X187457477Y-76993346D01*
X187458030Y-76985182D01*
X187458948Y-76977189D01*
X187460227Y-76969359D01*
X187461861Y-76961684D01*
X187463849Y-76954156D01*
X187466185Y-76946767D01*
X187468867Y-76939511D01*
X187471889Y-76932378D01*
X187475249Y-76925362D01*
X187478942Y-76918454D01*
X187482964Y-76911647D01*
X187487312Y-76904933D01*
X187491982Y-76898304D01*
X187496969Y-76891753D01*
X187502270Y-76885272D01*
X187507881Y-76879475D01*
X187513794Y-76873996D01*
X187520002Y-76868842D01*
X187526496Y-76864022D01*
X187533270Y-76859543D01*
X187540314Y-76855413D01*
X187547623Y-76851639D01*
X187555187Y-76848230D01*
X187562999Y-76845193D01*
X187571051Y-76842535D01*
X187579336Y-76840265D01*
X187587846Y-76838391D01*
X187596573Y-76836919D01*
X187605509Y-76835858D01*
X187614647Y-76835216D01*
X187623978Y-76835000D01*
X187635728Y-76835186D01*
G37*
G36*
X195716856Y-114897526D02*
G01*
X195722534Y-114897927D01*
X195728165Y-114898692D01*
X195733727Y-114899834D01*
X195739195Y-114901363D01*
X195744548Y-114903291D01*
X195749761Y-114905630D01*
X195754811Y-114908391D01*
X195759676Y-114911055D01*
X195764340Y-114914071D01*
X195768787Y-114917420D01*
X195773001Y-114921083D01*
X195776967Y-114925041D01*
X195780670Y-114929274D01*
X195784093Y-114933763D01*
X195787222Y-114938488D01*
X195790041Y-114943430D01*
X195792535Y-114948570D01*
X195794687Y-114953888D01*
X195796483Y-114959365D01*
X195797906Y-114964982D01*
X195798942Y-114970719D01*
X195799576Y-114976556D01*
X195799790Y-114982475D01*
X195873873Y-117972266D01*
X195874278Y-117975708D01*
X195874504Y-117979087D01*
X195874559Y-117982405D01*
X195874452Y-117985661D01*
X195874190Y-117988854D01*
X195873780Y-117991986D01*
X195873231Y-117995055D01*
X195872550Y-117998063D01*
X195871745Y-118001009D01*
X195870824Y-118003892D01*
X195869795Y-118006714D01*
X195868664Y-118009473D01*
X195867441Y-118012171D01*
X195866132Y-118014806D01*
X195864746Y-118017380D01*
X195863290Y-118019891D01*
X195861213Y-118023331D01*
X195858954Y-118026697D01*
X195856517Y-118029978D01*
X195853905Y-118033162D01*
X195851123Y-118036237D01*
X195848174Y-118039192D01*
X195845063Y-118042016D01*
X195841792Y-118044696D01*
X195838367Y-118047221D01*
X195834790Y-118049579D01*
X195831066Y-118051759D01*
X195827199Y-118053749D01*
X195823192Y-118055538D01*
X195819049Y-118057114D01*
X195814775Y-118058464D01*
X195810373Y-118059579D01*
X195717769Y-118083391D01*
X195712779Y-118084259D01*
X195707743Y-118084879D01*
X195702677Y-118085251D01*
X195697594Y-118085376D01*
X195692512Y-118085251D01*
X195687445Y-118084879D01*
X195682409Y-118084259D01*
X195677420Y-118083391D01*
X195672492Y-118082275D01*
X195667642Y-118080911D01*
X195662886Y-118079298D01*
X195658237Y-118077438D01*
X195653713Y-118075330D01*
X195649328Y-118072973D01*
X195645099Y-118070369D01*
X195641039Y-118067516D01*
X195637165Y-118064418D01*
X195633484Y-118061088D01*
X195630005Y-118057540D01*
X195626735Y-118053791D01*
X195623683Y-118049856D01*
X195620855Y-118045750D01*
X195618259Y-118041489D01*
X195615904Y-118037089D01*
X195613797Y-118032565D01*
X195611946Y-118027932D01*
X195610358Y-118023206D01*
X195609041Y-118018403D01*
X195608004Y-118013538D01*
X195607254Y-118008626D01*
X195606797Y-118003683D01*
X195606644Y-117998725D01*
X195586717Y-117134323D01*
X195572692Y-116717175D01*
X195556373Y-116328212D01*
X195538069Y-115981044D01*
X195518091Y-115689284D01*
X195496749Y-115466543D01*
X195485663Y-115385309D01*
X195474352Y-115326433D01*
X195447098Y-115337700D01*
X195415436Y-115354188D01*
X195380108Y-115375226D01*
X195341854Y-115400144D01*
X195301414Y-115428271D01*
X195259528Y-115458936D01*
X195216937Y-115491470D01*
X195174381Y-115525201D01*
X195132600Y-115559459D01*
X195092334Y-115593574D01*
X195054324Y-115626875D01*
X195019310Y-115658692D01*
X194988032Y-115688353D01*
X194961231Y-115715189D01*
X194939647Y-115738530D01*
X194924019Y-115757704D01*
X194918159Y-115888905D01*
X194917818Y-116129650D01*
X194929972Y-116844149D01*
X194979581Y-118535829D01*
X194979737Y-118539789D01*
X194979710Y-118543728D01*
X194979504Y-118547641D01*
X194979122Y-118551523D01*
X194978567Y-118555368D01*
X194977843Y-118559170D01*
X194976954Y-118562925D01*
X194975902Y-118566628D01*
X194974692Y-118570272D01*
X194973325Y-118573853D01*
X194971807Y-118577364D01*
X194970140Y-118580802D01*
X194968328Y-118584161D01*
X194966374Y-118587434D01*
X194964281Y-118590618D01*
X194962053Y-118593706D01*
X194959693Y-118596693D01*
X194957205Y-118599574D01*
X194954592Y-118602344D01*
X194951857Y-118604997D01*
X194949004Y-118607528D01*
X194946036Y-118609932D01*
X194942957Y-118612202D01*
X194939770Y-118614335D01*
X194936478Y-118616324D01*
X194933085Y-118618165D01*
X194929594Y-118619852D01*
X194926009Y-118621379D01*
X194922332Y-118622741D01*
X194918568Y-118623934D01*
X194914719Y-118624951D01*
X194910790Y-118625787D01*
X194730873Y-118662829D01*
X194725913Y-118663667D01*
X194720961Y-118664203D01*
X194716025Y-118664445D01*
X194711112Y-118664399D01*
X194706230Y-118664075D01*
X194701387Y-118663479D01*
X194696590Y-118662620D01*
X194691847Y-118661505D01*
X194687166Y-118660142D01*
X194682556Y-118658539D01*
X194678022Y-118656703D01*
X194673574Y-118654643D01*
X194669219Y-118652365D01*
X194664965Y-118649878D01*
X194660819Y-118647190D01*
X194656790Y-118644307D01*
X194653381Y-118640773D01*
X194650108Y-118637119D01*
X194646982Y-118633349D01*
X194644015Y-118629466D01*
X194641219Y-118625475D01*
X194638605Y-118621379D01*
X194636185Y-118617182D01*
X194633970Y-118612888D01*
X194631972Y-118608502D01*
X194630202Y-118604026D01*
X194628673Y-118599465D01*
X194627396Y-118594822D01*
X194626383Y-118590102D01*
X194625644Y-118585309D01*
X194625193Y-118580445D01*
X194625040Y-118575516D01*
X194621566Y-118353266D01*
X194802311Y-118353266D01*
X194802311Y-118467037D01*
X194804956Y-118467037D01*
X194804843Y-118455637D01*
X194804543Y-118443307D01*
X194803634Y-118416104D01*
X194802724Y-118385925D01*
X194802424Y-118369875D01*
X194802311Y-118353266D01*
X194621566Y-118353266D01*
X194613299Y-117824347D01*
X194594613Y-117029026D01*
X194569973Y-116346815D01*
X194555731Y-116097269D01*
X194540373Y-115934974D01*
X194512086Y-115947415D01*
X194479276Y-115964549D01*
X194442629Y-115985861D01*
X194402831Y-116010836D01*
X194360568Y-116038957D01*
X194316526Y-116069711D01*
X194271391Y-116102580D01*
X194225850Y-116137050D01*
X194180587Y-116172606D01*
X194136289Y-116208731D01*
X194093643Y-116244910D01*
X194053333Y-116280628D01*
X194016047Y-116315369D01*
X193982469Y-116348619D01*
X193953287Y-116379860D01*
X193929186Y-116408579D01*
X193917541Y-116450203D01*
X193908334Y-116518210D01*
X193896816Y-116725541D01*
X193893793Y-117014914D01*
X193898428Y-117370670D01*
X193927325Y-118218701D01*
X193976811Y-119144370D01*
X193977005Y-119147339D01*
X193977092Y-119150291D01*
X193977073Y-119153224D01*
X193976950Y-119156137D01*
X193976725Y-119159029D01*
X193976398Y-119161898D01*
X193975971Y-119164743D01*
X193975446Y-119167563D01*
X193974825Y-119170355D01*
X193974107Y-119173118D01*
X193973296Y-119175852D01*
X193972392Y-119178554D01*
X193971398Y-119181223D01*
X193970313Y-119183858D01*
X193967881Y-119189019D01*
X193965108Y-119194024D01*
X193962005Y-119198863D01*
X193958585Y-119203523D01*
X193954859Y-119207994D01*
X193950838Y-119212263D01*
X193946534Y-119216319D01*
X193941958Y-119220150D01*
X193937123Y-119223745D01*
X193833936Y-119289891D01*
X193828885Y-119293177D01*
X193823668Y-119296087D01*
X193818303Y-119298617D01*
X193812810Y-119300764D01*
X193807209Y-119302523D01*
X193801519Y-119303890D01*
X193795759Y-119304862D01*
X193789949Y-119305435D01*
X193784107Y-119305605D01*
X193778254Y-119305368D01*
X193772409Y-119304720D01*
X193766591Y-119303658D01*
X193760819Y-119302177D01*
X193755114Y-119300273D01*
X193749493Y-119297943D01*
X193743977Y-119295183D01*
X193738646Y-119292054D01*
X193733575Y-119288630D01*
X193728775Y-119284927D01*
X193724258Y-119280961D01*
X193720035Y-119276747D01*
X193716119Y-119272300D01*
X193712520Y-119267637D01*
X193709251Y-119262771D01*
X193706323Y-119257720D01*
X193703747Y-119252498D01*
X193701536Y-119247121D01*
X193699701Y-119241605D01*
X193698253Y-119235964D01*
X193697205Y-119230215D01*
X193696567Y-119224373D01*
X193696352Y-119218454D01*
X193673160Y-118444134D01*
X193641782Y-117625661D01*
X193605939Y-116930221D01*
X193587506Y-116680882D01*
X193569352Y-116524995D01*
X193550928Y-116532395D01*
X193529484Y-116542653D01*
X193505164Y-116555708D01*
X193478112Y-116571504D01*
X193416385Y-116611083D01*
X193345449Y-116660924D01*
X193266451Y-116720564D01*
X193180539Y-116789537D01*
X193088860Y-116867377D01*
X192992561Y-116953620D01*
X192977113Y-116997188D01*
X192963482Y-117068011D01*
X192941504Y-117283357D01*
X192926286Y-117583535D01*
X192917485Y-117952422D01*
X192914762Y-118373895D01*
X192917775Y-118831831D01*
X192939644Y-119792599D01*
X192939986Y-119797528D01*
X192940021Y-119802392D01*
X192939754Y-119807185D01*
X192939189Y-119811905D01*
X192938330Y-119816547D01*
X192937179Y-119821108D01*
X192935742Y-119825584D01*
X192934022Y-119829971D01*
X192932022Y-119834264D01*
X192929748Y-119838461D01*
X192927202Y-119842557D01*
X192924389Y-119846548D01*
X192921312Y-119850431D01*
X192917976Y-119854201D01*
X192914384Y-119857856D01*
X192910540Y-119861389D01*
X192906976Y-119864738D01*
X192903238Y-119867834D01*
X192899337Y-119870674D01*
X192895285Y-119873255D01*
X192891093Y-119875572D01*
X192886774Y-119877622D01*
X192882338Y-119879400D01*
X192877798Y-119880904D01*
X192873164Y-119882128D01*
X192868449Y-119883069D01*
X192863665Y-119883723D01*
X192858822Y-119884087D01*
X192853933Y-119884156D01*
X192849009Y-119883927D01*
X192844061Y-119883395D01*
X192839102Y-119882557D01*
X192839103Y-119887850D01*
X192725332Y-119869329D01*
X192721395Y-119868500D01*
X192717524Y-119867505D01*
X192713722Y-119866349D01*
X192709994Y-119865035D01*
X192706344Y-119863567D01*
X192702775Y-119861951D01*
X192699291Y-119860191D01*
X192695897Y-119858291D01*
X192692595Y-119856255D01*
X192689391Y-119854088D01*
X192686287Y-119851793D01*
X192683288Y-119849377D01*
X192680397Y-119846842D01*
X192677619Y-119844193D01*
X192674957Y-119841434D01*
X192672415Y-119838571D01*
X192669997Y-119835607D01*
X192667707Y-119832546D01*
X192665549Y-119829394D01*
X192663527Y-119826153D01*
X192661644Y-119822829D01*
X192659904Y-119819427D01*
X192658312Y-119815950D01*
X192656871Y-119812402D01*
X192655585Y-119808789D01*
X192654458Y-119805114D01*
X192653493Y-119801382D01*
X192652695Y-119797597D01*
X192652068Y-119793763D01*
X192651615Y-119789886D01*
X192651341Y-119785969D01*
X192651249Y-119782016D01*
X192628613Y-116982724D01*
X192802061Y-116982724D01*
X192805037Y-116968826D01*
X192808014Y-116955878D01*
X192810990Y-116943837D01*
X192813967Y-116932660D01*
X192816944Y-116922305D01*
X192819920Y-116912728D01*
X192822897Y-116903888D01*
X192825873Y-116895742D01*
X192828850Y-116888247D01*
X192831826Y-116881361D01*
X192834803Y-116875040D01*
X192837779Y-116869243D01*
X192840756Y-116863926D01*
X192843733Y-116859047D01*
X192846709Y-116854564D01*
X192849686Y-116850433D01*
X192802061Y-116879537D01*
X192802061Y-116982724D01*
X192628613Y-116982724D01*
X192627436Y-116837204D01*
X192627482Y-116834235D01*
X192627621Y-116831284D01*
X192627850Y-116828353D01*
X192628170Y-116825442D01*
X192628579Y-116822555D01*
X192629075Y-116819693D01*
X192629660Y-116816858D01*
X192630330Y-116814053D01*
X192631085Y-116811278D01*
X192631925Y-116808536D01*
X192633854Y-116803159D01*
X192634941Y-116800528D01*
X192636109Y-116797937D01*
X192637355Y-116795389D01*
X192638681Y-116792886D01*
X192640084Y-116790429D01*
X192641563Y-116788021D01*
X192643118Y-116785662D01*
X192644748Y-116783357D01*
X192646451Y-116781105D01*
X192648227Y-116778910D01*
X192650074Y-116776773D01*
X192651993Y-116774696D01*
X192653981Y-116772681D01*
X192656038Y-116770730D01*
X192658162Y-116768844D01*
X192660354Y-116767027D01*
X192662611Y-116765279D01*
X192664934Y-116763603D01*
X192667320Y-116762001D01*
X192669769Y-116760475D01*
X193324987Y-116355662D01*
X193651373Y-116355662D01*
X193656738Y-116357739D01*
X193661920Y-116360003D01*
X193666924Y-116362452D01*
X193671754Y-116365088D01*
X193676414Y-116367909D01*
X193680906Y-116370917D01*
X193685236Y-116374110D01*
X193689407Y-116377490D01*
X193693423Y-116381056D01*
X193697288Y-116384807D01*
X193701005Y-116388745D01*
X193704579Y-116392869D01*
X193708014Y-116397179D01*
X193711312Y-116401674D01*
X193714480Y-116406356D01*
X193717519Y-116411224D01*
X193717519Y-116411225D01*
X193719617Y-116415689D01*
X193721901Y-116421146D01*
X193724309Y-116427595D01*
X193726780Y-116435037D01*
X193729250Y-116443471D01*
X193731658Y-116452896D01*
X193733942Y-116463314D01*
X193736040Y-116474725D01*
X193739046Y-116452533D01*
X193740570Y-116442257D01*
X193742107Y-116432505D01*
X193743655Y-116423261D01*
X193745214Y-116414507D01*
X193746782Y-116406229D01*
X193748360Y-116398409D01*
X193749945Y-116391031D01*
X193751536Y-116384078D01*
X193753134Y-116377534D01*
X193754736Y-116371382D01*
X193756343Y-116365607D01*
X193757952Y-116360191D01*
X193759563Y-116355117D01*
X193761175Y-116350371D01*
X193762787Y-116345934D01*
X193764399Y-116341791D01*
X193766008Y-116337925D01*
X193767614Y-116334320D01*
X193769217Y-116330959D01*
X193770814Y-116327826D01*
X193773991Y-116322176D01*
X193777137Y-116317240D01*
X193780244Y-116312885D01*
X193783304Y-116308979D01*
X193786311Y-116305392D01*
X193814092Y-116272649D01*
X193822277Y-116263301D01*
X193830959Y-116253674D01*
X193840137Y-116243860D01*
X193849811Y-116233954D01*
X193651373Y-116355662D01*
X193324987Y-116355662D01*
X194288544Y-115760349D01*
X194622394Y-115760349D01*
X194625084Y-115761124D01*
X194627698Y-115761957D01*
X194630237Y-115762845D01*
X194632703Y-115763785D01*
X194635098Y-115764774D01*
X194637422Y-115765808D01*
X194639677Y-115766883D01*
X194641865Y-115767997D01*
X194643988Y-115769145D01*
X194646045Y-115770326D01*
X194649974Y-115772767D01*
X194653661Y-115775293D01*
X194657120Y-115777877D01*
X194660362Y-115780493D01*
X194663399Y-115783112D01*
X194666242Y-115785708D01*
X194668903Y-115788254D01*
X194677956Y-115797390D01*
X194685899Y-115807364D01*
X194693873Y-115822609D01*
X194701908Y-115847899D01*
X194710037Y-115888010D01*
X194718290Y-115947717D01*
X194726698Y-116031795D01*
X194735291Y-116145018D01*
X194744102Y-116292161D01*
X194743435Y-116240877D01*
X194742916Y-116192627D01*
X194742541Y-116147316D01*
X194742304Y-116104845D01*
X194742198Y-116065118D01*
X194742219Y-116028038D01*
X194742359Y-115993509D01*
X194742614Y-115961432D01*
X194742977Y-115931713D01*
X194743443Y-115904253D01*
X194744006Y-115878955D01*
X194744660Y-115855723D01*
X194745400Y-115834460D01*
X194746218Y-115815069D01*
X194747111Y-115797454D01*
X194748071Y-115781516D01*
X194749093Y-115767160D01*
X194750172Y-115754288D01*
X194751300Y-115742803D01*
X194752474Y-115732609D01*
X194753686Y-115723609D01*
X194754931Y-115715706D01*
X194756203Y-115708803D01*
X194757497Y-115702802D01*
X194758806Y-115697608D01*
X194760125Y-115693123D01*
X194761447Y-115689251D01*
X194762768Y-115685894D01*
X194764081Y-115682955D01*
X194765380Y-115680338D01*
X194767915Y-115675682D01*
X194767938Y-115675412D01*
X194768004Y-115675098D01*
X194768111Y-115674744D01*
X194768256Y-115674354D01*
X194768647Y-115673479D01*
X194769155Y-115672499D01*
X194769756Y-115671442D01*
X194770426Y-115670334D01*
X194771143Y-115669203D01*
X194771884Y-115668076D01*
X194773341Y-115665942D01*
X194774612Y-115664148D01*
X194775852Y-115662453D01*
X194622394Y-115757704D01*
X194622394Y-115760349D01*
X194288544Y-115760349D01*
X195252099Y-115165037D01*
X195582832Y-115165037D01*
X195586273Y-115167060D01*
X195589653Y-115169191D01*
X195592970Y-115171478D01*
X195596226Y-115173966D01*
X195599420Y-115176702D01*
X195602551Y-115179733D01*
X195605621Y-115183105D01*
X195608628Y-115186865D01*
X195611574Y-115191058D01*
X195614458Y-115195732D01*
X195617279Y-115200934D01*
X195620039Y-115206708D01*
X195622736Y-115213103D01*
X195625372Y-115220165D01*
X195627945Y-115227940D01*
X195630457Y-115236474D01*
X195630457Y-115135933D01*
X195582832Y-115165037D01*
X195252099Y-115165037D01*
X195667498Y-114908391D01*
X195672548Y-114906037D01*
X195677761Y-114903942D01*
X195683113Y-114902119D01*
X195688582Y-114900578D01*
X195694144Y-114899332D01*
X195699775Y-114898392D01*
X195705453Y-114897770D01*
X195711154Y-114897477D01*
X195716856Y-114897526D01*
G37*
G36*
X186082625Y-76835186D02*
G01*
X186094057Y-76835739D01*
X186105164Y-76836657D01*
X186115937Y-76837936D01*
X186126369Y-76839571D01*
X186136453Y-76841558D01*
X186146179Y-76843895D01*
X186155542Y-76846576D01*
X186164532Y-76849599D01*
X186173143Y-76852958D01*
X186181366Y-76856651D01*
X186189194Y-76860674D01*
X186196618Y-76865022D01*
X186203632Y-76869691D01*
X186210227Y-76874678D01*
X186216396Y-76879980D01*
X186222163Y-76885964D01*
X186227558Y-76892015D01*
X186232581Y-76898135D01*
X186237232Y-76904329D01*
X186241511Y-76910601D01*
X186245417Y-76916954D01*
X186248952Y-76923392D01*
X186252114Y-76929920D01*
X186254905Y-76936540D01*
X186257323Y-76943257D01*
X186259370Y-76950076D01*
X186261044Y-76956998D01*
X186262346Y-76964030D01*
X186263276Y-76971173D01*
X186263835Y-76978433D01*
X186264021Y-76985814D01*
X186263804Y-76994185D01*
X186263152Y-77002432D01*
X186262067Y-77010556D01*
X186260548Y-77018555D01*
X186258595Y-77026431D01*
X186256207Y-77034182D01*
X186253386Y-77041810D01*
X186250130Y-77049313D01*
X186246441Y-77056692D01*
X186242317Y-77063948D01*
X186237759Y-77071079D01*
X186232767Y-77078087D01*
X186227341Y-77084970D01*
X186221481Y-77091729D01*
X186215187Y-77098365D01*
X186208459Y-77104876D01*
X186201327Y-77111139D01*
X186193824Y-77117025D01*
X186185948Y-77122532D01*
X186177701Y-77127655D01*
X186169081Y-77132391D01*
X186160090Y-77136735D01*
X186150726Y-77140683D01*
X186140990Y-77144233D01*
X186130882Y-77147379D01*
X186120402Y-77150119D01*
X186109550Y-77152447D01*
X186098326Y-77154361D01*
X186086730Y-77155857D01*
X186074762Y-77156930D01*
X186062421Y-77157576D01*
X186049709Y-77157793D01*
X186049709Y-77160437D01*
X186043352Y-77160344D01*
X186037177Y-77160065D01*
X186031181Y-77159600D01*
X186025359Y-77158949D01*
X186019707Y-77158112D01*
X186014222Y-77157088D01*
X186008900Y-77155879D01*
X186003737Y-77154484D01*
X185998729Y-77152903D01*
X185993872Y-77151135D01*
X185989163Y-77149182D01*
X185984596Y-77147043D01*
X185980170Y-77144717D01*
X185975879Y-77142206D01*
X185971720Y-77139508D01*
X185967688Y-77136625D01*
X185963781Y-77133587D01*
X185959999Y-77130429D01*
X185956340Y-77127154D01*
X185952805Y-77123767D01*
X185949395Y-77120272D01*
X185946108Y-77116672D01*
X185942945Y-77112972D01*
X185939907Y-77109174D01*
X185936992Y-77105283D01*
X185934202Y-77101304D01*
X185931535Y-77097239D01*
X185928993Y-77093093D01*
X185926574Y-77088869D01*
X185924280Y-77084571D01*
X185922109Y-77080204D01*
X185920063Y-77075771D01*
X185918140Y-77071305D01*
X185916342Y-77066836D01*
X185914668Y-77062359D01*
X185913117Y-77057870D01*
X185911691Y-77053365D01*
X185910389Y-77048842D01*
X185909210Y-77044295D01*
X185908156Y-77039721D01*
X185907226Y-77035116D01*
X185906420Y-77030476D01*
X185905738Y-77025797D01*
X185905180Y-77021076D01*
X185904746Y-77016308D01*
X185904436Y-77011490D01*
X185904250Y-77006618D01*
X185904188Y-77001687D01*
X185904373Y-76993346D01*
X185904927Y-76985182D01*
X185905845Y-76977189D01*
X185907123Y-76969359D01*
X185908758Y-76961684D01*
X185910746Y-76954156D01*
X185913082Y-76946767D01*
X185915763Y-76939511D01*
X185918786Y-76932378D01*
X185922145Y-76925362D01*
X185925838Y-76918454D01*
X185929861Y-76911647D01*
X185934209Y-76904933D01*
X185938878Y-76898304D01*
X185943866Y-76891753D01*
X185949167Y-76885272D01*
X185954778Y-76879475D01*
X185960691Y-76873996D01*
X185966898Y-76868842D01*
X185973393Y-76864022D01*
X185980166Y-76859543D01*
X185987211Y-76855413D01*
X185994520Y-76851639D01*
X186002084Y-76848230D01*
X186009896Y-76845193D01*
X186017948Y-76842535D01*
X186026233Y-76840265D01*
X186034743Y-76838391D01*
X186043470Y-76836919D01*
X186052406Y-76835858D01*
X186061544Y-76835216D01*
X186070875Y-76835000D01*
X186082625Y-76835186D01*
G37*
G36*
X185724074Y-75903821D02*
G01*
X185734399Y-75904282D01*
X185744662Y-75905045D01*
X185754863Y-75906106D01*
X185765002Y-75907462D01*
X185775079Y-75909108D01*
X185785094Y-75911042D01*
X185795046Y-75913258D01*
X185804937Y-75915753D01*
X185814766Y-75918524D01*
X185824533Y-75921566D01*
X185834238Y-75924875D01*
X185843881Y-75928448D01*
X185853462Y-75932280D01*
X185862980Y-75936368D01*
X185872437Y-75940709D01*
X185881274Y-75945328D01*
X185889925Y-75950258D01*
X185898389Y-75955498D01*
X185906668Y-75961048D01*
X185914760Y-75966908D01*
X185922667Y-75973079D01*
X185930387Y-75979559D01*
X185937922Y-75986349D01*
X185945270Y-75993449D01*
X185952433Y-76000860D01*
X185959409Y-76008580D01*
X185966199Y-76016611D01*
X185972803Y-76024951D01*
X185979221Y-76033602D01*
X185985454Y-76042563D01*
X185991500Y-76051834D01*
X185997237Y-76061385D01*
X186002548Y-76071192D01*
X186007441Y-76081262D01*
X186011922Y-76091604D01*
X186016001Y-76102225D01*
X186019684Y-76113132D01*
X186022980Y-76124334D01*
X186025896Y-76135839D01*
X186028439Y-76147653D01*
X186030619Y-76159786D01*
X186032442Y-76172243D01*
X186033916Y-76185035D01*
X186035049Y-76198167D01*
X186035848Y-76211648D01*
X186036322Y-76225485D01*
X186036479Y-76239687D01*
X186036294Y-76250105D01*
X186035745Y-76260518D01*
X186034839Y-76270924D01*
X186033585Y-76281318D01*
X186031989Y-76291696D01*
X186030061Y-76302055D01*
X186027806Y-76312391D01*
X186025234Y-76322700D01*
X186022352Y-76332978D01*
X186019167Y-76343221D01*
X186015688Y-76353425D01*
X186011922Y-76363587D01*
X186007877Y-76373702D01*
X186003561Y-76383766D01*
X185998982Y-76393777D01*
X185994146Y-76403729D01*
X185988564Y-76413649D01*
X185982731Y-76423562D01*
X185976641Y-76433460D01*
X185970292Y-76443334D01*
X185963679Y-76453177D01*
X185956799Y-76462981D01*
X185949648Y-76472739D01*
X185942221Y-76482442D01*
X185934516Y-76492084D01*
X185926527Y-76501656D01*
X185918252Y-76511150D01*
X185909686Y-76520559D01*
X185900825Y-76529875D01*
X185891667Y-76539090D01*
X185882205Y-76548197D01*
X185872438Y-76557188D01*
X185853090Y-76576034D01*
X185832750Y-76594849D01*
X185811418Y-76613602D01*
X185789094Y-76632263D01*
X185765778Y-76650799D01*
X185741469Y-76669181D01*
X185716168Y-76687376D01*
X185689875Y-76705354D01*
X185662947Y-76723095D01*
X185635677Y-76740618D01*
X185607973Y-76757956D01*
X185579742Y-76775138D01*
X185550891Y-76792196D01*
X185521327Y-76809162D01*
X185490957Y-76826065D01*
X185459687Y-76842938D01*
X185499334Y-76842814D01*
X185520568Y-76842519D01*
X185542701Y-76841946D01*
X185565702Y-76841000D01*
X185589540Y-76839589D01*
X185614185Y-76837620D01*
X185639604Y-76835000D01*
X185752383Y-76826732D01*
X185815593Y-76821978D01*
X185883021Y-76816480D01*
X185856562Y-77059896D01*
X185836212Y-77061767D01*
X185814808Y-77063451D01*
X185768588Y-77066511D01*
X185660771Y-77073125D01*
X185420000Y-77089000D01*
X185136896Y-77110168D01*
X185134250Y-77107521D01*
X185163355Y-76895853D01*
X185164035Y-76889403D01*
X185165080Y-76882945D01*
X185166482Y-76876471D01*
X185168233Y-76869974D01*
X185170324Y-76863446D01*
X185172749Y-76856879D01*
X185175500Y-76850266D01*
X185178568Y-76843599D01*
X185181946Y-76836869D01*
X185185627Y-76830070D01*
X185189602Y-76823193D01*
X185193864Y-76816231D01*
X185198405Y-76809176D01*
X185203217Y-76802020D01*
X185208293Y-76794756D01*
X185213625Y-76787375D01*
X185225785Y-76772606D01*
X185238471Y-76758022D01*
X185251716Y-76743563D01*
X185265550Y-76729166D01*
X185280004Y-76714769D01*
X185295109Y-76700310D01*
X185310896Y-76685727D01*
X185327396Y-76670958D01*
X185344263Y-76656205D01*
X185361131Y-76641730D01*
X185377998Y-76627566D01*
X185394865Y-76613742D01*
X185411732Y-76600291D01*
X185428600Y-76587243D01*
X185445467Y-76574629D01*
X185462334Y-76562479D01*
X185480069Y-76549472D01*
X185497557Y-76536310D01*
X185531787Y-76509893D01*
X185565025Y-76483972D01*
X185597271Y-76459292D01*
X185612774Y-76447391D01*
X185627533Y-76435521D01*
X185641548Y-76423713D01*
X185654818Y-76411998D01*
X185667345Y-76400407D01*
X185679127Y-76388971D01*
X185690165Y-76377721D01*
X185700459Y-76366687D01*
X185705265Y-76361292D01*
X185709760Y-76356016D01*
X185713946Y-76350857D01*
X185717822Y-76345810D01*
X185721388Y-76340872D01*
X185724643Y-76336038D01*
X185727589Y-76331305D01*
X185730224Y-76326669D01*
X185732550Y-76322126D01*
X185734565Y-76317672D01*
X185736270Y-76313304D01*
X185737665Y-76309016D01*
X185738751Y-76304807D01*
X185739526Y-76300671D01*
X185739991Y-76296604D01*
X185740146Y-76292604D01*
X185740083Y-76286278D01*
X185739893Y-76280191D01*
X185739570Y-76274338D01*
X185739112Y-76268709D01*
X185738515Y-76263297D01*
X185737774Y-76258095D01*
X185736886Y-76253094D01*
X185735847Y-76248287D01*
X185734652Y-76243666D01*
X185733299Y-76239223D01*
X185731783Y-76234950D01*
X185730100Y-76230841D01*
X185728247Y-76226886D01*
X185726219Y-76223079D01*
X185724014Y-76219411D01*
X185721626Y-76215875D01*
X185719114Y-76212526D01*
X185716540Y-76209421D01*
X185713905Y-76206556D01*
X185711207Y-76203927D01*
X185708448Y-76201531D01*
X185705626Y-76199364D01*
X185702743Y-76197422D01*
X185699797Y-76195700D01*
X185696790Y-76194196D01*
X185693720Y-76192905D01*
X185690588Y-76191823D01*
X185687395Y-76190946D01*
X185684139Y-76190271D01*
X185680822Y-76189794D01*
X185677442Y-76189510D01*
X185674000Y-76189416D01*
X185667179Y-76189572D01*
X185660606Y-76190042D01*
X185654281Y-76190829D01*
X185648204Y-76191938D01*
X185642374Y-76193373D01*
X185636793Y-76195137D01*
X185631460Y-76197234D01*
X185626375Y-76199669D01*
X185621539Y-76202445D01*
X185616950Y-76205565D01*
X185612609Y-76209035D01*
X185608516Y-76212857D01*
X185604671Y-76217036D01*
X185601075Y-76221575D01*
X185597726Y-76226478D01*
X185594626Y-76231750D01*
X185591742Y-76237208D01*
X185589045Y-76242674D01*
X185586533Y-76248156D01*
X185584208Y-76253661D01*
X185582068Y-76259196D01*
X185580115Y-76264771D01*
X185578348Y-76270392D01*
X185576766Y-76276067D01*
X185575371Y-76281805D01*
X185574162Y-76287612D01*
X185573138Y-76293496D01*
X185572301Y-76299466D01*
X185571650Y-76305529D01*
X185571185Y-76311693D01*
X185570906Y-76317965D01*
X185570813Y-76324354D01*
X185570813Y-76348166D01*
X185559320Y-76348207D01*
X185553791Y-76348306D01*
X185548323Y-76348497D01*
X185542856Y-76348812D01*
X185537327Y-76349282D01*
X185531673Y-76349939D01*
X185525834Y-76350812D01*
X185519881Y-76350931D01*
X185513928Y-76351267D01*
X185507974Y-76351789D01*
X185502021Y-76352466D01*
X185496068Y-76353267D01*
X185490115Y-76354161D01*
X185478209Y-76356104D01*
X185467832Y-76356146D01*
X185462349Y-76356244D01*
X185456711Y-76356435D01*
X185450949Y-76356750D01*
X185445095Y-76357220D01*
X185439178Y-76357877D01*
X185433230Y-76358750D01*
X185427277Y-76358869D01*
X185421323Y-76359205D01*
X185415370Y-76359727D01*
X185409417Y-76360404D01*
X185403464Y-76361205D01*
X185397511Y-76362099D01*
X185385605Y-76364042D01*
X185332688Y-76369334D01*
X185326621Y-76369453D01*
X185320368Y-76369788D01*
X185313991Y-76370310D01*
X185307552Y-76370987D01*
X185301113Y-76371788D01*
X185294736Y-76372682D01*
X185282417Y-76374626D01*
X185282417Y-76321708D01*
X185282571Y-76309398D01*
X185283031Y-76297270D01*
X185283794Y-76285321D01*
X185284856Y-76273546D01*
X185286211Y-76261941D01*
X185287858Y-76250503D01*
X185289791Y-76239228D01*
X185292008Y-76228112D01*
X185294503Y-76217151D01*
X185297273Y-76206341D01*
X185300315Y-76195678D01*
X185303624Y-76185159D01*
X185307197Y-76174779D01*
X185311030Y-76164534D01*
X185315118Y-76154422D01*
X185319458Y-76144437D01*
X185324482Y-76134638D01*
X185329638Y-76125079D01*
X185334934Y-76115753D01*
X185340377Y-76106652D01*
X185345975Y-76097767D01*
X185351735Y-76089092D01*
X185357666Y-76080618D01*
X185363776Y-76072338D01*
X185370071Y-76064245D01*
X185376560Y-76056329D01*
X185383251Y-76048584D01*
X185390151Y-76041002D01*
X185397268Y-76033575D01*
X185404610Y-76026295D01*
X185412185Y-76019155D01*
X185419999Y-76012146D01*
X185436009Y-75999506D01*
X185452328Y-75987424D01*
X185460624Y-75981612D01*
X185469020Y-75975962D01*
X185477524Y-75970483D01*
X185486145Y-75965183D01*
X185494890Y-75960068D01*
X185503767Y-75955147D01*
X185512783Y-75950428D01*
X185521947Y-75945918D01*
X185531266Y-75941625D01*
X185540747Y-75937556D01*
X185550399Y-75933721D01*
X185560229Y-75930125D01*
X185569685Y-75926776D01*
X185579194Y-75923671D01*
X185588751Y-75920806D01*
X185598346Y-75918178D01*
X185607972Y-75915782D01*
X185617621Y-75913615D01*
X185627286Y-75911672D01*
X185636958Y-75909951D01*
X185646631Y-75908446D01*
X185656295Y-75907155D01*
X185675571Y-75905197D01*
X185694722Y-75904044D01*
X185713687Y-75903667D01*
X185724074Y-75903821D01*
G37*
G36*
X188071497Y-75982793D02*
G01*
X188050015Y-76035802D01*
X188029123Y-76088874D01*
X188008850Y-76141945D01*
X187989229Y-76194955D01*
X187970289Y-76247841D01*
X187952063Y-76300540D01*
X187803896Y-76729166D01*
X187780042Y-76729208D01*
X187755940Y-76729497D01*
X187743718Y-76729812D01*
X187731342Y-76730282D01*
X187718779Y-76730938D01*
X187706000Y-76731811D01*
X187694089Y-76732044D01*
X187682146Y-76732679D01*
X187670142Y-76733625D01*
X187658044Y-76734788D01*
X187633446Y-76737392D01*
X187620884Y-76738648D01*
X187608104Y-76739748D01*
X187605458Y-76737103D01*
X187658375Y-76530729D01*
X187708646Y-76326999D01*
X187720593Y-76275447D01*
X187732789Y-76224142D01*
X187745481Y-76173334D01*
X187758917Y-76123270D01*
X187811833Y-75919541D01*
X187858466Y-75912099D01*
X187903114Y-75905650D01*
X187945778Y-75900193D01*
X187986458Y-75895728D01*
X188116104Y-75877207D01*
X188071497Y-75982793D01*
G37*
G36*
X181451250Y-77126041D02*
G01*
X181448604Y-77126041D01*
X181451399Y-77125301D01*
X181451250Y-77126041D01*
G37*
G36*
X182099168Y-75901238D02*
G01*
X182114109Y-75901889D01*
X182128421Y-75902974D01*
X182142102Y-75904494D01*
X182155147Y-75906447D01*
X182167552Y-75908834D01*
X182179315Y-75911656D01*
X182190430Y-75914912D01*
X182200894Y-75918601D01*
X182210702Y-75922725D01*
X182219852Y-75927283D01*
X182228340Y-75932275D01*
X182236160Y-75937701D01*
X182243310Y-75943561D01*
X182249786Y-75949855D01*
X182255583Y-75956583D01*
X182261321Y-75963683D01*
X182266632Y-75971089D01*
X182271524Y-75978797D01*
X182276006Y-75986804D01*
X182280085Y-75995105D01*
X182283768Y-76003697D01*
X182287064Y-76012576D01*
X182289979Y-76021737D01*
X182292523Y-76031178D01*
X182294703Y-76040894D01*
X182296525Y-76050881D01*
X182297999Y-76061135D01*
X182299132Y-76071653D01*
X182299932Y-76082431D01*
X182300406Y-76093465D01*
X182300563Y-76104750D01*
X182300408Y-76115198D01*
X182299942Y-76125705D01*
X182299167Y-76136265D01*
X182298082Y-76146876D01*
X182296687Y-76157534D01*
X182294982Y-76168234D01*
X182292966Y-76178973D01*
X182290641Y-76189747D01*
X182288005Y-76200552D01*
X182285060Y-76211384D01*
X182281804Y-76222239D01*
X182278238Y-76233114D01*
X182274363Y-76244004D01*
X182270177Y-76254906D01*
X182265681Y-76265816D01*
X182260875Y-76276729D01*
X182255820Y-76287551D01*
X182250576Y-76298195D01*
X182245138Y-76308669D01*
X182239502Y-76318979D01*
X182233664Y-76329135D01*
X182227621Y-76339143D01*
X182221369Y-76349012D01*
X182214904Y-76358749D01*
X182208221Y-76368362D01*
X182201318Y-76377859D01*
X182194190Y-76387248D01*
X182186833Y-76396535D01*
X182179244Y-76405730D01*
X182171418Y-76414839D01*
X182163352Y-76423871D01*
X182155042Y-76432833D01*
X182147043Y-76441173D01*
X182138924Y-76449323D01*
X182130689Y-76457279D01*
X182122341Y-76465037D01*
X182113885Y-76472594D01*
X182105324Y-76479946D01*
X182096662Y-76487088D01*
X182087904Y-76494018D01*
X182079052Y-76500730D01*
X182070112Y-76507221D01*
X182061086Y-76513487D01*
X182051978Y-76519525D01*
X182042793Y-76525330D01*
X182033535Y-76530899D01*
X182024207Y-76536227D01*
X182014813Y-76541312D01*
X182030688Y-76575584D01*
X182046563Y-76611096D01*
X182062438Y-76648096D01*
X182078313Y-76686833D01*
X182095676Y-76726024D01*
X182112047Y-76764223D01*
X182127426Y-76801430D01*
X182141813Y-76837645D01*
X182176209Y-76922311D01*
X182210604Y-77006978D01*
X181951313Y-77096937D01*
X181943375Y-77067667D01*
X181935438Y-77039389D01*
X181927500Y-77012105D01*
X181919563Y-76985813D01*
X181890458Y-76879979D01*
X181882521Y-76848724D01*
X181874584Y-76818463D01*
X181866646Y-76789193D01*
X181858709Y-76760916D01*
X181832250Y-76657729D01*
X181829511Y-76647187D01*
X181827206Y-76637389D01*
X181825274Y-76628335D01*
X181823651Y-76620025D01*
X181819021Y-76594228D01*
X181797854Y-76602165D01*
X181794878Y-76615549D01*
X181791901Y-76629863D01*
X181785948Y-76661035D01*
X181779995Y-76695183D01*
X181774042Y-76731811D01*
X181767675Y-76769473D01*
X181760813Y-76806887D01*
X181753950Y-76843805D01*
X181747583Y-76879979D01*
X181718479Y-77054603D01*
X181451399Y-77125301D01*
X181538563Y-76692125D01*
X181559729Y-76569755D01*
X181570561Y-76506834D01*
X181580896Y-76443417D01*
X181589042Y-76398437D01*
X181842834Y-76398437D01*
X181846834Y-76398314D01*
X181850900Y-76397951D01*
X181855036Y-76397356D01*
X181859246Y-76396535D01*
X181863533Y-76395498D01*
X181867902Y-76394251D01*
X181872356Y-76392803D01*
X181876899Y-76391161D01*
X181881535Y-76389333D01*
X181886268Y-76387326D01*
X181891101Y-76385149D01*
X181896040Y-76382810D01*
X181906246Y-76377673D01*
X181916917Y-76371978D01*
X181927836Y-76365901D01*
X181938786Y-76359576D01*
X181949799Y-76353003D01*
X181960904Y-76346182D01*
X181972133Y-76339112D01*
X181983518Y-76331795D01*
X182006875Y-76316416D01*
X182017655Y-76308360D01*
X182028125Y-76300086D01*
X182038222Y-76291627D01*
X182047886Y-76283013D01*
X182057053Y-76274274D01*
X182061431Y-76269868D01*
X182065663Y-76265443D01*
X182069739Y-76261002D01*
X182073652Y-76256549D01*
X182077395Y-76252089D01*
X182080959Y-76247625D01*
X182084774Y-76243192D01*
X182088287Y-76238824D01*
X182091505Y-76234527D01*
X182094436Y-76230303D01*
X182097088Y-76226156D01*
X182099469Y-76222091D01*
X182101587Y-76218112D01*
X182103449Y-76214221D01*
X182105062Y-76210423D01*
X182106435Y-76206723D01*
X182107576Y-76203123D01*
X182108492Y-76199628D01*
X182109191Y-76196241D01*
X182109681Y-76192967D01*
X182109969Y-76189809D01*
X182110063Y-76186771D01*
X182110024Y-76184802D01*
X182109908Y-76182865D01*
X182109714Y-76180959D01*
X182109443Y-76179087D01*
X182109094Y-76177247D01*
X182108668Y-76175440D01*
X182108164Y-76173668D01*
X182107583Y-76171929D01*
X182106924Y-76170226D01*
X182106188Y-76168558D01*
X182105374Y-76166926D01*
X182104482Y-76165330D01*
X182103513Y-76163771D01*
X182102467Y-76162250D01*
X182101343Y-76160766D01*
X182100141Y-76159320D01*
X182098862Y-76157913D01*
X182097506Y-76156546D01*
X182096072Y-76155218D01*
X182094560Y-76153930D01*
X182092971Y-76152683D01*
X182091305Y-76151478D01*
X182089561Y-76150313D01*
X182087739Y-76149191D01*
X182085840Y-76148112D01*
X182083863Y-76147076D01*
X182079677Y-76145135D01*
X182075182Y-76143372D01*
X182070376Y-76141791D01*
X182065322Y-76140364D01*
X182060082Y-76139057D01*
X182054656Y-76137867D01*
X182049044Y-76136789D01*
X182043246Y-76135819D01*
X182037261Y-76134954D01*
X182024735Y-76133523D01*
X182011465Y-76132464D01*
X181997450Y-76131745D01*
X181982691Y-76131337D01*
X181967188Y-76131208D01*
X181895751Y-76131208D01*
X181842834Y-76398437D01*
X181589042Y-76398437D01*
X181592389Y-76379958D01*
X181603386Y-76316747D01*
X181614382Y-76254033D01*
X181625875Y-76192062D01*
X181631472Y-76161547D01*
X181636417Y-76131497D01*
X181640805Y-76101881D01*
X181644727Y-76072669D01*
X181651548Y-76015329D01*
X181657625Y-75959229D01*
X181681686Y-75951653D01*
X181706242Y-75944760D01*
X181731295Y-75938486D01*
X181756844Y-75932771D01*
X181782889Y-75927552D01*
X181809430Y-75922766D01*
X181836467Y-75918353D01*
X181864000Y-75914250D01*
X181891668Y-75910643D01*
X181919149Y-75907718D01*
X181946507Y-75905413D01*
X181973802Y-75903667D01*
X182001097Y-75902416D01*
X182028455Y-75901600D01*
X182055936Y-75901155D01*
X182083604Y-75901021D01*
X182099168Y-75901238D01*
G37*
G36*
X182713312Y-74141541D02*
G01*
X182697437Y-74208059D01*
X182681562Y-74276810D01*
X182665687Y-74348041D01*
X182649812Y-74422000D01*
X182634392Y-74496496D01*
X182619715Y-74569505D01*
X182591603Y-74713041D01*
X182578664Y-74780924D01*
X182567460Y-74845333D01*
X182557745Y-74905774D01*
X182549270Y-74961750D01*
X182577548Y-74959807D01*
X182606817Y-74958112D01*
X182621824Y-74957435D01*
X182637079Y-74956913D01*
X182652582Y-74956577D01*
X182668333Y-74956458D01*
X182779458Y-74956458D01*
X182779691Y-74969367D01*
X182780326Y-74982338D01*
X182781272Y-74995432D01*
X182782435Y-75008713D01*
X182785039Y-75036081D01*
X182786295Y-75050292D01*
X182787396Y-75064937D01*
X182795003Y-75117854D01*
X182798186Y-75141584D01*
X182800625Y-75162833D01*
X182801725Y-75172254D01*
X182802981Y-75180651D01*
X182804299Y-75187995D01*
X182805586Y-75194253D01*
X182807694Y-75203389D01*
X182808330Y-75206205D01*
X182808562Y-75207812D01*
X182742417Y-75207812D01*
X182697727Y-75207936D01*
X182674561Y-75208231D01*
X182650805Y-75208805D01*
X182626430Y-75209750D01*
X182601403Y-75211161D01*
X182575694Y-75213130D01*
X182549271Y-75215750D01*
X182496148Y-75220215D01*
X182443769Y-75225672D01*
X182391885Y-75232121D01*
X182340250Y-75239562D01*
X182314820Y-75243769D01*
X182290104Y-75248410D01*
X182266069Y-75253422D01*
X182242685Y-75258745D01*
X182219922Y-75264316D01*
X182197747Y-75270073D01*
X182155042Y-75281896D01*
X182155042Y-75276604D01*
X182167403Y-75188878D01*
X182180508Y-75100656D01*
X182207959Y-74924708D01*
X182221891Y-74836362D01*
X182236070Y-74749752D01*
X182250747Y-74664631D01*
X182266167Y-74580750D01*
X182295932Y-74423323D01*
X182321729Y-74281771D01*
X182350833Y-74136911D01*
X182365633Y-74062993D01*
X182379937Y-73988083D01*
X182394283Y-73914207D01*
X182409372Y-73839586D01*
X182440791Y-73689104D01*
X182829729Y-73638833D01*
X182713312Y-74141541D01*
G37*
G36*
X187632289Y-75982793D02*
G01*
X187610807Y-76035802D01*
X187589914Y-76088874D01*
X187569642Y-76141945D01*
X187550020Y-76194955D01*
X187531081Y-76247841D01*
X187512854Y-76300540D01*
X187364688Y-76729166D01*
X187340834Y-76729208D01*
X187316732Y-76729497D01*
X187304510Y-76729812D01*
X187292134Y-76730282D01*
X187279571Y-76730938D01*
X187266792Y-76731811D01*
X187254881Y-76732044D01*
X187242938Y-76732679D01*
X187230934Y-76733625D01*
X187218836Y-76734788D01*
X187194238Y-76737392D01*
X187181676Y-76738648D01*
X187168896Y-76739748D01*
X187166250Y-76737103D01*
X187219166Y-76530729D01*
X187269437Y-76326999D01*
X187281385Y-76275447D01*
X187293580Y-76224142D01*
X187306272Y-76173334D01*
X187319708Y-76123270D01*
X187372625Y-75919541D01*
X187419258Y-75912099D01*
X187463906Y-75905650D01*
X187506570Y-75900193D01*
X187547249Y-75895728D01*
X187676896Y-75877207D01*
X187632289Y-75982793D01*
G37*
G36*
X181551305Y-70371726D02*
G01*
X181571667Y-70373218D01*
X181591703Y-70375711D01*
X181611406Y-70379208D01*
X181630768Y-70383712D01*
X181649781Y-70389228D01*
X181668438Y-70395759D01*
X181686730Y-70403310D01*
X181704650Y-70411883D01*
X181722190Y-70421484D01*
X181739343Y-70432116D01*
X181756100Y-70443783D01*
X181772454Y-70456488D01*
X181788398Y-70470236D01*
X181803923Y-70485030D01*
X181819021Y-70500875D01*
X181833469Y-70517588D01*
X181847040Y-70534986D01*
X181859728Y-70553075D01*
X181871525Y-70571857D01*
X181882422Y-70591337D01*
X181892412Y-70611519D01*
X181901488Y-70632406D01*
X181909641Y-70654002D01*
X181916864Y-70676312D01*
X181923149Y-70699338D01*
X181928489Y-70723085D01*
X181932875Y-70747557D01*
X181936300Y-70772758D01*
X181938756Y-70798691D01*
X181940235Y-70825361D01*
X181940730Y-70852771D01*
X181940730Y-70918916D01*
X181940688Y-70921521D01*
X181940590Y-70924358D01*
X181940399Y-70927846D01*
X181940084Y-70931706D01*
X181939870Y-70933689D01*
X181939614Y-70935660D01*
X181939311Y-70937584D01*
X181938957Y-70939427D01*
X181938550Y-70941153D01*
X181938084Y-70942729D01*
X181488292Y-71064437D01*
X181483240Y-71053894D01*
X181478014Y-71044087D01*
X181472625Y-71035009D01*
X181467084Y-71026651D01*
X181461404Y-71019007D01*
X181455597Y-71012068D01*
X181449673Y-71005827D01*
X181443644Y-71000276D01*
X181437522Y-70995407D01*
X181431319Y-70991212D01*
X181425046Y-70987684D01*
X181418715Y-70984814D01*
X181412338Y-70982596D01*
X181405925Y-70981021D01*
X181399490Y-70980082D01*
X181393042Y-70979771D01*
X181387826Y-70979902D01*
X181382593Y-70980298D01*
X181377346Y-70980957D01*
X181372082Y-70981879D01*
X181366804Y-70983065D01*
X181361509Y-70984515D01*
X181356200Y-70986228D01*
X181350874Y-70988204D01*
X181345534Y-70990444D01*
X181340177Y-70992948D01*
X181329418Y-70998746D01*
X181318597Y-71005598D01*
X181307714Y-71013505D01*
X181296769Y-71022466D01*
X181285762Y-71032481D01*
X181274693Y-71043550D01*
X181263562Y-71055673D01*
X181252369Y-71068850D01*
X181241114Y-71083082D01*
X181229796Y-71098368D01*
X181218417Y-71114708D01*
X181195721Y-71149192D01*
X181173273Y-71185195D01*
X181151073Y-71222748D01*
X181129121Y-71261883D01*
X181107416Y-71302630D01*
X181085960Y-71345020D01*
X181064752Y-71389084D01*
X181043792Y-71434854D01*
X181030145Y-71465736D01*
X181016962Y-71496866D01*
X181004213Y-71528244D01*
X180991868Y-71559870D01*
X180979895Y-71591744D01*
X180968262Y-71623866D01*
X180956940Y-71656236D01*
X180945897Y-71688854D01*
X180935349Y-71721343D01*
X180925515Y-71753305D01*
X180916364Y-71784709D01*
X180907863Y-71815523D01*
X180899982Y-71845718D01*
X180892691Y-71875261D01*
X180885957Y-71904123D01*
X180879751Y-71932271D01*
X180874170Y-71960305D01*
X180869333Y-71986882D01*
X180865240Y-72012033D01*
X180861891Y-72035789D01*
X180859287Y-72058180D01*
X180857426Y-72079238D01*
X180856310Y-72098994D01*
X180855938Y-72117479D01*
X180856062Y-72130626D01*
X180856434Y-72143281D01*
X180857054Y-72155448D01*
X180857923Y-72167130D01*
X180859039Y-72178331D01*
X180860403Y-72189056D01*
X180862015Y-72199308D01*
X180863876Y-72209091D01*
X180865984Y-72218409D01*
X180868340Y-72227266D01*
X180870945Y-72235665D01*
X180873798Y-72243611D01*
X180876898Y-72251107D01*
X180880247Y-72258158D01*
X180883843Y-72264767D01*
X180887688Y-72270937D01*
X180889207Y-72273627D01*
X180890788Y-72276239D01*
X180892430Y-72278772D01*
X180894132Y-72281226D01*
X180895895Y-72283601D01*
X180897717Y-72285896D01*
X180899598Y-72288110D01*
X180901538Y-72290244D01*
X180903535Y-72292296D01*
X180905591Y-72294266D01*
X180907704Y-72296154D01*
X180909873Y-72297959D01*
X180912099Y-72299681D01*
X180914380Y-72301319D01*
X180916716Y-72302872D01*
X180919108Y-72304341D01*
X180921553Y-72305725D01*
X180924052Y-72307022D01*
X180926605Y-72308234D01*
X180929210Y-72309359D01*
X180931868Y-72310396D01*
X180934577Y-72311346D01*
X180937338Y-72312208D01*
X180940150Y-72312981D01*
X180943012Y-72313665D01*
X180945924Y-72314260D01*
X180948886Y-72314764D01*
X180951896Y-72315178D01*
X180954955Y-72315500D01*
X180958062Y-72315731D01*
X180961216Y-72315870D01*
X180964417Y-72315917D01*
X180970898Y-72315730D01*
X180977445Y-72315167D01*
X180984062Y-72314225D01*
X180990752Y-72312899D01*
X180997519Y-72311185D01*
X181004369Y-72309080D01*
X181011303Y-72306579D01*
X181018326Y-72303680D01*
X181025443Y-72300377D01*
X181032656Y-72296667D01*
X181039970Y-72292547D01*
X181047389Y-72288011D01*
X181054917Y-72283058D01*
X181062556Y-72277681D01*
X181070312Y-72271879D01*
X181078188Y-72265646D01*
X181086065Y-72259133D01*
X181093826Y-72252489D01*
X181101478Y-72245705D01*
X181109029Y-72238774D01*
X181116487Y-72231688D01*
X181123860Y-72224439D01*
X181131155Y-72217020D01*
X181138381Y-72209422D01*
X181145545Y-72201638D01*
X181152654Y-72193661D01*
X181159717Y-72185482D01*
X181166741Y-72177093D01*
X181180704Y-72159657D01*
X181194605Y-72141292D01*
X181200930Y-72131866D01*
X181207007Y-72122440D01*
X181212836Y-72113014D01*
X181218417Y-72103588D01*
X181223750Y-72094163D01*
X181228835Y-72084737D01*
X181233672Y-72075311D01*
X181238261Y-72065885D01*
X181242602Y-72056459D01*
X181246695Y-72047034D01*
X181250539Y-72037608D01*
X181254136Y-72028182D01*
X181257485Y-72018756D01*
X181260585Y-72009331D01*
X181263438Y-71999905D01*
X181266042Y-71990479D01*
X181657626Y-72149229D01*
X181636512Y-72196545D01*
X181614848Y-72242252D01*
X181592641Y-72286354D01*
X181569900Y-72328856D01*
X181546631Y-72369762D01*
X181522843Y-72409074D01*
X181498544Y-72446797D01*
X181473740Y-72482935D01*
X181448441Y-72517492D01*
X181422653Y-72550471D01*
X181396385Y-72581876D01*
X181369643Y-72611712D01*
X181342437Y-72639983D01*
X181314773Y-72666691D01*
X181286660Y-72691841D01*
X181258105Y-72715437D01*
X181229394Y-72737515D01*
X181200811Y-72758112D01*
X181172360Y-72777236D01*
X181144045Y-72794895D01*
X181115869Y-72811097D01*
X181087836Y-72825849D01*
X181059951Y-72839160D01*
X181032217Y-72851036D01*
X181004638Y-72861487D01*
X180977218Y-72870518D01*
X180949960Y-72878139D01*
X180922870Y-72884357D01*
X180895949Y-72889180D01*
X180869204Y-72892615D01*
X180842636Y-72894671D01*
X180816251Y-72895354D01*
X180808313Y-72895354D01*
X180781367Y-72894548D01*
X180755096Y-72892134D01*
X180729492Y-72888116D01*
X180704547Y-72882497D01*
X180680252Y-72875281D01*
X180656601Y-72866472D01*
X180633586Y-72856074D01*
X180611198Y-72844091D01*
X180589431Y-72830526D01*
X180568276Y-72815384D01*
X180547726Y-72798669D01*
X180527772Y-72780384D01*
X180508407Y-72760533D01*
X180489624Y-72739120D01*
X180471415Y-72716150D01*
X180453771Y-72691625D01*
X180436965Y-72665734D01*
X180421272Y-72638661D01*
X180406687Y-72610403D01*
X180393206Y-72580954D01*
X180380827Y-72550312D01*
X180369544Y-72518472D01*
X180359354Y-72485431D01*
X180350253Y-72451184D01*
X180342237Y-72415728D01*
X180335303Y-72379060D01*
X180329446Y-72341174D01*
X180324663Y-72302067D01*
X180320949Y-72261735D01*
X180318302Y-72220175D01*
X180316716Y-72177383D01*
X180316188Y-72133354D01*
X180317557Y-72052997D01*
X180321686Y-71972702D01*
X180328606Y-71892531D01*
X180338347Y-71812546D01*
X180350940Y-71732810D01*
X180366417Y-71653383D01*
X180384809Y-71574328D01*
X180406146Y-71495708D01*
X180429969Y-71418204D01*
X180455838Y-71342498D01*
X180483816Y-71268652D01*
X180513964Y-71196729D01*
X180546345Y-71126790D01*
X180581019Y-71058897D01*
X180618051Y-70993113D01*
X180637469Y-70961031D01*
X180657500Y-70929500D01*
X180678058Y-70898618D01*
X180699053Y-70868480D01*
X180720491Y-70839087D01*
X180742374Y-70810437D01*
X180764707Y-70782532D01*
X180787493Y-70755371D01*
X180810736Y-70728954D01*
X180834441Y-70703281D01*
X180858610Y-70678352D01*
X180883249Y-70654168D01*
X180908361Y-70630727D01*
X180933949Y-70608031D01*
X180960018Y-70586079D01*
X180986571Y-70564871D01*
X181013612Y-70544407D01*
X181041146Y-70524687D01*
X181069113Y-70505959D01*
X181097448Y-70488467D01*
X181126147Y-70472208D01*
X181155206Y-70457177D01*
X181184623Y-70443371D01*
X181214391Y-70430786D01*
X181244509Y-70419418D01*
X181274972Y-70409263D01*
X181305775Y-70400317D01*
X181336916Y-70392576D01*
X181368391Y-70386037D01*
X181400194Y-70380696D01*
X181432323Y-70376548D01*
X181464774Y-70373591D01*
X181497543Y-70371819D01*
X181530626Y-70371229D01*
X181551305Y-70371726D01*
G37*
G36*
X183439843Y-73734909D02*
G01*
X183425042Y-73808828D01*
X183395938Y-73953687D01*
X183337730Y-74242083D01*
X183321855Y-74320879D01*
X183305980Y-74402156D01*
X183274230Y-74570166D01*
X183241488Y-74742807D01*
X183225489Y-74827639D01*
X183210730Y-74911479D01*
X183152522Y-75223687D01*
X183131231Y-75223770D01*
X183119547Y-75223966D01*
X183107212Y-75224349D01*
X183094257Y-75224979D01*
X183080713Y-75225920D01*
X183066610Y-75227232D01*
X183051981Y-75228979D01*
X183037098Y-75230090D01*
X183022215Y-75231418D01*
X182992449Y-75234602D01*
X182962684Y-75238281D01*
X182932918Y-75242208D01*
X182877686Y-75249815D01*
X182853667Y-75252998D01*
X182832377Y-75255437D01*
X182822961Y-75256537D01*
X182814600Y-75257793D01*
X182807355Y-75259111D01*
X182801288Y-75260398D01*
X182796461Y-75261561D01*
X182792937Y-75262506D01*
X182790043Y-75263375D01*
X182787396Y-75268667D01*
X182797199Y-75235315D01*
X182806785Y-75200784D01*
X182816185Y-75165138D01*
X182825430Y-75128437D01*
X182843579Y-75052122D01*
X182861480Y-74972333D01*
X182879339Y-74889609D01*
X182897199Y-74804653D01*
X182932917Y-74631020D01*
X182999063Y-74300291D01*
X183054626Y-74011895D01*
X183107542Y-73715562D01*
X183454147Y-73659999D01*
X183439843Y-73734909D01*
G37*
G36*
X183921475Y-75872103D02*
G01*
X183933404Y-75872666D01*
X183945006Y-75873608D01*
X183956276Y-75874935D01*
X183967204Y-75876648D01*
X183977784Y-75878754D01*
X183988006Y-75881254D01*
X183997865Y-75884154D01*
X184007352Y-75887456D01*
X184016458Y-75891166D01*
X184025177Y-75895287D01*
X184033501Y-75899822D01*
X184041422Y-75904776D01*
X184048931Y-75910152D01*
X184056023Y-75915955D01*
X184062688Y-75922188D01*
X184069479Y-75928731D01*
X184075968Y-75935463D01*
X184082163Y-75942390D01*
X184088071Y-75949514D01*
X184093700Y-75956840D01*
X184099058Y-75964371D01*
X184104152Y-75972112D01*
X184108990Y-75980065D01*
X184113580Y-75988236D01*
X184117930Y-75996628D01*
X184122047Y-76005244D01*
X184125940Y-76014089D01*
X184129615Y-76023167D01*
X184133082Y-76032481D01*
X184136346Y-76042035D01*
X184139417Y-76051834D01*
X184142271Y-76061786D01*
X184144885Y-76071796D01*
X184147266Y-76081861D01*
X184149422Y-76091976D01*
X184153091Y-76112341D01*
X184155954Y-76132862D01*
X184158072Y-76153507D01*
X184159509Y-76174244D01*
X184160325Y-76195044D01*
X184160584Y-76215875D01*
X184159597Y-76265107D01*
X184156656Y-76313564D01*
X184151794Y-76361215D01*
X184145040Y-76408029D01*
X184136425Y-76453974D01*
X184125981Y-76499021D01*
X184113739Y-76543137D01*
X184099730Y-76586292D01*
X184084227Y-76628207D01*
X184076010Y-76648596D01*
X184067484Y-76668602D01*
X184058647Y-76688220D01*
X184049500Y-76707447D01*
X184040044Y-76726279D01*
X184030277Y-76744711D01*
X184020200Y-76762740D01*
X184009813Y-76780362D01*
X183999116Y-76797574D01*
X183988109Y-76814371D01*
X183976791Y-76830749D01*
X183965164Y-76846704D01*
X183953227Y-76862234D01*
X183940980Y-76877333D01*
X183929011Y-76892465D01*
X183916919Y-76907109D01*
X183904703Y-76921272D01*
X183892362Y-76934963D01*
X183879898Y-76948188D01*
X183867310Y-76960956D01*
X183854597Y-76973274D01*
X183841761Y-76985151D01*
X183828800Y-76996593D01*
X183815716Y-77007609D01*
X183802507Y-77018207D01*
X183789175Y-77028393D01*
X183775718Y-77038177D01*
X183762138Y-77047565D01*
X183748433Y-77056566D01*
X183734605Y-77065187D01*
X183720775Y-77072876D01*
X183707066Y-77080070D01*
X183693473Y-77086767D01*
X183679993Y-77092968D01*
X183666621Y-77098673D01*
X183653354Y-77103883D01*
X183640187Y-77108595D01*
X183627117Y-77112812D01*
X183614141Y-77116533D01*
X183601253Y-77119758D01*
X183588451Y-77122486D01*
X183575730Y-77124719D01*
X183563087Y-77126455D01*
X183550517Y-77127695D01*
X183538017Y-77128439D01*
X183525583Y-77128687D01*
X183511848Y-77128347D01*
X183498427Y-77127328D01*
X183485324Y-77125635D01*
X183472543Y-77123272D01*
X183460087Y-77120241D01*
X183447960Y-77116549D01*
X183436167Y-77112197D01*
X183424711Y-77107190D01*
X183413596Y-77101532D01*
X183402826Y-77095227D01*
X183392405Y-77088278D01*
X183382336Y-77080690D01*
X183372624Y-77072467D01*
X183363273Y-77063611D01*
X183354286Y-77054128D01*
X183345667Y-77044021D01*
X183337016Y-77033232D01*
X183328923Y-77021707D01*
X183321389Y-77009453D01*
X183314413Y-76996478D01*
X183307994Y-76982791D01*
X183302134Y-76968397D01*
X183296832Y-76953307D01*
X183292089Y-76937526D01*
X183287903Y-76921063D01*
X183284275Y-76903926D01*
X183281205Y-76886122D01*
X183278694Y-76867659D01*
X183276741Y-76848545D01*
X183275345Y-76828788D01*
X183274508Y-76808396D01*
X183274229Y-76787375D01*
X183274601Y-76763433D01*
X183275571Y-76742397D01*
X183528229Y-76742397D01*
X183528322Y-76746862D01*
X183528601Y-76751326D01*
X183529067Y-76755791D01*
X183529718Y-76760256D01*
X183530555Y-76764721D01*
X183531578Y-76769186D01*
X183532787Y-76773651D01*
X183534182Y-76778116D01*
X183535764Y-76782581D01*
X183537531Y-76787045D01*
X183539484Y-76791510D01*
X183541624Y-76795975D01*
X183543949Y-76800440D01*
X183546461Y-76804905D01*
X183549158Y-76809370D01*
X183552042Y-76813835D01*
X183555110Y-76818175D01*
X183558357Y-76822263D01*
X183561774Y-76826095D01*
X183565354Y-76829668D01*
X183569088Y-76832977D01*
X183572971Y-76836019D01*
X183576992Y-76838790D01*
X183581146Y-76841285D01*
X183585423Y-76843501D01*
X183589817Y-76845435D01*
X183594320Y-76847081D01*
X183598923Y-76848437D01*
X183603619Y-76849498D01*
X183608400Y-76850261D01*
X183613259Y-76850722D01*
X183618188Y-76850876D01*
X183618188Y-76853521D01*
X183627551Y-76853334D01*
X183636786Y-76852771D01*
X183645889Y-76851829D01*
X183654857Y-76850503D01*
X183663686Y-76848789D01*
X183672370Y-76846684D01*
X183680908Y-76844183D01*
X183689295Y-76841284D01*
X183697526Y-76837981D01*
X183705598Y-76834271D01*
X183713508Y-76830150D01*
X183721251Y-76825615D01*
X183728824Y-76820661D01*
X183736222Y-76815285D01*
X183743442Y-76809483D01*
X183750479Y-76803250D01*
X183757392Y-76796708D01*
X183764236Y-76789979D01*
X183771001Y-76783065D01*
X183777682Y-76775965D01*
X183784269Y-76768679D01*
X183790756Y-76761206D01*
X183797134Y-76753548D01*
X183803396Y-76745703D01*
X183809534Y-76737673D01*
X183815540Y-76729456D01*
X183821407Y-76721054D01*
X183827126Y-76712465D01*
X183832690Y-76703690D01*
X183838092Y-76694730D01*
X183843323Y-76685583D01*
X183848375Y-76676250D01*
X183858044Y-76656396D01*
X183867186Y-76636480D01*
X183875769Y-76616440D01*
X183883763Y-76596214D01*
X183891138Y-76575739D01*
X183897861Y-76554955D01*
X183903902Y-76533799D01*
X183909229Y-76512208D01*
X183913937Y-76491507D01*
X183918118Y-76471116D01*
X183921740Y-76451096D01*
X183924774Y-76431511D01*
X183927187Y-76412422D01*
X183928949Y-76393891D01*
X183930029Y-76375980D01*
X183930396Y-76358751D01*
X183930314Y-76344819D01*
X183930117Y-76337775D01*
X183929735Y-76330639D01*
X183929104Y-76323378D01*
X183928677Y-76319692D01*
X183928164Y-76315963D01*
X183927558Y-76312187D01*
X183926851Y-76308361D01*
X183926036Y-76304481D01*
X183925104Y-76300542D01*
X183923110Y-76292729D01*
X183921053Y-76285163D01*
X183918872Y-76277846D01*
X183916505Y-76270777D01*
X183915233Y-76267335D01*
X183913890Y-76263956D01*
X183912471Y-76260638D01*
X183910966Y-76257382D01*
X183909367Y-76254189D01*
X183907669Y-76251057D01*
X183905861Y-76247988D01*
X183903938Y-76244980D01*
X183902922Y-76243515D01*
X183901861Y-76242097D01*
X183900754Y-76240725D01*
X183899602Y-76239399D01*
X183898405Y-76238120D01*
X183897165Y-76236888D01*
X183895880Y-76235702D01*
X183894553Y-76234562D01*
X183893183Y-76233469D01*
X183891771Y-76232423D01*
X183890317Y-76231423D01*
X183888822Y-76230470D01*
X183887286Y-76229563D01*
X183885711Y-76228702D01*
X183884095Y-76227888D01*
X183882440Y-76227121D01*
X183879015Y-76225726D01*
X183875438Y-76224517D01*
X183871714Y-76223493D01*
X183867847Y-76222656D01*
X183863840Y-76222005D01*
X183859697Y-76221540D01*
X183855423Y-76221261D01*
X183851021Y-76221168D01*
X183841627Y-76221385D01*
X183832304Y-76222036D01*
X183823057Y-76223121D01*
X183813897Y-76224641D01*
X183804829Y-76226594D01*
X183795861Y-76228981D01*
X183787003Y-76231803D01*
X183778260Y-76235058D01*
X183769642Y-76238748D01*
X183761155Y-76242872D01*
X183752808Y-76247430D01*
X183744609Y-76252422D01*
X183736564Y-76257848D01*
X183728682Y-76263708D01*
X183720970Y-76270002D01*
X183713437Y-76276730D01*
X183705593Y-76283799D01*
X183697934Y-76291112D01*
X183690462Y-76298665D01*
X183683176Y-76306454D01*
X183676075Y-76314476D01*
X183669161Y-76322727D01*
X183662433Y-76331203D01*
X183655890Y-76339899D01*
X183649534Y-76348813D01*
X183643364Y-76357939D01*
X183637380Y-76367275D01*
X183631582Y-76376817D01*
X183625970Y-76386560D01*
X183620544Y-76396500D01*
X183615304Y-76406635D01*
X183610250Y-76416959D01*
X183599822Y-76438674D01*
X183590324Y-76460202D01*
X183581694Y-76481606D01*
X183573870Y-76502949D01*
X183566790Y-76524291D01*
X183560393Y-76545695D01*
X183554615Y-76567224D01*
X183549396Y-76588938D01*
X183544688Y-76610291D01*
X183540508Y-76630776D01*
X183536885Y-76650516D01*
X183533852Y-76669636D01*
X183531439Y-76688261D01*
X183529676Y-76706513D01*
X183528596Y-76724517D01*
X183528229Y-76742397D01*
X183275571Y-76742397D01*
X183275717Y-76739212D01*
X183277578Y-76714681D01*
X183280182Y-76689810D01*
X183283531Y-76664566D01*
X183287624Y-76638919D01*
X183292461Y-76612838D01*
X183298042Y-76586292D01*
X183304248Y-76559627D01*
X183310981Y-76533210D01*
X183318273Y-76507041D01*
X183326153Y-76481120D01*
X183334654Y-76455447D01*
X183343806Y-76430022D01*
X183353640Y-76404845D01*
X183364187Y-76379917D01*
X183375231Y-76355133D01*
X183386553Y-76330473D01*
X183398185Y-76306061D01*
X183410159Y-76282021D01*
X183422504Y-76258477D01*
X183435253Y-76235553D01*
X183448436Y-76213374D01*
X183462084Y-76192063D01*
X183473121Y-76174885D01*
X183484402Y-76158080D01*
X183495924Y-76141647D01*
X183507683Y-76125586D01*
X183519673Y-76109897D01*
X183531893Y-76094580D01*
X183544337Y-76079635D01*
X183557003Y-76065063D01*
X183569885Y-76050862D01*
X183582980Y-76037033D01*
X183596285Y-76023577D01*
X183609795Y-76010492D01*
X183623507Y-75997780D01*
X183637416Y-75985440D01*
X183651520Y-75973472D01*
X183665813Y-75961875D01*
X183680261Y-75951273D01*
X183694829Y-75941298D01*
X183709514Y-75931959D01*
X183724311Y-75923263D01*
X183739216Y-75915218D01*
X183754226Y-75907832D01*
X183769337Y-75901113D01*
X183784545Y-75895068D01*
X183799845Y-75889705D01*
X183815235Y-75885032D01*
X183830710Y-75881057D01*
X183846267Y-75877787D01*
X183861901Y-75875231D01*
X183877609Y-75873395D01*
X183893386Y-75872288D01*
X183909229Y-75871917D01*
X183921475Y-75872103D01*
G37*
G36*
X183340375Y-76131208D02*
G01*
X183298042Y-76350811D01*
X183286135Y-76409764D01*
X183274229Y-76471197D01*
X183250416Y-76599520D01*
X183226604Y-76728835D01*
X183202791Y-76856166D01*
X183180633Y-76977874D01*
X183160458Y-77091645D01*
X183144046Y-77091727D01*
X183135390Y-77091924D01*
X183126393Y-77092306D01*
X183117024Y-77092937D01*
X183107252Y-77093877D01*
X183097046Y-77095190D01*
X183091771Y-77096005D01*
X183086375Y-77096937D01*
X183064133Y-77098962D01*
X183041395Y-77101236D01*
X183029996Y-77102544D01*
X183018658Y-77104006D01*
X183007444Y-77105655D01*
X182996416Y-77107521D01*
X182985631Y-77109386D01*
X182975126Y-77111035D01*
X182955075Y-77113804D01*
X182919687Y-77118103D01*
X182912245Y-77119096D01*
X182905796Y-77120088D01*
X182900339Y-77121080D01*
X182895874Y-77122073D01*
X182894014Y-77122569D01*
X182892402Y-77123065D01*
X182891037Y-77123561D01*
X182889921Y-77124057D01*
X182889053Y-77124553D01*
X182888433Y-77125049D01*
X182888061Y-77125545D01*
X182887937Y-77126041D01*
X182880000Y-77120749D01*
X182893890Y-77069610D01*
X182907781Y-77015247D01*
X182921672Y-76957411D01*
X182935562Y-76895853D01*
X182963013Y-76768523D01*
X182976118Y-76704238D01*
X182988479Y-76639207D01*
X183000799Y-76574674D01*
X183013614Y-76511877D01*
X183038750Y-76390500D01*
X183049086Y-76336880D01*
X183059917Y-76283012D01*
X183070748Y-76228648D01*
X183081083Y-76173541D01*
X183120771Y-75951291D01*
X183382708Y-75908957D01*
X183340375Y-76131208D01*
G37*
G36*
X182096905Y-73649757D02*
G01*
X182110011Y-73650776D01*
X182122916Y-73652469D01*
X182135612Y-73654832D01*
X182148090Y-73657862D01*
X182160344Y-73661555D01*
X182172366Y-73665907D01*
X182184146Y-73670914D01*
X182195679Y-73676572D01*
X182206956Y-73682877D01*
X182217970Y-73689825D01*
X182228712Y-73697414D01*
X182239175Y-73705637D01*
X182249352Y-73714493D01*
X182259234Y-73723976D01*
X182268813Y-73734083D01*
X182277959Y-73744748D01*
X182286544Y-73755906D01*
X182294562Y-73767552D01*
X182302010Y-73779682D01*
X182308885Y-73792293D01*
X182315183Y-73805381D01*
X182320899Y-73818941D01*
X182326030Y-73832971D01*
X182330571Y-73847465D01*
X182334520Y-73862421D01*
X182337872Y-73877834D01*
X182340623Y-73893701D01*
X182342770Y-73910017D01*
X182344308Y-73926779D01*
X182345233Y-73943983D01*
X182345543Y-73961625D01*
X182345543Y-74019833D01*
X182054501Y-74096562D01*
X182050998Y-74089834D01*
X182047437Y-74083540D01*
X182043821Y-74077680D01*
X182040155Y-74072254D01*
X182036443Y-74067262D01*
X182032688Y-74062704D01*
X182028895Y-74058580D01*
X182025066Y-74054890D01*
X182021206Y-74051635D01*
X182017320Y-74048813D01*
X182013410Y-74046426D01*
X182009480Y-74044473D01*
X182005536Y-74042953D01*
X182001579Y-74041868D01*
X181997615Y-74041217D01*
X181993647Y-74041000D01*
X181990407Y-74041085D01*
X181987138Y-74041341D01*
X181983840Y-74041767D01*
X181980516Y-74042364D01*
X181977167Y-74043132D01*
X181973793Y-74044069D01*
X181970398Y-74045178D01*
X181966982Y-74046457D01*
X181963546Y-74047907D01*
X181960093Y-74049527D01*
X181953138Y-74053278D01*
X181946128Y-74057712D01*
X181939077Y-74062828D01*
X181931994Y-74068626D01*
X181924891Y-74075107D01*
X181917781Y-74082269D01*
X181910675Y-74090113D01*
X181903584Y-74098640D01*
X181896521Y-74107849D01*
X181889496Y-74117740D01*
X181882522Y-74128313D01*
X181867763Y-74150637D01*
X181853252Y-74173953D01*
X181838990Y-74198262D01*
X181824975Y-74223562D01*
X181811208Y-74249855D01*
X181797690Y-74277141D01*
X181784419Y-74305418D01*
X181771397Y-74334688D01*
X181762591Y-74354650D01*
X181754034Y-74374830D01*
X181745724Y-74395196D01*
X181737662Y-74415716D01*
X181729849Y-74436361D01*
X181722284Y-74457099D01*
X181714966Y-74477899D01*
X181707897Y-74498730D01*
X181701194Y-74519441D01*
X181694957Y-74539905D01*
X181689154Y-74560121D01*
X181683754Y-74580089D01*
X181678726Y-74599809D01*
X181674038Y-74619280D01*
X181669661Y-74638504D01*
X181665564Y-74657480D01*
X181661843Y-74675835D01*
X181658618Y-74693199D01*
X181655890Y-74709570D01*
X181653657Y-74724948D01*
X181651921Y-74739335D01*
X181650681Y-74752730D01*
X181649936Y-74765132D01*
X181649688Y-74776542D01*
X181649947Y-74792908D01*
X181650281Y-74800709D01*
X181650763Y-74808251D01*
X181651400Y-74815529D01*
X181652200Y-74822539D01*
X181653170Y-74829279D01*
X181654319Y-74835743D01*
X181655653Y-74841928D01*
X181657182Y-74847830D01*
X181658911Y-74853445D01*
X181660851Y-74858770D01*
X181663007Y-74863800D01*
X181665388Y-74868531D01*
X181668001Y-74872961D01*
X181670855Y-74877084D01*
X181672901Y-74880463D01*
X181675072Y-74883652D01*
X181677366Y-74886647D01*
X181679785Y-74889445D01*
X181682327Y-74892041D01*
X181683645Y-74893262D01*
X181684994Y-74894432D01*
X181686374Y-74895549D01*
X181687784Y-74896613D01*
X181689226Y-74897624D01*
X181690699Y-74898581D01*
X181692203Y-74899484D01*
X181693737Y-74900332D01*
X181695303Y-74901125D01*
X181696900Y-74901863D01*
X181698528Y-74902544D01*
X181700187Y-74903168D01*
X181701877Y-74903735D01*
X181703597Y-74904245D01*
X181705349Y-74904696D01*
X181707132Y-74905089D01*
X181708946Y-74905423D01*
X181710791Y-74905697D01*
X181712667Y-74905911D01*
X181714574Y-74906065D01*
X181716511Y-74906157D01*
X181718480Y-74906188D01*
X181722510Y-74906064D01*
X181726655Y-74905692D01*
X181730910Y-74905072D01*
X181735265Y-74904204D01*
X181739713Y-74903087D01*
X181744246Y-74901723D01*
X181748857Y-74900111D01*
X181753538Y-74898250D01*
X181758280Y-74896142D01*
X181763077Y-74893786D01*
X181767920Y-74891181D01*
X181772802Y-74888328D01*
X181777716Y-74885228D01*
X181782652Y-74881879D01*
X181787604Y-74878283D01*
X181792563Y-74874438D01*
X181797494Y-74870406D01*
X181802366Y-74866247D01*
X181807185Y-74861956D01*
X181811952Y-74857529D01*
X181816674Y-74852963D01*
X181821352Y-74848253D01*
X181825992Y-74843397D01*
X181830597Y-74838388D01*
X181835171Y-74833225D01*
X181839718Y-74827903D01*
X181844242Y-74822418D01*
X181848746Y-74816767D01*
X181853235Y-74810945D01*
X181857712Y-74804949D01*
X181862181Y-74798774D01*
X181866646Y-74792417D01*
X181870989Y-74785998D01*
X181875090Y-74779638D01*
X181878960Y-74773331D01*
X181882604Y-74767075D01*
X181886032Y-74760866D01*
X181889250Y-74754699D01*
X181892267Y-74748571D01*
X181895090Y-74742477D01*
X181897726Y-74736415D01*
X181900185Y-74730380D01*
X181902473Y-74724368D01*
X181904598Y-74718375D01*
X181906568Y-74712398D01*
X181908391Y-74706433D01*
X181911626Y-74694521D01*
X182165626Y-74797708D01*
X182152046Y-74828435D01*
X182138098Y-74858108D01*
X182123785Y-74886726D01*
X182109112Y-74914291D01*
X182094083Y-74940801D01*
X182078701Y-74966256D01*
X182062970Y-74990658D01*
X182046894Y-75014005D01*
X182030477Y-75036299D01*
X182013723Y-75057538D01*
X181996636Y-75077722D01*
X181979219Y-75096853D01*
X181961476Y-75114929D01*
X181943412Y-75131951D01*
X181925030Y-75147919D01*
X181906335Y-75162833D01*
X181887545Y-75176785D01*
X181868879Y-75189865D01*
X181850338Y-75202069D01*
X181831920Y-75213393D01*
X181813627Y-75223834D01*
X181795458Y-75233387D01*
X181777412Y-75242049D01*
X181759491Y-75249815D01*
X181741693Y-75256682D01*
X181724020Y-75262646D01*
X181706471Y-75267704D01*
X181689045Y-75271850D01*
X181671744Y-75275082D01*
X181654567Y-75277395D01*
X181637514Y-75278786D01*
X181620584Y-75279250D01*
X181615292Y-75276604D01*
X181598115Y-75276107D01*
X181581315Y-75274614D01*
X181564894Y-75272121D01*
X181548857Y-75268625D01*
X181533207Y-75264121D01*
X181517949Y-75258605D01*
X181503086Y-75252074D01*
X181488623Y-75244523D01*
X181474562Y-75235949D01*
X181460909Y-75226348D01*
X181447666Y-75215717D01*
X181434838Y-75204050D01*
X181422429Y-75191345D01*
X181410442Y-75177597D01*
X181398881Y-75162803D01*
X181387751Y-75146958D01*
X181377148Y-75130214D01*
X181367173Y-75112722D01*
X181357834Y-75094479D01*
X181349138Y-75075479D01*
X181341093Y-75055720D01*
X181333707Y-75035197D01*
X181326988Y-75013907D01*
X181320943Y-74991846D01*
X181315580Y-74969009D01*
X181310908Y-74945394D01*
X181306932Y-74920996D01*
X181303663Y-74895810D01*
X181301106Y-74869835D01*
X181299270Y-74843064D01*
X181298163Y-74815496D01*
X181297792Y-74787125D01*
X181298665Y-74734771D01*
X181301306Y-74682821D01*
X181305745Y-74631180D01*
X181312014Y-74579757D01*
X181320142Y-74528458D01*
X181330162Y-74477190D01*
X181342105Y-74425860D01*
X181356001Y-74374375D01*
X181371509Y-74324393D01*
X181388288Y-74275652D01*
X181406370Y-74228151D01*
X181425784Y-74181890D01*
X181446564Y-74136870D01*
X181468738Y-74093090D01*
X181492338Y-74050550D01*
X181517396Y-74009250D01*
X181530450Y-73989158D01*
X181543819Y-73969562D01*
X181557504Y-73950463D01*
X181571512Y-73931859D01*
X181585845Y-73913752D01*
X181600508Y-73896140D01*
X181615503Y-73879025D01*
X181630836Y-73862406D01*
X181646510Y-73846283D01*
X181662530Y-73830656D01*
X181678897Y-73815525D01*
X181695618Y-73800891D01*
X181712695Y-73786752D01*
X181730133Y-73773109D01*
X181747934Y-73759963D01*
X181766104Y-73747313D01*
X181784524Y-73735313D01*
X181803079Y-73724115D01*
X181821781Y-73713716D01*
X181840643Y-73704111D01*
X181859674Y-73695297D01*
X181878888Y-73687270D01*
X181898296Y-73680025D01*
X181917909Y-73673560D01*
X181937740Y-73667870D01*
X181957798Y-73662951D01*
X181978098Y-73658799D01*
X181998649Y-73655411D01*
X182019463Y-73652783D01*
X182040553Y-73650910D01*
X182061930Y-73649789D01*
X182083605Y-73649416D01*
X182096905Y-73649757D01*
G37*
G36*
X186814354Y-72892708D02*
G01*
X186806420Y-72887417D01*
X186815588Y-72885998D01*
X186814354Y-72892708D01*
G37*
G36*
X183003320Y-70318717D02*
G01*
X183028001Y-70319930D01*
X183051938Y-70321958D01*
X183075130Y-70324803D01*
X183097578Y-70328471D01*
X183119282Y-70332963D01*
X183140242Y-70338285D01*
X183160458Y-70344440D01*
X183179930Y-70351433D01*
X183198657Y-70359266D01*
X183216641Y-70367945D01*
X183233880Y-70377472D01*
X183250375Y-70387852D01*
X183266126Y-70399088D01*
X183281133Y-70411185D01*
X183295396Y-70424146D01*
X183309038Y-70437292D01*
X183322180Y-70450930D01*
X183334818Y-70465056D01*
X183346948Y-70479667D01*
X183358567Y-70494759D01*
X183369670Y-70510327D01*
X183380254Y-70526368D01*
X183390315Y-70542878D01*
X183399849Y-70559853D01*
X183408851Y-70577289D01*
X183417319Y-70595183D01*
X183425248Y-70613530D01*
X183432635Y-70632327D01*
X183439475Y-70651569D01*
X183445765Y-70671253D01*
X183451500Y-70691375D01*
X183461789Y-70732298D01*
X183470806Y-70773685D01*
X183478522Y-70815507D01*
X183484904Y-70857732D01*
X183489922Y-70900329D01*
X183493544Y-70943267D01*
X183495740Y-70986515D01*
X183496479Y-71030042D01*
X183494500Y-71131369D01*
X183488583Y-71230960D01*
X183478759Y-71328814D01*
X183465060Y-71424932D01*
X183447516Y-71519314D01*
X183426158Y-71611960D01*
X183401018Y-71702869D01*
X183372125Y-71792042D01*
X183339259Y-71878615D01*
X183304160Y-71961747D01*
X183266829Y-72041468D01*
X183247327Y-72080060D01*
X183227266Y-72117810D01*
X183206647Y-72154723D01*
X183185470Y-72190803D01*
X183163735Y-72226053D01*
X183141442Y-72260478D01*
X183118590Y-72294082D01*
X183095181Y-72326867D01*
X183071213Y-72358839D01*
X183046688Y-72390000D01*
X183021760Y-72420819D01*
X182996587Y-72450761D01*
X182971175Y-72479820D01*
X182945526Y-72507988D01*
X182919644Y-72535256D01*
X182893534Y-72561618D01*
X182867199Y-72587064D01*
X182840643Y-72611589D01*
X182813870Y-72635183D01*
X182786884Y-72657839D01*
X182759689Y-72679550D01*
X182732288Y-72700307D01*
X182704686Y-72720103D01*
X182676886Y-72738930D01*
X182648892Y-72756780D01*
X182620709Y-72773646D01*
X182592524Y-72789521D01*
X182564526Y-72804399D01*
X182536714Y-72818277D01*
X182509087Y-72831152D01*
X182481647Y-72843019D01*
X182454393Y-72853874D01*
X182427325Y-72863714D01*
X182400443Y-72872534D01*
X182373747Y-72880332D01*
X182347237Y-72887102D01*
X182320913Y-72892841D01*
X182294775Y-72897546D01*
X182268823Y-72901212D01*
X182243057Y-72903835D01*
X182217477Y-72905412D01*
X182192084Y-72905938D01*
X182194729Y-72903292D01*
X182166762Y-72902610D01*
X182139420Y-72900563D01*
X182112705Y-72897152D01*
X182086622Y-72892378D01*
X182061175Y-72886238D01*
X182036367Y-72878735D01*
X182012202Y-72869867D01*
X181988685Y-72859635D01*
X181965819Y-72848039D01*
X181943608Y-72835079D01*
X181922055Y-72820754D01*
X181901166Y-72805065D01*
X181880943Y-72788012D01*
X181861390Y-72769594D01*
X181842512Y-72749813D01*
X181824313Y-72728667D01*
X181806982Y-72706126D01*
X181790713Y-72682163D01*
X181775513Y-72656781D01*
X181761391Y-72629985D01*
X181748355Y-72601778D01*
X181736411Y-72572164D01*
X181725568Y-72541148D01*
X181715833Y-72508732D01*
X181707215Y-72474920D01*
X181699721Y-72439718D01*
X181693358Y-72403128D01*
X181688135Y-72365154D01*
X181684059Y-72325800D01*
X181681138Y-72285071D01*
X181679380Y-72242970D01*
X181678792Y-72199500D01*
X181679536Y-72150511D01*
X181681256Y-72112188D01*
X182189438Y-72112188D01*
X182189625Y-72121149D01*
X182190193Y-72130171D01*
X182191147Y-72139256D01*
X182192497Y-72148403D01*
X182194250Y-72157611D01*
X182196414Y-72166882D01*
X182198997Y-72176215D01*
X182202006Y-72185610D01*
X182205449Y-72195066D01*
X182209333Y-72204585D01*
X182213668Y-72214166D01*
X182218459Y-72223809D01*
X182223716Y-72233514D01*
X182229446Y-72243281D01*
X182235656Y-72253110D01*
X182242355Y-72263000D01*
X182248928Y-72272583D01*
X182255754Y-72281490D01*
X182262836Y-72289731D01*
X182266474Y-72293604D01*
X182270177Y-72297314D01*
X182273946Y-72300860D01*
X182277782Y-72304245D01*
X182281684Y-72307468D01*
X182285654Y-72310532D01*
X182289692Y-72313437D01*
X182293798Y-72316185D01*
X182297972Y-72318775D01*
X182302216Y-72321209D01*
X182306530Y-72323488D01*
X182310914Y-72325613D01*
X182315369Y-72327585D01*
X182319895Y-72329405D01*
X182324493Y-72331073D01*
X182329163Y-72332592D01*
X182333905Y-72333961D01*
X182338721Y-72335182D01*
X182348574Y-72337183D01*
X182358725Y-72338603D01*
X182369179Y-72339449D01*
X182379938Y-72339730D01*
X182379938Y-72337083D01*
X182399131Y-72336680D01*
X182418018Y-72335471D01*
X182436603Y-72333456D01*
X182454889Y-72330634D01*
X182472881Y-72327006D01*
X182490582Y-72322573D01*
X182507996Y-72317333D01*
X182525128Y-72311287D01*
X182541980Y-72304434D01*
X182558557Y-72296776D01*
X182574863Y-72288311D01*
X182590902Y-72279041D01*
X182606677Y-72268964D01*
X182622192Y-72258081D01*
X182637451Y-72246392D01*
X182652459Y-72233896D01*
X182667187Y-72220781D01*
X182681609Y-72207231D01*
X182695729Y-72193247D01*
X182709551Y-72178830D01*
X182723078Y-72163978D01*
X182736314Y-72148692D01*
X182749264Y-72132972D01*
X182761930Y-72116818D01*
X182774318Y-72100230D01*
X182786430Y-72083207D01*
X182798271Y-72065751D01*
X182809844Y-72047861D01*
X182821154Y-72029536D01*
X182832205Y-72010778D01*
X182842999Y-71991585D01*
X182853542Y-71971959D01*
X182873644Y-71931909D01*
X182892320Y-71891178D01*
X182909632Y-71849827D01*
X182925641Y-71807917D01*
X182940410Y-71765511D01*
X182954001Y-71722671D01*
X182966476Y-71679460D01*
X182977896Y-71635938D01*
X182988071Y-71592777D01*
X182996789Y-71550610D01*
X183004080Y-71509434D01*
X183009977Y-71469250D01*
X183014509Y-71430059D01*
X183017708Y-71391860D01*
X183019604Y-71354653D01*
X183020230Y-71318438D01*
X183020100Y-71304423D01*
X183019692Y-71290160D01*
X183018974Y-71275650D01*
X183017914Y-71260891D01*
X183016483Y-71245884D01*
X183014648Y-71230629D01*
X183012379Y-71215126D01*
X183009646Y-71199375D01*
X183006411Y-71183748D01*
X183004588Y-71176121D01*
X183002618Y-71168618D01*
X183000493Y-71161238D01*
X182998205Y-71153983D01*
X182995746Y-71146851D01*
X182993109Y-71139844D01*
X182990287Y-71132961D01*
X182987270Y-71126202D01*
X182984052Y-71119566D01*
X182980624Y-71113055D01*
X182976980Y-71106668D01*
X182973111Y-71100405D01*
X182969009Y-71094265D01*
X182964667Y-71088250D01*
X182960077Y-71082483D01*
X182955236Y-71077088D01*
X182950138Y-71072065D01*
X182944782Y-71067414D01*
X182939161Y-71063136D01*
X182933273Y-71059229D01*
X182927114Y-71055694D01*
X182920680Y-71052532D01*
X182913966Y-71049741D01*
X182906970Y-71047323D01*
X182899687Y-71045276D01*
X182892113Y-71043602D01*
X182884245Y-71042300D01*
X182876078Y-71041369D01*
X182867609Y-71040811D01*
X182858833Y-71040625D01*
X182839114Y-71041090D01*
X182819642Y-71042480D01*
X182800418Y-71044794D01*
X182781443Y-71048025D01*
X182762715Y-71052172D01*
X182744236Y-71057229D01*
X182726004Y-71063193D01*
X182708021Y-71070060D01*
X182690285Y-71077826D01*
X182672798Y-71086488D01*
X182655559Y-71096041D01*
X182638568Y-71106482D01*
X182621825Y-71117806D01*
X182605330Y-71130010D01*
X182589083Y-71143090D01*
X182573084Y-71157042D01*
X182557364Y-71171676D01*
X182541954Y-71186802D01*
X182526854Y-71202417D01*
X182512064Y-71218516D01*
X182497584Y-71235096D01*
X182483414Y-71252152D01*
X182469555Y-71269681D01*
X182456005Y-71287680D01*
X182442766Y-71306143D01*
X182429836Y-71325068D01*
X182417217Y-71344449D01*
X182404908Y-71364285D01*
X182392908Y-71384570D01*
X182381219Y-71405300D01*
X182369840Y-71426473D01*
X182358771Y-71448083D01*
X182337687Y-71492613D01*
X182318091Y-71536926D01*
X182299984Y-71581052D01*
X182283365Y-71625024D01*
X182268234Y-71668871D01*
X182254591Y-71712625D01*
X182242437Y-71756318D01*
X182231771Y-71799979D01*
X182222356Y-71842261D01*
X182213995Y-71883736D01*
X182206750Y-71924344D01*
X182200683Y-71964021D01*
X182195856Y-72002706D01*
X182192332Y-72040337D01*
X182190172Y-72076851D01*
X182189438Y-72112188D01*
X181681256Y-72112188D01*
X181681768Y-72100777D01*
X181685489Y-72050300D01*
X181690698Y-71999078D01*
X181697395Y-71947112D01*
X181705581Y-71894402D01*
X181715255Y-71840948D01*
X181726417Y-71786750D01*
X181738943Y-71732417D01*
X181752710Y-71678519D01*
X181767717Y-71624992D01*
X181783964Y-71571776D01*
X181801451Y-71518808D01*
X181820179Y-71466025D01*
X181840146Y-71413367D01*
X181861355Y-71360771D01*
X181883555Y-71308681D01*
X181906499Y-71257584D01*
X181930188Y-71207478D01*
X181954620Y-71158365D01*
X181979797Y-71110244D01*
X182005718Y-71063115D01*
X182032383Y-71016978D01*
X182059792Y-70971833D01*
X182082829Y-70936052D01*
X182106301Y-70901135D01*
X182130206Y-70867078D01*
X182154546Y-70833878D01*
X182179319Y-70801531D01*
X182204527Y-70770032D01*
X182230169Y-70739378D01*
X182256245Y-70709565D01*
X182282755Y-70680590D01*
X182309699Y-70652447D01*
X182337077Y-70625134D01*
X182364889Y-70598647D01*
X182393136Y-70572981D01*
X182421816Y-70548133D01*
X182450930Y-70524099D01*
X182480479Y-70500875D01*
X182510337Y-70478768D01*
X182540377Y-70458087D01*
X182570596Y-70438832D01*
X182600989Y-70421004D01*
X182631552Y-70404602D01*
X182662282Y-70389626D01*
X182693175Y-70376077D01*
X182724227Y-70363953D01*
X182755433Y-70353256D01*
X182786791Y-70343986D01*
X182818296Y-70336141D01*
X182849945Y-70329723D01*
X182881733Y-70324731D01*
X182913657Y-70321165D01*
X182945712Y-70319026D01*
X182977895Y-70318313D01*
X183003320Y-70318717D01*
G37*
G36*
X184955988Y-75995608D02*
G01*
X184942882Y-76055718D01*
X184930521Y-76115332D01*
X184906709Y-76232410D01*
X184882896Y-76345520D01*
X184862019Y-76445193D01*
X184842878Y-76541642D01*
X184825225Y-76634618D01*
X184808813Y-76723874D01*
X184793930Y-76808705D01*
X184781031Y-76888576D01*
X184770117Y-76963487D01*
X184761188Y-77033435D01*
X184488667Y-77096936D01*
X184462208Y-76840290D01*
X184462147Y-76835296D01*
X184461970Y-76830234D01*
X184461298Y-76819867D01*
X184460255Y-76809129D01*
X184458901Y-76797957D01*
X184455511Y-76774062D01*
X184451625Y-76747686D01*
X184438396Y-76636561D01*
X184434840Y-76607746D01*
X184431781Y-76580668D01*
X184428722Y-76555078D01*
X184427037Y-76542763D01*
X184425167Y-76530728D01*
X184421653Y-76508404D01*
X184418883Y-76489056D01*
X184416609Y-76472685D01*
X184414583Y-76459290D01*
X184398708Y-76556525D01*
X184382833Y-76649790D01*
X184374854Y-76695389D01*
X184366627Y-76740741D01*
X184357904Y-76785596D01*
X184353279Y-76807760D01*
X184348437Y-76829707D01*
X184336531Y-76889569D01*
X184324625Y-76951416D01*
X184300812Y-77078415D01*
X184057396Y-77136624D01*
X184060042Y-77131333D01*
X184083524Y-77013924D01*
X184094645Y-76956087D01*
X184105021Y-76898499D01*
X184150000Y-76670957D01*
X184173813Y-76539658D01*
X184197625Y-76406374D01*
X184221107Y-76273421D01*
X184232228Y-76208433D01*
X184242604Y-76144436D01*
X184252030Y-76081970D01*
X184260464Y-76021736D01*
X184267905Y-75963982D01*
X184274355Y-75908957D01*
X184287832Y-75908916D01*
X184294353Y-75908818D01*
X184300813Y-75908627D01*
X184307273Y-75908312D01*
X184313794Y-75907841D01*
X184320440Y-75907185D01*
X184327272Y-75906312D01*
X184339178Y-75906271D01*
X184345131Y-75906172D01*
X184351084Y-75905981D01*
X184357037Y-75905666D01*
X184362990Y-75905196D01*
X184368944Y-75904539D01*
X184374897Y-75903666D01*
X184385273Y-75903625D01*
X184390756Y-75903526D01*
X184396394Y-75903335D01*
X184402156Y-75903020D01*
X184408011Y-75902550D01*
X184413928Y-75901893D01*
X184419876Y-75901020D01*
X184431369Y-75900979D01*
X184436898Y-75900880D01*
X184442365Y-75900689D01*
X184447833Y-75900374D01*
X184453362Y-75899904D01*
X184459015Y-75899247D01*
X184464855Y-75898374D01*
X184544230Y-75893082D01*
X184550142Y-75924791D01*
X184555805Y-75956252D01*
X184560973Y-75987216D01*
X184563293Y-76002435D01*
X184565396Y-76017436D01*
X184567495Y-76033192D01*
X184569779Y-76048731D01*
X184574657Y-76079282D01*
X184579535Y-76109338D01*
X184581819Y-76124256D01*
X184583917Y-76139144D01*
X184587886Y-76159939D01*
X184591855Y-76182470D01*
X184595824Y-76206489D01*
X184599792Y-76231749D01*
X184618313Y-76340228D01*
X184620411Y-76353999D01*
X184622695Y-76367554D01*
X184627573Y-76394137D01*
X184632452Y-76420223D01*
X184634736Y-76433157D01*
X184636834Y-76446061D01*
X184640803Y-76468881D01*
X184644771Y-76489717D01*
X184648740Y-76508569D01*
X184652709Y-76525436D01*
X184667922Y-76444738D01*
X184674289Y-76410094D01*
X184676945Y-76394415D01*
X184679167Y-76379915D01*
X184684707Y-76350645D01*
X184689750Y-76322368D01*
X184694794Y-76295083D01*
X184697471Y-76281812D01*
X184700334Y-76268790D01*
X184712571Y-76209259D01*
X184719309Y-76176517D01*
X184726792Y-76141790D01*
X184779709Y-75898374D01*
X184983438Y-75871915D01*
X184955988Y-75995608D01*
G37*
G36*
X195860592Y-111067706D02*
G01*
X195908617Y-111078332D01*
X195962261Y-111094175D01*
X196020896Y-111114761D01*
X196083896Y-111139619D01*
X196150633Y-111168275D01*
X196220477Y-111200256D01*
X196366980Y-111272303D01*
X196518382Y-111351978D01*
X196669659Y-111435497D01*
X196815790Y-111519079D01*
X196813143Y-111519078D01*
X196958163Y-111604603D01*
X197105632Y-111694778D01*
X197249815Y-111787062D01*
X197318881Y-111833200D01*
X197384974Y-111878912D01*
X197447378Y-111923879D01*
X197505375Y-111967785D01*
X197558248Y-112010311D01*
X197605281Y-112051139D01*
X197645756Y-112089952D01*
X197678956Y-112126432D01*
X197692604Y-112143697D01*
X197704164Y-112160260D01*
X197713548Y-112176081D01*
X197720664Y-112191120D01*
X197751231Y-112473578D01*
X197784123Y-113104883D01*
X197849318Y-114951055D01*
X197924394Y-117736786D01*
X197967719Y-119795575D01*
X197993185Y-121483286D01*
X197996054Y-121792505D01*
X197997779Y-122064935D01*
X197998458Y-122302980D01*
X197998187Y-122509042D01*
X197997064Y-122685525D01*
X197996213Y-122763425D01*
X197995185Y-122834831D01*
X197993992Y-122900044D01*
X197992647Y-122959363D01*
X197991161Y-123013090D01*
X197989547Y-123061525D01*
X197987817Y-123104968D01*
X197985982Y-123143719D01*
X197984056Y-123178079D01*
X197982049Y-123208348D01*
X197979975Y-123234827D01*
X197977845Y-123257815D01*
X197975671Y-123277614D01*
X197973466Y-123294524D01*
X197971241Y-123308844D01*
X197969009Y-123320876D01*
X197966782Y-123330920D01*
X197964572Y-123339275D01*
X197962391Y-123346244D01*
X197960251Y-123352125D01*
X197956144Y-123361827D01*
X197955033Y-123364923D01*
X197953705Y-123368235D01*
X197952191Y-123371733D01*
X197950522Y-123375387D01*
X197948729Y-123379164D01*
X197946842Y-123383035D01*
X197942915Y-123390931D01*
X197914255Y-123431089D01*
X197857504Y-123490440D01*
X197759949Y-123575525D01*
X197608878Y-123692887D01*
X197391579Y-123849069D01*
X197095339Y-124050612D01*
X196707445Y-124304060D01*
X196215186Y-124615953D01*
X195619088Y-124984054D01*
X195085746Y-125306516D01*
X194687837Y-125541664D01*
X194562382Y-125613473D01*
X194498040Y-125647827D01*
X194467520Y-125659739D01*
X194449264Y-125663705D01*
X194427512Y-125665232D01*
X194401140Y-125663489D01*
X194369024Y-125657641D01*
X194330041Y-125646856D01*
X194283066Y-125630299D01*
X194226975Y-125607138D01*
X194160644Y-125576540D01*
X194082950Y-125537671D01*
X193992768Y-125489698D01*
X193888975Y-125431788D01*
X193770446Y-125363106D01*
X193484686Y-125190099D01*
X193327062Y-125091593D01*
X193174214Y-124994390D01*
X192897972Y-124815052D01*
X192686223Y-124674409D01*
X192577003Y-124600078D01*
X193079874Y-124600078D01*
X193266296Y-124721078D01*
X193462982Y-124846264D01*
X193661838Y-124970148D01*
X193854772Y-125087242D01*
X194033691Y-125192057D01*
X194190503Y-125279106D01*
X194258090Y-125314253D01*
X194317116Y-125342901D01*
X194366568Y-125364363D01*
X194405436Y-125377953D01*
X194623304Y-125253557D01*
X195003394Y-125027710D01*
X195492626Y-124730922D01*
X196037915Y-124393703D01*
X196284584Y-124238375D01*
X196505618Y-124097380D01*
X196702421Y-123970043D01*
X196876396Y-123855689D01*
X197028946Y-123753645D01*
X197161475Y-123663236D01*
X197275384Y-123583787D01*
X197372077Y-123514625D01*
X197452957Y-123455074D01*
X197519427Y-123404461D01*
X197572890Y-123362111D01*
X197614749Y-123327349D01*
X197646408Y-123299502D01*
X197669268Y-123277895D01*
X197684733Y-123261853D01*
X197694207Y-123250702D01*
X197707131Y-123067401D01*
X197714257Y-122714467D01*
X197711736Y-121550425D01*
X197687882Y-119860027D01*
X197643936Y-117744725D01*
X197592301Y-115781351D01*
X197540418Y-114098766D01*
X197493991Y-112876557D01*
X197474608Y-112494213D01*
X197458727Y-112294308D01*
X197458727Y-112294307D01*
X197431329Y-112265308D01*
X197391589Y-112230363D01*
X197340688Y-112190163D01*
X197279803Y-112145397D01*
X197132794Y-112044927D01*
X196959988Y-111934474D01*
X196770811Y-111819556D01*
X196574688Y-111705692D01*
X196381046Y-111598402D01*
X196199311Y-111503203D01*
X196262790Y-112008284D01*
X196316720Y-112654099D01*
X196361720Y-113392623D01*
X196398410Y-114175825D01*
X196449342Y-115684157D01*
X196474478Y-116794870D01*
X196494321Y-118406099D01*
X196492337Y-120139864D01*
X196478508Y-120926038D01*
X196453642Y-121590855D01*
X196415877Y-122083652D01*
X196391576Y-122249710D01*
X196363353Y-122353765D01*
X196361244Y-122359718D01*
X196358888Y-122365671D01*
X196356283Y-122371625D01*
X196353431Y-122377578D01*
X196350330Y-122383531D01*
X196346982Y-122389484D01*
X196343385Y-122395437D01*
X196339540Y-122401390D01*
X196280239Y-122487071D01*
X196198505Y-122580077D01*
X196095718Y-122679920D01*
X195973257Y-122786111D01*
X195832504Y-122898162D01*
X195674836Y-123015585D01*
X195314280Y-123264594D01*
X194902625Y-123529229D01*
X194450911Y-123805584D01*
X193970176Y-124089752D01*
X193471457Y-124377828D01*
X193156603Y-124560390D01*
X193146795Y-124566111D01*
X193137172Y-124571428D01*
X193127674Y-124576436D01*
X193118238Y-124581227D01*
X193079874Y-124600078D01*
X192577003Y-124600078D01*
X192569228Y-124594786D01*
X192548616Y-124579500D01*
X192529414Y-124562975D01*
X192511573Y-124545303D01*
X192495046Y-124526579D01*
X192479784Y-124506895D01*
X192465740Y-124486345D01*
X192452865Y-124465024D01*
X192441111Y-124443023D01*
X192430432Y-124420438D01*
X192420777Y-124397360D01*
X192412101Y-124373884D01*
X192404354Y-124350104D01*
X192391457Y-124302003D01*
X192381704Y-124253805D01*
X192374710Y-124206258D01*
X192370093Y-124160110D01*
X192367467Y-124116110D01*
X192366449Y-124075004D01*
X192367705Y-124004471D01*
X192370790Y-123954495D01*
X192219978Y-118792474D01*
X192208180Y-118315614D01*
X192197562Y-117867678D01*
X192188077Y-117447748D01*
X192179680Y-117054906D01*
X192172326Y-116688232D01*
X192165969Y-116346810D01*
X192160564Y-116029718D01*
X192156064Y-115736041D01*
X192152425Y-115464858D01*
X192149601Y-115215251D01*
X192147546Y-114986302D01*
X192146215Y-114777091D01*
X192145989Y-114711153D01*
X192423500Y-114711153D01*
X192464386Y-117364717D01*
X192648602Y-123954495D01*
X192648602Y-123973016D01*
X192646529Y-123998662D01*
X192645285Y-124025762D01*
X192644893Y-124053970D01*
X192645378Y-124082942D01*
X192646761Y-124112333D01*
X192649067Y-124141797D01*
X192652319Y-124170989D01*
X192656540Y-124199566D01*
X192661753Y-124227181D01*
X192667981Y-124253490D01*
X192675248Y-124278148D01*
X192683577Y-124300810D01*
X192692991Y-124321131D01*
X192698112Y-124330306D01*
X192703514Y-124338766D01*
X192709198Y-124346469D01*
X192715168Y-124353371D01*
X192721427Y-124359429D01*
X192727977Y-124364600D01*
X192727978Y-124367247D01*
X192733057Y-124371215D01*
X192738354Y-124375184D01*
X192743837Y-124379152D01*
X192749475Y-124383121D01*
X192761092Y-124391059D01*
X192772957Y-124398997D01*
X192787375Y-124397815D01*
X192801859Y-124396242D01*
X192816413Y-124394258D01*
X192831041Y-124391844D01*
X192845746Y-124388981D01*
X192860533Y-124385648D01*
X192875405Y-124381827D01*
X192890366Y-124377499D01*
X192905420Y-124372643D01*
X192920570Y-124367241D01*
X192935822Y-124361273D01*
X192951178Y-124354719D01*
X192966643Y-124347562D01*
X192982220Y-124339780D01*
X192997914Y-124331355D01*
X193013728Y-124322267D01*
X193148004Y-124243553D01*
X193234737Y-124193530D01*
X193333873Y-124137059D01*
X194014183Y-123741382D01*
X194448410Y-123481051D01*
X194896899Y-123202086D01*
X195323312Y-122921757D01*
X195516885Y-122786478D01*
X195691311Y-122657334D01*
X195842048Y-122536484D01*
X195964555Y-122426087D01*
X196054289Y-122328302D01*
X196085446Y-122284813D01*
X196106707Y-122245287D01*
X196138022Y-122079287D01*
X196165742Y-121741793D01*
X196188748Y-121244371D01*
X196205925Y-120598586D01*
X196218327Y-118908188D01*
X196194019Y-116763120D01*
X196168031Y-115630151D01*
X196136431Y-114629794D01*
X196100304Y-113761211D01*
X196060735Y-113023566D01*
X196018810Y-112416022D01*
X195975614Y-111937741D01*
X195932231Y-111587886D01*
X195910810Y-111460857D01*
X195889748Y-111365621D01*
X195879082Y-111362546D01*
X195868912Y-111359378D01*
X195850061Y-111353384D01*
X195841379Y-111350867D01*
X195837224Y-111349797D01*
X195833193Y-111348878D01*
X195829287Y-111348129D01*
X195825504Y-111347570D01*
X195821845Y-111347221D01*
X195818311Y-111347100D01*
X195745075Y-111379279D01*
X195623346Y-111440821D01*
X195250779Y-111644426D01*
X194733354Y-111942785D01*
X194103811Y-112320767D01*
X193891502Y-112451121D01*
X193696673Y-112572457D01*
X193518695Y-112684995D01*
X193356941Y-112788955D01*
X193210784Y-112884560D01*
X193079594Y-112972029D01*
X192962745Y-113051585D01*
X192859607Y-113123446D01*
X192769555Y-113187836D01*
X192691959Y-113244974D01*
X192626192Y-113295081D01*
X192571625Y-113338379D01*
X192527632Y-113375088D01*
X192493583Y-113405429D01*
X192468852Y-113429623D01*
X192452811Y-113447892D01*
X192427691Y-113860605D01*
X192423500Y-114711153D01*
X192145989Y-114711153D01*
X192145562Y-114586702D01*
X192145542Y-114414214D01*
X192146109Y-114258710D01*
X192147217Y-114119271D01*
X192148822Y-113994978D01*
X192150877Y-113884913D01*
X192153338Y-113788158D01*
X192156157Y-113703793D01*
X192159291Y-113630900D01*
X192162693Y-113568561D01*
X192166318Y-113515856D01*
X192170120Y-113471869D01*
X192174054Y-113435679D01*
X192178075Y-113406369D01*
X192182136Y-113383020D01*
X192186192Y-113364713D01*
X192190197Y-113350529D01*
X192194107Y-113339551D01*
X192201457Y-113323537D01*
X192223313Y-113289774D01*
X192257118Y-113250007D01*
X192302852Y-113204248D01*
X192360496Y-113152509D01*
X192511438Y-113031136D01*
X192709787Y-112885982D01*
X192955390Y-112717140D01*
X193248091Y-112524702D01*
X193587734Y-112308762D01*
X193974165Y-112069412D01*
X194805618Y-111574641D01*
X195122467Y-111392813D01*
X195414077Y-111232254D01*
X195646032Y-111115227D01*
X195728884Y-111079996D01*
X195783915Y-111063995D01*
X195818816Y-111062769D01*
X195860592Y-111067706D01*
G37*
G36*
X187196519Y-76835186D02*
G01*
X187207952Y-76835739D01*
X187219058Y-76836657D01*
X187229831Y-76837936D01*
X187240264Y-76839571D01*
X187250347Y-76841558D01*
X187260074Y-76843895D01*
X187269436Y-76846576D01*
X187278427Y-76849599D01*
X187287037Y-76852958D01*
X187295260Y-76856651D01*
X187303088Y-76860674D01*
X187310513Y-76865022D01*
X187317526Y-76869691D01*
X187324122Y-76874678D01*
X187330290Y-76879980D01*
X187336058Y-76885964D01*
X187341453Y-76892015D01*
X187346475Y-76898135D01*
X187351126Y-76904329D01*
X187355405Y-76910601D01*
X187359312Y-76916954D01*
X187362846Y-76923392D01*
X187366009Y-76929920D01*
X187368799Y-76936540D01*
X187371218Y-76943257D01*
X187373264Y-76950076D01*
X187374939Y-76956998D01*
X187376241Y-76964030D01*
X187377171Y-76971173D01*
X187377729Y-76978433D01*
X187377915Y-76985814D01*
X187377698Y-76994185D01*
X187377047Y-77002432D01*
X187375962Y-77010556D01*
X187374443Y-77018555D01*
X187372489Y-77026431D01*
X187370102Y-77034182D01*
X187367280Y-77041810D01*
X187364025Y-77049313D01*
X187360335Y-77056692D01*
X187356211Y-77063948D01*
X187351653Y-77071079D01*
X187346662Y-77078087D01*
X187341236Y-77084970D01*
X187335376Y-77091729D01*
X187329081Y-77098365D01*
X187322353Y-77104876D01*
X187315222Y-77111139D01*
X187307718Y-77117025D01*
X187299843Y-77122532D01*
X187291595Y-77127655D01*
X187282976Y-77132391D01*
X187273984Y-77136735D01*
X187264620Y-77140683D01*
X187254884Y-77144233D01*
X187244777Y-77147379D01*
X187234297Y-77150119D01*
X187223445Y-77152447D01*
X187212220Y-77154361D01*
X187200624Y-77155857D01*
X187188656Y-77156930D01*
X187176316Y-77157576D01*
X187163603Y-77157793D01*
X187163604Y-77160437D01*
X187157248Y-77160344D01*
X187151073Y-77160065D01*
X187145076Y-77159600D01*
X187139254Y-77158949D01*
X187133603Y-77158112D01*
X187128118Y-77157088D01*
X187122796Y-77155879D01*
X187117633Y-77154484D01*
X187112625Y-77152903D01*
X187107768Y-77151135D01*
X187103058Y-77149182D01*
X187098492Y-77147043D01*
X187094065Y-77144717D01*
X187089774Y-77142206D01*
X187085615Y-77139508D01*
X187081584Y-77136625D01*
X187077677Y-77133587D01*
X187073894Y-77130429D01*
X187070235Y-77127154D01*
X187066700Y-77123767D01*
X187063290Y-77120272D01*
X187060003Y-77116672D01*
X187056841Y-77112972D01*
X187053802Y-77109174D01*
X187050887Y-77105283D01*
X187048097Y-77101304D01*
X187045430Y-77097239D01*
X187042888Y-77093093D01*
X187040470Y-77088869D01*
X187038175Y-77084571D01*
X187036005Y-77080204D01*
X187033958Y-77075771D01*
X187032036Y-77071305D01*
X187030238Y-77066836D01*
X187028563Y-77062359D01*
X187027013Y-77057870D01*
X187025587Y-77053365D01*
X187024285Y-77048842D01*
X187023106Y-77044295D01*
X187022052Y-77039721D01*
X187021122Y-77035116D01*
X187020316Y-77030476D01*
X187019634Y-77025797D01*
X187019075Y-77021076D01*
X187018641Y-77016308D01*
X187018331Y-77011490D01*
X187018145Y-77006618D01*
X187018083Y-77001687D01*
X187018269Y-76993346D01*
X187018822Y-76985182D01*
X187019740Y-76977189D01*
X187021018Y-76969359D01*
X187022653Y-76961684D01*
X187024641Y-76954156D01*
X187026977Y-76946767D01*
X187029659Y-76939511D01*
X187032681Y-76932378D01*
X187036041Y-76925362D01*
X187039733Y-76918454D01*
X187043756Y-76911647D01*
X187048103Y-76904933D01*
X187052773Y-76898304D01*
X187057760Y-76891753D01*
X187063061Y-76885272D01*
X187068672Y-76879475D01*
X187074585Y-76873996D01*
X187080793Y-76868842D01*
X187087287Y-76864022D01*
X187094061Y-76859543D01*
X187101106Y-76855413D01*
X187108414Y-76851639D01*
X187115978Y-76848230D01*
X187123790Y-76845193D01*
X187131843Y-76842535D01*
X187140128Y-76840265D01*
X187148638Y-76838391D01*
X187157364Y-76836919D01*
X187166300Y-76835858D01*
X187175438Y-76835216D01*
X187184769Y-76835000D01*
X187196519Y-76835186D01*
G37*
G36*
X180673375Y-75988332D02*
G01*
X180665437Y-76072998D01*
X180661469Y-76111652D01*
X180657500Y-76148074D01*
X180653531Y-76182015D01*
X180649562Y-76213228D01*
X180628396Y-76416957D01*
X180620789Y-76501954D01*
X180617606Y-76539368D01*
X180615166Y-76573060D01*
X180614061Y-76588806D01*
X180612769Y-76604273D01*
X180609875Y-76634246D01*
X180606981Y-76662730D01*
X180604583Y-76689477D01*
X180603472Y-76703378D01*
X180602144Y-76717341D01*
X180598961Y-76745701D01*
X180591354Y-76805893D01*
X180620458Y-76805893D01*
X180808312Y-75916893D01*
X180900917Y-75911602D01*
X180988229Y-75911602D01*
X180999722Y-75911560D01*
X181005251Y-75911462D01*
X181010719Y-75911271D01*
X181016186Y-75910956D01*
X181021715Y-75910485D01*
X181027369Y-75909829D01*
X181033208Y-75908956D01*
X181043130Y-75908914D01*
X181048091Y-75908816D01*
X181053052Y-75908625D01*
X181058013Y-75908310D01*
X181062974Y-75907839D01*
X181067935Y-75907183D01*
X181070415Y-75906775D01*
X181072895Y-75906310D01*
X181057021Y-75957366D01*
X181041146Y-76011151D01*
X181025270Y-76067416D01*
X181009396Y-76125914D01*
X180977315Y-76250929D01*
X180960654Y-76314925D01*
X180943250Y-76379914D01*
X180926961Y-76444943D01*
X180910177Y-76509229D01*
X180893392Y-76573018D01*
X180877104Y-76636559D01*
X180863627Y-76690220D01*
X180850646Y-76744377D01*
X180824187Y-76856163D01*
X180810338Y-76911767D01*
X180796737Y-76967620D01*
X180783632Y-77023967D01*
X180771271Y-77081059D01*
X180337354Y-77147205D01*
X180337354Y-77139270D01*
X180348930Y-77021861D01*
X180354098Y-76964025D01*
X180358521Y-76906436D01*
X180377042Y-76678894D01*
X180386054Y-76577733D01*
X180393578Y-76476819D01*
X180406146Y-76276728D01*
X180411190Y-76179411D01*
X180414745Y-76085567D01*
X180419375Y-75906311D01*
X180484859Y-75905774D01*
X180550344Y-75903996D01*
X180583086Y-75902565D01*
X180615828Y-75900730D01*
X180648570Y-75898461D01*
X180681312Y-75895728D01*
X180673375Y-75988332D01*
G37*
G36*
X195516159Y-112540629D02*
G01*
X195521790Y-112541335D01*
X195527352Y-112542437D01*
X195532821Y-112543943D01*
X195538173Y-112545858D01*
X195543386Y-112548193D01*
X195548436Y-112550954D01*
X195553767Y-112553617D01*
X195558839Y-112556633D01*
X195563639Y-112559982D01*
X195568156Y-112563646D01*
X195572379Y-112567603D01*
X195576295Y-112571836D01*
X195579894Y-112576325D01*
X195583163Y-112581050D01*
X195586091Y-112585992D01*
X195588666Y-112591132D01*
X195590877Y-112596450D01*
X195592713Y-112601927D01*
X195594160Y-112607544D01*
X195595209Y-112613281D01*
X195595846Y-112619118D01*
X195596061Y-112625037D01*
X195670145Y-114506224D01*
X195670549Y-114509230D01*
X195670775Y-114512286D01*
X195670830Y-114515381D01*
X195670723Y-114518503D01*
X195670461Y-114521640D01*
X195670051Y-114524782D01*
X195669502Y-114527915D01*
X195668822Y-114531029D01*
X195668017Y-114534113D01*
X195667096Y-114537153D01*
X195666066Y-114540139D01*
X195664935Y-114543060D01*
X195663712Y-114545902D01*
X195662403Y-114548656D01*
X195661017Y-114551309D01*
X195659561Y-114553850D01*
X195658772Y-114555105D01*
X195657897Y-114556386D01*
X195655918Y-114559012D01*
X195653683Y-114561692D01*
X195651251Y-114564392D01*
X195648680Y-114567076D01*
X195646027Y-114569709D01*
X195643351Y-114572257D01*
X195640709Y-114574686D01*
X195635764Y-114579042D01*
X195631656Y-114582499D01*
X195627811Y-114585600D01*
X192934352Y-116183683D01*
X192931707Y-116183683D01*
X192926657Y-116186037D01*
X192921444Y-116188132D01*
X192916092Y-116189956D01*
X192910623Y-116191496D01*
X192905062Y-116192742D01*
X192899430Y-116193682D01*
X192893752Y-116194304D01*
X192888051Y-116194597D01*
X192882350Y-116194548D01*
X192876672Y-116194147D01*
X192871040Y-116193382D01*
X192865479Y-116192240D01*
X192860010Y-116190711D01*
X192854658Y-116188783D01*
X192849445Y-116186444D01*
X192844395Y-116183683D01*
X192839529Y-116180583D01*
X192834866Y-116177244D01*
X192830419Y-116173672D01*
X192826205Y-116169875D01*
X192822238Y-116165861D01*
X192818536Y-116161637D01*
X192815112Y-116157213D01*
X192811983Y-116152594D01*
X192809164Y-116147790D01*
X192806671Y-116142807D01*
X192804519Y-116137653D01*
X192802723Y-116132337D01*
X192801299Y-116126866D01*
X192800263Y-116121247D01*
X192799630Y-116115489D01*
X192799416Y-116109599D01*
X192735015Y-114352766D01*
X192913186Y-114352766D01*
X192915831Y-114355412D01*
X192974040Y-115958787D01*
X192987269Y-115950849D01*
X192966429Y-114432141D01*
X193066644Y-114432141D01*
X193087811Y-115884703D01*
X195432019Y-114495641D01*
X195394978Y-112918725D01*
X193066644Y-114432141D01*
X192966429Y-114432141D01*
X192966102Y-114408329D01*
X192966195Y-114404888D01*
X192966474Y-114401512D01*
X192966939Y-114398207D01*
X192967591Y-114394975D01*
X192968428Y-114391821D01*
X192969451Y-114388748D01*
X192970660Y-114385761D01*
X192972055Y-114382862D01*
X192973637Y-114380057D01*
X192975404Y-114377348D01*
X192977357Y-114374741D01*
X192979497Y-114372238D01*
X192981822Y-114369843D01*
X192984334Y-114367561D01*
X192987031Y-114365395D01*
X192989915Y-114363349D01*
X195103936Y-112987516D01*
X192913186Y-114352766D01*
X192735015Y-114352766D01*
X192733270Y-114305141D01*
X192733454Y-114299658D01*
X192734003Y-114294139D01*
X192734909Y-114288613D01*
X192736164Y-114283106D01*
X192737759Y-114277646D01*
X192739688Y-114272260D01*
X192741942Y-114266974D01*
X192744514Y-114261816D01*
X192747397Y-114256813D01*
X192750581Y-114251992D01*
X192754060Y-114247381D01*
X192757826Y-114243005D01*
X192759814Y-114240915D01*
X192761871Y-114238894D01*
X192763996Y-114236945D01*
X192766188Y-114235073D01*
X192768445Y-114233280D01*
X192770767Y-114231570D01*
X192773154Y-114229946D01*
X192775603Y-114228412D01*
X195461124Y-112553600D01*
X195466174Y-112550779D01*
X195471386Y-112548277D01*
X195476739Y-112546100D01*
X195482207Y-112544257D01*
X195487769Y-112542754D01*
X195493401Y-112541600D01*
X195499078Y-112540803D01*
X195504780Y-112540370D01*
X195510481Y-112540310D01*
X195516159Y-112540629D01*
G37*
G36*
X186877565Y-75890655D02*
G01*
X186887615Y-75891306D01*
X186897426Y-75892391D01*
X186906999Y-75893910D01*
X186916340Y-75895863D01*
X186925453Y-75898251D01*
X186934341Y-75901072D01*
X186943008Y-75904328D01*
X186951457Y-75908018D01*
X186959694Y-75912141D01*
X186967721Y-75916699D01*
X186975543Y-75921691D01*
X186983163Y-75927117D01*
X186990586Y-75932977D01*
X186997815Y-75939271D01*
X187004854Y-75946000D01*
X187011239Y-75953070D01*
X187017489Y-75960391D01*
X187023591Y-75967969D01*
X187029535Y-75975807D01*
X187035308Y-75983907D01*
X187040898Y-75992276D01*
X187046295Y-76000915D01*
X187051487Y-76009830D01*
X187056462Y-76019024D01*
X187061207Y-76028501D01*
X187065713Y-76038265D01*
X187069967Y-76048319D01*
X187073957Y-76058668D01*
X187077671Y-76069315D01*
X187081100Y-76080265D01*
X187084229Y-76091521D01*
X187087578Y-76103024D01*
X187090683Y-76114713D01*
X187093548Y-76126588D01*
X187096176Y-76138650D01*
X187100739Y-76163330D01*
X187104403Y-76188755D01*
X187107199Y-76214924D01*
X187109157Y-76241837D01*
X187110310Y-76269494D01*
X187110687Y-76297896D01*
X187110186Y-76332736D01*
X187108661Y-76367762D01*
X187106082Y-76402912D01*
X187102418Y-76438125D01*
X187097638Y-76473337D01*
X187091711Y-76508487D01*
X187084605Y-76543513D01*
X187076291Y-76578353D01*
X187066979Y-76612945D01*
X187056861Y-76647228D01*
X187045874Y-76681138D01*
X187033958Y-76714614D01*
X187021049Y-76747594D01*
X187007086Y-76780016D01*
X186992006Y-76811817D01*
X186975749Y-76842937D01*
X186967191Y-76858130D01*
X186958385Y-76872951D01*
X186949332Y-76887399D01*
X186940030Y-76901476D01*
X186930480Y-76915181D01*
X186920682Y-76928513D01*
X186910636Y-76941474D01*
X186900342Y-76954062D01*
X186889800Y-76966278D01*
X186879010Y-76978123D01*
X186867972Y-76989595D01*
X186856686Y-77000695D01*
X186845152Y-77011423D01*
X186833369Y-77021779D01*
X186821339Y-77031763D01*
X186809061Y-77041375D01*
X186796565Y-77050521D01*
X186783884Y-77059105D01*
X186771017Y-77067123D01*
X186757963Y-77074571D01*
X186744724Y-77081446D01*
X186731298Y-77087743D01*
X186717687Y-77093460D01*
X186703889Y-77098590D01*
X186689906Y-77103132D01*
X186675736Y-77107081D01*
X186661380Y-77110433D01*
X186646838Y-77113184D01*
X186632111Y-77115330D01*
X186617197Y-77116868D01*
X186602097Y-77117794D01*
X186586811Y-77118103D01*
X186584166Y-77120749D01*
X186571423Y-77120562D01*
X186558990Y-77120000D01*
X186546866Y-77119057D01*
X186535053Y-77117731D01*
X186523550Y-77116017D01*
X186512357Y-77113912D01*
X186501474Y-77111412D01*
X186490901Y-77108512D01*
X186480638Y-77105209D01*
X186470685Y-77101500D01*
X186461042Y-77097379D01*
X186451709Y-77092844D01*
X186442686Y-77087890D01*
X186433973Y-77082514D01*
X186425571Y-77076712D01*
X186417478Y-77070479D01*
X186409666Y-77064371D01*
X186402105Y-77057958D01*
X186394800Y-77051242D01*
X186387754Y-77044227D01*
X186380973Y-77036918D01*
X186374458Y-77029319D01*
X186368215Y-77021432D01*
X186362247Y-77013263D01*
X186356558Y-77004814D01*
X186351152Y-76996090D01*
X186346033Y-76987095D01*
X186341205Y-76977833D01*
X186336671Y-76968307D01*
X186332435Y-76958522D01*
X186328502Y-76948480D01*
X186324875Y-76938187D01*
X186318307Y-76917103D01*
X186312514Y-76895523D01*
X186307527Y-76873447D01*
X186303377Y-76850875D01*
X186301626Y-76839403D01*
X186300096Y-76827807D01*
X186298790Y-76816087D01*
X186297713Y-76804242D01*
X186296869Y-76792274D01*
X186296261Y-76780182D01*
X186295894Y-76767966D01*
X186295770Y-76755625D01*
X186296396Y-76723389D01*
X186297427Y-76705353D01*
X186549772Y-76705353D01*
X186549864Y-76713168D01*
X186550139Y-76720743D01*
X186550592Y-76728084D01*
X186551219Y-76735202D01*
X186552017Y-76742102D01*
X186552981Y-76748793D01*
X186554108Y-76755282D01*
X186555394Y-76761577D01*
X186556836Y-76767687D01*
X186558428Y-76773618D01*
X186560168Y-76779379D01*
X186562051Y-76784976D01*
X186564073Y-76790419D01*
X186566232Y-76795715D01*
X186568522Y-76800871D01*
X186570940Y-76805895D01*
X186572211Y-76808337D01*
X186573543Y-76810701D01*
X186574935Y-76812988D01*
X186576386Y-76815197D01*
X186577896Y-76817329D01*
X186579462Y-76819383D01*
X186581085Y-76821359D01*
X186582763Y-76823258D01*
X186584495Y-76825080D01*
X186586281Y-76826824D01*
X186588119Y-76828491D01*
X186590008Y-76830080D01*
X186591948Y-76831591D01*
X186593937Y-76833025D01*
X186595974Y-76834382D01*
X186598059Y-76835661D01*
X186600191Y-76836863D01*
X186602368Y-76837987D01*
X186604589Y-76839033D01*
X186606855Y-76840002D01*
X186609163Y-76840893D01*
X186611512Y-76841707D01*
X186613902Y-76842444D01*
X186616332Y-76843103D01*
X186618801Y-76843684D01*
X186621307Y-76844188D01*
X186623851Y-76844614D01*
X186626430Y-76844963D01*
X186629044Y-76845235D01*
X186631692Y-76845428D01*
X186637086Y-76845583D01*
X186634438Y-76840291D01*
X186642314Y-76840136D01*
X186650070Y-76839671D01*
X186657710Y-76838896D01*
X186665237Y-76837811D01*
X186672656Y-76836416D01*
X186679970Y-76834711D01*
X186687183Y-76832695D01*
X186694300Y-76830370D01*
X186701323Y-76827734D01*
X186708257Y-76824789D01*
X186715107Y-76821533D01*
X186721874Y-76817967D01*
X186728564Y-76814091D01*
X186735181Y-76809906D01*
X186741728Y-76805409D01*
X186748209Y-76800603D01*
X186754596Y-76795520D01*
X186760859Y-76790196D01*
X186766998Y-76784639D01*
X186773014Y-76778858D01*
X186778905Y-76772860D01*
X186784672Y-76766652D01*
X186790315Y-76760243D01*
X186795834Y-76753640D01*
X186801229Y-76746851D01*
X186806500Y-76739884D01*
X186811647Y-76732746D01*
X186816670Y-76725445D01*
X186821569Y-76717990D01*
X186826344Y-76710387D01*
X186830995Y-76702644D01*
X186835521Y-76694770D01*
X186844203Y-76678657D01*
X186852389Y-76662111D01*
X186860078Y-76645192D01*
X186867272Y-76627963D01*
X186873969Y-76610486D01*
X186880170Y-76592822D01*
X186885875Y-76575035D01*
X186891084Y-76557187D01*
X186895792Y-76538578D01*
X186899972Y-76520435D01*
X186903595Y-76502725D01*
X186906628Y-76485419D01*
X186909042Y-76468484D01*
X186910804Y-76451891D01*
X186911884Y-76435607D01*
X186912251Y-76419603D01*
X186912128Y-76410737D01*
X186911765Y-76402002D01*
X186911170Y-76393407D01*
X186910349Y-76384959D01*
X186909312Y-76376666D01*
X186908065Y-76368536D01*
X186906617Y-76360577D01*
X186904975Y-76352796D01*
X186903147Y-76345201D01*
X186901141Y-76337799D01*
X186898964Y-76330600D01*
X186896624Y-76323609D01*
X186894130Y-76316836D01*
X186891488Y-76310287D01*
X186888706Y-76303971D01*
X186885793Y-76297895D01*
X186884259Y-76294957D01*
X186882633Y-76292098D01*
X186880917Y-76289318D01*
X186879112Y-76286619D01*
X186877220Y-76284001D01*
X186875242Y-76281466D01*
X186873180Y-76279014D01*
X186871035Y-76276646D01*
X186868808Y-76274363D01*
X186866502Y-76272167D01*
X186864117Y-76270057D01*
X186861655Y-76268036D01*
X186859118Y-76266104D01*
X186856506Y-76264263D01*
X186853822Y-76262512D01*
X186851067Y-76260853D01*
X186848241Y-76259288D01*
X186845348Y-76257816D01*
X186842388Y-76256439D01*
X186839362Y-76255158D01*
X186836272Y-76253975D01*
X186833120Y-76252889D01*
X186829907Y-76251901D01*
X186826634Y-76251014D01*
X186823303Y-76250227D01*
X186819915Y-76249542D01*
X186816472Y-76248960D01*
X186812976Y-76248482D01*
X186809427Y-76248108D01*
X186805827Y-76247840D01*
X186802178Y-76247678D01*
X186798481Y-76247624D01*
X186792528Y-76247809D01*
X186786580Y-76248363D01*
X186780639Y-76249281D01*
X186774710Y-76250559D01*
X186768796Y-76252194D01*
X186762902Y-76254182D01*
X186757030Y-76256518D01*
X186751186Y-76259199D01*
X186745373Y-76262222D01*
X186739595Y-76265581D01*
X186733856Y-76269274D01*
X186728159Y-76273297D01*
X186722509Y-76277645D01*
X186716910Y-76282314D01*
X186711364Y-76287302D01*
X186705877Y-76292603D01*
X186694978Y-76304768D01*
X186684172Y-76317491D01*
X186678833Y-76324081D01*
X186673553Y-76330834D01*
X186668342Y-76337757D01*
X186663212Y-76344859D01*
X186658176Y-76352146D01*
X186653244Y-76359628D01*
X186648428Y-76367311D01*
X186643741Y-76375203D01*
X186639192Y-76383312D01*
X186634796Y-76391646D01*
X186630561Y-76400213D01*
X186626502Y-76409020D01*
X186610751Y-76445235D01*
X186603108Y-76463715D01*
X186595744Y-76482442D01*
X186588752Y-76501418D01*
X186582226Y-76520642D01*
X186576257Y-76540113D01*
X186570940Y-76559833D01*
X186566232Y-76579434D01*
X186562051Y-76598570D01*
X186558428Y-76617271D01*
X186555395Y-76635570D01*
X186552981Y-76653497D01*
X186551219Y-76671082D01*
X186550139Y-76688357D01*
X186549772Y-76705353D01*
X186297427Y-76705353D01*
X186298292Y-76690223D01*
X186301491Y-76656189D01*
X186306023Y-76621349D01*
X186311919Y-76585764D01*
X186319211Y-76549498D01*
X186327929Y-76512611D01*
X186338104Y-76475167D01*
X186349638Y-76437706D01*
X186362413Y-76400711D01*
X186376427Y-76364150D01*
X186391682Y-76327992D01*
X186408177Y-76292206D01*
X186425913Y-76256761D01*
X186444888Y-76221626D01*
X186465104Y-76186771D01*
X186475119Y-76171051D01*
X186485325Y-76155646D01*
X186495724Y-76140558D01*
X186506321Y-76125792D01*
X186517119Y-76111352D01*
X186528123Y-76097241D01*
X186539336Y-76083463D01*
X186550762Y-76070023D01*
X186562406Y-76056924D01*
X186574270Y-76044169D01*
X186586359Y-76031764D01*
X186598677Y-76019711D01*
X186611227Y-76008014D01*
X186624014Y-75996679D01*
X186637041Y-75985707D01*
X186650312Y-75975104D01*
X186663242Y-75964997D01*
X186676238Y-75955513D01*
X186689304Y-75946658D01*
X186702443Y-75938434D01*
X186715660Y-75930846D01*
X186728958Y-75923898D01*
X186742342Y-75917593D01*
X186755815Y-75911935D01*
X186769380Y-75906928D01*
X186783043Y-75902576D01*
X186796806Y-75898883D01*
X186810674Y-75895853D01*
X186824651Y-75893490D01*
X186838740Y-75891797D01*
X186852945Y-75890778D01*
X186867270Y-75890438D01*
X186877565Y-75890655D01*
G37*
G36*
X185954459Y-75273958D02*
G01*
X185954455Y-75271312D01*
X185955022Y-75271166D01*
X185954459Y-75273958D01*
G37*
G36*
X184128905Y-73649757D02*
G01*
X184142011Y-73650776D01*
X184154916Y-73652469D01*
X184167612Y-73654832D01*
X184180091Y-73657862D01*
X184192344Y-73661555D01*
X184204366Y-73665907D01*
X184216147Y-73670914D01*
X184227679Y-73676572D01*
X184238957Y-73682877D01*
X184249970Y-73689825D01*
X184260712Y-73697414D01*
X184271176Y-73705637D01*
X184281352Y-73714493D01*
X184291234Y-73723976D01*
X184300813Y-73734083D01*
X184309959Y-73744748D01*
X184318543Y-73755906D01*
X184326562Y-73767552D01*
X184334010Y-73779682D01*
X184340885Y-73792293D01*
X184347183Y-73805381D01*
X184352899Y-73818941D01*
X184358029Y-73832971D01*
X184362571Y-73847465D01*
X184366520Y-73862421D01*
X184369872Y-73877834D01*
X184372623Y-73893701D01*
X184374770Y-73910017D01*
X184376308Y-73926779D01*
X184377233Y-73943983D01*
X184377543Y-73961625D01*
X184377543Y-74019833D01*
X184086501Y-74096562D01*
X184082998Y-74089834D01*
X184079437Y-74083540D01*
X184075821Y-74077680D01*
X184072155Y-74072254D01*
X184068443Y-74067262D01*
X184064688Y-74062704D01*
X184060895Y-74058580D01*
X184057066Y-74054890D01*
X184053207Y-74051635D01*
X184049320Y-74048813D01*
X184045410Y-74046426D01*
X184041481Y-74044473D01*
X184037536Y-74042953D01*
X184033579Y-74041868D01*
X184029615Y-74041217D01*
X184025647Y-74041000D01*
X184022407Y-74041085D01*
X184019138Y-74041341D01*
X184015840Y-74041767D01*
X184012516Y-74042364D01*
X184009167Y-74043132D01*
X184005793Y-74044069D01*
X184002398Y-74045178D01*
X183998982Y-74046457D01*
X183995546Y-74047907D01*
X183992093Y-74049527D01*
X183985138Y-74053278D01*
X183978128Y-74057712D01*
X183971076Y-74062828D01*
X183963993Y-74068626D01*
X183956891Y-74075107D01*
X183949781Y-74082269D01*
X183942675Y-74090113D01*
X183935584Y-74098640D01*
X183928521Y-74107849D01*
X183921496Y-74117740D01*
X183914522Y-74128313D01*
X183899763Y-74150637D01*
X183885252Y-74173953D01*
X183870990Y-74198262D01*
X183856975Y-74223562D01*
X183843208Y-74249855D01*
X183829690Y-74277141D01*
X183816419Y-74305418D01*
X183803397Y-74334688D01*
X183794591Y-74354650D01*
X183786033Y-74374830D01*
X183777724Y-74395196D01*
X183769662Y-74415716D01*
X183761849Y-74436361D01*
X183754284Y-74457099D01*
X183746966Y-74477899D01*
X183739897Y-74498730D01*
X183733195Y-74519441D01*
X183726957Y-74539905D01*
X183721154Y-74560121D01*
X183715754Y-74580089D01*
X183710725Y-74599809D01*
X183706038Y-74619280D01*
X183701661Y-74638504D01*
X183697563Y-74657480D01*
X183693843Y-74675835D01*
X183690618Y-74693199D01*
X183687890Y-74709570D01*
X183685657Y-74724948D01*
X183683921Y-74739335D01*
X183682681Y-74752730D01*
X183681937Y-74765132D01*
X183681688Y-74776542D01*
X183681947Y-74792908D01*
X183682281Y-74800709D01*
X183682763Y-74808251D01*
X183683400Y-74815529D01*
X183684200Y-74822539D01*
X183685170Y-74829279D01*
X183686319Y-74835743D01*
X183687653Y-74841928D01*
X183689182Y-74847830D01*
X183690912Y-74853445D01*
X183692851Y-74858770D01*
X183695007Y-74863800D01*
X183697388Y-74868531D01*
X183700001Y-74872961D01*
X183702855Y-74877084D01*
X183704902Y-74880463D01*
X183707072Y-74883652D01*
X183709367Y-74886647D01*
X183711785Y-74889445D01*
X183714327Y-74892041D01*
X183715645Y-74893262D01*
X183716994Y-74894432D01*
X183718374Y-74895549D01*
X183719784Y-74896613D01*
X183721226Y-74897624D01*
X183722699Y-74898581D01*
X183724203Y-74899484D01*
X183725738Y-74900332D01*
X183727303Y-74901125D01*
X183728900Y-74901863D01*
X183730528Y-74902544D01*
X183732187Y-74903168D01*
X183733877Y-74903735D01*
X183735597Y-74904245D01*
X183737349Y-74904696D01*
X183739132Y-74905089D01*
X183740946Y-74905423D01*
X183742791Y-74905697D01*
X183744667Y-74905911D01*
X183746574Y-74906065D01*
X183748511Y-74906157D01*
X183750480Y-74906188D01*
X183754510Y-74906064D01*
X183758656Y-74905692D01*
X183762910Y-74905072D01*
X183767265Y-74904204D01*
X183771713Y-74903087D01*
X183776246Y-74901723D01*
X183780857Y-74900111D01*
X183785538Y-74898250D01*
X183790280Y-74896142D01*
X183795077Y-74893786D01*
X183799921Y-74891181D01*
X183804803Y-74888328D01*
X183809716Y-74885228D01*
X183814652Y-74881879D01*
X183819604Y-74878283D01*
X183824564Y-74874438D01*
X183829494Y-74870406D01*
X183834367Y-74866247D01*
X183839185Y-74861956D01*
X183843953Y-74857529D01*
X183848674Y-74852963D01*
X183853353Y-74848253D01*
X183857993Y-74843397D01*
X183862598Y-74838388D01*
X183867172Y-74833225D01*
X183871719Y-74827903D01*
X183876242Y-74822418D01*
X183880747Y-74816767D01*
X183885235Y-74810945D01*
X183889713Y-74804949D01*
X183894182Y-74798774D01*
X183898647Y-74792417D01*
X183902990Y-74785998D01*
X183907091Y-74779638D01*
X183910961Y-74773331D01*
X183914605Y-74767075D01*
X183918033Y-74760866D01*
X183921251Y-74754699D01*
X183924267Y-74748571D01*
X183927090Y-74742477D01*
X183929727Y-74736415D01*
X183932185Y-74730380D01*
X183934473Y-74724368D01*
X183936599Y-74718375D01*
X183938569Y-74712398D01*
X183940392Y-74706433D01*
X183943627Y-74694521D01*
X184197626Y-74797708D01*
X184184046Y-74828435D01*
X184170098Y-74858108D01*
X184155786Y-74886726D01*
X184141113Y-74914291D01*
X184126084Y-74940801D01*
X184110701Y-74966256D01*
X184094970Y-74990658D01*
X184078895Y-75014005D01*
X184062478Y-75036299D01*
X184045723Y-75057538D01*
X184028636Y-75077722D01*
X184011219Y-75096853D01*
X183993477Y-75114929D01*
X183975412Y-75131951D01*
X183957031Y-75147919D01*
X183938335Y-75162833D01*
X183919545Y-75176785D01*
X183900880Y-75189865D01*
X183882338Y-75202069D01*
X183863921Y-75213393D01*
X183845627Y-75223834D01*
X183827458Y-75233387D01*
X183809413Y-75242049D01*
X183791491Y-75249815D01*
X183773694Y-75256682D01*
X183756021Y-75262646D01*
X183738471Y-75267704D01*
X183721046Y-75271850D01*
X183703745Y-75275082D01*
X183686567Y-75277395D01*
X183669514Y-75278786D01*
X183652585Y-75279250D01*
X183647292Y-75276604D01*
X183630115Y-75276107D01*
X183613315Y-75274614D01*
X183596894Y-75272121D01*
X183580857Y-75268625D01*
X183565207Y-75264121D01*
X183549949Y-75258605D01*
X183535086Y-75252074D01*
X183520623Y-75244523D01*
X183506562Y-75235949D01*
X183492909Y-75226348D01*
X183479666Y-75215717D01*
X183466838Y-75204050D01*
X183454429Y-75191345D01*
X183442442Y-75177597D01*
X183430881Y-75162803D01*
X183419750Y-75146958D01*
X183409148Y-75130214D01*
X183399173Y-75112722D01*
X183389834Y-75094479D01*
X183381138Y-75075479D01*
X183373093Y-75055720D01*
X183365707Y-75035197D01*
X183358988Y-75013907D01*
X183352943Y-74991846D01*
X183347580Y-74969009D01*
X183342907Y-74945394D01*
X183338932Y-74920996D01*
X183335662Y-74895810D01*
X183333105Y-74869835D01*
X183331270Y-74843064D01*
X183330163Y-74815496D01*
X183329792Y-74787125D01*
X183330665Y-74734771D01*
X183333306Y-74682821D01*
X183337745Y-74631180D01*
X183344013Y-74579757D01*
X183352142Y-74528458D01*
X183362162Y-74477190D01*
X183374104Y-74425860D01*
X183388000Y-74374375D01*
X183403508Y-74324393D01*
X183420287Y-74275652D01*
X183438369Y-74228151D01*
X183457784Y-74181890D01*
X183478563Y-74136870D01*
X183500738Y-74093090D01*
X183524338Y-74050550D01*
X183549396Y-74009250D01*
X183562450Y-73989158D01*
X183575818Y-73969562D01*
X183589504Y-73950463D01*
X183603512Y-73931859D01*
X183617845Y-73913752D01*
X183632507Y-73896140D01*
X183647503Y-73879025D01*
X183662836Y-73862406D01*
X183678510Y-73846283D01*
X183694529Y-73830656D01*
X183710897Y-73815525D01*
X183727618Y-73800891D01*
X183744695Y-73786752D01*
X183762132Y-73773109D01*
X183779934Y-73759963D01*
X183798104Y-73747313D01*
X183816524Y-73735313D01*
X183835079Y-73724115D01*
X183853781Y-73713716D01*
X183872643Y-73704111D01*
X183891674Y-73695297D01*
X183910888Y-73687270D01*
X183930296Y-73680025D01*
X183949909Y-73673560D01*
X183969739Y-73667870D01*
X183989798Y-73662951D01*
X184010097Y-73658799D01*
X184030648Y-73655411D01*
X184051463Y-73652783D01*
X184072553Y-73650910D01*
X184093930Y-73649789D01*
X184115605Y-73649416D01*
X184128905Y-73649757D01*
G37*
G36*
X185957104Y-70783979D02*
G01*
X185417355Y-70783979D01*
X185311522Y-71395166D01*
X185417355Y-71392520D01*
X185748084Y-71392520D01*
X185763463Y-71392479D01*
X185770781Y-71392381D01*
X185777850Y-71392190D01*
X185784671Y-71391874D01*
X185791244Y-71391404D01*
X185797570Y-71390748D01*
X185803647Y-71389875D01*
X185803409Y-71401781D01*
X185802737Y-71413687D01*
X185801693Y-71425593D01*
X185800339Y-71437500D01*
X185798737Y-71449406D01*
X185796949Y-71461312D01*
X185793063Y-71485125D01*
X185779834Y-71580374D01*
X185748084Y-71765583D01*
X185708355Y-71765500D01*
X185660440Y-71764921D01*
X185633336Y-71764291D01*
X185604092Y-71763350D01*
X185572678Y-71762038D01*
X185539063Y-71760291D01*
X185250667Y-71752353D01*
X185091917Y-72765707D01*
X184975500Y-72786874D01*
X184918284Y-72798780D01*
X184859083Y-72810687D01*
X184834909Y-72814893D01*
X184810053Y-72819534D01*
X184758542Y-72829869D01*
X184650062Y-72853020D01*
X184594499Y-72864885D01*
X184542906Y-72876502D01*
X184451625Y-72897999D01*
X184454271Y-72892708D01*
X184478042Y-72806842D01*
X184501565Y-72715768D01*
X184513156Y-72668200D01*
X184524592Y-72619236D01*
X184535842Y-72568847D01*
X184546875Y-72517000D01*
X184590201Y-72303349D01*
X184611243Y-72194787D01*
X184631542Y-72085729D01*
X184705625Y-71675625D01*
X184737375Y-71502653D01*
X184750274Y-71428942D01*
X184761188Y-71363416D01*
X184780577Y-71247868D01*
X184799222Y-71131575D01*
X184835271Y-70897749D01*
X184906709Y-70418854D01*
X186057646Y-70360645D01*
X185957104Y-70783979D01*
G37*
M02*
